{
  "header": {
	"keySignatures": [],
	"meta": [],
	"name": "",
	"ppq": 480,
	"tempos": [
	  {
		"bpm": 120,
		"ticks": 0
	  }
	],
	"timeSignatures": []
  },
  "tracks": [
	{
	  "channel": 0,
	  "controlChanges": {},
	  "pitchBends": [],
	  "instrument": {
		"family": "piano",
		"number": 4,
		"name": "electric piano 1"
	  },
	  "name": "",
	  "notes": [
		{
		  "duration": 0.15104166666666696,
		  "durationTicks": 145,
		  "midi": 69,
		  "name": "A4",
		  "ticks": 6379,
		  "time": 6.644791666666666,
		  "velocity": 0.47244094488188976
		},
		{
		  "duration": 0.1395833333333334,
		  "durationTicks": 134,
		  "midi": 57,
		  "name": "A3",
		  "ticks": 6379,
		  "time": 6.644791666666666,
		  "velocity": 0.44881889763779526
		},
		{
		  "duration": 0.16250000000000053,
		  "durationTicks": 156,
		  "midi": 50,
		  "name": "D3",
		  "ticks": 6379,
		  "time": 6.644791666666666,
		  "velocity": 0.44881889763779526
		},
		{
		  "duration": 0.16249999999999964,
		  "durationTicks": 156,
		  "midi": 62,
		  "name": "D4",
		  "ticks": 6390,
		  "time": 6.65625,
		  "velocity": 0.5039370078740157
		},
		{
		  "duration": 0.1395833333333334,
		  "durationTicks": 134,
		  "midi": 71,
		  "name": "B4",
		  "ticks": 6702,
		  "time": 6.98125,
		  "velocity": 0.49606299212598426
		},
		{
		  "duration": 0.1395833333333334,
		  "durationTicks": 134,
		  "midi": 52,
		  "name": "E3",
		  "ticks": 6736,
		  "time": 7.016666666666667,
		  "velocity": 0.4645669291338583
		},
		{
		  "duration": 0.1395833333333334,
		  "durationTicks": 134,
		  "midi": 76,
		  "name": "E5",
		  "ticks": 6881,
		  "time": 7.167708333333334,
		  "velocity": 0.4645669291338583
		},
		{
		  "duration": 0.16250000000000053,
		  "durationTicks": 156,
		  "midi": 71,
		  "name": "B4",
		  "ticks": 7070,
		  "time": 7.364583333333333,
		  "velocity": 0.49606299212598426
		},
		{
		  "duration": 0.1395833333333334,
		  "durationTicks": 134,
		  "midi": 52,
		  "name": "E3",
		  "ticks": 7092,
		  "time": 7.3875,
		  "velocity": 0.4566929133858268
		},
		{
		  "duration": 0.23229166666666679,
		  "durationTicks": 223,
		  "midi": 76,
		  "name": "E5",
		  "ticks": 7159,
		  "time": 7.457291666666666,
		  "velocity": 0.5118110236220472
		},
		{
		  "duration": 0.16250000000000053,
		  "durationTicks": 156,
		  "midi": 71,
		  "name": "B4",
		  "ticks": 7416,
		  "time": 7.725,
		  "velocity": 0.47244094488188976
		},
		{
		  "duration": 0.1739583333333341,
		  "durationTicks": 167,
		  "midi": 64,
		  "name": "E4",
		  "ticks": 7416,
		  "time": 7.725,
		  "velocity": 0.4566929133858268
		},
		{
		  "duration": 0.15104166666666696,
		  "durationTicks": 145,
		  "midi": 52,
		  "name": "E3",
		  "ticks": 7416,
		  "time": 7.725,
		  "velocity": 0.5433070866141733
		},
		{
		  "duration": 0.1874999999999991,
		  "durationTicks": 180,
		  "midi": 76,
		  "name": "E5",
		  "ticks": 7538,
		  "time": 7.852083333333334,
		  "velocity": 0.6456692913385826
		},
		{
		  "duration": 0.17395833333333321,
		  "durationTicks": 167,
		  "midi": 71,
		  "name": "B4",
		  "ticks": 7751,
		  "time": 8.073958333333334,
		  "velocity": 0.5118110236220472
		},
		{
		  "duration": 0.16249999999999964,
		  "durationTicks": 156,
		  "midi": 52,
		  "name": "E3",
		  "ticks": 7751,
		  "time": 8.073958333333334,
		  "velocity": 0.5354330708661418
		},
		{
		  "duration": 0.15104166666666607,
		  "durationTicks": 145,
		  "midi": 40,
		  "name": "E2",
		  "ticks": 7751,
		  "time": 8.073958333333334,
		  "velocity": 0.23622047244094488
		},
		{
		  "duration": 0.16249999999999964,
		  "durationTicks": 156,
		  "midi": 64,
		  "name": "E4",
		  "ticks": 7762,
		  "time": 8.085416666666667,
		  "velocity": 0.5039370078740157
		},
		{
		  "duration": 0.20937500000000142,
		  "durationTicks": 201,
		  "midi": 76,
		  "name": "E5",
		  "ticks": 7885,
		  "time": 8.213541666666666,
		  "velocity": 0.5354330708661418
		},
		{
		  "duration": 0.16249999999999964,
		  "durationTicks": 156,
		  "midi": 40,
		  "name": "E2",
		  "ticks": 8074,
		  "time": 8.410416666666666,
		  "velocity": 0.33858267716535434
		},
		{
		  "duration": 0.13958333333333428,
		  "durationTicks": 134,
		  "midi": 76,
		  "name": "E5",
		  "ticks": 8108,
		  "time": 8.445833333333333,
		  "velocity": 0.2125984251968504
		},
		{
		  "duration": 0.15104166666666785,
		  "durationTicks": 145,
		  "midi": 71,
		  "name": "B4",
		  "ticks": 8108,
		  "time": 8.445833333333333,
		  "velocity": 0.5118110236220472
		},
		{
		  "duration": 0.13958333333333428,
		  "durationTicks": 134,
		  "midi": 64,
		  "name": "E4",
		  "ticks": 8108,
		  "time": 8.445833333333333,
		  "velocity": 0.41732283464566927
		},
		{
		  "duration": 0.13958333333333428,
		  "durationTicks": 134,
		  "midi": 52,
		  "name": "E3",
		  "ticks": 8119,
		  "time": 8.457291666666666,
		  "velocity": 0.49606299212598426
		},
		{
		  "duration": 0.18541666666666679,
		  "durationTicks": 178,
		  "midi": 76,
		  "name": "E5",
		  "ticks": 8242,
		  "time": 8.585416666666667,
		  "velocity": 0.5669291338582677
		},
		{
		  "duration": 0.16250000000000142,
		  "durationTicks": 156,
		  "midi": 52,
		  "name": "E3",
		  "ticks": 8442,
		  "time": 8.79375,
		  "velocity": 0.49606299212598426
		},
		{
		  "duration": 0.2552083333333339,
		  "durationTicks": 245,
		  "midi": 74,
		  "name": "D5",
		  "ticks": 8453,
		  "time": 8.805208333333333,
		  "velocity": 0.5748031496062992
		},
		{
		  "duration": 0.15104166666666785,
		  "durationTicks": 145,
		  "midi": 64,
		  "name": "E4",
		  "ticks": 8453,
		  "time": 8.805208333333333,
		  "velocity": 0.3937007874015748
		},
		{
		  "duration": 0.24375000000000036,
		  "durationTicks": 234,
		  "midi": 74,
		  "name": "D5",
		  "ticks": 8788,
		  "time": 9.154166666666667,
		  "velocity": 0.5590551181102362
		},
		{
		  "duration": 0.16249999999999964,
		  "durationTicks": 156,
		  "midi": 64,
		  "name": "E4",
		  "ticks": 8799,
		  "time": 9.165625,
		  "velocity": 0.5669291338582677
		},
		{
		  "duration": 0.25520833333333215,
		  "durationTicks": 245,
		  "midi": 74,
		  "name": "D5",
		  "ticks": 9022,
		  "time": 9.397916666666667,
		  "velocity": 0.48031496062992124
		},
		{
		  "duration": 0.20937499999999964,
		  "durationTicks": 201,
		  "midi": 40,
		  "name": "E2",
		  "ticks": 9122,
		  "time": 9.502083333333333,
		  "velocity": 0.2992125984251969
		},
		{
		  "duration": 0.15104166666666607,
		  "durationTicks": 145,
		  "midi": 64,
		  "name": "E4",
		  "ticks": 9144,
		  "time": 9.525,
		  "velocity": 0.6062992125984252
		},
		{
		  "duration": 0.22083333333333321,
		  "durationTicks": 212,
		  "midi": 74,
		  "name": "D5",
		  "ticks": 9267,
		  "time": 9.653125,
		  "velocity": 0.5905511811023622
		},
		{
		  "duration": 0.140625,
		  "durationTicks": 135,
		  "midi": 69,
		  "name": "A4",
		  "ticks": 9501,
		  "time": 9.896875,
		  "velocity": 0.5826771653543307
		},
		{
		  "duration": 0.140625,
		  "durationTicks": 135,
		  "midi": 64,
		  "name": "E4",
		  "ticks": 9501,
		  "time": 9.896875,
		  "velocity": 0.5118110236220472
		},
		{
		  "duration": 0.15208333333333357,
		  "durationTicks": 146,
		  "midi": 57,
		  "name": "A3",
		  "ticks": 9501,
		  "time": 9.896875,
		  "velocity": 0.5511811023622047
		},
		{
		  "duration": 0.12916666666666643,
		  "durationTicks": 124,
		  "midi": 52,
		  "name": "E3",
		  "ticks": 9501,
		  "time": 9.896875,
		  "velocity": 0.48031496062992124
		},
		{
		  "duration": 0.18541666666666679,
		  "durationTicks": 178,
		  "midi": 74,
		  "name": "D5",
		  "ticks": 9625,
		  "time": 10.026041666666666,
		  "velocity": 0.6377952755905512
		},
		{
		  "duration": 0.20937499999999964,
		  "durationTicks": 201,
		  "midi": 52,
		  "name": "E3",
		  "ticks": 9770,
		  "time": 10.177083333333334,
		  "velocity": 0.4015748031496063
		},
		{
		  "duration": 0.15104166666666785,
		  "durationTicks": 145,
		  "midi": 69,
		  "name": "A4",
		  "ticks": 9837,
		  "time": 10.246875,
		  "velocity": 0.5039370078740157
		},
		{
		  "duration": 0.15104166666666785,
		  "durationTicks": 145,
		  "midi": 64,
		  "name": "E4",
		  "ticks": 9837,
		  "time": 10.246875,
		  "velocity": 0.4094488188976378
		},
		{
		  "duration": 0.13958333333333428,
		  "durationTicks": 134,
		  "midi": 57,
		  "name": "A3",
		  "ticks": 9837,
		  "time": 10.246875,
		  "velocity": 0.5118110236220472
		},
		{
		  "duration": 0.13958333333333428,
		  "durationTicks": 134,
		  "midi": 38,
		  "name": "D2",
		  "ticks": 10026,
		  "time": 10.44375,
		  "velocity": 0.2755905511811024
		},
		{
		  "duration": 0.20937499999999964,
		  "durationTicks": 201,
		  "midi": 74,
		  "name": "D5",
		  "ticks": 10059,
		  "time": 10.478125,
		  "velocity": 0.2755905511811024
		},
		{
		  "duration": 0.16249999999999964,
		  "durationTicks": 156,
		  "midi": 57,
		  "name": "A3",
		  "ticks": 10059,
		  "time": 10.478125,
		  "velocity": 0.4330708661417323
		},
		{
		  "duration": 0.18541666666666679,
		  "durationTicks": 178,
		  "midi": 69,
		  "name": "A4",
		  "ticks": 10071,
		  "time": 10.490625,
		  "velocity": 0.4251968503937008
		},
		{
		  "duration": 0.13958333333333428,
		  "durationTicks": 134,
		  "midi": 62,
		  "name": "D4",
		  "ticks": 10071,
		  "time": 10.490625,
		  "velocity": 0.4881889763779528
		},
		{
		  "duration": 0.13958333333333428,
		  "durationTicks": 134,
		  "midi": 50,
		  "name": "D3",
		  "ticks": 10071,
		  "time": 10.490625,
		  "velocity": 0.4566929133858268
		},
		{
		  "duration": 0.16250000000000142,
		  "durationTicks": 156,
		  "midi": 71,
		  "name": "B4",
		  "ticks": 10405,
		  "time": 10.838541666666666,
		  "velocity": 0.4881889763779528
		},
		{
		  "duration": 0.16250000000000142,
		  "durationTicks": 156,
		  "midi": 64,
		  "name": "E4",
		  "ticks": 10405,
		  "time": 10.838541666666666,
		  "velocity": 0.5433070866141733
		},
		{
		  "duration": 0.15104166666666785,
		  "durationTicks": 145,
		  "midi": 52,
		  "name": "E3",
		  "ticks": 10405,
		  "time": 10.838541666666666,
		  "velocity": 0.48031496062992124
		},
		{
		  "duration": 0.13958333333333428,
		  "durationTicks": 134,
		  "midi": 59,
		  "name": "B3",
		  "ticks": 10416,
		  "time": 10.85,
		  "velocity": 0.5433070866141733
		},
		{
		  "duration": 0.1395833333333325,
		  "durationTicks": 134,
		  "midi": 52,
		  "name": "E3",
		  "ticks": 10751,
		  "time": 11.198958333333334,
		  "velocity": 0.4645669291338583
		},
		{
		  "duration": 0.1395833333333325,
		  "durationTicks": 134,
		  "midi": 71,
		  "name": "B4",
		  "ticks": 10762,
		  "time": 11.210416666666667,
		  "velocity": 0.4881889763779528
		},
		{
		  "duration": 0.16249999999999964,
		  "durationTicks": 156,
		  "midi": 64,
		  "name": "E4",
		  "ticks": 10762,
		  "time": 11.210416666666667,
		  "velocity": 0.5433070866141733
		},
		{
		  "duration": 0.19687500000000036,
		  "durationTicks": 189,
		  "midi": 73,
		  "name": "C#5",
		  "ticks": 10884,
		  "time": 11.3375,
		  "velocity": 0.5826771653543307
		},
		{
		  "duration": 0.15104166666666607,
		  "durationTicks": 145,
		  "midi": 59,
		  "name": "B3",
		  "ticks": 11096,
		  "time": 11.558333333333334,
		  "velocity": 0.3858267716535433
		},
		{
		  "duration": 0.17395833333333321,
		  "durationTicks": 167,
		  "midi": 64,
		  "name": "E4",
		  "ticks": 11107,
		  "time": 11.569791666666667,
		  "velocity": 0.4409448818897638
		},
		{
		  "duration": 0.15104166666666607,
		  "durationTicks": 145,
		  "midi": 52,
		  "name": "E3",
		  "ticks": 11118,
		  "time": 11.58125,
		  "velocity": 0.5433070866141733
		},
		{
		  "duration": 0.15104166666666607,
		  "durationTicks": 145,
		  "midi": 40,
		  "name": "E2",
		  "ticks": 11118,
		  "time": 11.58125,
		  "velocity": 0.3464566929133858
		},
		{
		  "duration": 0.18541666666666679,
		  "durationTicks": 178,
		  "midi": 73,
		  "name": "C#5",
		  "ticks": 11241,
		  "time": 11.709375,
		  "velocity": 0.6299212598425197
		},
		{
		  "duration": 0.12916666666666643,
		  "durationTicks": 124,
		  "midi": 71,
		  "name": "B4",
		  "ticks": 11430,
		  "time": 11.90625,
		  "velocity": 0.47244094488188976
		},
		{
		  "duration": 0.140625,
		  "durationTicks": 135,
		  "midi": 52,
		  "name": "E3",
		  "ticks": 11442,
		  "time": 11.91875,
		  "velocity": 0.5118110236220472
		},
		{
		  "duration": 0.17395833333333321,
		  "durationTicks": 167,
		  "midi": 64,
		  "name": "E4",
		  "ticks": 11443,
		  "time": 11.919791666666667,
		  "velocity": 0.4015748031496063
		},
		{
		  "duration": 0.16249999999999964,
		  "durationTicks": 156,
		  "midi": 40,
		  "name": "E2",
		  "ticks": 11443,
		  "time": 11.919791666666667,
		  "velocity": 0.2755905511811024
		},
		{
		  "duration": 0.19687500000000036,
		  "durationTicks": 189,
		  "midi": 73,
		  "name": "C#5",
		  "ticks": 11554,
		  "time": 12.035416666666666,
		  "velocity": 0.5118110236220472
		},
		{
		  "duration": 0.19687500000000036,
		  "durationTicks": 189,
		  "midi": 40,
		  "name": "E2",
		  "ticks": 11744,
		  "time": 12.233333333333333,
		  "velocity": 0.29133858267716534
		},
		{
		  "duration": 0.15104166666666607,
		  "durationTicks": 145,
		  "midi": 71,
		  "name": "B4",
		  "ticks": 11777,
		  "time": 12.267708333333333,
		  "velocity": 0.4330708661417323
		},
		{
		  "duration": 0.13958333333333428,
		  "durationTicks": 134,
		  "midi": 52,
		  "name": "E3",
		  "ticks": 11777,
		  "time": 12.267708333333333,
		  "velocity": 0.49606299212598426
		},
		{
		  "duration": 0.16249999999999964,
		  "durationTicks": 156,
		  "midi": 64,
		  "name": "E4",
		  "ticks": 11788,
		  "time": 12.279166666666667,
		  "velocity": 0.5118110236220472
		},
		{
		  "duration": 0.18541666666666679,
		  "durationTicks": 178,
		  "midi": 73,
		  "name": "C#5",
		  "ticks": 11922,
		  "time": 12.41875,
		  "velocity": 0.5669291338582677
		},
		{
		  "duration": 0.13958333333333428,
		  "durationTicks": 134,
		  "midi": 71,
		  "name": "B4",
		  "ticks": 12134,
		  "time": 12.639583333333333,
		  "velocity": 0.41732283464566927
		},
		{
		  "duration": 0.13958333333333428,
		  "durationTicks": 134,
		  "midi": 64,
		  "name": "E4",
		  "ticks": 12134,
		  "time": 12.639583333333333,
		  "velocity": 0.41732283464566927
		},
		{
		  "duration": 0.3604166666666675,
		  "durationTicks": 346,
		  "midi": 52,
		  "name": "E3",
		  "ticks": 12134,
		  "time": 12.639583333333333,
		  "velocity": 0.3700787401574803
		},
		{
		  "duration": 0.13958333333333428,
		  "durationTicks": 134,
		  "midi": 64,
		  "name": "E4",
		  "ticks": 12479,
		  "time": 12.998958333333333,
		  "velocity": 0.4251968503937008
		},
		{
		  "duration": 0.3604166666666675,
		  "durationTicks": 346,
		  "midi": 52,
		  "name": "E3",
		  "ticks": 12479,
		  "time": 12.998958333333333,
		  "velocity": 0.4251968503937008
		},
		{
		  "duration": 0.1395833333333325,
		  "durationTicks": 134,
		  "midi": 40,
		  "name": "E2",
		  "ticks": 12502,
		  "time": 13.022916666666667,
		  "velocity": 0.2992125984251969
		},
		{
		  "duration": 0.13958333333333428,
		  "durationTicks": 134,
		  "midi": 71,
		  "name": "B4",
		  "ticks": 12580,
		  "time": 13.104166666666666,
		  "velocity": 0.6535433070866141
		},
		{
		  "duration": 0.2552083333333339,
		  "durationTicks": 245,
		  "midi": 71,
		  "name": "B4",
		  "ticks": 12713,
		  "time": 13.242708333333333,
		  "velocity": 0.5275590551181102
		},
		{
		  "duration": 0.19687500000000036,
		  "durationTicks": 189,
		  "midi": 35,
		  "name": "B1",
		  "ticks": 12791,
		  "time": 13.323958333333334,
		  "velocity": 0.28346456692913385
		},
		{
		  "duration": 0.17395833333333321,
		  "durationTicks": 167,
		  "midi": 40,
		  "name": "E2",
		  "ticks": 12803,
		  "time": 13.336458333333333,
		  "velocity": 0.33070866141732286
		},
		{
		  "duration": 0.3604166666666675,
		  "durationTicks": 346,
		  "midi": 52,
		  "name": "E3",
		  "ticks": 12825,
		  "time": 13.359375,
		  "velocity": 0.41732283464566927
		},
		{
		  "duration": 0.1395833333333325,
		  "durationTicks": 134,
		  "midi": 59,
		  "name": "B3",
		  "ticks": 12836,
		  "time": 13.370833333333334,
		  "velocity": 0.4645669291338583
		},
		{
		  "duration": 0.220833333333335,
		  "durationTicks": 212,
		  "midi": 71,
		  "name": "B4",
		  "ticks": 12959,
		  "time": 13.498958333333333,
		  "velocity": 0.5826771653543307
		},
		{
		  "duration": 0.13958333333333428,
		  "durationTicks": 134,
		  "midi": 64,
		  "name": "E4",
		  "ticks": 13159,
		  "time": 13.707291666666666,
		  "velocity": 0.5196850393700787
		},
		{
		  "duration": 0.15104166666666607,
		  "durationTicks": 145,
		  "midi": 71,
		  "name": "B4",
		  "ticks": 13170,
		  "time": 13.71875,
		  "velocity": 0.5118110236220472
		},
		{
		  "duration": 0.15104166666666607,
		  "durationTicks": 145,
		  "midi": 59,
		  "name": "B3",
		  "ticks": 13170,
		  "time": 13.71875,
		  "velocity": 0.44881889763779526
		},
		{
		  "duration": 0.15104166666666607,
		  "durationTicks": 145,
		  "midi": 52,
		  "name": "E3",
		  "ticks": 13170,
		  "time": 13.71875,
		  "velocity": 0.5275590551181102
		},
		{
		  "duration": 0.15208333333333357,
		  "durationTicks": 146,
		  "midi": 69,
		  "name": "A4",
		  "ticks": 13304,
		  "time": 13.858333333333333,
		  "velocity": 0.47244094488188976
		},
		{
		  "duration": 0.173958333333335,
		  "durationTicks": 167,
		  "midi": 40,
		  "name": "E2",
		  "ticks": 13484,
		  "time": 14.045833333333333,
		  "velocity": 0.30708661417322836
		},
		{
		  "duration": 0.13958333333333428,
		  "durationTicks": 134,
		  "midi": 71,
		  "name": "B4",
		  "ticks": 13517,
		  "time": 14.080208333333333,
		  "velocity": 0.5118110236220472
		},
		{
		  "duration": 0.13958333333333428,
		  "durationTicks": 134,
		  "midi": 64,
		  "name": "E4",
		  "ticks": 13517,
		  "time": 14.080208333333333,
		  "velocity": 0.4409448818897638
		},
		{
		  "duration": 0.15104166666666607,
		  "durationTicks": 145,
		  "midi": 52,
		  "name": "E3",
		  "ticks": 13517,
		  "time": 14.080208333333333,
		  "velocity": 0.5354330708661418
		},
		{
		  "duration": 0.20937499999999964,
		  "durationTicks": 201,
		  "midi": 74,
		  "name": "D5",
		  "ticks": 13740,
		  "time": 14.3125,
		  "velocity": 0.4881889763779528
		},
		{
		  "duration": 0.17395833333333321,
		  "durationTicks": 167,
		  "midi": 38,
		  "name": "D2",
		  "ticks": 13740,
		  "time": 14.3125,
		  "velocity": 0.3464566929133858
		},
		{
		  "duration": 0.38333333333333286,
		  "durationTicks": 368,
		  "midi": 76,
		  "name": "E5",
		  "ticks": 14085,
		  "time": 14.671875,
		  "velocity": 0.4251968503937008
		},
		{
		  "duration": 0.1395833333333325,
		  "durationTicks": 134,
		  "midi": 59,
		  "name": "B3",
		  "ticks": 14085,
		  "time": 14.671875,
		  "velocity": 0.3700787401574803
		},
		{
		  "duration": 0.17395833333333321,
		  "durationTicks": 167,
		  "midi": 52,
		  "name": "E3",
		  "ticks": 14085,
		  "time": 14.671875,
		  "velocity": 0.5196850393700787
		},
		{
		  "duration": 0.17395833333333321,
		  "durationTicks": 167,
		  "midi": 40,
		  "name": "E2",
		  "ticks": 14431,
		  "time": 15.032291666666667,
		  "velocity": 0.3700787401574803
		},
		{
		  "duration": 0.33645833333333464,
		  "durationTicks": 323,
		  "midi": 76,
		  "name": "E5",
		  "ticks": 14453,
		  "time": 15.055208333333333,
		  "velocity": 0.5196850393700787
		},
		{
		  "duration": 0.3718749999999993,
		  "durationTicks": 357,
		  "midi": 76,
		  "name": "E5",
		  "ticks": 14777,
		  "time": 15.392708333333333,
		  "velocity": 0.49606299212598426
		},
		{
		  "duration": 0.1395833333333325,
		  "durationTicks": 134,
		  "midi": 52,
		  "name": "E3",
		  "ticks": 14788,
		  "time": 15.404166666666667,
		  "velocity": 0.48031496062992124
		},
		{
		  "duration": 0.34999999999999964,
		  "durationTicks": 336,
		  "midi": 76,
		  "name": "E5",
		  "ticks": 15133,
		  "time": 15.763541666666667,
		  "velocity": 0.49606299212598426
		},
		{
		  "duration": 0.34791666666666643,
		  "durationTicks": 334,
		  "midi": 76,
		  "name": "E5",
		  "ticks": 15469,
		  "time": 16.113541666666666,
		  "velocity": 0.5748031496062992
		},
		{
		  "duration": 0.13958333333333428,
		  "durationTicks": 134,
		  "midi": 74,
		  "name": "D5",
		  "ticks": 15825,
		  "time": 16.484375,
		  "velocity": 0.48031496062992124
		},
		{
		  "duration": 0.15104166666666785,
		  "durationTicks": 145,
		  "midi": 69,
		  "name": "A4",
		  "ticks": 15825,
		  "time": 16.484375,
		  "velocity": 0.5118110236220472
		},
		{
		  "duration": 0.20937500000000142,
		  "durationTicks": 201,
		  "midi": 78,
		  "name": "F#5",
		  "ticks": 15825,
		  "time": 16.484375,
		  "velocity": 0.49606299212598426
		},
		{
		  "duration": 0.7197916666666657,
		  "durationTicks": 691,
		  "midi": 78,
		  "name": "F#5",
		  "ticks": 16037,
		  "time": 16.705208333333335,
		  "velocity": 0.5039370078740157
		},
		{
		  "duration": 0.15104166666666785,
		  "durationTicks": 145,
		  "midi": 74,
		  "name": "D5",
		  "ticks": 16171,
		  "time": 16.844791666666666,
		  "velocity": 0.5118110236220472
		},
		{
		  "duration": 0.13958333333333428,
		  "durationTicks": 134,
		  "midi": 69,
		  "name": "A4",
		  "ticks": 16171,
		  "time": 16.844791666666666,
		  "velocity": 0.49606299212598426
		},
		{
		  "duration": 0.173958333333335,
		  "durationTicks": 167,
		  "midi": 74,
		  "name": "D5",
		  "ticks": 16516,
		  "time": 17.204166666666666,
		  "velocity": 0.4645669291338583
		},
		{
		  "duration": 0.15104166666666785,
		  "durationTicks": 145,
		  "midi": 69,
		  "name": "A4",
		  "ticks": 16516,
		  "time": 17.204166666666666,
		  "velocity": 0.5196850393700787
		},
		{
		  "duration": 0.25520833333333215,
		  "durationTicks": 245,
		  "midi": 78,
		  "name": "F#5",
		  "ticks": 16728,
		  "time": 17.425,
		  "velocity": 0.4566929133858268
		},
		{
		  "duration": 0.16249999999999787,
		  "durationTicks": 156,
		  "midi": 74,
		  "name": "D5",
		  "ticks": 16862,
		  "time": 17.564583333333335,
		  "velocity": 0.6062992125984252
		},
		{
		  "duration": 0.16249999999999787,
		  "durationTicks": 156,
		  "midi": 69,
		  "name": "A4",
		  "ticks": 16862,
		  "time": 17.564583333333335,
		  "velocity": 0.47244094488188976
		},
		{
		  "duration": 0.6979166666666679,
		  "durationTicks": 670,
		  "midi": 78,
		  "name": "F#5",
		  "ticks": 16973,
		  "time": 17.680208333333333,
		  "velocity": 0.4881889763779528
		},
		{
		  "duration": 0.16250000000000142,
		  "durationTicks": 156,
		  "midi": 40,
		  "name": "E2",
		  "ticks": 17186,
		  "time": 17.902083333333334,
		  "velocity": 0.3858267716535433
		},
		{
		  "duration": 0.25520833333333215,
		  "durationTicks": 245,
		  "midi": 74,
		  "name": "D5",
		  "ticks": 17198,
		  "time": 17.914583333333333,
		  "velocity": 0.5118110236220472
		},
		{
		  "duration": 0.24375000000000213,
		  "durationTicks": 234,
		  "midi": 69,
		  "name": "A4",
		  "ticks": 17198,
		  "time": 17.914583333333333,
		  "velocity": 0.3779527559055118
		},
		{
		  "duration": 0.17395833333333144,
		  "durationTicks": 167,
		  "midi": 69,
		  "name": "A4",
		  "ticks": 17432,
		  "time": 18.158333333333335,
		  "velocity": 0.48031496062992124
		},
		{
		  "duration": 0.16250000000000142,
		  "durationTicks": 156,
		  "midi": 74,
		  "name": "D5",
		  "ticks": 17443,
		  "time": 18.169791666666665,
		  "velocity": 0.5590551181102362
		},
		{
		  "duration": 0.13958333333333428,
		  "durationTicks": 134,
		  "midi": 50,
		  "name": "D3",
		  "ticks": 17443,
		  "time": 18.169791666666665,
		  "velocity": 0.4409448818897638
		},
		{
		  "duration": 0.15104166666666785,
		  "durationTicks": 145,
		  "midi": 76,
		  "name": "E5",
		  "ticks": 17632,
		  "time": 18.366666666666667,
		  "velocity": 0.30708661417322836
		},
		{
		  "duration": 1.1843749999999993,
		  "durationTicks": 1137,
		  "midi": 79,
		  "name": "G5",
		  "ticks": 17655,
		  "time": 18.390625,
		  "velocity": 0.48031496062992124
		},
		{
		  "duration": 1.3354166666666636,
		  "durationTicks": 1282,
		  "midi": 71,
		  "name": "B4",
		  "ticks": 17777,
		  "time": 18.517708333333335,
		  "velocity": 0.47244094488188976
		},
		{
		  "duration": 3.263541666666665,
		  "durationTicks": 3133,
		  "midi": 59,
		  "name": "B3",
		  "ticks": 17777,
		  "time": 18.517708333333335,
		  "velocity": 0.4645669291338583
		},
		{
		  "duration": 0.1510416666666643,
		  "durationTicks": 145,
		  "midi": 52,
		  "name": "E3",
		  "ticks": 17777,
		  "time": 18.517708333333335,
		  "velocity": 0.4645669291338583
		},
		{
		  "duration": 1.3114583333333343,
		  "durationTicks": 1259,
		  "midi": 76,
		  "name": "E5",
		  "ticks": 17788,
		  "time": 18.529166666666665,
		  "velocity": 0.5984251968503937
		},
		{
		  "duration": 0.20937500000000142,
		  "durationTicks": 201,
		  "midi": 64,
		  "name": "E4",
		  "ticks": 17911,
		  "time": 18.657291666666666,
		  "velocity": 0.3937007874015748
		},
		{
		  "duration": 0.3604166666666657,
		  "durationTicks": 346,
		  "midi": 40,
		  "name": "E2",
		  "ticks": 18112,
		  "time": 18.866666666666667,
		  "velocity": 0.4094488188976378
		},
		{
		  "duration": 0.47604166666666714,
		  "durationTicks": 457,
		  "midi": 52,
		  "name": "E3",
		  "ticks": 18123,
		  "time": 18.878125,
		  "velocity": 0.4094488188976378
		},
		{
		  "duration": 0.4989583333333343,
		  "durationTicks": 479,
		  "midi": 64,
		  "name": "E4",
		  "ticks": 18256,
		  "time": 19.016666666666666,
		  "velocity": 0.3779527559055118
		},
		{
		  "duration": 0.185416666666665,
		  "durationTicks": 178,
		  "midi": 40,
		  "name": "E2",
		  "ticks": 18457,
		  "time": 19.226041666666667,
		  "velocity": 0.41732283464566927
		},
		{
		  "duration": 0.6750000000000007,
		  "durationTicks": 648,
		  "midi": 40,
		  "name": "E2",
		  "ticks": 18869,
		  "time": 19.655208333333334,
		  "velocity": 0.3700787401574803
		},
		{
		  "duration": 0.31458333333333144,
		  "durationTicks": 302,
		  "midi": 64,
		  "name": "E4",
		  "ticks": 18914,
		  "time": 19.702083333333334,
		  "velocity": 0.41732283464566927
		},
		{
		  "duration": 0.24479166666666785,
		  "durationTicks": 235,
		  "midi": 76,
		  "name": "E5",
		  "ticks": 19048,
		  "time": 19.841666666666665,
		  "velocity": 0.5748031496062992
		},
		{
		  "duration": 2.173958333333335,
		  "durationTicks": 2087,
		  "midi": 71,
		  "name": "B4",
		  "ticks": 19059,
		  "time": 19.853125,
		  "velocity": 0.4094488188976378
		},
		{
		  "duration": 0.13958333333333428,
		  "durationTicks": 134,
		  "midi": 35,
		  "name": "B1",
		  "ticks": 19149,
		  "time": 19.946875,
		  "velocity": 0.3228346456692913
		},
		{
		  "duration": 0.24375000000000213,
		  "durationTicks": 234,
		  "midi": 79,
		  "name": "G5",
		  "ticks": 19261,
		  "time": 20.063541666666666,
		  "velocity": 0.3700787401574803
		},
		{
		  "duration": 2.509375000000002,
		  "durationTicks": 2409,
		  "midi": 76,
		  "name": "E5",
		  "ticks": 19283,
		  "time": 20.086458333333333,
		  "velocity": 0.5511811023622047
		},
		{
		  "duration": 0.9520833333333307,
		  "durationTicks": 914,
		  "midi": 79,
		  "name": "G5",
		  "ticks": 19495,
		  "time": 20.307291666666668,
		  "velocity": 0.44881889763779526
		},
		{
		  "duration": 0.3135416666666657,
		  "durationTicks": 301,
		  "midi": 52,
		  "name": "E3",
		  "ticks": 19495,
		  "time": 20.307291666666668,
		  "velocity": 0.3464566929133858
		},
		{
		  "duration": 1.4406250000000007,
		  "durationTicks": 1383,
		  "midi": 64,
		  "name": "E4",
		  "ticks": 19673,
		  "time": 20.492708333333333,
		  "velocity": 0.4015748031496063
		},
		{
		  "duration": 0.13958333333333428,
		  "durationTicks": 134,
		  "midi": 52,
		  "name": "E3",
		  "ticks": 19796,
		  "time": 20.620833333333334,
		  "velocity": 0.3858267716535433
		},
		{
		  "duration": 0.3718749999999993,
		  "durationTicks": 357,
		  "midi": 40,
		  "name": "E2",
		  "ticks": 19818,
		  "time": 20.64375,
		  "velocity": 0.4330708661417323
		},
		{
		  "duration": 0.173958333333335,
		  "durationTicks": 167,
		  "midi": 52,
		  "name": "E3",
		  "ticks": 20164,
		  "time": 21.004166666666666,
		  "velocity": 0.4015748031496063
		},
		{
		  "duration": 0.3249999999999993,
		  "durationTicks": 312,
		  "midi": 40,
		  "name": "E2",
		  "ticks": 20175,
		  "time": 21.015625,
		  "velocity": 0.3700787401574803
		},
		{
		  "duration": 0.220833333333335,
		  "durationTicks": 212,
		  "midi": 78,
		  "name": "F#5",
		  "ticks": 20409,
		  "time": 21.259375,
		  "velocity": 0.3464566929133858
		},
		{
		  "duration": 0.13958333333333428,
		  "durationTicks": 134,
		  "midi": 52,
		  "name": "E3",
		  "ticks": 20531,
		  "time": 21.386458333333334,
		  "velocity": 0.4094488188976378
		},
		{
		  "duration": 0.17395833333333144,
		  "durationTicks": 167,
		  "midi": 40,
		  "name": "E2",
		  "ticks": 20721,
		  "time": 21.584375,
		  "velocity": 0.4330708661417323
		},
		{
		  "duration": 0.1875,
		  "durationTicks": 180,
		  "midi": 74,
		  "name": "D5",
		  "ticks": 20899,
		  "time": 21.769791666666666,
		  "velocity": 0.47244094488188976
		},
		{
		  "duration": 0.4656249999999993,
		  "durationTicks": 447,
		  "midi": 40,
		  "name": "E2",
		  "ticks": 20899,
		  "time": 21.769791666666666,
		  "velocity": 0.4409448818897638
		},
		{
		  "duration": 0.6635416666666671,
		  "durationTicks": 637,
		  "midi": 59,
		  "name": "B3",
		  "ticks": 20910,
		  "time": 21.78125,
		  "velocity": 0.49606299212598426
		},
		{
		  "duration": 0.42916666666666714,
		  "durationTicks": 412,
		  "midi": 71,
		  "name": "B4",
		  "ticks": 21146,
		  "time": 22.027083333333334,
		  "velocity": 0.5196850393700787
		},
		{
		  "duration": 0.40625,
		  "durationTicks": 390,
		  "midi": 64,
		  "name": "E4",
		  "ticks": 21157,
		  "time": 22.038541666666667,
		  "velocity": 0.4409448818897638
		},
		{
		  "duration": 0.185416666666665,
		  "durationTicks": 178,
		  "midi": 76,
		  "name": "E5",
		  "ticks": 21903,
		  "time": 22.815625,
		  "velocity": 0.2992125984251969
		},
		{
		  "duration": 0.16354166666666714,
		  "durationTicks": 157,
		  "midi": 76,
		  "name": "E5",
		  "ticks": 22728,
		  "time": 23.675,
		  "velocity": 0.3464566929133858
		},
		{
		  "duration": 0.19687499999999858,
		  "durationTicks": 189,
		  "midi": 76,
		  "name": "E5",
		  "ticks": 23755,
		  "time": 24.744791666666668,
		  "velocity": 0.31496062992125984
		},
		{
		  "duration": 0.18541666666666856,
		  "durationTicks": 178,
		  "midi": 76,
		  "name": "E5",
		  "ticks": 24568,
		  "time": 25.591666666666665,
		  "velocity": 0.41732283464566927
		},
		{
		  "duration": 0.140625,
		  "durationTicks": 135,
		  "midi": 39,
		  "name": "D#2",
		  "ticks": 24791,
		  "time": 25.823958333333334,
		  "velocity": 0.3779527559055118
		},
		{
		  "duration": 0.18541666666666856,
		  "durationTicks": 178,
		  "midi": 76,
		  "name": "E5",
		  "ticks": 25595,
		  "time": 26.661458333333332,
		  "velocity": 0.33070866141732286
		},
		{
		  "duration": 0.23229166666666856,
		  "durationTicks": 223,
		  "midi": 79,
		  "name": "G5",
		  "ticks": 27335,
		  "time": 28.473958333333332,
		  "velocity": 0.6377952755905512
		},
		{
		  "duration": 0.185416666666665,
		  "durationTicks": 178,
		  "midi": 76,
		  "name": "E5",
		  "ticks": 27435,
		  "time": 28.578125,
		  "velocity": 0.25984251968503935
		},
		{
		  "duration": 0.232291666666665,
		  "durationTicks": 223,
		  "midi": 79,
		  "name": "G5",
		  "ticks": 27569,
		  "time": 28.717708333333334,
		  "velocity": 0.6141732283464567
		},
		{
		  "duration": 0.16250000000000142,
		  "durationTicks": 156,
		  "midi": 44,
		  "name": "G#2",
		  "ticks": 27781,
		  "time": 28.938541666666666,
		  "velocity": 0.33070866141732286
		},
		{
		  "duration": 0.20937500000000142,
		  "durationTicks": 201,
		  "midi": 78,
		  "name": "F#5",
		  "ticks": 27803,
		  "time": 28.961458333333333,
		  "velocity": 0.5669291338582677
		},
		{
		  "duration": 0.2781249999999993,
		  "durationTicks": 267,
		  "midi": 76,
		  "name": "E5",
		  "ticks": 28026,
		  "time": 29.19375,
		  "velocity": 0.5039370078740157
		},
		{
		  "duration": 0.24374999999999858,
		  "durationTicks": 234,
		  "midi": 74,
		  "name": "D5",
		  "ticks": 28260,
		  "time": 29.4375,
		  "velocity": 0.49606299212598426
		},
		{
		  "duration": 0.16249999999999787,
		  "durationTicks": 156,
		  "midi": 39,
		  "name": "D#2",
		  "ticks": 28450,
		  "time": 29.635416666666668,
		  "velocity": 0.3543307086614173
		},
		{
		  "duration": 0.40729166666666927,
		  "durationTicks": 391,
		  "midi": 76,
		  "name": "E5",
		  "ticks": 28494,
		  "time": 29.68125,
		  "velocity": 0.31496062992125984
		},
		{
		  "duration": 0.185416666666665,
		  "durationTicks": 178,
		  "midi": 76,
		  "name": "E5",
		  "ticks": 28952,
		  "time": 30.158333333333335,
		  "velocity": 0.4409448818897638
		},
		{
		  "duration": 0.24374999999999858,
		  "durationTicks": 234,
		  "midi": 76,
		  "name": "E5",
		  "ticks": 29164,
		  "time": 30.379166666666666,
		  "velocity": 0.47244094488188976
		},
		{
		  "duration": 0.24375000000000213,
		  "durationTicks": 234,
		  "midi": 76,
		  "name": "E5",
		  "ticks": 29398,
		  "time": 30.622916666666665,
		  "velocity": 0.5905511811023622
		},
		{
		  "duration": 0.24374999999999858,
		  "durationTicks": 234,
		  "midi": 76,
		  "name": "E5",
		  "ticks": 29632,
		  "time": 30.866666666666667,
		  "velocity": 0.5669291338582677
		},
		{
		  "duration": 0.24375000000000213,
		  "durationTicks": 234,
		  "midi": 76,
		  "name": "E5",
		  "ticks": 29866,
		  "time": 31.110416666666666,
		  "velocity": 0.5511811023622047
		},
		{
		  "duration": 0.24374999999999858,
		  "durationTicks": 234,
		  "midi": 76,
		  "name": "E5",
		  "ticks": 30100,
		  "time": 31.354166666666668,
		  "velocity": 0.6456692913385826
		},
		{
		  "duration": 0.23333333333333428,
		  "durationTicks": 224,
		  "midi": 76,
		  "name": "E5",
		  "ticks": 30334,
		  "time": 31.597916666666666,
		  "velocity": 0.6141732283464567
		},
		{
		  "duration": 0.24375000000000213,
		  "durationTicks": 234,
		  "midi": 76,
		  "name": "E5",
		  "ticks": 30559,
		  "time": 31.832291666666666,
		  "velocity": 0.6062992125984252
		},
		{
		  "duration": 0.27812499999999574,
		  "durationTicks": 267,
		  "midi": 76,
		  "name": "E5",
		  "ticks": 30793,
		  "time": 32.07604166666667,
		  "velocity": 0.5433070866141733
		},
		{
		  "duration": 0.16250000000000142,
		  "durationTicks": 156,
		  "midi": 39,
		  "name": "D#2",
		  "ticks": 31004,
		  "time": 32.295833333333334,
		  "velocity": 0.3464566929133858
		},
		{
		  "duration": 0.19687500000000568,
		  "durationTicks": 189,
		  "midi": 76,
		  "name": "E5",
		  "ticks": 31060,
		  "time": 32.354166666666664,
		  "velocity": 0.6614173228346457
		},
		{
		  "duration": 0.24374999999999858,
		  "durationTicks": 234,
		  "midi": 76,
		  "name": "E5",
		  "ticks": 31250,
		  "time": 32.552083333333336,
		  "velocity": 0.6692913385826772
		},
		{
		  "duration": 0.24374999999999858,
		  "durationTicks": 234,
		  "midi": 76,
		  "name": "E5",
		  "ticks": 31484,
		  "time": 32.795833333333334,
		  "velocity": 0.6535433070866141
		},
		{
		  "duration": 0.34791666666667,
		  "durationTicks": 334,
		  "midi": 76,
		  "name": "E5",
		  "ticks": 31718,
		  "time": 33.03958333333333,
		  "velocity": 0.6141732283464567
		},
		{
		  "duration": 0.1510416666666643,
		  "durationTicks": 145,
		  "midi": 76,
		  "name": "E5",
		  "ticks": 32052,
		  "time": 33.3875,
		  "velocity": 0.5748031496062992
		},
		{
		  "duration": 0.16250000000000142,
		  "durationTicks": 156,
		  "midi": 39,
		  "name": "D#2",
		  "ticks": 32175,
		  "time": 33.515625,
		  "velocity": 0.36220472440944884
		},
		{
		  "duration": 0.22083333333333144,
		  "durationTicks": 212,
		  "midi": 76,
		  "name": "E5",
		  "ticks": 32197,
		  "time": 33.53854166666667,
		  "velocity": 0.6299212598425197
		},
		{
		  "duration": 0.22187500000000426,
		  "durationTicks": 213,
		  "midi": 76,
		  "name": "E5",
		  "ticks": 32409,
		  "time": 33.759375,
		  "velocity": 0.6299212598425197
		},
		{
		  "duration": 0.3604166666666657,
		  "durationTicks": 346,
		  "midi": 76,
		  "name": "E5",
		  "ticks": 32622,
		  "time": 33.98125,
		  "velocity": 0.5669291338582677
		},
		{
		  "duration": 0.13958333333332718,
		  "durationTicks": 134,
		  "midi": 76,
		  "name": "E5",
		  "ticks": 32967,
		  "time": 34.340625,
		  "velocity": 0.6377952755905512
		},
		{
		  "duration": 0.24375000000000568,
		  "durationTicks": 234,
		  "midi": 76,
		  "name": "E5",
		  "ticks": 33101,
		  "time": 34.48020833333333,
		  "velocity": 0.6535433070866141
		},
		{
		  "duration": 0.24374999999999858,
		  "durationTicks": 234,
		  "midi": 76,
		  "name": "E5",
		  "ticks": 33335,
		  "time": 34.723958333333336,
		  "velocity": 0.6141732283464567
		},
		{
		  "duration": 0.33645833333333286,
		  "durationTicks": 323,
		  "midi": 76,
		  "name": "E5",
		  "ticks": 33569,
		  "time": 34.967708333333334,
		  "velocity": 0.6062992125984252
		},
		{
		  "duration": 0.13958333333333428,
		  "durationTicks": 134,
		  "midi": 76,
		  "name": "E5",
		  "ticks": 33892,
		  "time": 35.30416666666667,
		  "velocity": 0.6141732283464567
		},
		{
		  "duration": 0.23229166666666856,
		  "durationTicks": 223,
		  "midi": 76,
		  "name": "E5",
		  "ticks": 34026,
		  "time": 35.44375,
		  "velocity": 0.6141732283464567
		},
		{
		  "duration": 0.5239583333333329,
		  "durationTicks": 503,
		  "midi": 76,
		  "name": "E5",
		  "ticks": 34249,
		  "time": 35.67604166666667,
		  "velocity": 0.5511811023622047
		},
		{
		  "duration": 0.18541666666666146,
		  "durationTicks": 178,
		  "midi": 76,
		  "name": "E5",
		  "ticks": 34752,
		  "time": 36.2,
		  "velocity": 0.6771653543307087
		},
		{
		  "duration": 0.2666666666666657,
		  "durationTicks": 256,
		  "midi": 76,
		  "name": "E5",
		  "ticks": 34930,
		  "time": 36.385416666666664,
		  "velocity": 0.6535433070866141
		},
		{
		  "duration": 0.13958333333333428,
		  "durationTicks": 134,
		  "midi": 44,
		  "name": "G#2",
		  "ticks": 35153,
		  "time": 36.61770833333333,
		  "velocity": 0.2992125984251969
		},
		{
		  "duration": 0.23229166666666856,
		  "durationTicks": 223,
		  "midi": 76,
		  "name": "E5",
		  "ticks": 35186,
		  "time": 36.65208333333333,
		  "velocity": 0.5748031496062992
		},
		{
		  "duration": 0.22083333333333144,
		  "durationTicks": 212,
		  "midi": 76,
		  "name": "E5",
		  "ticks": 35409,
		  "time": 36.884375,
		  "velocity": 0.5039370078740157
		},
		{
		  "duration": 0.24375000000000568,
		  "durationTicks": 234,
		  "midi": 76,
		  "name": "E5",
		  "ticks": 35621,
		  "time": 37.10520833333333,
		  "velocity": 0.6456692913385826
		},
		{
		  "duration": 0.16250000000000142,
		  "durationTicks": 156,
		  "midi": 39,
		  "name": "D#2",
		  "ticks": 35833,
		  "time": 37.32604166666667,
		  "velocity": 0.33858267716535434
		},
		{
		  "duration": 0.24374999999999858,
		  "durationTicks": 234,
		  "midi": 76,
		  "name": "E5",
		  "ticks": 35855,
		  "time": 37.348958333333336,
		  "velocity": 0.6220472440944882
		},
		{
		  "duration": 0.23333333333333428,
		  "durationTicks": 224,
		  "midi": 74,
		  "name": "D5",
		  "ticks": 36100,
		  "time": 37.604166666666664,
		  "velocity": 0.6535433070866141
		},
		{
		  "duration": 0.23229166666666146,
		  "durationTicks": 223,
		  "midi": 76,
		  "name": "E5",
		  "ticks": 36358,
		  "time": 37.87291666666667,
		  "velocity": 0.5826771653543307
		},
		{
		  "duration": 0.19687499999999858,
		  "durationTicks": 189,
		  "midi": 76,
		  "name": "E5",
		  "ticks": 36592,
		  "time": 38.11666666666667,
		  "velocity": 0.6929133858267716
		},
		{
		  "duration": 0.23229166666666856,
		  "durationTicks": 223,
		  "midi": 76,
		  "name": "E5",
		  "ticks": 36782,
		  "time": 38.31458333333333,
		  "velocity": 0.7007874015748031
		},
		{
		  "duration": 0.2552083333333357,
		  "durationTicks": 245,
		  "midi": 76,
		  "name": "E5",
		  "ticks": 37004,
		  "time": 38.545833333333334,
		  "velocity": 0.6220472440944882
		},
		{
		  "duration": 0.22083333333333144,
		  "durationTicks": 212,
		  "midi": 76,
		  "name": "E5",
		  "ticks": 37250,
		  "time": 38.802083333333336,
		  "velocity": 0.6062992125984252
		},
		{
		  "duration": 0.2552083333333286,
		  "durationTicks": 245,
		  "midi": 76,
		  "name": "E5",
		  "ticks": 37461,
		  "time": 39.021875,
		  "velocity": 0.6929133858267716
		},
		{
		  "duration": 0.1510416666666643,
		  "durationTicks": 145,
		  "midi": 39,
		  "name": "D#2",
		  "ticks": 37673,
		  "time": 39.24270833333333,
		  "velocity": 0.3464566929133858
		},
		{
		  "duration": 0.24374999999999858,
		  "durationTicks": 234,
		  "midi": 76,
		  "name": "E5",
		  "ticks": 37707,
		  "time": 39.278125,
		  "velocity": 0.6220472440944882
		},
		{
		  "duration": 0.5,
		  "durationTicks": 480,
		  "midi": 76,
		  "name": "E5",
		  "ticks": 37941,
		  "time": 39.521875,
		  "velocity": 0.5511811023622047
		},
		{
		  "duration": 0.20937500000000142,
		  "durationTicks": 201,
		  "midi": 76,
		  "name": "E5",
		  "ticks": 38421,
		  "time": 40.021875,
		  "velocity": 0.6535433070866141
		},
		{
		  "duration": 0.24374999999999858,
		  "durationTicks": 234,
		  "midi": 76,
		  "name": "E5",
		  "ticks": 38622,
		  "time": 40.23125,
		  "velocity": 0.6692913385826772
		},
		{
		  "duration": 0.23229166666666856,
		  "durationTicks": 223,
		  "midi": 76,
		  "name": "E5",
		  "ticks": 38856,
		  "time": 40.475,
		  "velocity": 0.6377952755905512
		},
		{
		  "duration": 0.3604166666666657,
		  "durationTicks": 346,
		  "midi": 76,
		  "name": "E5",
		  "ticks": 39079,
		  "time": 40.70729166666667,
		  "velocity": 0.5748031496062992
		},
		{
		  "duration": 0.17395833333333144,
		  "durationTicks": 167,
		  "midi": 76,
		  "name": "E5",
		  "ticks": 39424,
		  "time": 41.06666666666667,
		  "velocity": 0.6062992125984252
		},
		{
		  "duration": 0.24374999999999858,
		  "durationTicks": 234,
		  "midi": 76,
		  "name": "E5",
		  "ticks": 39591,
		  "time": 41.240625,
		  "velocity": 0.6535433070866141
		},
		{
		  "duration": 0.4312499999999986,
		  "durationTicks": 414,
		  "midi": 76,
		  "name": "E5",
		  "ticks": 39826,
		  "time": 41.485416666666666,
		  "velocity": 0.5826771653543307
		},
		{
		  "duration": 0.23229166666666856,
		  "durationTicks": 223,
		  "midi": 76,
		  "name": "E5",
		  "ticks": 40239,
		  "time": 41.915625,
		  "velocity": 0.6456692913385826
		},
		{
		  "duration": 0.24374999999999858,
		  "durationTicks": 234,
		  "midi": 76,
		  "name": "E5",
		  "ticks": 40462,
		  "time": 42.14791666666667,
		  "velocity": 0.6929133858267716
		},
		{
		  "duration": 0.24374999999999858,
		  "durationTicks": 234,
		  "midi": 76,
		  "name": "E5",
		  "ticks": 40696,
		  "time": 42.391666666666666,
		  "velocity": 0.6771653543307087
		},
		{
		  "duration": 0.34791666666667,
		  "durationTicks": 334,
		  "midi": 76,
		  "name": "E5",
		  "ticks": 40930,
		  "time": 42.635416666666664,
		  "velocity": 0.6220472440944882
		},
		{
		  "duration": 0.13958333333333428,
		  "durationTicks": 134,
		  "midi": 76,
		  "name": "E5",
		  "ticks": 41265,
		  "time": 42.984375,
		  "velocity": 0.6535433070866141
		},
		{
		  "duration": 0.47604166666666714,
		  "durationTicks": 457,
		  "midi": 76,
		  "name": "E5",
		  "ticks": 41398,
		  "time": 43.12291666666667,
		  "velocity": 0.6141732283464567
		},
		{
		  "duration": 0.23333333333333428,
		  "durationTicks": 224,
		  "midi": 76,
		  "name": "E5",
		  "ticks": 41855,
		  "time": 43.598958333333336,
		  "velocity": 0.5039370078740157
		},
		{
		  "duration": 0.23229166666666146,
		  "durationTicks": 223,
		  "midi": 76,
		  "name": "E5",
		  "ticks": 42079,
		  "time": 43.83229166666667,
		  "velocity": 0.6220472440944882
		},
		{
		  "duration": 0.24374999999999858,
		  "durationTicks": 234,
		  "midi": 76,
		  "name": "E5",
		  "ticks": 42302,
		  "time": 44.06458333333333,
		  "velocity": 0.6299212598425197
		},
		{
		  "duration": 0.27812500000000284,
		  "durationTicks": 267,
		  "midi": 76,
		  "name": "E5",
		  "ticks": 42536,
		  "time": 44.30833333333333,
		  "velocity": 0.5590551181102362
		},
		{
		  "duration": 0.17395833333333144,
		  "durationTicks": 167,
		  "midi": 50,
		  "name": "D3",
		  "ticks": 43194,
		  "time": 44.99375,
		  "velocity": 0.4094488188976378
		},
		{
		  "duration": 0.16250000000000142,
		  "durationTicks": 156,
		  "midi": 52,
		  "name": "E3",
		  "ticks": 43584,
		  "time": 45.4,
		  "velocity": 0.5905511811023622
		},
		{
		  "duration": 0.1510416666666643,
		  "durationTicks": 145,
		  "midi": 71,
		  "name": "B4",
		  "ticks": 43595,
		  "time": 45.411458333333336,
		  "velocity": 0.5039370078740157
		},
		{
		  "duration": 0.13958333333333428,
		  "durationTicks": 134,
		  "midi": 64,
		  "name": "E4",
		  "ticks": 43595,
		  "time": 45.411458333333336,
		  "velocity": 0.5275590551181102
		},
		{
		  "duration": 0.16354166666666714,
		  "durationTicks": 157,
		  "midi": 76,
		  "name": "E5",
		  "ticks": 43707,
		  "time": 45.528125,
		  "velocity": 0.5275590551181102
		},
		{
		  "duration": 0.13958333333333428,
		  "durationTicks": 134,
		  "midi": 64,
		  "name": "E4",
		  "ticks": 43920,
		  "time": 45.75,
		  "velocity": 0.5275590551181102
		},
		{
		  "duration": 0.1510416666666714,
		  "durationTicks": 145,
		  "midi": 71,
		  "name": "B4",
		  "ticks": 43931,
		  "time": 45.76145833333333,
		  "velocity": 0.5748031496062992
		},
		{
		  "duration": 0.1510416666666714,
		  "durationTicks": 145,
		  "midi": 52,
		  "name": "E3",
		  "ticks": 43931,
		  "time": 45.76145833333333,
		  "velocity": 0.5669291338582677
		},
		{
		  "duration": 0.23229166666666146,
		  "durationTicks": 223,
		  "midi": 76,
		  "name": "E5",
		  "ticks": 44053,
		  "time": 45.88854166666667,
		  "velocity": 0.49606299212598426
		},
		{
		  "duration": 0.33645833333333997,
		  "durationTicks": 323,
		  "midi": 76,
		  "name": "E5",
		  "ticks": 44276,
		  "time": 46.12083333333333,
		  "velocity": 0.4566929133858268
		},
		{
		  "duration": 0.16250000000000142,
		  "durationTicks": 156,
		  "midi": 71,
		  "name": "B4",
		  "ticks": 44276,
		  "time": 46.12083333333333,
		  "velocity": 0.5039370078740157
		},
		{
		  "duration": 0.16250000000000142,
		  "durationTicks": 156,
		  "midi": 64,
		  "name": "E4",
		  "ticks": 44276,
		  "time": 46.12083333333333,
		  "velocity": 0.5905511811023622
		},
		{
		  "duration": 0.16250000000000142,
		  "durationTicks": 156,
		  "midi": 52,
		  "name": "E3",
		  "ticks": 44276,
		  "time": 46.12083333333333,
		  "velocity": 0.5433070866141733
		},
		{
		  "duration": 0.18541666666666856,
		  "durationTicks": 178,
		  "midi": 52,
		  "name": "E3",
		  "ticks": 44611,
		  "time": 46.469791666666666,
		  "velocity": 0.5669291338582677
		},
		{
		  "duration": 0.23229166666666146,
		  "durationTicks": 223,
		  "midi": 76,
		  "name": "E5",
		  "ticks": 44622,
		  "time": 46.48125,
		  "velocity": 0.4094488188976378
		},
		{
		  "duration": 0.16249999999999432,
		  "durationTicks": 156,
		  "midi": 71,
		  "name": "B4",
		  "ticks": 44622,
		  "time": 46.48125,
		  "velocity": 0.5433070866141733
		},
		{
		  "duration": 0.17395833333333144,
		  "durationTicks": 167,
		  "midi": 64,
		  "name": "E4",
		  "ticks": 44622,
		  "time": 46.48125,
		  "velocity": 0.5511811023622047
		},
		{
		  "duration": 0.16249999999999432,
		  "durationTicks": 156,
		  "midi": 59,
		  "name": "B3",
		  "ticks": 44622,
		  "time": 46.48125,
		  "velocity": 0.5433070866141733
		},
		{
		  "duration": 0.2552083333333357,
		  "durationTicks": 245,
		  "midi": 76,
		  "name": "E5",
		  "ticks": 44845,
		  "time": 46.713541666666664,
		  "velocity": 0.41732283464566927
		},
		{
		  "duration": 0.17395833333333144,
		  "durationTicks": 167,
		  "midi": 71,
		  "name": "B4",
		  "ticks": 44967,
		  "time": 46.840625,
		  "velocity": 0.4881889763779528
		},
		{
		  "duration": 0.16249999999999432,
		  "durationTicks": 156,
		  "midi": 64,
		  "name": "E4",
		  "ticks": 44967,
		  "time": 46.840625,
		  "velocity": 0.5590551181102362
		},
		{
		  "duration": 0.1510416666666643,
		  "durationTicks": 145,
		  "midi": 59,
		  "name": "B3",
		  "ticks": 44967,
		  "time": 46.840625,
		  "velocity": 0.5275590551181102
		},
		{
		  "duration": 0.3604166666666657,
		  "durationTicks": 346,
		  "midi": 52,
		  "name": "E3",
		  "ticks": 44967,
		  "time": 46.840625,
		  "velocity": 0.4094488188976378
		},
		{
		  "duration": 0.20937500000000142,
		  "durationTicks": 201,
		  "midi": 76,
		  "name": "E5",
		  "ticks": 45090,
		  "time": 46.96875,
		  "velocity": 0.6456692913385826
		},
		{
		  "duration": 0.23229166666666146,
		  "durationTicks": 223,
		  "midi": 76,
		  "name": "E5",
		  "ticks": 45313,
		  "time": 47.20104166666667,
		  "velocity": 0.4566929133858268
		},
		{
		  "duration": 0.1510416666666643,
		  "durationTicks": 145,
		  "midi": 52,
		  "name": "E3",
		  "ticks": 45313,
		  "time": 47.20104166666667,
		  "velocity": 0.5511811023622047
		},
		{
		  "duration": 0.13958333333333428,
		  "durationTicks": 134,
		  "midi": 74,
		  "name": "D5",
		  "ticks": 45324,
		  "time": 47.2125,
		  "velocity": 0.5275590551181102
		},
		{
		  "duration": 0.1510416666666714,
		  "durationTicks": 145,
		  "midi": 64,
		  "name": "E4",
		  "ticks": 45324,
		  "time": 47.2125,
		  "velocity": 0.5669291338582677
		},
		{
		  "duration": 0.2562500000000014,
		  "durationTicks": 246,
		  "midi": 76,
		  "name": "E5",
		  "ticks": 45536,
		  "time": 47.43333333333333,
		  "velocity": 0.3937007874015748
		},
		{
		  "duration": 0.140625,
		  "durationTicks": 135,
		  "midi": 74,
		  "name": "D5",
		  "ticks": 45658,
		  "time": 47.56041666666667,
		  "velocity": 0.5196850393700787
		},
		{
		  "duration": 0.140625,
		  "durationTicks": 135,
		  "midi": 64,
		  "name": "E4",
		  "ticks": 45658,
		  "time": 47.56041666666667,
		  "velocity": 0.4330708661417323
		},
		{
		  "duration": 0.140625,
		  "durationTicks": 135,
		  "midi": 62,
		  "name": "D4",
		  "ticks": 45658,
		  "time": 47.56041666666667,
		  "velocity": 0.5275590551181102
		},
		{
		  "duration": 0.12916666666666998,
		  "durationTicks": 124,
		  "midi": 52,
		  "name": "E3",
		  "ticks": 45669,
		  "time": 47.571875,
		  "velocity": 0.5039370078740157
		},
		{
		  "duration": 0.3604166666666657,
		  "durationTicks": 346,
		  "midi": 76,
		  "name": "E5",
		  "ticks": 45782,
		  "time": 47.68958333333333,
		  "velocity": 0.5039370078740157
		},
		{
		  "duration": 0.13958333333333428,
		  "durationTicks": 134,
		  "midi": 74,
		  "name": "D5",
		  "ticks": 46005,
		  "time": 47.921875,
		  "velocity": 0.5118110236220472
		},
		{
		  "duration": 0.1510416666666643,
		  "durationTicks": 145,
		  "midi": 52,
		  "name": "E3",
		  "ticks": 46005,
		  "time": 47.921875,
		  "velocity": 0.5275590551181102
		},
		{
		  "duration": 0.22083333333333854,
		  "durationTicks": 212,
		  "midi": 76,
		  "name": "E5",
		  "ticks": 46128,
		  "time": 48.05,
		  "velocity": 0.6062992125984252
		},
		{
		  "duration": 0.20937500000000142,
		  "durationTicks": 201,
		  "midi": 52,
		  "name": "E3",
		  "ticks": 46261,
		  "time": 48.188541666666666,
		  "velocity": 0.3228346456692913
		},
		{
		  "duration": 0.17395833333333144,
		  "durationTicks": 167,
		  "midi": 57,
		  "name": "A3",
		  "ticks": 46339,
		  "time": 48.26979166666667,
		  "velocity": 0.6062992125984252
		},
		{
		  "duration": 0.13958333333333428,
		  "durationTicks": 134,
		  "midi": 69,
		  "name": "A4",
		  "ticks": 46351,
		  "time": 48.282291666666666,
		  "velocity": 0.5275590551181102
		},
		{
		  "duration": 0.1510416666666643,
		  "durationTicks": 145,
		  "midi": 64,
		  "name": "E4",
		  "ticks": 46351,
		  "time": 48.282291666666666,
		  "velocity": 0.5118110236220472
		},
		{
		  "duration": 0.19687499999999858,
		  "durationTicks": 189,
		  "midi": 76,
		  "name": "E5",
		  "ticks": 46484,
		  "time": 48.420833333333334,
		  "velocity": 0.5433070866141733
		},
		{
		  "duration": 0.17395833333333144,
		  "durationTicks": 167,
		  "midi": 52,
		  "name": "E3",
		  "ticks": 46629,
		  "time": 48.571875,
		  "velocity": 0.3937007874015748
		},
		{
		  "duration": 0.19687499999999858,
		  "durationTicks": 189,
		  "midi": 76,
		  "name": "E5",
		  "ticks": 46696,
		  "time": 48.641666666666666,
		  "velocity": 0.2755905511811024
		},
		{
		  "duration": 0.1510416666666643,
		  "durationTicks": 145,
		  "midi": 69,
		  "name": "A4",
		  "ticks": 46696,
		  "time": 48.641666666666666,
		  "velocity": 0.5354330708661418
		},
		{
		  "duration": 0.13958333333333428,
		  "durationTicks": 134,
		  "midi": 64,
		  "name": "E4",
		  "ticks": 46696,
		  "time": 48.641666666666666,
		  "velocity": 0.49606299212598426
		},
		{
		  "duration": 0.23229166666666856,
		  "durationTicks": 223,
		  "midi": 57,
		  "name": "A3",
		  "ticks": 46696,
		  "time": 48.641666666666666,
		  "velocity": 0.4881889763779528
		},
		{
		  "duration": 0.3604166666666657,
		  "durationTicks": 346,
		  "midi": 76,
		  "name": "E5",
		  "ticks": 46919,
		  "time": 48.873958333333334,
		  "velocity": 0.3543307086614173
		},
		{
		  "duration": 0.1510416666666643,
		  "durationTicks": 145,
		  "midi": 69,
		  "name": "A4",
		  "ticks": 46919,
		  "time": 48.873958333333334,
		  "velocity": 0.4566929133858268
		},
		{
		  "duration": 0.17395833333333144,
		  "durationTicks": 167,
		  "midi": 57,
		  "name": "A3",
		  "ticks": 46919,
		  "time": 48.873958333333334,
		  "velocity": 0.5905511811023622
		},
		{
		  "duration": 0.16250000000000142,
		  "durationTicks": 156,
		  "midi": 50,
		  "name": "D3",
		  "ticks": 46919,
		  "time": 48.873958333333334,
		  "velocity": 0.5669291338582677
		},
		{
		  "duration": 0.13958333333333428,
		  "durationTicks": 134,
		  "midi": 71,
		  "name": "B4",
		  "ticks": 47276,
		  "time": 49.24583333333333,
		  "velocity": 0.5118110236220472
		},
		{
		  "duration": 0.16250000000000142,
		  "durationTicks": 156,
		  "midi": 64,
		  "name": "E4",
		  "ticks": 47276,
		  "time": 49.24583333333333,
		  "velocity": 0.5354330708661418
		},
		{
		  "duration": 0.13958333333333428,
		  "durationTicks": 134,
		  "midi": 59,
		  "name": "B3",
		  "ticks": 47276,
		  "time": 49.24583333333333,
		  "velocity": 0.5275590551181102
		},
		{
		  "duration": 0.13958333333333428,
		  "durationTicks": 134,
		  "midi": 52,
		  "name": "E3",
		  "ticks": 47276,
		  "time": 49.24583333333333,
		  "velocity": 0.3937007874015748
		},
		{
		  "duration": 0.19687499999999858,
		  "durationTicks": 189,
		  "midi": 76,
		  "name": "E5",
		  "ticks": 47398,
		  "time": 49.37291666666667,
		  "velocity": 0.5354330708661418
		},
		{
		  "duration": 0.12916666666666998,
		  "durationTicks": 124,
		  "midi": 52,
		  "name": "E3",
		  "ticks": 47610,
		  "time": 49.59375,
		  "velocity": 0.5039370078740157
		},
		{
		  "duration": 0.3500000000000014,
		  "durationTicks": 336,
		  "midi": 76,
		  "name": "E5",
		  "ticks": 47621,
		  "time": 49.60520833333333,
		  "velocity": 0.3700787401574803
		},
		{
		  "duration": 0.140625,
		  "durationTicks": 135,
		  "midi": 71,
		  "name": "B4",
		  "ticks": 47621,
		  "time": 49.60520833333333,
		  "velocity": 0.5275590551181102
		},
		{
		  "duration": 0.12916666666666288,
		  "durationTicks": 124,
		  "midi": 64,
		  "name": "E4",
		  "ticks": 47632,
		  "time": 49.61666666666667,
		  "velocity": 0.5039370078740157
		},
		{
		  "duration": 0.48750000000000426,
		  "durationTicks": 468,
		  "midi": 76,
		  "name": "E5",
		  "ticks": 47957,
		  "time": 49.95520833333333,
		  "velocity": 0.4094488188976378
		},
		{
		  "duration": 0.13958333333333428,
		  "durationTicks": 134,
		  "midi": 71,
		  "name": "B4",
		  "ticks": 47957,
		  "time": 49.95520833333333,
		  "velocity": 0.5275590551181102
		},
		{
		  "duration": 0.1510416666666714,
		  "durationTicks": 145,
		  "midi": 59,
		  "name": "B3",
		  "ticks": 47957,
		  "time": 49.95520833333333,
		  "velocity": 0.5590551181102362
		},
		{
		  "duration": 0.16250000000000142,
		  "durationTicks": 156,
		  "midi": 52,
		  "name": "E3",
		  "ticks": 47957,
		  "time": 49.95520833333333,
		  "velocity": 0.5669291338582677
		},
		{
		  "duration": 0.1510416666666714,
		  "durationTicks": 145,
		  "midi": 59,
		  "name": "B3",
		  "ticks": 48302,
		  "time": 50.31458333333333,
		  "velocity": 0.5748031496062992
		},
		{
		  "duration": 0.1510416666666643,
		  "durationTicks": 145,
		  "midi": 71,
		  "name": "B4",
		  "ticks": 48313,
		  "time": 50.32604166666667,
		  "velocity": 0.5275590551181102
		},
		{
		  "duration": 0.1510416666666643,
		  "durationTicks": 145,
		  "midi": 64,
		  "name": "E4",
		  "ticks": 48313,
		  "time": 50.32604166666667,
		  "velocity": 0.4645669291338583
		},
		{
		  "duration": 0.16250000000000142,
		  "durationTicks": 156,
		  "midi": 52,
		  "name": "E3",
		  "ticks": 48313,
		  "time": 50.32604166666667,
		  "velocity": 0.5826771653543307
		},
		{
		  "duration": 0.23229166666666146,
		  "durationTicks": 223,
		  "midi": 76,
		  "name": "E5",
		  "ticks": 48425,
		  "time": 50.442708333333336,
		  "velocity": 0.6220472440944882
		},
		{
		  "duration": 0.13958333333333428,
		  "durationTicks": 134,
		  "midi": 76,
		  "name": "E5",
		  "ticks": 48648,
		  "time": 50.675,
		  "velocity": 0.29133858267716534
		},
		{
		  "duration": 0.13958333333333428,
		  "durationTicks": 134,
		  "midi": 71,
		  "name": "B4",
		  "ticks": 48648,
		  "time": 50.675,
		  "velocity": 0.49606299212598426
		},
		{
		  "duration": 0.16250000000000142,
		  "durationTicks": 156,
		  "midi": 64,
		  "name": "E4",
		  "ticks": 48648,
		  "time": 50.675,
		  "velocity": 0.4881889763779528
		},
		{
		  "duration": 0.1510416666666714,
		  "durationTicks": 145,
		  "midi": 59,
		  "name": "B3",
		  "ticks": 48648,
		  "time": 50.675,
		  "velocity": 0.5984251968503937
		},
		{
		  "duration": 0.1510416666666714,
		  "durationTicks": 145,
		  "midi": 52,
		  "name": "E3",
		  "ticks": 48648,
		  "time": 50.675,
		  "velocity": 0.5039370078740157
		},
		{
		  "duration": 0.20937500000000142,
		  "durationTicks": 201,
		  "midi": 76,
		  "name": "E5",
		  "ticks": 48782,
		  "time": 50.81458333333333,
		  "velocity": 0.6456692913385826
		},
		{
		  "duration": 0.17395833333333144,
		  "durationTicks": 167,
		  "midi": 71,
		  "name": "B4",
		  "ticks": 49004,
		  "time": 51.045833333333334,
		  "velocity": 0.5275590551181102
		},
		{
		  "duration": 0.16250000000000142,
		  "durationTicks": 156,
		  "midi": 64,
		  "name": "E4",
		  "ticks": 49004,
		  "time": 51.045833333333334,
		  "velocity": 0.5669291338582677
		},
		{
		  "duration": 0.1510416666666643,
		  "durationTicks": 145,
		  "midi": 59,
		  "name": "B3",
		  "ticks": 49004,
		  "time": 51.045833333333334,
		  "velocity": 0.5118110236220472
		},
		{
		  "duration": 0.17395833333333144,
		  "durationTicks": 167,
		  "midi": 52,
		  "name": "E3",
		  "ticks": 49004,
		  "time": 51.045833333333334,
		  "velocity": 0.6062992125984252
		},
		{
		  "duration": 0.22083333333333854,
		  "durationTicks": 212,
		  "midi": 76,
		  "name": "E5",
		  "ticks": 49127,
		  "time": 51.17395833333333,
		  "velocity": 0.6535433070866141
		},
		{
		  "duration": 0.1510416666666643,
		  "durationTicks": 145,
		  "midi": 76,
		  "name": "E5",
		  "ticks": 49339,
		  "time": 51.39479166666667,
		  "velocity": 0.2440944881889764
		},
		{
		  "duration": 0.16249999999999432,
		  "durationTicks": 156,
		  "midi": 59,
		  "name": "B3",
		  "ticks": 49339,
		  "time": 51.39479166666667,
		  "velocity": 0.5984251968503937
		},
		{
		  "duration": 0.17395833333333144,
		  "durationTicks": 167,
		  "midi": 71,
		  "name": "B4",
		  "ticks": 49350,
		  "time": 51.40625,
		  "velocity": 0.5275590551181102
		},
		{
		  "duration": 0.17395833333333144,
		  "durationTicks": 167,
		  "midi": 64,
		  "name": "E4",
		  "ticks": 49350,
		  "time": 51.40625,
		  "velocity": 0.5196850393700787
		},
		{
		  "duration": 0.17395833333333144,
		  "durationTicks": 167,
		  "midi": 52,
		  "name": "E3",
		  "ticks": 49350,
		  "time": 51.40625,
		  "velocity": 0.5511811023622047
		},
		{
		  "duration": 0.19895833333333002,
		  "durationTicks": 191,
		  "midi": 76,
		  "name": "E5",
		  "ticks": 49484,
		  "time": 51.545833333333334,
		  "velocity": 0.6614173228346457
		},
		{
		  "duration": 0.13958333333333428,
		  "durationTicks": 134,
		  "midi": 64,
		  "name": "E4",
		  "ticks": 49686,
		  "time": 51.75625,
		  "velocity": 0.5354330708661418
		},
		{
		  "duration": 0.13958333333333428,
		  "durationTicks": 134,
		  "midi": 59,
		  "name": "B3",
		  "ticks": 49686,
		  "time": 51.75625,
		  "velocity": 0.49606299212598426
		},
		{
		  "duration": 0.17395833333333144,
		  "durationTicks": 167,
		  "midi": 52,
		  "name": "E3",
		  "ticks": 49686,
		  "time": 51.75625,
		  "velocity": 0.6062992125984252
		},
		{
		  "duration": 0.20937500000000142,
		  "durationTicks": 201,
		  "midi": 76,
		  "name": "E5",
		  "ticks": 49697,
		  "time": 51.76770833333333,
		  "velocity": 0.44881889763779526
		},
		{
		  "duration": 0.16250000000000142,
		  "durationTicks": 156,
		  "midi": 71,
		  "name": "B4",
		  "ticks": 49697,
		  "time": 51.76770833333333,
		  "velocity": 0.5511811023622047
		},
		{
		  "duration": 0.2666666666666657,
		  "durationTicks": 256,
		  "midi": 76,
		  "name": "E5",
		  "ticks": 49897,
		  "time": 51.97604166666667,
		  "velocity": 0.4251968503937008
		},
		{
		  "duration": 0.18541666666666856,
		  "durationTicks": 178,
		  "midi": 52,
		  "name": "E3",
		  "ticks": 50031,
		  "time": 52.115625,
		  "velocity": 0.5905511811023622
		},
		{
		  "duration": 0.16250000000000142,
		  "durationTicks": 156,
		  "midi": 71,
		  "name": "B4",
		  "ticks": 50042,
		  "time": 52.12708333333333,
		  "velocity": 0.5039370078740157
		},
		{
		  "duration": 0.16250000000000142,
		  "durationTicks": 156,
		  "midi": 64,
		  "name": "E4",
		  "ticks": 50042,
		  "time": 52.12708333333333,
		  "velocity": 0.5590551181102362
		},
		{
		  "duration": 0.13958333333333428,
		  "durationTicks": 134,
		  "midi": 59,
		  "name": "B3",
		  "ticks": 50042,
		  "time": 52.12708333333333,
		  "velocity": 0.6377952755905512
		},
		{
		  "duration": 0.24374999999999858,
		  "durationTicks": 234,
		  "midi": 76,
		  "name": "E5",
		  "ticks": 50154,
		  "time": 52.24375,
		  "velocity": 0.6692913385826772
		},
		{
		  "duration": 0.16250000000000142,
		  "durationTicks": 156,
		  "midi": 71,
		  "name": "B4",
		  "ticks": 50377,
		  "time": 52.47604166666667,
		  "velocity": 0.49606299212598426
		},
		{
		  "duration": 0.16250000000000142,
		  "durationTicks": 156,
		  "midi": 59,
		  "name": "B3",
		  "ticks": 50377,
		  "time": 52.47604166666667,
		  "velocity": 0.6141732283464567
		},
		{
		  "duration": 0.17395833333333144,
		  "durationTicks": 167,
		  "midi": 52,
		  "name": "E3",
		  "ticks": 50377,
		  "time": 52.47604166666667,
		  "velocity": 0.5433070866141733
		},
		{
		  "duration": 0.24375000000000568,
		  "durationTicks": 234,
		  "midi": 76,
		  "name": "E5",
		  "ticks": 50388,
		  "time": 52.4875,
		  "velocity": 0.4251968503937008
		},
		{
		  "duration": 0.17395833333333854,
		  "durationTicks": 167,
		  "midi": 64,
		  "name": "E4",
		  "ticks": 50388,
		  "time": 52.4875,
		  "velocity": 0.5354330708661418
		},
		{
		  "duration": 0.22083333333333144,
		  "durationTicks": 212,
		  "midi": 76,
		  "name": "E5",
		  "ticks": 50622,
		  "time": 52.73125,
		  "velocity": 0.4015748031496063
		},
		{
		  "duration": 0.16249999999999432,
		  "durationTicks": 156,
		  "midi": 57,
		  "name": "A3",
		  "ticks": 50622,
		  "time": 52.73125,
		  "velocity": 0.5669291338582677
		},
		{
		  "duration": 0.1510416666666643,
		  "durationTicks": 145,
		  "midi": 50,
		  "name": "D3",
		  "ticks": 50622,
		  "time": 52.73125,
		  "velocity": 0.5590551181102362
		},
		{
		  "duration": 0.2552083333333357,
		  "durationTicks": 245,
		  "midi": 76,
		  "name": "E5",
		  "ticks": 50834,
		  "time": 52.952083333333334,
		  "velocity": 0.6771653543307087
		},
		{
		  "duration": 0.18541666666666856,
		  "durationTicks": 178,
		  "midi": 71,
		  "name": "B4",
		  "ticks": 50956,
		  "time": 53.079166666666666,
		  "velocity": 0.4566929133858268
		},
		{
		  "duration": 0.16250000000000142,
		  "durationTicks": 156,
		  "midi": 59,
		  "name": "B3",
		  "ticks": 50956,
		  "time": 53.079166666666666,
		  "velocity": 0.5905511811023622
		},
		{
		  "duration": 0.20937500000000142,
		  "durationTicks": 201,
		  "midi": 52,
		  "name": "E3",
		  "ticks": 50956,
		  "time": 53.079166666666666,
		  "velocity": 0.5196850393700787
		},
		{
		  "duration": 0.37187499999999574,
		  "durationTicks": 357,
		  "midi": 76,
		  "name": "E5",
		  "ticks": 51079,
		  "time": 53.20729166666667,
		  "velocity": 0.6850393700787402
		},
		{
		  "duration": 0.17395833333333144,
		  "durationTicks": 167,
		  "midi": 71,
		  "name": "B4",
		  "ticks": 51313,
		  "time": 53.45104166666667,
		  "velocity": 0.5039370078740157
		},
		{
		  "duration": 0.16250000000000142,
		  "durationTicks": 156,
		  "midi": 59,
		  "name": "B3",
		  "ticks": 51313,
		  "time": 53.45104166666667,
		  "velocity": 0.6062992125984252
		},
		{
		  "duration": 0.18541666666666146,
		  "durationTicks": 178,
		  "midi": 52,
		  "name": "E3",
		  "ticks": 51313,
		  "time": 53.45104166666667,
		  "velocity": 0.5354330708661418
		},
		{
		  "duration": 0.21041666666666714,
		  "durationTicks": 202,
		  "midi": 76,
		  "name": "E5",
		  "ticks": 51435,
		  "time": 53.578125,
		  "velocity": 0.6535433070866141
		},
		{
		  "duration": 0.13958333333333428,
		  "durationTicks": 134,
		  "midi": 76,
		  "name": "E5",
		  "ticks": 51637,
		  "time": 53.78854166666667,
		  "velocity": 0.7322834645669292
		},
		{
		  "duration": 0.1510416666666643,
		  "durationTicks": 145,
		  "midi": 71,
		  "name": "B4",
		  "ticks": 51637,
		  "time": 53.78854166666667,
		  "velocity": 0.4251968503937008
		},
		{
		  "duration": 0.17395833333333144,
		  "durationTicks": 167,
		  "midi": 59,
		  "name": "B3",
		  "ticks": 51637,
		  "time": 53.78854166666667,
		  "velocity": 0.5826771653543307
		},
		{
		  "duration": 0.18541666666666856,
		  "durationTicks": 178,
		  "midi": 52,
		  "name": "E3",
		  "ticks": 51637,
		  "time": 53.78854166666667,
		  "velocity": 0.5354330708661418
		},
		{
		  "duration": 0.24374999999999858,
		  "durationTicks": 234,
		  "midi": 76,
		  "name": "E5",
		  "ticks": 51771,
		  "time": 53.928125,
		  "velocity": 0.6535433070866141
		},
		{
		  "duration": 0.19687499999999858,
		  "durationTicks": 189,
		  "midi": 52,
		  "name": "E3",
		  "ticks": 51994,
		  "time": 54.16041666666667,
		  "velocity": 0.5433070866141733
		},
		{
		  "duration": 0.23229166666666856,
		  "durationTicks": 223,
		  "midi": 76,
		  "name": "E5",
		  "ticks": 52005,
		  "time": 54.171875,
		  "velocity": 0.7165354330708661
		},
		{
		  "duration": 0.1510416666666643,
		  "durationTicks": 145,
		  "midi": 71,
		  "name": "B4",
		  "ticks": 52005,
		  "time": 54.171875,
		  "velocity": 0.41732283464566927
		},
		{
		  "duration": 0.1510416666666643,
		  "durationTicks": 145,
		  "midi": 59,
		  "name": "B3",
		  "ticks": 52005,
		  "time": 54.171875,
		  "velocity": 0.5590551181102362
		},
		{
		  "duration": 0.24374999999999858,
		  "durationTicks": 234,
		  "midi": 76,
		  "name": "E5",
		  "ticks": 52228,
		  "time": 54.40416666666667,
		  "velocity": 0.6929133858267716
		},
		{
		  "duration": 0.17395833333333144,
		  "durationTicks": 167,
		  "midi": 71,
		  "name": "B4",
		  "ticks": 52339,
		  "time": 54.51979166666667,
		  "velocity": 0.5118110236220472
		},
		{
		  "duration": 0.16249999999999432,
		  "durationTicks": 156,
		  "midi": 59,
		  "name": "B3",
		  "ticks": 52339,
		  "time": 54.51979166666667,
		  "velocity": 0.5748031496062992
		},
		{
		  "duration": 0.18541666666666146,
		  "durationTicks": 178,
		  "midi": 52,
		  "name": "E3",
		  "ticks": 52339,
		  "time": 54.51979166666667,
		  "velocity": 0.5354330708661418
		},
		{
		  "duration": 0.3604166666666657,
		  "durationTicks": 346,
		  "midi": 76,
		  "name": "E5",
		  "ticks": 52462,
		  "time": 54.64791666666667,
		  "velocity": 0.5354330708661418
		},
		{
		  "duration": 0.19687499999999858,
		  "durationTicks": 189,
		  "midi": 52,
		  "name": "E3",
		  "ticks": 52607,
		  "time": 54.79895833333333,
		  "velocity": 0.3858267716535433
		},
		{
		  "duration": 0.13958333333333428,
		  "durationTicks": 134,
		  "midi": 74,
		  "name": "D5",
		  "ticks": 52685,
		  "time": 54.880208333333336,
		  "velocity": 0.5275590551181102
		},
		{
		  "duration": 0.16249999999999432,
		  "durationTicks": 156,
		  "midi": 69,
		  "name": "A4",
		  "ticks": 52685,
		  "time": 54.880208333333336,
		  "velocity": 0.5826771653543307
		},
		{
		  "duration": 0.1510416666666643,
		  "durationTicks": 145,
		  "midi": 62,
		  "name": "D4",
		  "ticks": 52685,
		  "time": 54.880208333333336,
		  "velocity": 0.5511811023622047
		},
		{
		  "duration": 0.3604166666666657,
		  "durationTicks": 346,
		  "midi": 76,
		  "name": "E5",
		  "ticks": 52808,
		  "time": 55.00833333333333,
		  "velocity": 0.49606299212598426
		},
		{
		  "duration": 0.20937500000000142,
		  "durationTicks": 201,
		  "midi": 52,
		  "name": "E3",
		  "ticks": 52952,
		  "time": 55.15833333333333,
		  "velocity": 0.3543307086614173
		},
		{
		  "duration": 0.13958333333333428,
		  "durationTicks": 134,
		  "midi": 74,
		  "name": "D5",
		  "ticks": 53042,
		  "time": 55.25208333333333,
		  "velocity": 0.5118110236220472
		},
		{
		  "duration": 0.17395833333333854,
		  "durationTicks": 167,
		  "midi": 69,
		  "name": "A4",
		  "ticks": 53042,
		  "time": 55.25208333333333,
		  "velocity": 0.6062992125984252
		},
		{
		  "duration": 0.1510416666666714,
		  "durationTicks": 145,
		  "midi": 62,
		  "name": "D4",
		  "ticks": 53042,
		  "time": 55.25208333333333,
		  "velocity": 0.5433070866141733
		},
		{
		  "duration": 0.23229166666666856,
		  "durationTicks": 223,
		  "midi": 76,
		  "name": "E5",
		  "ticks": 53153,
		  "time": 55.36770833333333,
		  "velocity": 0.5905511811023622
		},
		{
		  "duration": 0.22187499999999716,
		  "durationTicks": 213,
		  "midi": 76,
		  "name": "E5",
		  "ticks": 53376,
		  "time": 55.6,
		  "velocity": 0.41732283464566927
		},
		{
		  "duration": 0.140625,
		  "durationTicks": 135,
		  "midi": 74,
		  "name": "D5",
		  "ticks": 53376,
		  "time": 55.6,
		  "velocity": 0.5826771653543307
		},
		{
		  "duration": 0.15208333333333002,
		  "durationTicks": 146,
		  "midi": 62,
		  "name": "D4",
		  "ticks": 53376,
		  "time": 55.6,
		  "velocity": 0.5590551181102362
		},
		{
		  "duration": 0.12916666666666288,
		  "durationTicks": 124,
		  "midi": 52,
		  "name": "E3",
		  "ticks": 53376,
		  "time": 55.6,
		  "velocity": 0.4566929133858268
		},
		{
		  "duration": 0.16354166666666714,
		  "durationTicks": 157,
		  "midi": 69,
		  "name": "A4",
		  "ticks": 53387,
		  "time": 55.61145833333333,
		  "velocity": 0.6299212598425197
		},
		{
		  "duration": 0.2666666666666657,
		  "durationTicks": 256,
		  "midi": 76,
		  "name": "E5",
		  "ticks": 53589,
		  "time": 55.821875,
		  "velocity": 0.4330708661417323
		},
		{
		  "duration": 0.16250000000000142,
		  "durationTicks": 156,
		  "midi": 74,
		  "name": "D5",
		  "ticks": 53723,
		  "time": 55.96145833333333,
		  "velocity": 0.5905511811023622
		},
		{
		  "duration": 0.16250000000000142,
		  "durationTicks": 156,
		  "midi": 57,
		  "name": "A3",
		  "ticks": 53723,
		  "time": 55.96145833333333,
		  "velocity": 0.5275590551181102
		},
		{
		  "duration": 0.3604166666666657,
		  "durationTicks": 346,
		  "midi": 52,
		  "name": "E3",
		  "ticks": 53723,
		  "time": 55.96145833333333,
		  "velocity": 0.4330708661417323
		},
		{
		  "duration": 0.3604166666666657,
		  "durationTicks": 346,
		  "midi": 76,
		  "name": "E5",
		  "ticks": 53845,
		  "time": 56.088541666666664,
		  "velocity": 0.48031496062992124
		},
		{
		  "duration": 0.24374999999999858,
		  "durationTicks": 234,
		  "midi": 74,
		  "name": "D5",
		  "ticks": 54068,
		  "time": 56.32083333333333,
		  "velocity": 0.5196850393700787
		},
		{
		  "duration": 0.34791666666667,
		  "durationTicks": 334,
		  "midi": 69,
		  "name": "A4",
		  "ticks": 54068,
		  "time": 56.32083333333333,
		  "velocity": 0.3779527559055118
		},
		{
		  "duration": 0.24374999999999858,
		  "durationTicks": 234,
		  "midi": 57,
		  "name": "A3",
		  "ticks": 54068,
		  "time": 56.32083333333333,
		  "velocity": 0.5275590551181102
		},
		{
		  "duration": 0.1510416666666643,
		  "durationTicks": 145,
		  "midi": 52,
		  "name": "E3",
		  "ticks": 54068,
		  "time": 56.32083333333333,
		  "velocity": 0.4645669291338583
		},
		{
		  "duration": 0.24375000000000568,
		  "durationTicks": 234,
		  "midi": 76,
		  "name": "E5",
		  "ticks": 54191,
		  "time": 56.44895833333333,
		  "velocity": 0.3464566929133858
		},
		{
		  "duration": 0.17395833333333144,
		  "durationTicks": 167,
		  "midi": 50,
		  "name": "D3",
		  "ticks": 54291,
		  "time": 56.553125,
		  "velocity": 0.5905511811023622
		},
		{
		  "duration": 0.16250000000000142,
		  "durationTicks": 156,
		  "midi": 74,
		  "name": "D5",
		  "ticks": 54302,
		  "time": 56.56458333333333,
		  "velocity": 0.6062992125984252
		},
		{
		  "duration": 0.19687499999999858,
		  "durationTicks": 189,
		  "midi": 57,
		  "name": "A3",
		  "ticks": 54302,
		  "time": 56.56458333333333,
		  "velocity": 0.6062992125984252
		},
		{
		  "duration": 0.23229166666666146,
		  "durationTicks": 223,
		  "midi": 76,
		  "name": "E5",
		  "ticks": 54425,
		  "time": 56.692708333333336,
		  "velocity": 0.5511811023622047
		},
		{
		  "duration": 0.20937500000000142,
		  "durationTicks": 201,
		  "midi": 71,
		  "name": "B4",
		  "ticks": 54436,
		  "time": 56.704166666666666,
		  "velocity": 0.3779527559055118
		},
		{
		  "duration": 3.4510416666666686,
		  "durationTicks": 3313,
		  "midi": 59,
		  "name": "B3",
		  "ticks": 54637,
		  "time": 56.91354166666667,
		  "velocity": 0.6141732283464567
		},
		{
		  "duration": 0.3604166666666728,
		  "durationTicks": 346,
		  "midi": 76,
		  "name": "E5",
		  "ticks": 54648,
		  "time": 56.925,
		  "velocity": 0.6614173228346457
		},
		{
		  "duration": 3.4156250000000057,
		  "durationTicks": 3279,
		  "midi": 71,
		  "name": "B4",
		  "ticks": 54648,
		  "time": 56.925,
		  "velocity": 0.4566929133858268
		},
		{
		  "duration": 0.18541666666666856,
		  "durationTicks": 178,
		  "midi": 64,
		  "name": "E4",
		  "ticks": 54648,
		  "time": 56.925,
		  "velocity": 0.31496062992125984
		},
		{
		  "duration": 2.882291666666667,
		  "durationTicks": 2767,
		  "midi": 52,
		  "name": "E3",
		  "ticks": 54648,
		  "time": 56.925,
		  "velocity": 0.6771653543307087
		},
		{
		  "duration": 3.126041666666673,
		  "durationTicks": 3001,
		  "midi": 76,
		  "name": "E5",
		  "ticks": 54993,
		  "time": 57.284375,
		  "velocity": 0.6220472440944882
		},
		{
		  "duration": 0.2447916666666643,
		  "durationTicks": 235,
		  "midi": 64,
		  "name": "E4",
		  "ticks": 55216,
		  "time": 57.516666666666666,
		  "velocity": 0.41732283464566927
		},
		{
		  "duration": 0.5458333333333343,
		  "durationTicks": 524,
		  "midi": 64,
		  "name": "E4",
		  "ticks": 55730,
		  "time": 58.052083333333336,
		  "velocity": 0.4251968503937008
		},
		{
		  "duration": 0.39479166666667,
		  "durationTicks": 379,
		  "midi": 100,
		  "name": "E7",
		  "ticks": 56131,
		  "time": 58.469791666666666,
		  "velocity": 0.3937007874015748
		},
		{
		  "duration": 1.2781250000000028,
		  "durationTicks": 1227,
		  "midi": 64,
		  "name": "E4",
		  "ticks": 56733,
		  "time": 59.096875,
		  "velocity": 0.4015748031496063
		},
		{
		  "duration": 0.1510416666666714,
		  "durationTicks": 145,
		  "midi": 52,
		  "name": "E3",
		  "ticks": 57414,
		  "time": 59.80625,
		  "velocity": 0.5433070866141733
		},
		{
		  "duration": 0.1510416666666643,
		  "durationTicks": 145,
		  "midi": 40,
		  "name": "E2",
		  "ticks": 57793,
		  "time": 60.20104166666667,
		  "velocity": 0.31496062992125984
		},
		{
		  "duration": 0.18541666666666146,
		  "durationTicks": 178,
		  "midi": 38,
		  "name": "D2",
		  "ticks": 57949,
		  "time": 60.36354166666667,
		  "velocity": 0.30708661417322836
		},
		{
		  "duration": 0.3020833333333286,
		  "durationTicks": 290,
		  "midi": 74,
		  "name": "D5",
		  "ticks": 57994,
		  "time": 60.41041666666667,
		  "velocity": 0.36220472440944884
		},
		{
		  "duration": 0.13958333333333428,
		  "durationTicks": 134,
		  "midi": 62,
		  "name": "D4",
		  "ticks": 58005,
		  "time": 60.421875,
		  "velocity": 0.48031496062992124
		},
		{
		  "duration": 0.17395833333333854,
		  "durationTicks": 167,
		  "midi": 74,
		  "name": "D5",
		  "ticks": 58473,
		  "time": 60.909375,
		  "velocity": 0.5039370078740157
		},
		{
		  "duration": 0.13958333333333428,
		  "durationTicks": 134,
		  "midi": 71,
		  "name": "B4",
		  "ticks": 58685,
		  "time": 61.130208333333336,
		  "velocity": 0.48031496062992124
		},
		{
		  "duration": 0.13958333333333428,
		  "durationTicks": 134,
		  "midi": 52,
		  "name": "E3",
		  "ticks": 58685,
		  "time": 61.130208333333336,
		  "velocity": 0.4566929133858268
		},
		{
		  "duration": 0.1510416666666643,
		  "durationTicks": 145,
		  "midi": 40,
		  "name": "E2",
		  "ticks": 58696,
		  "time": 61.141666666666666,
		  "velocity": 0.33070866141732286
		},
		{
		  "duration": 0.20937500000000142,
		  "durationTicks": 201,
		  "midi": 74,
		  "name": "D5",
		  "ticks": 58796,
		  "time": 61.24583333333333,
		  "velocity": 0.5590551181102362
		},
		{
		  "duration": 0.17500000000000426,
		  "durationTicks": 168,
		  "midi": 40,
		  "name": "E2",
		  "ticks": 59019,
		  "time": 61.478125,
		  "velocity": 0.3543307086614173
		},
		{
		  "duration": 0.3604166666666657,
		  "durationTicks": 346,
		  "midi": 74,
		  "name": "D5",
		  "ticks": 59244,
		  "time": 61.7125,
		  "velocity": 0.5118110236220472
		},
		{
		  "duration": 0.16250000000000142,
		  "durationTicks": 156,
		  "midi": 59,
		  "name": "B3",
		  "ticks": 59355,
		  "time": 61.828125,
		  "velocity": 0.4881889763779528
		},
		{
		  "duration": 0.1510416666666643,
		  "durationTicks": 145,
		  "midi": 52,
		  "name": "E3",
		  "ticks": 59355,
		  "time": 61.828125,
		  "velocity": 0.5196850393700787
		},
		{
		  "duration": 0.1510416666666714,
		  "durationTicks": 145,
		  "midi": 71,
		  "name": "B4",
		  "ticks": 59366,
		  "time": 61.83958333333333,
		  "velocity": 0.4015748031496063
		},
		{
		  "duration": 0.2552083333333357,
		  "durationTicks": 245,
		  "midi": 74,
		  "name": "D5",
		  "ticks": 59589,
		  "time": 62.071875,
		  "velocity": 0.47244094488188976
		},
		{
		  "duration": 0.2552083333333357,
		  "durationTicks": 245,
		  "midi": 40,
		  "name": "E2",
		  "ticks": 59700,
		  "time": 62.1875,
		  "velocity": 0.3937007874015748
		},
		{
		  "duration": 0.16249999999999432,
		  "durationTicks": 156,
		  "midi": 71,
		  "name": "B4",
		  "ticks": 59712,
		  "time": 62.2,
		  "velocity": 0.4330708661417323
		},
		{
		  "duration": 0.16249999999999432,
		  "durationTicks": 156,
		  "midi": 64,
		  "name": "E4",
		  "ticks": 59712,
		  "time": 62.2,
		  "velocity": 0.5433070866141733
		},
		{
		  "duration": 0.13958333333332718,
		  "durationTicks": 134,
		  "midi": 59,
		  "name": "B3",
		  "ticks": 59712,
		  "time": 62.2,
		  "velocity": 0.47244094488188976
		},
		{
		  "duration": 0.3604166666666657,
		  "durationTicks": 346,
		  "midi": 52,
		  "name": "E3",
		  "ticks": 59712,
		  "time": 62.2,
		  "velocity": 0.3700787401574803
		},
		{
		  "duration": 0.23229166666666856,
		  "durationTicks": 223,
		  "midi": 74,
		  "name": "D5",
		  "ticks": 59834,
		  "time": 62.327083333333334,
		  "velocity": 0.6850393700787402
		},
		{
		  "duration": 0.13958333333332718,
		  "durationTicks": 134,
		  "midi": 74,
		  "name": "D5",
		  "ticks": 60057,
		  "time": 62.559375,
		  "velocity": 0.6377952755905512
		},
		{
		  "duration": 0.16249999999999432,
		  "durationTicks": 156,
		  "midi": 52,
		  "name": "E3",
		  "ticks": 60057,
		  "time": 62.559375,
		  "velocity": 0.5275590551181102
		},
		{
		  "duration": 0.22083333333333854,
		  "durationTicks": 212,
		  "midi": 74,
		  "name": "D5",
		  "ticks": 60191,
		  "time": 62.69895833333333,
		  "velocity": 0.5590551181102362
		},
		{
		  "duration": 0.13958333333333428,
		  "durationTicks": 134,
		  "midi": 74,
		  "name": "D5",
		  "ticks": 60403,
		  "time": 62.91979166666667,
		  "velocity": 0.5275590551181102
		},
		{
		  "duration": 0.23229166666666146,
		  "durationTicks": 223,
		  "midi": 40,
		  "name": "E2",
		  "ticks": 60403,
		  "time": 62.91979166666667,
		  "velocity": 0.2992125984251969
		},
		{
		  "duration": 0.13958333333333428,
		  "durationTicks": 134,
		  "midi": 64,
		  "name": "E4",
		  "ticks": 60414,
		  "time": 62.93125,
		  "velocity": 0.4645669291338583
		},
		{
		  "duration": 0.13958333333333428,
		  "durationTicks": 134,
		  "midi": 52,
		  "name": "E3",
		  "ticks": 60414,
		  "time": 62.93125,
		  "velocity": 0.4881889763779528
		},
		{
		  "duration": 0.3604166666666728,
		  "durationTicks": 346,
		  "midi": 74,
		  "name": "D5",
		  "ticks": 60536,
		  "time": 63.05833333333333,
		  "velocity": 0.4566929133858268
		},
		{
		  "duration": 0.13958333333333428,
		  "durationTicks": 134,
		  "midi": 76,
		  "name": "E5",
		  "ticks": 60626,
		  "time": 63.15208333333333,
		  "velocity": 0.6141732283464567
		},
		{
		  "duration": 0.13958333333333428,
		  "durationTicks": 134,
		  "midi": 52,
		  "name": "E3",
		  "ticks": 60748,
		  "time": 63.27916666666667,
		  "velocity": 0.4330708661417323
		},
		{
		  "duration": 0.1510416666666714,
		  "durationTicks": 145,
		  "midi": 64,
		  "name": "E4",
		  "ticks": 60759,
		  "time": 63.290625,
		  "velocity": 0.5354330708661418
		},
		{
		  "duration": 0.1510416666666714,
		  "durationTicks": 145,
		  "midi": 62,
		  "name": "D4",
		  "ticks": 60759,
		  "time": 63.290625,
		  "velocity": 0.4645669291338583
		},
		{
		  "duration": 0.16250000000000142,
		  "durationTicks": 156,
		  "midi": 40,
		  "name": "E2",
		  "ticks": 60759,
		  "time": 63.290625,
		  "velocity": 0.3228346456692913
		},
		{
		  "duration": 0.23333333333333428,
		  "durationTicks": 224,
		  "midi": 69,
		  "name": "A4",
		  "ticks": 60982,
		  "time": 63.52291666666667,
		  "velocity": 0.6141732283464567
		},
		{
		  "duration": 0.13958333333333428,
		  "durationTicks": 134,
		  "midi": 64,
		  "name": "E4",
		  "ticks": 61073,
		  "time": 63.61770833333333,
		  "velocity": 0.5590551181102362
		},
		{
		  "duration": 0.1510416666666643,
		  "durationTicks": 145,
		  "midi": 57,
		  "name": "A3",
		  "ticks": 61095,
		  "time": 63.640625,
		  "velocity": 0.5039370078740157
		},
		{
		  "duration": 0.24374999999999858,
		  "durationTicks": 234,
		  "midi": 69,
		  "name": "A4",
		  "ticks": 61206,
		  "time": 63.75625,
		  "velocity": 0.6141732283464567
		},
		{
		  "duration": 0.1510416666666643,
		  "durationTicks": 145,
		  "midi": 52,
		  "name": "E3",
		  "ticks": 61429,
		  "time": 63.98854166666667,
		  "velocity": 0.3464566929133858
		},
		{
		  "duration": 0.24375000000000568,
		  "durationTicks": 234,
		  "midi": 69,
		  "name": "A4",
		  "ticks": 61440,
		  "time": 64,
		  "velocity": 0.6614173228346457
		},
		{
		  "duration": 0.1510416666666714,
		  "durationTicks": 145,
		  "midi": 57,
		  "name": "A3",
		  "ticks": 61440,
		  "time": 64,
		  "velocity": 0.4566929133858268
		},
		{
		  "duration": 0.1510416666666572,
		  "durationTicks": 145,
		  "midi": 64,
		  "name": "E4",
		  "ticks": 61452,
		  "time": 64.0125,
		  "velocity": 0.6220472440944882
		},
		{
		  "duration": 0.18541666666666856,
		  "durationTicks": 178,
		  "midi": 38,
		  "name": "D2",
		  "ticks": 61663,
		  "time": 64.23229166666667,
		  "velocity": 0.31496062992125984
		},
		{
		  "duration": 0.24374999999999147,
		  "durationTicks": 234,
		  "midi": 69,
		  "name": "A4",
		  "ticks": 61674,
		  "time": 64.24375,
		  "velocity": 0.5984251968503937
		},
		{
		  "duration": 0.13958333333333428,
		  "durationTicks": 134,
		  "midi": 57,
		  "name": "A3",
		  "ticks": 61674,
		  "time": 64.24375,
		  "velocity": 0.3543307086614173
		},
		{
		  "duration": 0.13958333333333428,
		  "durationTicks": 134,
		  "midi": 50,
		  "name": "D3",
		  "ticks": 61674,
		  "time": 64.24375,
		  "velocity": 0.4566929133858268
		},
		{
		  "duration": 0.13958333333333428,
		  "durationTicks": 134,
		  "midi": 62,
		  "name": "D4",
		  "ticks": 61686,
		  "time": 64.25625,
		  "velocity": 0.5354330708661418
		},
		{
		  "duration": 0.2552083333333428,
		  "durationTicks": 245,
		  "midi": 69,
		  "name": "A4",
		  "ticks": 61909,
		  "time": 64.48854166666666,
		  "velocity": 0.4409448818897638
		},
		{
		  "duration": 0.13958333333333428,
		  "durationTicks": 134,
		  "midi": 59,
		  "name": "B3",
		  "ticks": 62009,
		  "time": 64.59270833333333,
		  "velocity": 0.5748031496062992
		},
		{
		  "duration": 0.13958333333333428,
		  "durationTicks": 134,
		  "midi": 52,
		  "name": "E3",
		  "ticks": 62031,
		  "time": 64.615625,
		  "velocity": 0.48031496062992124
		},
		{
		  "duration": 0.4645833333333229,
		  "durationTicks": 446,
		  "midi": 69,
		  "name": "A4",
		  "ticks": 62154,
		  "time": 64.74375,
		  "velocity": 0.5669291338582677
		},
		{
		  "duration": 0.13958333333333428,
		  "durationTicks": 134,
		  "midi": 64,
		  "name": "E4",
		  "ticks": 62377,
		  "time": 64.97604166666666,
		  "velocity": 0.5433070866141733
		},
		{
		  "duration": 0.1510416666666714,
		  "durationTicks": 145,
		  "midi": 59,
		  "name": "B3",
		  "ticks": 62377,
		  "time": 64.97604166666666,
		  "velocity": 0.5433070866141733
		},
		{
		  "duration": 0.13958333333333428,
		  "durationTicks": 134,
		  "midi": 52,
		  "name": "E3",
		  "ticks": 62377,
		  "time": 64.97604166666666,
		  "velocity": 0.5275590551181102
		},
		{
		  "duration": 0.18541666666666856,
		  "durationTicks": 178,
		  "midi": 40,
		  "name": "E2",
		  "ticks": 62377,
		  "time": 64.97604166666666,
		  "velocity": 0.4094488188976378
		},
		{
		  "duration": 0.3500000000000085,
		  "durationTicks": 336,
		  "midi": 69,
		  "name": "A4",
		  "ticks": 62600,
		  "time": 65.20833333333333,
		  "velocity": 0.5275590551181102
		},
		{
		  "duration": 0.16249999999999432,
		  "durationTicks": 156,
		  "midi": 52,
		  "name": "E3",
		  "ticks": 62711,
		  "time": 65.32395833333334,
		  "velocity": 0.49606299212598426
		},
		{
		  "duration": 0.1510416666666714,
		  "durationTicks": 145,
		  "midi": 64,
		  "name": "E4",
		  "ticks": 62722,
		  "time": 65.33541666666666,
		  "velocity": 0.5511811023622047
		},
		{
		  "duration": 0.13958333333333428,
		  "durationTicks": 134,
		  "midi": 59,
		  "name": "B3",
		  "ticks": 62722,
		  "time": 65.33541666666666,
		  "velocity": 0.4881889763779528
		},
		{
		  "duration": 0.1510416666666714,
		  "durationTicks": 145,
		  "midi": 40,
		  "name": "E2",
		  "ticks": 62722,
		  "time": 65.33541666666666,
		  "velocity": 0.33070866141732286
		},
		{
		  "duration": 0.13958333333333428,
		  "durationTicks": 134,
		  "midi": 69,
		  "name": "A4",
		  "ticks": 62935,
		  "time": 65.55729166666667,
		  "velocity": 0.5748031496062992
		},
		{
		  "duration": 0.1510416666666714,
		  "durationTicks": 145,
		  "midi": 64,
		  "name": "E4",
		  "ticks": 63058,
		  "time": 65.68541666666667,
		  "velocity": 0.4409448818897638
		},
		{
		  "duration": 0.13958333333333428,
		  "durationTicks": 134,
		  "midi": 59,
		  "name": "B3",
		  "ticks": 63058,
		  "time": 65.68541666666667,
		  "velocity": 0.3700787401574803
		},
		{
		  "duration": 0.16249999999999432,
		  "durationTicks": 156,
		  "midi": 52,
		  "name": "E3",
		  "ticks": 63058,
		  "time": 65.68541666666667,
		  "velocity": 0.47244094488188976
		},
		{
		  "duration": 0.2666666666666657,
		  "durationTicks": 256,
		  "midi": 69,
		  "name": "A4",
		  "ticks": 63270,
		  "time": 65.90625,
		  "velocity": 0.4094488188976378
		},
		{
		  "duration": 0.13958333333333428,
		  "durationTicks": 134,
		  "midi": 64,
		  "name": "E4",
		  "ticks": 63403,
		  "time": 66.04479166666667,
		  "velocity": 0.5039370078740157
		},
		{
		  "duration": 0.13958333333333428,
		  "durationTicks": 134,
		  "midi": 59,
		  "name": "B3",
		  "ticks": 63403,
		  "time": 66.04479166666667,
		  "velocity": 0.48031496062992124
		},
		{
		  "duration": 0.3604166666666657,
		  "durationTicks": 346,
		  "midi": 69,
		  "name": "A4",
		  "ticks": 63526,
		  "time": 66.17291666666667,
		  "velocity": 0.5433070866141733
		},
		{
		  "duration": 0.1510416666666714,
		  "durationTicks": 145,
		  "midi": 59,
		  "name": "B3",
		  "ticks": 63749,
		  "time": 66.40520833333333,
		  "velocity": 0.5511811023622047
		},
		{
		  "duration": 0.1510416666666714,
		  "durationTicks": 145,
		  "midi": 52,
		  "name": "E3",
		  "ticks": 63749,
		  "time": 66.40520833333333,
		  "velocity": 0.44881889763779526
		},
		{
		  "duration": 0.47604166666667425,
		  "durationTicks": 457,
		  "midi": 69,
		  "name": "A4",
		  "ticks": 63871,
		  "time": 66.53229166666667,
		  "velocity": 0.44881889763779526
		},
		{
		  "duration": 0.1510416666666714,
		  "durationTicks": 145,
		  "midi": 40,
		  "name": "E2",
		  "ticks": 64072,
		  "time": 66.74166666666666,
		  "velocity": 0.29133858267716534
		},
		{
		  "duration": 0.3604166666666657,
		  "durationTicks": 346,
		  "midi": 71,
		  "name": "B4",
		  "ticks": 64094,
		  "time": 66.76458333333333,
		  "velocity": 0.4566929133858268
		},
		{
		  "duration": 0.16250000000000853,
		  "durationTicks": 156,
		  "midi": 52,
		  "name": "E3",
		  "ticks": 64429,
		  "time": 67.11354166666666,
		  "velocity": 0.4566929133858268
		},
		{
		  "duration": 0.1510416666666714,
		  "durationTicks": 145,
		  "midi": 71,
		  "name": "B4",
		  "ticks": 64440,
		  "time": 67.125,
		  "velocity": 0.5196850393700787
		},
		{
		  "duration": 0.1510416666666714,
		  "durationTicks": 145,
		  "midi": 64,
		  "name": "E4",
		  "ticks": 64440,
		  "time": 67.125,
		  "velocity": 0.3858267716535433
		},
		{
		  "duration": 0.15208333333333712,
		  "durationTicks": 146,
		  "midi": 52,
		  "name": "E3",
		  "ticks": 64785,
		  "time": 67.484375,
		  "velocity": 0.4330708661417323
		},
		{
		  "duration": 0.22187499999999716,
		  "durationTicks": 213,
		  "midi": 67,
		  "name": "G4",
		  "ticks": 64796,
		  "time": 67.49583333333334,
		  "velocity": 0.33070866141732286
		},
		{
		  "duration": 0.3604166666666657,
		  "durationTicks": 346,
		  "midi": 67,
		  "name": "G4",
		  "ticks": 65009,
		  "time": 67.71770833333333,
		  "velocity": 0.4251968503937008
		},
		{
		  "duration": 0.16249999999999432,
		  "durationTicks": 156,
		  "midi": 40,
		  "name": "E2",
		  "ticks": 65110,
		  "time": 67.82291666666667,
		  "velocity": 0.2755905511811024
		},
		{
		  "duration": 0.1510416666666714,
		  "durationTicks": 145,
		  "midi": 71,
		  "name": "B4",
		  "ticks": 65132,
		  "time": 67.84583333333333,
		  "velocity": 0.48031496062992124
		},
		{
		  "duration": 0.23229166666666856,
		  "durationTicks": 223,
		  "midi": 74,
		  "name": "D5",
		  "ticks": 65366,
		  "time": 68.08958333333334,
		  "velocity": 0.6299212598425197
		},
		{
		  "duration": 0.13958333333333428,
		  "durationTicks": 134,
		  "midi": 69,
		  "name": "A4",
		  "ticks": 65366,
		  "time": 68.08958333333334,
		  "velocity": 0.44881889763779526
		},
		{
		  "duration": 0.13958333333333428,
		  "durationTicks": 134,
		  "midi": 76,
		  "name": "E5",
		  "ticks": 65578,
		  "time": 68.31041666666667,
		  "velocity": 0.5826771653543307
		},
		{
		  "duration": 0.3604166666666657,
		  "durationTicks": 346,
		  "midi": 76,
		  "name": "E5",
		  "ticks": 65712,
		  "time": 68.45,
		  "velocity": 0.5984251968503937
		},
		{
		  "duration": 0.13958333333333428,
		  "durationTicks": 134,
		  "midi": 76,
		  "name": "E5",
		  "ticks": 66057,
		  "time": 68.809375,
		  "velocity": 0.6692913385826772
		},
		{
		  "duration": 0.13958333333333428,
		  "durationTicks": 134,
		  "midi": 71,
		  "name": "B4",
		  "ticks": 66057,
		  "time": 68.809375,
		  "velocity": 0.49606299212598426
		},
		{
		  "duration": 0.1510416666666572,
		  "durationTicks": 145,
		  "midi": 59,
		  "name": "B3",
		  "ticks": 66057,
		  "time": 68.809375,
		  "velocity": 0.4409448818897638
		},
		{
		  "duration": 0.17395833333333144,
		  "durationTicks": 167,
		  "midi": 40,
		  "name": "E2",
		  "ticks": 66057,
		  "time": 68.809375,
		  "velocity": 0.2992125984251969
		},
		{
		  "duration": 0.22083333333333144,
		  "durationTicks": 212,
		  "midi": 76,
		  "name": "E5",
		  "ticks": 66191,
		  "time": 68.94895833333334,
		  "velocity": 0.5196850393700787
		},
		{
		  "duration": 0.16250000000000853,
		  "durationTicks": 156,
		  "midi": 40,
		  "name": "E2",
		  "ticks": 66392,
		  "time": 69.15833333333333,
		  "velocity": 0.30708661417322836
		},
		{
		  "duration": 0.23229166666666856,
		  "durationTicks": 223,
		  "midi": 76,
		  "name": "E5",
		  "ticks": 66403,
		  "time": 69.16979166666667,
		  "velocity": 0.6299212598425197
		},
		{
		  "duration": 0.13958333333333428,
		  "durationTicks": 134,
		  "midi": 71,
		  "name": "B4",
		  "ticks": 66403,
		  "time": 69.16979166666667,
		  "velocity": 0.47244094488188976
		},
		{
		  "duration": 0.13958333333333428,
		  "durationTicks": 134,
		  "midi": 59,
		  "name": "B3",
		  "ticks": 66403,
		  "time": 69.16979166666667,
		  "velocity": 0.4566929133858268
		},
		{
		  "duration": 0.12916666666666288,
		  "durationTicks": 124,
		  "midi": 76,
		  "name": "E5",
		  "ticks": 66626,
		  "time": 69.40208333333334,
		  "velocity": 0.6141732283464567
		},
		{
		  "duration": 0.12916666666666288,
		  "durationTicks": 124,
		  "midi": 59,
		  "name": "B3",
		  "ticks": 66748,
		  "time": 69.52916666666667,
		  "velocity": 0.4094488188976378
		},
		{
		  "duration": 0.140625,
		  "durationTicks": 135,
		  "midi": 52,
		  "name": "E3",
		  "ticks": 66748,
		  "time": 69.52916666666667,
		  "velocity": 0.4645669291338583
		},
		{
		  "duration": 0.22083333333333144,
		  "durationTicks": 212,
		  "midi": 76,
		  "name": "E5",
		  "ticks": 66749,
		  "time": 69.53020833333333,
		  "velocity": 0.6692913385826772
		},
		{
		  "duration": 0.13958333333333428,
		  "durationTicks": 134,
		  "midi": 71,
		  "name": "B4",
		  "ticks": 66749,
		  "time": 69.53020833333333,
		  "velocity": 0.47244094488188976
		},
		{
		  "duration": 0.2552083333333286,
		  "durationTicks": 245,
		  "midi": 76,
		  "name": "E5",
		  "ticks": 66961,
		  "time": 69.75104166666667,
		  "velocity": 0.6771653543307087
		},
		{
		  "duration": 0.47604166666667425,
		  "durationTicks": 457,
		  "midi": 76,
		  "name": "E5",
		  "ticks": 67206,
		  "time": 70.00625,
		  "velocity": 0.5590551181102362
		},
		{
		  "duration": 0.1510416666666714,
		  "durationTicks": 145,
		  "midi": 52,
		  "name": "E3",
		  "ticks": 67429,
		  "time": 70.23854166666666,
		  "velocity": 0.5039370078740157
		},
		{
		  "duration": 0.13958333333333428,
		  "durationTicks": 134,
		  "midi": 62,
		  "name": "D4",
		  "ticks": 67440,
		  "time": 70.25,
		  "velocity": 0.5826771653543307
		},
		{
		  "duration": 0.24374999999999147,
		  "durationTicks": 234,
		  "midi": 76,
		  "name": "E5",
		  "ticks": 67663,
		  "time": 70.48229166666667,
		  "velocity": 0.33858267716535434
		},
		{
		  "duration": 0.17395833333333144,
		  "durationTicks": 167,
		  "midi": 40,
		  "name": "E2",
		  "ticks": 67764,
		  "time": 70.5875,
		  "velocity": 0.2755905511811024
		},
		{
		  "duration": 0.13958333333333428,
		  "durationTicks": 134,
		  "midi": 52,
		  "name": "E3",
		  "ticks": 67775,
		  "time": 70.59895833333333,
		  "velocity": 0.5354330708661418
		},
		{
		  "duration": 0.23229166666666856,
		  "durationTicks": 223,
		  "midi": 76,
		  "name": "E5",
		  "ticks": 67897,
		  "time": 70.72604166666666,
		  "velocity": 0.6377952755905512
		},
		{
		  "duration": 0.13958333333333428,
		  "durationTicks": 134,
		  "midi": 81,
		  "name": "A5",
		  "ticks": 68131,
		  "time": 70.96979166666667,
		  "velocity": 0.4330708661417323
		},
		{
		  "duration": 0.23229166666666856,
		  "durationTicks": 223,
		  "midi": 76,
		  "name": "E5",
		  "ticks": 68131,
		  "time": 70.96979166666667,
		  "velocity": 0.4645669291338583
		},
		{
		  "duration": 0.16249999999999432,
		  "durationTicks": 156,
		  "midi": 62,
		  "name": "D4",
		  "ticks": 68131,
		  "time": 70.96979166666667,
		  "velocity": 0.5905511811023622
		},
		{
		  "duration": 0.13958333333333428,
		  "durationTicks": 134,
		  "midi": 52,
		  "name": "E3",
		  "ticks": 68131,
		  "time": 70.96979166666667,
		  "velocity": 0.4645669291338583
		},
		{
		  "duration": 0.3500000000000085,
		  "durationTicks": 336,
		  "midi": 74,
		  "name": "D5",
		  "ticks": 68477,
		  "time": 71.33020833333333,
		  "velocity": 0.6220472440944882
		},
		{
		  "duration": 0.13958333333333428,
		  "durationTicks": 134,
		  "midi": 52,
		  "name": "E3",
		  "ticks": 68477,
		  "time": 71.33020833333333,
		  "velocity": 0.5669291338582677
		},
		{
		  "duration": 0.19687499999999147,
		  "durationTicks": 189,
		  "midi": 40,
		  "name": "E2",
		  "ticks": 68801,
		  "time": 71.66770833333334,
		  "velocity": 0.3543307086614173
		},
		{
		  "duration": 0.2552083333333286,
		  "durationTicks": 245,
		  "midi": 81,
		  "name": "A5",
		  "ticks": 68813,
		  "time": 71.68020833333334,
		  "velocity": 0.3700787401574803
		},
		{
		  "duration": 0.24374999999999147,
		  "durationTicks": 234,
		  "midi": 74,
		  "name": "D5",
		  "ticks": 68813,
		  "time": 71.68020833333334,
		  "velocity": 0.4251968503937008
		},
		{
		  "duration": 0.38333333333332575,
		  "durationTicks": 368,
		  "midi": 57,
		  "name": "A3",
		  "ticks": 68813,
		  "time": 71.68020833333334,
		  "velocity": 0.3700787401574803
		},
		{
		  "duration": 0.13958333333333428,
		  "durationTicks": 134,
		  "midi": 76,
		  "name": "E5",
		  "ticks": 68891,
		  "time": 71.76145833333334,
		  "velocity": 0.5275590551181102
		},
		{
		  "duration": 0.1510416666666714,
		  "durationTicks": 145,
		  "midi": 38,
		  "name": "D2",
		  "ticks": 69036,
		  "time": 71.9125,
		  "velocity": 0.25196850393700787
		},
		{
		  "duration": 0.24375000000000568,
		  "durationTicks": 234,
		  "midi": 74,
		  "name": "D5",
		  "ticks": 69047,
		  "time": 71.92395833333333,
		  "velocity": 0.6377952755905512
		},
		{
		  "duration": 0.17395833333333144,
		  "durationTicks": 167,
		  "midi": 81,
		  "name": "A5",
		  "ticks": 69058,
		  "time": 71.93541666666667,
		  "velocity": 0.5433070866141733
		},
		{
		  "duration": 0.1510416666666714,
		  "durationTicks": 145,
		  "midi": 76,
		  "name": "E5",
		  "ticks": 69258,
		  "time": 72.14375,
		  "velocity": 0.5669291338582677
		},
		{
		  "duration": 0.13958333333333428,
		  "durationTicks": 134,
		  "midi": 52,
		  "name": "E3",
		  "ticks": 69392,
		  "time": 72.28333333333333,
		  "velocity": 0.5118110236220472
		},
		{
		  "duration": 0.23229166666666856,
		  "durationTicks": 223,
		  "midi": 76,
		  "name": "E5",
		  "ticks": 69403,
		  "time": 72.29479166666667,
		  "velocity": 0.4881889763779528
		},
		{
		  "duration": 0.24374999999999147,
		  "durationTicks": 234,
		  "midi": 76,
		  "name": "E5",
		  "ticks": 69626,
		  "time": 72.52708333333334,
		  "velocity": 0.6456692913385826
		},
		{
		  "duration": 0.18541666666666856,
		  "durationTicks": 178,
		  "midi": 40,
		  "name": "E2",
		  "ticks": 69738,
		  "time": 72.64375,
		  "velocity": 0.2992125984251969
		},
		{
		  "duration": 0.24375000000000568,
		  "durationTicks": 234,
		  "midi": 76,
		  "name": "E5",
		  "ticks": 69860,
		  "time": 72.77083333333333,
		  "velocity": 0.48031496062992124
		},
		{
		  "duration": 0.20937499999999432,
		  "durationTicks": 201,
		  "midi": 52,
		  "name": "E3",
		  "ticks": 70005,
		  "time": 72.921875,
		  "velocity": 0.4409448818897638
		},
		{
		  "duration": 0.16250000000000853,
		  "durationTicks": 156,
		  "midi": 40,
		  "name": "E2",
		  "ticks": 70072,
		  "time": 72.99166666666666,
		  "velocity": 0.30708661417322836
		},
		{
		  "duration": 0.22083333333333144,
		  "durationTicks": 212,
		  "midi": 76,
		  "name": "E5",
		  "ticks": 70094,
		  "time": 73.01458333333333,
		  "velocity": 0.6614173228346457
		},
		{
		  "duration": 0.2552083333333286,
		  "durationTicks": 245,
		  "midi": 76,
		  "name": "E5",
		  "ticks": 70306,
		  "time": 73.23541666666667,
		  "velocity": 0.6299212598425197
		},
		{
		  "duration": 0.13958333333333428,
		  "durationTicks": 134,
		  "midi": 59,
		  "name": "B3",
		  "ticks": 70429,
		  "time": 73.36354166666666,
		  "velocity": 0.4251968503937008
		},
		{
		  "duration": 0.15208333333333712,
		  "durationTicks": 146,
		  "midi": 52,
		  "name": "E3",
		  "ticks": 70429,
		  "time": 73.36354166666666,
		  "velocity": 0.5196850393700787
		},
		{
		  "duration": 0.23333333333333428,
		  "durationTicks": 224,
		  "midi": 76,
		  "name": "E5",
		  "ticks": 70551,
		  "time": 73.490625,
		  "velocity": 0.4015748031496063
		},
		{
		  "duration": 0.26666666666667993,
		  "durationTicks": 256,
		  "midi": 81,
		  "name": "A5",
		  "ticks": 70642,
		  "time": 73.58541666666666,
		  "velocity": 0.4409448818897638
		},
		{
		  "duration": 0.18541666666666856,
		  "durationTicks": 178,
		  "midi": 40,
		  "name": "E2",
		  "ticks": 70686,
		  "time": 73.63125,
		  "velocity": 0.30708661417322836
		},
		{
		  "duration": 0.13958333333333428,
		  "durationTicks": 134,
		  "midi": 76,
		  "name": "E5",
		  "ticks": 70775,
		  "time": 73.72395833333333,
		  "velocity": 0.5511811023622047
		},
		{
		  "duration": 0.7197916666666657,
		  "durationTicks": 691,
		  "midi": 81,
		  "name": "A5",
		  "ticks": 70898,
		  "time": 73.85208333333334,
		  "velocity": 0.47244094488188976
		},
		{
		  "duration": 0.13958333333333428,
		  "durationTicks": 134,
		  "midi": 76,
		  "name": "E5",
		  "ticks": 71110,
		  "time": 74.07291666666667,
		  "velocity": 0.5275590551181102
		},
		{
		  "duration": 0.13958333333333428,
		  "durationTicks": 134,
		  "midi": 59,
		  "name": "B3",
		  "ticks": 71121,
		  "time": 74.084375,
		  "velocity": 0.4645669291338583
		},
		{
		  "duration": 0.13958333333333428,
		  "durationTicks": 134,
		  "midi": 52,
		  "name": "E3",
		  "ticks": 71121,
		  "time": 74.084375,
		  "velocity": 0.4409448818897638
		},
		{
		  "duration": 0.1510416666666714,
		  "durationTicks": 145,
		  "midi": 76,
		  "name": "E5",
		  "ticks": 71466,
		  "time": 74.44375,
		  "velocity": 0.5196850393700787
		},
		{
		  "duration": 0.4645833333333229,
		  "durationTicks": 446,
		  "midi": 81,
		  "name": "A5",
		  "ticks": 71589,
		  "time": 74.571875,
		  "velocity": 0.5118110236220472
		},
		{
		  "duration": 0.13958333333333428,
		  "durationTicks": 134,
		  "midi": 52,
		  "name": "E3",
		  "ticks": 71812,
		  "time": 74.80416666666666,
		  "velocity": 0.4645669291338583
		},
		{
		  "duration": 0.13958333333333428,
		  "durationTicks": 134,
		  "midi": 76,
		  "name": "E5",
		  "ticks": 71823,
		  "time": 74.815625,
		  "velocity": 0.5826771653543307
		},
		{
		  "duration": 0.13958333333333428,
		  "durationTicks": 134,
		  "midi": 76,
		  "name": "E5",
		  "ticks": 72157,
		  "time": 75.16354166666666,
		  "velocity": 0.5433070866141733
		},
		{
		  "duration": 0.1510416666666714,
		  "durationTicks": 145,
		  "midi": 38,
		  "name": "D2",
		  "ticks": 72482,
		  "time": 75.50208333333333,
		  "velocity": 0.31496062992125984
		},
		{
		  "duration": 0.13958333333333428,
		  "durationTicks": 134,
		  "midi": 76,
		  "name": "E5",
		  "ticks": 72504,
		  "time": 75.525,
		  "velocity": 0.5433070866141733
		},
		{
		  "duration": 0.13958333333333428,
		  "durationTicks": 134,
		  "midi": 71,
		  "name": "B4",
		  "ticks": 72504,
		  "time": 75.525,
		  "velocity": 0.5118110236220472
		},
		{
		  "duration": 0.18541666666666856,
		  "durationTicks": 178,
		  "midi": 79,
		  "name": "G5",
		  "ticks": 72515,
		  "time": 75.53645833333333,
		  "velocity": 0.41732283464566927
		},
		{
		  "duration": 0.13958333333333428,
		  "durationTicks": 134,
		  "midi": 62,
		  "name": "D4",
		  "ticks": 72738,
		  "time": 75.76875,
		  "velocity": 0.3937007874015748
		},
		{
		  "duration": 0.19687500000000568,
		  "durationTicks": 189,
		  "midi": 76,
		  "name": "E5",
		  "ticks": 72861,
		  "time": 75.896875,
		  "velocity": 0.33858267716535434
		},
		{
		  "duration": 0.1510416666666714,
		  "durationTicks": 145,
		  "midi": 40,
		  "name": "E2",
		  "ticks": 72883,
		  "time": 75.91979166666667,
		  "velocity": 0.3937007874015748
		},
		{
		  "duration": 0.23229166666666856,
		  "durationTicks": 223,
		  "midi": 59,
		  "name": "B3",
		  "ticks": 72950,
		  "time": 75.98958333333333,
		  "velocity": 0.3464566929133858
		},
		{
		  "duration": 0.22083333333334565,
		  "durationTicks": 212,
		  "midi": 28,
		  "name": "E1",
		  "ticks": 73251,
		  "time": 76.303125,
		  "velocity": 0.31496062992125984
		},
		{
		  "duration": 0.17395833333333144,
		  "durationTicks": 167,
		  "midi": 40,
		  "name": "E2",
		  "ticks": 73351,
		  "time": 76.40729166666667,
		  "velocity": 0.30708661417322836
		},
		{
		  "duration": 0.1510416666666714,
		  "durationTicks": 145,
		  "midi": 64,
		  "name": "E4",
		  "ticks": 73429,
		  "time": 76.48854166666666,
		  "velocity": 0.49606299212598426
		},
		{
		  "duration": 0.18541666666666856,
		  "durationTicks": 178,
		  "midi": 59,
		  "name": "B3",
		  "ticks": 73775,
		  "time": 76.84895833333333,
		  "velocity": 0.3543307086614173
		},
		{
		  "duration": 0.3479166666666771,
		  "durationTicks": 334,
		  "midi": 40,
		  "name": "E2",
		  "ticks": 73775,
		  "time": 76.84895833333333,
		  "velocity": 0.4645669291338583
		},
		{
		  "duration": 0.18541666666665435,
		  "durationTicks": 178,
		  "midi": 28,
		  "name": "E1",
		  "ticks": 73853,
		  "time": 76.93020833333334,
		  "velocity": 0.4409448818897638
		},
		{
		  "duration": 0.47604166666666003,
		  "durationTicks": 457,
		  "midi": 76,
		  "name": "E5",
		  "ticks": 73886,
		  "time": 76.96458333333334,
		  "velocity": 0.4251968503937008
		},
		{
		  "duration": 0.3479166666666629,
		  "durationTicks": 334,
		  "midi": 64,
		  "name": "E4",
		  "ticks": 73886,
		  "time": 76.96458333333334,
		  "velocity": 0.3779527559055118
		},
		{
		  "duration": 0.17395833333333144,
		  "durationTicks": 167,
		  "midi": 52,
		  "name": "E3",
		  "ticks": 74120,
		  "time": 77.20833333333333,
		  "velocity": 0.41732283464566927
		},
		{
		  "duration": 0.22083333333333144,
		  "durationTicks": 212,
		  "midi": 40,
		  "name": "E2",
		  "ticks": 74120,
		  "time": 77.20833333333333,
		  "velocity": 0.3858267716535433
		},
		{
		  "duration": 0.13958333333333428,
		  "durationTicks": 134,
		  "midi": 71,
		  "name": "B4",
		  "ticks": 74131,
		  "time": 77.21979166666667,
		  "velocity": 0.4645669291338583
		},
		{
		  "duration": 0.1520833333333229,
		  "durationTicks": 146,
		  "midi": 31,
		  "name": "G1",
		  "ticks": 74276,
		  "time": 77.37083333333334,
		  "velocity": 0.5354330708661418
		},
		{
		  "duration": 0.2562500000000085,
		  "durationTicks": 246,
		  "midi": 76,
		  "name": "E5",
		  "ticks": 74343,
		  "time": 77.440625,
		  "velocity": 0.3937007874015748
		},
		{
		  "duration": 0.16354166666667425,
		  "durationTicks": 157,
		  "midi": 43,
		  "name": "G2",
		  "ticks": 74343,
		  "time": 77.440625,
		  "velocity": 0.31496062992125984
		},
		{
		  "duration": 0.3604166666666657,
		  "durationTicks": 346,
		  "midi": 31,
		  "name": "G1",
		  "ticks": 74434,
		  "time": 77.53541666666666,
		  "velocity": 0.4015748031496063
		},
		{
		  "duration": 0.13958333333333428,
		  "durationTicks": 134,
		  "midi": 64,
		  "name": "E4",
		  "ticks": 74456,
		  "time": 77.55833333333334,
		  "velocity": 0.5196850393700787
		},
		{
		  "duration": 0.4989583333333343,
		  "durationTicks": 479,
		  "midi": 40,
		  "name": "E2",
		  "ticks": 74456,
		  "time": 77.55833333333334,
		  "velocity": 0.33858267716535434
		},
		{
		  "duration": 0.19687500000000568,
		  "durationTicks": 189,
		  "midi": 100,
		  "name": "E7",
		  "ticks": 74567,
		  "time": 77.67395833333333,
		  "velocity": 0.36220472440944884
		},
		{
		  "duration": 0.20937499999999432,
		  "durationTicks": 201,
		  "midi": 76,
		  "name": "E5",
		  "ticks": 74590,
		  "time": 77.69791666666667,
		  "velocity": 0.6141732283464567
		},
		{
		  "duration": 0.24375000000000568,
		  "durationTicks": 234,
		  "midi": 43,
		  "name": "G2",
		  "ticks": 74690,
		  "time": 77.80208333333333,
		  "velocity": 0.3700787401574803
		},
		{
		  "duration": 0.23229166666666856,
		  "durationTicks": 223,
		  "midi": 31,
		  "name": "G1",
		  "ticks": 74779,
		  "time": 77.89479166666666,
		  "velocity": 0.5196850393700787
		},
		{
		  "duration": 0.33645833333332575,
		  "durationTicks": 323,
		  "midi": 76,
		  "name": "E5",
		  "ticks": 74801,
		  "time": 77.91770833333334,
		  "velocity": 0.33858267716535434
		},
		{
		  "duration": 0.13958333333332007,
		  "durationTicks": 134,
		  "midi": 62,
		  "name": "D4",
		  "ticks": 74813,
		  "time": 77.93020833333334,
		  "velocity": 0.33858267716535434
		},
		{
		  "duration": 0.13958333333333428,
		  "durationTicks": 134,
		  "midi": 64,
		  "name": "E4",
		  "ticks": 74824,
		  "time": 77.94166666666666,
		  "velocity": 0.49606299212598426
		},
		{
		  "duration": 0.24374999999999147,
		  "durationTicks": 234,
		  "midi": 43,
		  "name": "G2",
		  "ticks": 75024,
		  "time": 78.15,
		  "velocity": 0.4015748031496063
		},
		{
		  "duration": 0.37187500000000284,
		  "durationTicks": 357,
		  "midi": 40,
		  "name": "E2",
		  "ticks": 75136,
		  "time": 78.26666666666667,
		  "velocity": 0.3543307086614173
		},
		{
		  "duration": 0.4989583333333343,
		  "durationTicks": 479,
		  "midi": 43,
		  "name": "G2",
		  "ticks": 75258,
		  "time": 78.39375,
		  "velocity": 0.5669291338582677
		},
		{
		  "duration": 0.22083333333333144,
		  "durationTicks": 212,
		  "midi": 76,
		  "name": "E5",
		  "ticks": 75270,
		  "time": 78.40625,
		  "velocity": 0.5826771653543307
		},
		{
		  "duration": 0.1510416666666714,
		  "durationTicks": 145,
		  "midi": 59,
		  "name": "B3",
		  "ticks": 75270,
		  "time": 78.40625,
		  "velocity": 0.4015748031496063
		},
		{
		  "duration": 0.20937500000000853,
		  "durationTicks": 201,
		  "midi": 31,
		  "name": "G1",
		  "ticks": 75303,
		  "time": 78.440625,
		  "velocity": 0.5433070866141733
		},
		{
		  "duration": 0.1510416666666714,
		  "durationTicks": 145,
		  "midi": 76,
		  "name": "E5",
		  "ticks": 75481,
		  "time": 78.62604166666667,
		  "velocity": 0.2992125984251969
		},
		{
		  "duration": 0.13958333333333428,
		  "durationTicks": 134,
		  "midi": 64,
		  "name": "E4",
		  "ticks": 75481,
		  "time": 78.62604166666667,
		  "velocity": 0.4409448818897638
		},
		{
		  "duration": 0.13958333333333428,
		  "durationTicks": 134,
		  "midi": 74,
		  "name": "D5",
		  "ticks": 75492,
		  "time": 78.6375,
		  "velocity": 0.4881889763779528
		},
		{
		  "duration": 0.13958333333333428,
		  "durationTicks": 134,
		  "midi": 52,
		  "name": "E3",
		  "ticks": 75492,
		  "time": 78.6375,
		  "velocity": 0.4094488188976378
		},
		{
		  "duration": 0.13958333333333428,
		  "durationTicks": 134,
		  "midi": 40,
		  "name": "E2",
		  "ticks": 75492,
		  "time": 78.6375,
		  "velocity": 0.4251968503937008
		},
		{
		  "duration": 0.23229166666666856,
		  "durationTicks": 223,
		  "midi": 76,
		  "name": "E5",
		  "ticks": 75626,
		  "time": 78.77708333333334,
		  "velocity": 0.5984251968503937
		},
		{
		  "duration": 0.23229166666666856,
		  "durationTicks": 223,
		  "midi": 43,
		  "name": "G2",
		  "ticks": 75738,
		  "time": 78.89375,
		  "velocity": 0.3937007874015748
		},
		{
		  "duration": 0.22083333333333144,
		  "durationTicks": 212,
		  "midi": 31,
		  "name": "G1",
		  "ticks": 75738,
		  "time": 78.89375,
		  "velocity": 0.5196850393700787
		},
		{
		  "duration": 0.13958333333333428,
		  "durationTicks": 134,
		  "midi": 64,
		  "name": "E4",
		  "ticks": 75816,
		  "time": 78.975,
		  "velocity": 0.5354330708661418
		},
		{
		  "duration": 0.1510416666666714,
		  "durationTicks": 145,
		  "midi": 57,
		  "name": "A3",
		  "ticks": 75838,
		  "time": 78.99791666666667,
		  "velocity": 0.4094488188976378
		},
		{
		  "duration": 0.24375000000000568,
		  "durationTicks": 234,
		  "midi": 76,
		  "name": "E5",
		  "ticks": 75961,
		  "time": 79.12604166666667,
		  "velocity": 0.5196850393700787
		},
		{
		  "duration": 0.16249999999999432,
		  "durationTicks": 156,
		  "midi": 43,
		  "name": "G2",
		  "ticks": 75961,
		  "time": 79.12604166666667,
		  "velocity": 0.4251968503937008
		},
		{
		  "duration": 0.1875,
		  "durationTicks": 180,
		  "midi": 45,
		  "name": "A2",
		  "ticks": 76172,
		  "time": 79.34583333333333,
		  "velocity": 0.33070866141732286
		},
		{
		  "duration": 0.21041666666666003,
		  "durationTicks": 202,
		  "midi": 76,
		  "name": "E5",
		  "ticks": 76195,
		  "time": 79.36979166666667,
		  "velocity": 0.3937007874015748
		},
		{
		  "duration": 0.1291666666666771,
		  "durationTicks": 124,
		  "midi": 64,
		  "name": "E4",
		  "ticks": 76206,
		  "time": 79.38125,
		  "velocity": 0.5196850393700787
		},
		{
		  "duration": 0.3479166666666629,
		  "durationTicks": 334,
		  "midi": 76,
		  "name": "E5",
		  "ticks": 76408,
		  "time": 79.59166666666667,
		  "velocity": 0.3543307086614173
		},
		{
		  "duration": 0.13958333333333428,
		  "durationTicks": 134,
		  "midi": 62,
		  "name": "D4",
		  "ticks": 76419,
		  "time": 79.603125,
		  "velocity": 0.3937007874015748
		},
		{
		  "duration": 0.3135416666666657,
		  "durationTicks": 301,
		  "midi": 57,
		  "name": "A3",
		  "ticks": 76419,
		  "time": 79.603125,
		  "velocity": 0.41732283464566927
		},
		{
		  "duration": 0.18541666666666856,
		  "durationTicks": 178,
		  "midi": 45,
		  "name": "A2",
		  "ticks": 76564,
		  "time": 79.75416666666666,
		  "velocity": 0.5590551181102362
		},
		{
		  "duration": 0.18541666666666856,
		  "durationTicks": 178,
		  "midi": 33,
		  "name": "A1",
		  "ticks": 76631,
		  "time": 79.82395833333334,
		  "velocity": 0.5826771653543307
		},
		{
		  "duration": 0.13958333333333428,
		  "durationTicks": 134,
		  "midi": 45,
		  "name": "A2",
		  "ticks": 76742,
		  "time": 79.93958333333333,
		  "velocity": 0.5511811023622047
		},
		{
		  "duration": 0.22083333333333144,
		  "durationTicks": 212,
		  "midi": 45,
		  "name": "A2",
		  "ticks": 76876,
		  "time": 80.07916666666667,
		  "velocity": 0.4251968503937008
		},
		{
		  "duration": 0.19687500000000568,
		  "durationTicks": 189,
		  "midi": 76,
		  "name": "E5",
		  "ticks": 76909,
		  "time": 80.11354166666666,
		  "velocity": 0.5039370078740157
		},
		{
		  "duration": 0.13958333333333428,
		  "durationTicks": 134,
		  "midi": 33,
		  "name": "A1",
		  "ticks": 76932,
		  "time": 80.1375,
		  "velocity": 0.3700787401574803
		},
		{
		  "duration": 0.20937500000000853,
		  "durationTicks": 201,
		  "midi": 33,
		  "name": "A1",
		  "ticks": 77076,
		  "time": 80.2875,
		  "velocity": 0.49606299212598426
		},
		{
		  "duration": 0.3135416666666657,
		  "durationTicks": 301,
		  "midi": 45,
		  "name": "A2",
		  "ticks": 77088,
		  "time": 80.3,
		  "velocity": 0.36220472440944884
		},
		{
		  "duration": 0.13958333333333428,
		  "durationTicks": 134,
		  "midi": 71,
		  "name": "B4",
		  "ticks": 77099,
		  "time": 80.31145833333333,
		  "velocity": 0.4566929133858268
		},
		{
		  "duration": 0.17395833333333144,
		  "durationTicks": 167,
		  "midi": 64,
		  "name": "E4",
		  "ticks": 77110,
		  "time": 80.32291666666667,
		  "velocity": 0.4881889763779528
		},
		{
		  "duration": 0.22083333333334565,
		  "durationTicks": 212,
		  "midi": 76,
		  "name": "E5",
		  "ticks": 77121,
		  "time": 80.334375,
		  "velocity": 0.41732283464566927
		},
		{
		  "duration": 0.2552083333333286,
		  "durationTicks": 245,
		  "midi": 76,
		  "name": "E5",
		  "ticks": 77333,
		  "time": 80.55520833333334,
		  "velocity": 0.3779527559055118
		},
		{
		  "duration": 0.1510416666666714,
		  "durationTicks": 145,
		  "midi": 33,
		  "name": "A1",
		  "ticks": 77422,
		  "time": 80.64791666666666,
		  "velocity": 0.33070866141732286
		},
		{
		  "duration": 0.1510416666666572,
		  "durationTicks": 145,
		  "midi": 71,
		  "name": "B4",
		  "ticks": 77455,
		  "time": 80.68229166666667,
		  "velocity": 0.5118110236220472
		},
		{
		  "duration": 0.19687500000000568,
		  "durationTicks": 189,
		  "midi": 64,
		  "name": "E4",
		  "ticks": 77567,
		  "time": 80.79895833333333,
		  "velocity": 0.33070866141732286
		},
		{
		  "duration": 0.24375000000000568,
		  "durationTicks": 234,
		  "midi": 45,
		  "name": "A2",
		  "ticks": 77567,
		  "time": 80.79895833333333,
		  "velocity": 0.4645669291338583
		},
		{
		  "duration": 0.18541666666666856,
		  "durationTicks": 178,
		  "midi": 33,
		  "name": "A1",
		  "ticks": 77567,
		  "time": 80.79895833333333,
		  "velocity": 0.44881889763779526
		},
		{
		  "duration": 0.18541666666666856,
		  "durationTicks": 178,
		  "midi": 76,
		  "name": "E5",
		  "ticks": 77578,
		  "time": 80.81041666666667,
		  "velocity": 0.5118110236220472
		},
		{
		  "duration": 0.17395833333333144,
		  "durationTicks": 167,
		  "midi": 61,
		  "name": "C#4",
		  "ticks": 77578,
		  "time": 80.81041666666667,
		  "velocity": 0.4566929133858268
		},
		{
		  "duration": 0.22083333333334565,
		  "durationTicks": 212,
		  "midi": 76,
		  "name": "E5",
		  "ticks": 77812,
		  "time": 81.05416666666666,
		  "velocity": 0.4015748031496063
		},
		{
		  "duration": 0.13958333333333428,
		  "durationTicks": 134,
		  "midi": 71,
		  "name": "B4",
		  "ticks": 77812,
		  "time": 81.05416666666666,
		  "velocity": 0.44881889763779526
		},
		{
		  "duration": 0.22083333333334565,
		  "durationTicks": 212,
		  "midi": 64,
		  "name": "E4",
		  "ticks": 77812,
		  "time": 81.05416666666666,
		  "velocity": 0.44881889763779526
		},
		{
		  "duration": 0.18541666666666856,
		  "durationTicks": 178,
		  "midi": 57,
		  "name": "A3",
		  "ticks": 77957,
		  "time": 81.20520833333333,
		  "velocity": 0.4645669291338583
		},
		{
		  "duration": 0.2447916666666572,
		  "durationTicks": 235,
		  "midi": 76,
		  "name": "E5",
		  "ticks": 78024,
		  "time": 81.275,
		  "velocity": 0.3700787401574803
		},
		{
		  "duration": 0.13958333333333428,
		  "durationTicks": 134,
		  "midi": 64,
		  "name": "E4",
		  "ticks": 78024,
		  "time": 81.275,
		  "velocity": 0.33070866141732286
		},
		{
		  "duration": 0.3031249999999943,
		  "durationTicks": 291,
		  "midi": 35,
		  "name": "B1",
		  "ticks": 78057,
		  "time": 81.309375,
		  "velocity": 0.3228346456692913
		},
		{
		  "duration": 0.2447916666666714,
		  "durationTicks": 235,
		  "midi": 40,
		  "name": "E2",
		  "ticks": 78135,
		  "time": 81.390625,
		  "velocity": 0.33070866141732286
		},
		{
		  "duration": 0.17499999999999716,
		  "durationTicks": 168,
		  "midi": 64,
		  "name": "E4",
		  "ticks": 78158,
		  "time": 81.41458333333334,
		  "velocity": 0.3937007874015748
		},
		{
		  "duration": 0.22187499999999716,
		  "durationTicks": 213,
		  "midi": 45,
		  "name": "A2",
		  "ticks": 78158,
		  "time": 81.41458333333334,
		  "velocity": 0.3543307086614173
		},
		{
		  "duration": 0.19687499999999147,
		  "durationTicks": 189,
		  "midi": 100,
		  "name": "E7",
		  "ticks": 78248,
		  "time": 81.50833333333334,
		  "velocity": 0.2992125984251969
		},
		{
		  "duration": 0.22083333333333144,
		  "durationTicks": 212,
		  "midi": 76,
		  "name": "E5",
		  "ticks": 78259,
		  "time": 81.51979166666666,
		  "velocity": 0.5669291338582677
		},
		{
		  "duration": 0.17395833333333144,
		  "durationTicks": 167,
		  "midi": 47,
		  "name": "B2",
		  "ticks": 78304,
		  "time": 81.56666666666666,
		  "velocity": 0.4645669291338583
		},
		{
		  "duration": 0.18541666666666856,
		  "durationTicks": 178,
		  "midi": 47,
		  "name": "B2",
		  "ticks": 78482,
		  "time": 81.75208333333333,
		  "velocity": 0.4330708661417323
		},
		{
		  "duration": 0.3604166666666657,
		  "durationTicks": 346,
		  "midi": 76,
		  "name": "E5",
		  "ticks": 78493,
		  "time": 81.76354166666667,
		  "velocity": 0.36220472440944884
		},
		{
		  "duration": 0.16249999999999432,
		  "durationTicks": 156,
		  "midi": 71,
		  "name": "B4",
		  "ticks": 78493,
		  "time": 81.76354166666667,
		  "velocity": 0.5118110236220472
		},
		{
		  "duration": 0.16249999999999432,
		  "durationTicks": 156,
		  "midi": 64,
		  "name": "E4",
		  "ticks": 78493,
		  "time": 81.76354166666667,
		  "velocity": 0.5039370078740157
		},
		{
		  "duration": 0.3604166666666657,
		  "durationTicks": 346,
		  "midi": 64,
		  "name": "E4",
		  "ticks": 78839,
		  "time": 82.12395833333333,
		  "velocity": 0.4645669291338583
		},
		{
		  "duration": 0.13958333333333428,
		  "durationTicks": 134,
		  "midi": 52,
		  "name": "E3",
		  "ticks": 78839,
		  "time": 82.12395833333333,
		  "velocity": 0.3858267716535433
		},
		{
		  "duration": 0.22083333333333144,
		  "durationTicks": 212,
		  "midi": 76,
		  "name": "E5",
		  "ticks": 78850,
		  "time": 82.13541666666667,
		  "velocity": 0.36220472440944884
		},
		{
		  "duration": 0.16249999999999432,
		  "durationTicks": 156,
		  "midi": 71,
		  "name": "B4",
		  "ticks": 78850,
		  "time": 82.13541666666667,
		  "velocity": 0.4881889763779528
		},
		{
		  "duration": 0.6041666666666714,
		  "durationTicks": 580,
		  "midi": 47,
		  "name": "B2",
		  "ticks": 78961,
		  "time": 82.25104166666667,
		  "velocity": 0.3858267716535433
		},
		{
		  "duration": 0.19687499999999147,
		  "durationTicks": 189,
		  "midi": 35,
		  "name": "B1",
		  "ticks": 78972,
		  "time": 82.2625,
		  "velocity": 0.5196850393700787
		},
		{
		  "duration": 0.2552083333333286,
		  "durationTicks": 245,
		  "midi": 76,
		  "name": "E5",
		  "ticks": 79062,
		  "time": 82.35625,
		  "velocity": 0.44881889763779526
		},
		{
		  "duration": 0.1510416666666714,
		  "durationTicks": 145,
		  "midi": 40,
		  "name": "E2",
		  "ticks": 79173,
		  "time": 82.471875,
		  "velocity": 0.28346456692913385
		},
		{
		  "duration": 0.13958333333333428,
		  "durationTicks": 134,
		  "midi": 64,
		  "name": "E4",
		  "ticks": 79184,
		  "time": 82.48333333333333,
		  "velocity": 0.5118110236220472
		},
		{
		  "duration": 0.16249999999999432,
		  "durationTicks": 156,
		  "midi": 59,
		  "name": "B3",
		  "ticks": 79184,
		  "time": 82.48333333333333,
		  "velocity": 0.4094488188976378
		},
		{
		  "duration": 0.17395833333333144,
		  "durationTicks": 167,
		  "midi": 71,
		  "name": "B4",
		  "ticks": 79195,
		  "time": 82.49479166666667,
		  "velocity": 0.48031496062992124
		},
		{
		  "duration": 0.13958333333333428,
		  "durationTicks": 134,
		  "midi": 52,
		  "name": "E3",
		  "ticks": 79218,
		  "time": 82.51875,
		  "velocity": 0.4409448818897638
		},
		{
		  "duration": 0.22083333333333144,
		  "durationTicks": 212,
		  "midi": 76,
		  "name": "E5",
		  "ticks": 79307,
		  "time": 82.61145833333333,
		  "velocity": 0.5590551181102362
		},
		{
		  "duration": 0.19687499999999147,
		  "durationTicks": 189,
		  "midi": 59,
		  "name": "B3",
		  "ticks": 79407,
		  "time": 82.715625,
		  "velocity": 0.28346456692913385
		},
		{
		  "duration": 0.2666666666666657,
		  "durationTicks": 256,
		  "midi": 52,
		  "name": "E3",
		  "ticks": 79407,
		  "time": 82.715625,
		  "velocity": 0.31496062992125984
		},
		{
		  "duration": 0.22083333333333144,
		  "durationTicks": 212,
		  "midi": 64,
		  "name": "E4",
		  "ticks": 79418,
		  "time": 82.72708333333334,
		  "velocity": 0.5275590551181102
		},
		{
		  "duration": 0.23229166666666856,
		  "durationTicks": 223,
		  "midi": 47,
		  "name": "B2",
		  "ticks": 79541,
		  "time": 82.85520833333334,
		  "velocity": 0.30708661417322836
		},
		{
		  "duration": 0.38333333333332575,
		  "durationTicks": 368,
		  "midi": 43,
		  "name": "G2",
		  "ticks": 79585,
		  "time": 82.90104166666667,
		  "velocity": 0.3464566929133858
		},
		{
		  "duration": 0.17395833333333144,
		  "durationTicks": 167,
		  "midi": 76,
		  "name": "E5",
		  "ticks": 79697,
		  "time": 83.01770833333333,
		  "velocity": 0.5669291338582677
		},
		{
		  "duration": 0.23229166666666856,
		  "durationTicks": 223,
		  "midi": 31,
		  "name": "G1",
		  "ticks": 79842,
		  "time": 83.16875,
		  "velocity": 0.3700787401574803
		},
		{
		  "duration": 0.23229166666666856,
		  "durationTicks": 223,
		  "midi": 76,
		  "name": "E5",
		  "ticks": 79864,
		  "time": 83.19166666666666,
		  "velocity": 0.4015748031496063
		},
		{
		  "duration": 0.17395833333333144,
		  "durationTicks": 167,
		  "midi": 59,
		  "name": "B3",
		  "ticks": 79864,
		  "time": 83.19166666666666,
		  "velocity": 0.4330708661417323
		},
		{
		  "duration": 0.1510416666666714,
		  "durationTicks": 145,
		  "midi": 52,
		  "name": "E3",
		  "ticks": 79864,
		  "time": 83.19166666666666,
		  "velocity": 0.4015748031496063
		},
		{
		  "duration": 0.20937500000000853,
		  "durationTicks": 201,
		  "midi": 47,
		  "name": "B2",
		  "ticks": 79864,
		  "time": 83.19166666666666,
		  "velocity": 0.2992125984251969
		},
		{
		  "duration": 0.16249999999999432,
		  "durationTicks": 156,
		  "midi": 71,
		  "name": "B4",
		  "ticks": 79875,
		  "time": 83.203125,
		  "velocity": 0.44881889763779526
		},
		{
		  "duration": 0.17395833333333144,
		  "durationTicks": 167,
		  "midi": 64,
		  "name": "E4",
		  "ticks": 79875,
		  "time": 83.203125,
		  "velocity": 0.5354330708661418
		},
		{
		  "duration": 0.1510416666666714,
		  "durationTicks": 145,
		  "midi": 40,
		  "name": "E2",
		  "ticks": 79897,
		  "time": 83.22604166666666,
		  "velocity": 0.4409448818897638
		},
		{
		  "duration": 0.22187499999999716,
		  "durationTicks": 213,
		  "midi": 76,
		  "name": "E5",
		  "ticks": 80098,
		  "time": 83.43541666666667,
		  "velocity": 0.3543307086614173
		},
		{
		  "duration": 0.1510416666666714,
		  "durationTicks": 145,
		  "midi": 38,
		  "name": "D2",
		  "ticks": 80099,
		  "time": 83.43645833333333,
		  "velocity": 0.3937007874015748
		},
		{
		  "duration": 0.33645833333332575,
		  "durationTicks": 323,
		  "midi": 74,
		  "name": "D5",
		  "ticks": 80110,
		  "time": 83.44791666666667,
		  "velocity": 0.41732283464566927
		},
		{
		  "duration": 0.13958333333333428,
		  "durationTicks": 134,
		  "midi": 57,
		  "name": "A3",
		  "ticks": 80110,
		  "time": 83.44791666666667,
		  "velocity": 0.3858267716535433
		},
		{
		  "duration": 0.17395833333333144,
		  "durationTicks": 167,
		  "midi": 28,
		  "name": "E1",
		  "ticks": 80244,
		  "time": 83.5875,
		  "velocity": 0.3937007874015748
		},
		{
		  "duration": 0.20937499999999432,
		  "durationTicks": 201,
		  "midi": 40,
		  "name": "E2",
		  "ticks": 80311,
		  "time": 83.65729166666667,
		  "velocity": 0.47244094488188976
		},
		{
		  "duration": 0.22083333333333144,
		  "durationTicks": 212,
		  "midi": 59,
		  "name": "B3",
		  "ticks": 80333,
		  "time": 83.68020833333334,
		  "velocity": 0.3700787401574803
		},
		{
		  "duration": 0.37187500000000284,
		  "durationTicks": 357,
		  "midi": 76,
		  "name": "E5",
		  "ticks": 80445,
		  "time": 83.796875,
		  "velocity": 0.5275590551181102
		},
		{
		  "duration": 0.19687500000000568,
		  "durationTicks": 189,
		  "midi": 40,
		  "name": "E2",
		  "ticks": 80790,
		  "time": 84.15625,
		  "velocity": 0.4409448818897638
		},
		{
		  "duration": 0.22083333333333144,
		  "durationTicks": 212,
		  "midi": 76,
		  "name": "E5",
		  "ticks": 80801,
		  "time": 84.16770833333334,
		  "velocity": 0.6062992125984252
		},
		{
		  "duration": 0.16249999999999432,
		  "durationTicks": 156,
		  "midi": 64,
		  "name": "E4",
		  "ticks": 80801,
		  "time": 84.16770833333334,
		  "velocity": 0.2992125984251969
		},
		{
		  "duration": 0.1510416666666572,
		  "durationTicks": 145,
		  "midi": 52,
		  "name": "E3",
		  "ticks": 80801,
		  "time": 84.16770833333334,
		  "velocity": 0.4094488188976378
		},
		{
		  "duration": 0.1510416666666572,
		  "durationTicks": 145,
		  "midi": 59,
		  "name": "B3",
		  "ticks": 80813,
		  "time": 84.18020833333334,
		  "velocity": 0.3937007874015748
		},
		{
		  "duration": 0.2552083333333286,
		  "durationTicks": 245,
		  "midi": 76,
		  "name": "E5",
		  "ticks": 81013,
		  "time": 84.38854166666667,
		  "velocity": 0.6299212598425197
		},
		{
		  "duration": 0.24374999999999147,
		  "durationTicks": 234,
		  "midi": 59,
		  "name": "B3",
		  "ticks": 81147,
		  "time": 84.528125,
		  "velocity": 0.36220472440944884
		},
		{
		  "duration": 0.13958333333333428,
		  "durationTicks": 134,
		  "midi": 28,
		  "name": "E1",
		  "ticks": 81236,
		  "time": 84.62083333333334,
		  "velocity": 0.3937007874015748
		},
		{
		  "duration": 0.18541666666666856,
		  "durationTicks": 178,
		  "midi": 40,
		  "name": "E2",
		  "ticks": 81247,
		  "time": 84.63229166666666,
		  "velocity": 0.5196850393700787
		},
		{
		  "duration": 0.37187500000000284,
		  "durationTicks": 357,
		  "midi": 76,
		  "name": "E5",
		  "ticks": 81258,
		  "time": 84.64375,
		  "velocity": 0.5118110236220472
		},
		{
		  "duration": 0.20937500000000853,
		  "durationTicks": 201,
		  "midi": 55,
		  "name": "G3",
		  "ticks": 81258,
		  "time": 84.64375,
		  "velocity": 0.4015748031496063
		},
		{
		  "duration": 0.1510416666666714,
		  "durationTicks": 145,
		  "midi": 64,
		  "name": "E4",
		  "ticks": 81270,
		  "time": 84.65625,
		  "velocity": 0.3937007874015748
		},
		{
		  "duration": 0.18541666666666856,
		  "durationTicks": 178,
		  "midi": 52,
		  "name": "E3",
		  "ticks": 81493,
		  "time": 84.88854166666667,
		  "velocity": 0.3779527559055118
		},
		{
		  "duration": 0.22083333333333144,
		  "durationTicks": 212,
		  "midi": 76,
		  "name": "E5",
		  "ticks": 81615,
		  "time": 85.015625,
		  "velocity": 0.5511811023622047
		},
		{
		  "duration": 0.19687500000000568,
		  "durationTicks": 189,
		  "midi": 31,
		  "name": "G1",
		  "ticks": 81749,
		  "time": 85.15520833333333,
		  "velocity": 0.5118110236220472
		},
		{
		  "duration": 0.19687499999999147,
		  "durationTicks": 189,
		  "midi": 40,
		  "name": "E2",
		  "ticks": 81760,
		  "time": 85.16666666666667,
		  "velocity": 0.3228346456692913
		},
		{
		  "duration": 0.22187500000001137,
		  "durationTicks": 213,
		  "midi": 43,
		  "name": "G2",
		  "ticks": 81816,
		  "time": 85.225,
		  "velocity": 0.36220472440944884
		},
		{
		  "duration": 0.13958333333333428,
		  "durationTicks": 134,
		  "midi": 76,
		  "name": "E5",
		  "ticks": 81827,
		  "time": 85.23645833333333,
		  "velocity": 0.6141732283464567
		},
		{
		  "duration": 0.16250000000000853,
		  "durationTicks": 156,
		  "midi": 59,
		  "name": "B3",
		  "ticks": 81827,
		  "time": 85.23645833333333,
		  "velocity": 0.3858267716535433
		},
		{
		  "duration": 0.16250000000000853,
		  "durationTicks": 156,
		  "midi": 52,
		  "name": "E3",
		  "ticks": 81827,
		  "time": 85.23645833333333,
		  "velocity": 0.4409448818897638
		},
		{
		  "duration": 0.1291666666666771,
		  "durationTicks": 124,
		  "midi": 39,
		  "name": "D#2",
		  "ticks": 81949,
		  "time": 85.36354166666666,
		  "velocity": 0.36220472440944884
		},
		{
		  "duration": 0.140625,
		  "durationTicks": 135,
		  "midi": 100,
		  "name": "E7",
		  "ticks": 81961,
		  "time": 85.37604166666667,
		  "velocity": 0.3779527559055118
		},
		{
		  "duration": 0.21041666666667425,
		  "durationTicks": 202,
		  "midi": 76,
		  "name": "E5",
		  "ticks": 81961,
		  "time": 85.37604166666667,
		  "velocity": 0.5984251968503937
		},
		{
		  "duration": 0.12916666666666288,
		  "durationTicks": 124,
		  "midi": 67,
		  "name": "G4",
		  "ticks": 81983,
		  "time": 85.39895833333334,
		  "velocity": 0.4881889763779528
		},
		{
		  "duration": 0.13958333333333428,
		  "durationTicks": 134,
		  "midi": 43,
		  "name": "G2",
		  "ticks": 82029,
		  "time": 85.446875,
		  "velocity": 0.5511811023622047
		},
		{
		  "duration": 0.2666666666666657,
		  "durationTicks": 256,
		  "midi": 40,
		  "name": "E2",
		  "ticks": 82073,
		  "time": 85.49270833333334,
		  "velocity": 0.33070866141732286
		},
		{
		  "duration": 0.16250000000000853,
		  "durationTicks": 156,
		  "midi": 43,
		  "name": "G2",
		  "ticks": 82162,
		  "time": 85.58541666666666,
		  "velocity": 0.4409448818897638
		},
		{
		  "duration": 0.27812500000000284,
		  "durationTicks": 267,
		  "midi": 76,
		  "name": "E5",
		  "ticks": 82174,
		  "time": 85.59791666666666,
		  "velocity": 0.3937007874015748
		},
		{
		  "duration": 0.13958333333333428,
		  "durationTicks": 134,
		  "midi": 69,
		  "name": "A4",
		  "ticks": 82174,
		  "time": 85.59791666666666,
		  "velocity": 0.5433070866141733
		},
		{
		  "duration": 0.19687500000000568,
		  "durationTicks": 189,
		  "midi": 62,
		  "name": "D4",
		  "ticks": 82174,
		  "time": 85.59791666666666,
		  "velocity": 0.47244094488188976
		},
		{
		  "duration": 0.16249999999999432,
		  "durationTicks": 156,
		  "midi": 31,
		  "name": "G1",
		  "ticks": 82229,
		  "time": 85.65520833333333,
		  "velocity": 0.5354330708661418
		},
		{
		  "duration": 0.3479166666666629,
		  "durationTicks": 334,
		  "midi": 43,
		  "name": "G2",
		  "ticks": 82319,
		  "time": 85.74895833333333,
		  "velocity": 0.3779527559055118
		},
		{
		  "duration": 0.3135416666666657,
		  "durationTicks": 301,
		  "midi": 76,
		  "name": "E5",
		  "ticks": 82441,
		  "time": 85.87604166666667,
		  "velocity": 0.4251968503937008
		},
		{
		  "duration": 0.13958333333332007,
		  "durationTicks": 134,
		  "midi": 69,
		  "name": "A4",
		  "ticks": 82508,
		  "time": 85.94583333333334,
		  "velocity": 0.5433070866141733
		},
		{
		  "duration": 0.18541666666666856,
		  "durationTicks": 178,
		  "midi": 62,
		  "name": "D4",
		  "ticks": 82653,
		  "time": 86.096875,
		  "velocity": 0.3937007874015748
		},
		{
		  "duration": 0.4416666666666629,
		  "durationTicks": 424,
		  "midi": 43,
		  "name": "G2",
		  "ticks": 82653,
		  "time": 86.096875,
		  "velocity": 0.5669291338582677
		},
		{
		  "duration": 0.17395833333334565,
		  "durationTicks": 167,
		  "midi": 31,
		  "name": "G1",
		  "ticks": 82686,
		  "time": 86.13125,
		  "velocity": 0.5275590551181102
		},
		{
		  "duration": 0.13958333333333428,
		  "durationTicks": 134,
		  "midi": 76,
		  "name": "E5",
		  "ticks": 82742,
		  "time": 86.18958333333333,
		  "velocity": 0.5118110236220472
		},
		{
		  "duration": 0.22083333333333144,
		  "durationTicks": 212,
		  "midi": 76,
		  "name": "E5",
		  "ticks": 82876,
		  "time": 86.32916666666667,
		  "velocity": 0.5433070866141733
		},
		{
		  "duration": 0.1510416666666714,
		  "durationTicks": 145,
		  "midi": 69,
		  "name": "A4",
		  "ticks": 82876,
		  "time": 86.32916666666667,
		  "velocity": 0.5196850393700787
		},
		{
		  "duration": 0.3135416666666657,
		  "durationTicks": 301,
		  "midi": 62,
		  "name": "D4",
		  "ticks": 82887,
		  "time": 86.340625,
		  "velocity": 0.3543307086614173
		},
		{
		  "duration": 0.2666666666666657,
		  "durationTicks": 256,
		  "midi": 43,
		  "name": "G2",
		  "ticks": 83076,
		  "time": 86.5375,
		  "velocity": 0.5275590551181102
		},
		{
		  "duration": 0.22083333333334565,
		  "durationTicks": 212,
		  "midi": 31,
		  "name": "G1",
		  "ticks": 83076,
		  "time": 86.5375,
		  "velocity": 0.49606299212598426
		},
		{
		  "duration": 0.13958333333333428,
		  "durationTicks": 134,
		  "midi": 76,
		  "name": "E5",
		  "ticks": 83088,
		  "time": 86.55,
		  "velocity": 0.5984251968503937
		},
		{
		  "duration": 0.2552083333333286,
		  "durationTicks": 245,
		  "midi": 76,
		  "name": "E5",
		  "ticks": 83322,
		  "time": 86.79375,
		  "velocity": 0.5118110236220472
		},
		{
		  "duration": 0.2552083333333286,
		  "durationTicks": 245,
		  "midi": 43,
		  "name": "G2",
		  "ticks": 83333,
		  "time": 86.80520833333334,
		  "velocity": 0.5354330708661418
		},
		{
		  "duration": 0.23229166666666856,
		  "durationTicks": 223,
		  "midi": 76,
		  "name": "E5",
		  "ticks": 83567,
		  "time": 87.04895833333333,
		  "velocity": 0.3937007874015748
		},
		{
		  "duration": 0.36145833333333144,
		  "durationTicks": 347,
		  "midi": 74,
		  "name": "D5",
		  "ticks": 83578,
		  "time": 87.06041666666667,
		  "velocity": 0.41732283464566927
		},
		{
		  "duration": 0.17395833333333144,
		  "durationTicks": 167,
		  "midi": 62,
		  "name": "D4",
		  "ticks": 83578,
		  "time": 87.06041666666667,
		  "velocity": 0.2677165354330709
		},
		{
		  "duration": 0.18541666666666856,
		  "durationTicks": 178,
		  "midi": 45,
		  "name": "A2",
		  "ticks": 83578,
		  "time": 87.06041666666667,
		  "velocity": 0.4015748031496063
		},
		{
		  "duration": 0.18541666666666856,
		  "durationTicks": 178,
		  "midi": 43,
		  "name": "G2",
		  "ticks": 83578,
		  "time": 87.06041666666667,
		  "velocity": 0.3700787401574803
		},
		{
		  "duration": 0.18541666666666856,
		  "durationTicks": 178,
		  "midi": 40,
		  "name": "E2",
		  "ticks": 83578,
		  "time": 87.06041666666667,
		  "velocity": 0.4409448818897638
		},
		{
		  "duration": 0.16249999999999432,
		  "durationTicks": 156,
		  "midi": 33,
		  "name": "A1",
		  "ticks": 83578,
		  "time": 87.06041666666667,
		  "velocity": 0.3858267716535433
		},
		{
		  "duration": 0.3499999999999943,
		  "durationTicks": 336,
		  "midi": 76,
		  "name": "E5",
		  "ticks": 83801,
		  "time": 87.29270833333334,
		  "velocity": 0.3779527559055118
		},
		{
		  "duration": 0.3031249999999943,
		  "durationTicks": 291,
		  "midi": 57,
		  "name": "A3",
		  "ticks": 83801,
		  "time": 87.29270833333334,
		  "velocity": 0.3700787401574803
		},
		{
		  "duration": 0.18541666666666856,
		  "durationTicks": 178,
		  "midi": 45,
		  "name": "A2",
		  "ticks": 83925,
		  "time": 87.421875,
		  "velocity": 0.4566929133858268
		},
		{
		  "duration": 0.1510416666666572,
		  "durationTicks": 145,
		  "midi": 33,
		  "name": "A1",
		  "ticks": 84025,
		  "time": 87.52604166666667,
		  "velocity": 0.49606299212598426
		},
		{
		  "duration": 0.3604166666666657,
		  "durationTicks": 346,
		  "midi": 76,
		  "name": "E5",
		  "ticks": 84136,
		  "time": 87.64166666666667,
		  "velocity": 0.48031496062992124
		},
		{
		  "duration": 0.1510416666666714,
		  "durationTicks": 145,
		  "midi": 45,
		  "name": "A2",
		  "ticks": 84304,
		  "time": 87.81666666666666,
		  "velocity": 0.4566929133858268
		},
		{
		  "duration": 0.1510416666666714,
		  "durationTicks": 145,
		  "midi": 45,
		  "name": "A2",
		  "ticks": 84471,
		  "time": 87.990625,
		  "velocity": 0.3858267716535433
		},
		{
		  "duration": 0.18541666666666856,
		  "durationTicks": 178,
		  "midi": 33,
		  "name": "A1",
		  "ticks": 84471,
		  "time": 87.990625,
		  "velocity": 0.5118110236220472
		},
		{
		  "duration": 0.23229166666666856,
		  "durationTicks": 223,
		  "midi": 76,
		  "name": "E5",
		  "ticks": 84482,
		  "time": 88.00208333333333,
		  "velocity": 0.5511811023622047
		},
		{
		  "duration": 0.19687500000000568,
		  "durationTicks": 189,
		  "midi": 45,
		  "name": "A2",
		  "ticks": 84616,
		  "time": 88.14166666666667,
		  "velocity": 0.5196850393700787
		},
		{
		  "duration": 0.24375000000000568,
		  "durationTicks": 234,
		  "midi": 76,
		  "name": "E5",
		  "ticks": 84705,
		  "time": 88.234375,
		  "velocity": 0.6062992125984252
		},
		{
		  "duration": 0.13958333333333428,
		  "durationTicks": 134,
		  "midi": 33,
		  "name": "A1",
		  "ticks": 84917,
		  "time": 88.45520833333333,
		  "velocity": 0.3700787401574803
		},
		{
		  "duration": 0.2552083333333286,
		  "durationTicks": 245,
		  "midi": 76,
		  "name": "E5",
		  "ticks": 84939,
		  "time": 88.478125,
		  "velocity": 0.4881889763779528
		},
		{
		  "duration": 0.19687499999999147,
		  "durationTicks": 189,
		  "midi": 45,
		  "name": "A2",
		  "ticks": 84939,
		  "time": 88.478125,
		  "velocity": 0.3937007874015748
		},
		{
		  "duration": 0.23229166666666856,
		  "durationTicks": 223,
		  "midi": 76,
		  "name": "E5",
		  "ticks": 85184,
		  "time": 88.73333333333333,
		  "velocity": 0.5748031496062992
		},
		{
		  "duration": 0.19687499999999147,
		  "durationTicks": 189,
		  "midi": 57,
		  "name": "A3",
		  "ticks": 85318,
		  "time": 88.87291666666667,
		  "velocity": 0.4645669291338583
		},
		{
		  "duration": 0.23229166666666856,
		  "durationTicks": 223,
		  "midi": 76,
		  "name": "E5",
		  "ticks": 85407,
		  "time": 88.965625,
		  "velocity": 0.5433070866141733
		},
		{
		  "duration": 0.4072916666666657,
		  "durationTicks": 391,
		  "midi": 35,
		  "name": "B1",
		  "ticks": 85441,
		  "time": 89.00104166666667,
		  "velocity": 0.3700787401574803
		},
		{
		  "duration": 0.19687499999999147,
		  "durationTicks": 189,
		  "midi": 45,
		  "name": "A2",
		  "ticks": 85541,
		  "time": 89.10520833333334,
		  "velocity": 0.3228346456692913
		},
		{
		  "duration": 0.2447916666666572,
		  "durationTicks": 235,
		  "midi": 76,
		  "name": "E5",
		  "ticks": 85630,
		  "time": 89.19791666666667,
		  "velocity": 0.5984251968503937
		},
		{
		  "duration": 0.15208333333333712,
		  "durationTicks": 146,
		  "midi": 47,
		  "name": "B2",
		  "ticks": 85708,
		  "time": 89.27916666666667,
		  "velocity": 0.49606299212598426
		},
		{
		  "duration": 0.1510416666666714,
		  "durationTicks": 145,
		  "midi": 35,
		  "name": "B1",
		  "ticks": 85843,
		  "time": 89.41979166666667,
		  "velocity": 0.3464566929133858
		},
		{
		  "duration": 0.2552083333333428,
		  "durationTicks": 245,
		  "midi": 76,
		  "name": "E5",
		  "ticks": 85865,
		  "time": 89.44270833333333,
		  "velocity": 0.5905511811023622
		},
		{
		  "duration": 0.13958333333333428,
		  "durationTicks": 134,
		  "midi": 52,
		  "name": "E3",
		  "ticks": 85865,
		  "time": 89.44270833333333,
		  "velocity": 0.4330708661417323
		},
		{
		  "duration": 0.18541666666666856,
		  "durationTicks": 178,
		  "midi": 47,
		  "name": "B2",
		  "ticks": 85865,
		  "time": 89.44270833333333,
		  "velocity": 0.48031496062992124
		},
		{
		  "duration": 0.16249999999999432,
		  "durationTicks": 156,
		  "midi": 71,
		  "name": "B4",
		  "ticks": 85876,
		  "time": 89.45416666666667,
		  "velocity": 0.5039370078740157
		},
		{
		  "duration": 0.23229166666666856,
		  "durationTicks": 223,
		  "midi": 76,
		  "name": "E5",
		  "ticks": 86110,
		  "time": 89.69791666666667,
		  "velocity": 0.5984251968503937
		},
		{
		  "duration": 0.24374999999999147,
		  "durationTicks": 234,
		  "midi": 59,
		  "name": "B3",
		  "ticks": 86200,
		  "time": 89.79166666666667,
		  "velocity": 0.3858267716535433
		},
		{
		  "duration": 0.13958333333333428,
		  "durationTicks": 134,
		  "midi": 52,
		  "name": "E3",
		  "ticks": 86200,
		  "time": 89.79166666666667,
		  "velocity": 0.4566929133858268
		},
		{
		  "duration": 0.3604166666666657,
		  "durationTicks": 346,
		  "midi": 71,
		  "name": "B4",
		  "ticks": 86211,
		  "time": 89.803125,
		  "velocity": 0.3543307086614173
		},
		{
		  "duration": 0.24374999999999147,
		  "durationTicks": 234,
		  "midi": 47,
		  "name": "B2",
		  "ticks": 86322,
		  "time": 89.91875,
		  "velocity": 0.5905511811023622
		},
		{
		  "duration": 0.22083333333333144,
		  "durationTicks": 212,
		  "midi": 76,
		  "name": "E5",
		  "ticks": 86333,
		  "time": 89.93020833333334,
		  "velocity": 0.6220472440944882
		},
		{
		  "duration": 0.13958333333332007,
		  "durationTicks": 134,
		  "midi": 55,
		  "name": "G3",
		  "ticks": 86333,
		  "time": 89.93020833333334,
		  "velocity": 0.44881889763779526
		},
		{
		  "duration": 0.2552083333333428,
		  "durationTicks": 245,
		  "midi": 35,
		  "name": "B1",
		  "ticks": 86345,
		  "time": 89.94270833333333,
		  "velocity": 0.4330708661417323
		},
		{
		  "duration": 0.17395833333333144,
		  "durationTicks": 167,
		  "midi": 40,
		  "name": "E2",
		  "ticks": 86534,
		  "time": 90.13958333333333,
		  "velocity": 0.3464566929133858
		},
		{
		  "duration": 0.37187499999998863,
		  "durationTicks": 357,
		  "midi": 76,
		  "name": "E5",
		  "ticks": 86545,
		  "time": 90.15104166666667,
		  "velocity": 0.6141732283464567
		},
		{
		  "duration": 0.1510416666666714,
		  "durationTicks": 145,
		  "midi": 71,
		  "name": "B4",
		  "ticks": 86556,
		  "time": 90.1625,
		  "velocity": 0.4251968503937008
		},
		{
		  "duration": 0.1510416666666714,
		  "durationTicks": 145,
		  "midi": 59,
		  "name": "B3",
		  "ticks": 86556,
		  "time": 90.1625,
		  "velocity": 0.3464566929133858
		},
		{
		  "duration": 0.1510416666666714,
		  "durationTicks": 145,
		  "midi": 52,
		  "name": "E3",
		  "ticks": 86556,
		  "time": 90.1625,
		  "velocity": 0.4409448818897638
		},
		{
		  "duration": 0.23229166666666856,
		  "durationTicks": 223,
		  "midi": 47,
		  "name": "B2",
		  "ticks": 86556,
		  "time": 90.1625,
		  "velocity": 0.33858267716535434
		},
		{
		  "duration": 0.1510416666666572,
		  "durationTicks": 145,
		  "midi": 35,
		  "name": "B1",
		  "ticks": 86768,
		  "time": 90.38333333333334,
		  "velocity": 0.4094488188976378
		},
		{
		  "duration": 0.17395833333333144,
		  "durationTicks": 167,
		  "midi": 47,
		  "name": "B2",
		  "ticks": 86779,
		  "time": 90.39479166666666,
		  "velocity": 0.3779527559055118
		},
		{
		  "duration": 0.22083333333333144,
		  "durationTicks": 212,
		  "midi": 59,
		  "name": "B3",
		  "ticks": 86790,
		  "time": 90.40625,
		  "velocity": 0.28346456692913385
		},
		{
		  "duration": 0.16250000000000853,
		  "durationTicks": 156,
		  "midi": 76,
		  "name": "E5",
		  "ticks": 86902,
		  "time": 90.52291666666666,
		  "velocity": 0.5275590551181102
		},
		{
		  "duration": 0.24374999999999147,
		  "durationTicks": 234,
		  "midi": 43,
		  "name": "G2",
		  "ticks": 87013,
		  "time": 90.63854166666667,
		  "velocity": 0.3228346456692913
		},
		{
		  "duration": 0.2906250000000057,
		  "durationTicks": 279,
		  "midi": 76,
		  "name": "E5",
		  "ticks": 87247,
		  "time": 90.88229166666666,
		  "velocity": 0.4094488188976378
		},
		{
		  "duration": 0.13958333333333428,
		  "durationTicks": 134,
		  "midi": 57,
		  "name": "A3",
		  "ticks": 87247,
		  "time": 90.88229166666666,
		  "velocity": 0.2992125984251969
		},
		{
		  "duration": 0.20937500000000853,
		  "durationTicks": 201,
		  "midi": 43,
		  "name": "G2",
		  "ticks": 87247,
		  "time": 90.88229166666666,
		  "velocity": 0.4645669291338583
		},
		{
		  "duration": 0.32500000000000284,
		  "durationTicks": 312,
		  "midi": 31,
		  "name": "G1",
		  "ticks": 87270,
		  "time": 90.90625,
		  "velocity": 0.47244094488188976
		},
		{
		  "duration": 0.22187499999999716,
		  "durationTicks": 213,
		  "midi": 76,
		  "name": "E5",
		  "ticks": 87526,
		  "time": 91.17291666666667,
		  "velocity": 0.5590551181102362
		},
		{
		  "duration": 0.23229166666666856,
		  "durationTicks": 223,
		  "midi": 76,
		  "name": "E5",
		  "ticks": 87739,
		  "time": 91.39479166666666,
		  "velocity": 0.6220472440944882
		},
		{
		  "duration": 0.2552083333333286,
		  "durationTicks": 245,
		  "midi": 76,
		  "name": "E5",
		  "ticks": 87962,
		  "time": 91.62708333333333,
		  "velocity": 0.6377952755905512
		},
		{
		  "duration": 0.3604166666666657,
		  "durationTicks": 346,
		  "midi": 38,
		  "name": "D2",
		  "ticks": 87984,
		  "time": 91.65,
		  "velocity": 0.36220472440944884
		},
		{
		  "duration": 0.23229166666666856,
		  "durationTicks": 223,
		  "midi": 76,
		  "name": "E5",
		  "ticks": 88207,
		  "time": 91.88229166666666,
		  "velocity": 0.7559055118110236
		},
		{
		  "duration": 0.20937500000000853,
		  "durationTicks": 201,
		  "midi": 76,
		  "name": "E5",
		  "ticks": 88430,
		  "time": 92.11458333333333,
		  "velocity": 0.7637795275590551
		},
		{
		  "duration": 0.23229166666666856,
		  "durationTicks": 223,
		  "midi": 76,
		  "name": "E5",
		  "ticks": 88631,
		  "time": 92.32395833333334,
		  "velocity": 0.7716535433070866
		},
		{
		  "duration": 0.24374999999999147,
		  "durationTicks": 234,
		  "midi": 76,
		  "name": "E5",
		  "ticks": 88854,
		  "time": 92.55625,
		  "velocity": 0.7716535433070866
		},
		{
		  "duration": 0.19687499999999147,
		  "durationTicks": 189,
		  "midi": 64,
		  "name": "E4",
		  "ticks": 88976,
		  "time": 92.68333333333334,
		  "velocity": 0.3543307086614173
		},
		{
		  "duration": 0.2666666666666657,
		  "durationTicks": 256,
		  "midi": 76,
		  "name": "E5",
		  "ticks": 89088,
		  "time": 92.8,
		  "velocity": 0.7322834645669292
		},
		{
		  "duration": 0.2552083333333428,
		  "durationTicks": 245,
		  "midi": 76,
		  "name": "E5",
		  "ticks": 89344,
		  "time": 93.06666666666666,
		  "velocity": 0.7165354330708661
		},
		{
		  "duration": 0.23333333333333428,
		  "durationTicks": 224,
		  "midi": 76,
		  "name": "E5",
		  "ticks": 89589,
		  "time": 93.321875,
		  "velocity": 0.6850393700787402
		},
		{
		  "duration": 0.24374999999999147,
		  "durationTicks": 234,
		  "midi": 76,
		  "name": "E5",
		  "ticks": 89813,
		  "time": 93.55520833333334,
		  "velocity": 0.6614173228346457
		},
		{
		  "duration": 0.23229166666666856,
		  "durationTicks": 223,
		  "midi": 76,
		  "name": "E5",
		  "ticks": 90047,
		  "time": 93.79895833333333,
		  "velocity": 0.7086614173228346
		},
		{
		  "duration": 0.20937499999999432,
		  "durationTicks": 201,
		  "midi": 76,
		  "name": "E5",
		  "ticks": 90270,
		  "time": 94.03125,
		  "velocity": 0.7165354330708661
		},
		{
		  "duration": 0.24375000000000568,
		  "durationTicks": 234,
		  "midi": 76,
		  "name": "E5",
		  "ticks": 90471,
		  "time": 94.240625,
		  "velocity": 0.7322834645669292
		},
		{
		  "duration": 0.23229166666666856,
		  "durationTicks": 223,
		  "midi": 76,
		  "name": "E5",
		  "ticks": 90705,
		  "time": 94.484375,
		  "velocity": 0.7165354330708661
		},
		{
		  "duration": 0.22083333333333144,
		  "durationTicks": 212,
		  "midi": 76,
		  "name": "E5",
		  "ticks": 90928,
		  "time": 94.71666666666667,
		  "velocity": 0.5905511811023622
		},
		{
		  "duration": 0.2552083333333286,
		  "durationTicks": 245,
		  "midi": 74,
		  "name": "D5",
		  "ticks": 90928,
		  "time": 94.71666666666667,
		  "velocity": 0.5826771653543307
		},
		{
		  "duration": 0.20937499999999432,
		  "durationTicks": 201,
		  "midi": 74,
		  "name": "D5",
		  "ticks": 91284,
		  "time": 95.0875,
		  "velocity": 0.31496062992125984
		},
		{
		  "duration": 0.1291666666666771,
		  "durationTicks": 124,
		  "midi": 59,
		  "name": "B3",
		  "ticks": 91519,
		  "time": 95.33229166666666,
		  "velocity": 0.5433070866141733
		},
		{
		  "duration": 0.3479166666666629,
		  "durationTicks": 334,
		  "midi": 74,
		  "name": "D5",
		  "ticks": 91743,
		  "time": 95.565625,
		  "velocity": 0.4094488188976378
		},
		{
		  "duration": 0.13958333333333428,
		  "durationTicks": 134,
		  "midi": 71,
		  "name": "B4",
		  "ticks": 91854,
		  "time": 95.68125,
		  "velocity": 0.3858267716535433
		},
		{
		  "duration": 0.13958333333333428,
		  "durationTicks": 134,
		  "midi": 59,
		  "name": "B3",
		  "ticks": 91865,
		  "time": 95.69270833333333,
		  "velocity": 0.4330708661417323
		},
		{
		  "duration": 0.13958333333333428,
		  "durationTicks": 134,
		  "midi": 52,
		  "name": "E3",
		  "ticks": 91865,
		  "time": 95.69270833333333,
		  "velocity": 0.5039370078740157
		},
		{
		  "duration": 0.18541666666666856,
		  "durationTicks": 178,
		  "midi": 40,
		  "name": "E2",
		  "ticks": 91865,
		  "time": 95.69270833333333,
		  "velocity": 0.3858267716535433
		},
		{
		  "duration": 0.24375000000000568,
		  "durationTicks": 234,
		  "midi": 64,
		  "name": "E4",
		  "ticks": 92077,
		  "time": 95.91354166666666,
		  "velocity": 0.33070866141732286
		},
		{
		  "duration": 0.2552083333333286,
		  "durationTicks": 245,
		  "midi": 78,
		  "name": "F#5",
		  "ticks": 92200,
		  "time": 96.04166666666667,
		  "velocity": 0.3937007874015748
		},
		{
		  "duration": 0.13958333333333428,
		  "durationTicks": 134,
		  "midi": 59,
		  "name": "B3",
		  "ticks": 92200,
		  "time": 96.04166666666667,
		  "velocity": 0.5433070866141733
		},
		{
		  "duration": 0.2552083333333286,
		  "durationTicks": 245,
		  "midi": 74,
		  "name": "D5",
		  "ticks": 92423,
		  "time": 96.27395833333334,
		  "velocity": 0.47244094488188976
		},
		{
		  "duration": 0.17395833333333144,
		  "durationTicks": 167,
		  "midi": 52,
		  "name": "E3",
		  "ticks": 92545,
		  "time": 96.40104166666667,
		  "velocity": 0.5511811023622047
		},
		{
		  "duration": 0.13958333333333428,
		  "durationTicks": 134,
		  "midi": 59,
		  "name": "B3",
		  "ticks": 92556,
		  "time": 96.4125,
		  "velocity": 0.48031496062992124
		},
		{
		  "duration": 0.13958333333333428,
		  "durationTicks": 134,
		  "midi": 74,
		  "name": "D5",
		  "ticks": 92668,
		  "time": 96.52916666666667,
		  "velocity": 0.5826771653543307
		},
		{
		  "duration": 0.2666666666666657,
		  "durationTicks": 256,
		  "midi": 64,
		  "name": "E4",
		  "ticks": 92768,
		  "time": 96.63333333333334,
		  "velocity": 0.41732283464566927
		},
		{
		  "duration": 0.23229166666666856,
		  "durationTicks": 223,
		  "midi": 74,
		  "name": "D5",
		  "ticks": 92802,
		  "time": 96.66875,
		  "velocity": 0.3700787401574803
		},
		{
		  "duration": 0.13958333333333428,
		  "durationTicks": 134,
		  "midi": 71,
		  "name": "B4",
		  "ticks": 92902,
		  "time": 96.77291666666666,
		  "velocity": 0.47244094488188976
		},
		{
		  "duration": 0.16250000000000853,
		  "durationTicks": 156,
		  "midi": 59,
		  "name": "B3",
		  "ticks": 92902,
		  "time": 96.77291666666666,
		  "velocity": 0.5118110236220472
		},
		{
		  "duration": 0.31354166666667993,
		  "durationTicks": 301,
		  "midi": 40,
		  "name": "E2",
		  "ticks": 92902,
		  "time": 96.77291666666666,
		  "velocity": 0.3543307086614173
		},
		{
		  "duration": 0.3604166666666657,
		  "durationTicks": 346,
		  "midi": 74,
		  "name": "D5",
		  "ticks": 93024,
		  "time": 96.9,
		  "velocity": 0.6929133858267716
		},
		{
		  "duration": 0.1510416666666714,
		  "durationTicks": 145,
		  "midi": 52,
		  "name": "E3",
		  "ticks": 93247,
		  "time": 97.13229166666666,
		  "velocity": 0.4566929133858268
		},
		{
		  "duration": 0.22187499999999716,
		  "durationTicks": 213,
		  "midi": 74,
		  "name": "D5",
		  "ticks": 93370,
		  "time": 97.26041666666667,
		  "velocity": 0.5275590551181102
		},
		{
		  "duration": 0.22083333333333144,
		  "durationTicks": 212,
		  "midi": 40,
		  "name": "E2",
		  "ticks": 93572,
		  "time": 97.47083333333333,
		  "velocity": 0.30708661417322836
		},
		{
		  "duration": 0.23229166666666856,
		  "durationTicks": 223,
		  "midi": 74,
		  "name": "D5",
		  "ticks": 93583,
		  "time": 97.48229166666667,
		  "velocity": 0.6456692913385826
		},
		{
		  "duration": 0.13958333333333428,
		  "durationTicks": 134,
		  "midi": 64,
		  "name": "E4",
		  "ticks": 93594,
		  "time": 97.49375,
		  "velocity": 0.5118110236220472
		},
		{
		  "duration": 0.13958333333333428,
		  "durationTicks": 134,
		  "midi": 74,
		  "name": "D5",
		  "ticks": 93806,
		  "time": 97.71458333333334,
		  "velocity": 0.6299212598425197
		},
		{
		  "duration": 0.13958333333333428,
		  "durationTicks": 134,
		  "midi": 64,
		  "name": "E4",
		  "ticks": 93928,
		  "time": 97.84166666666667,
		  "velocity": 0.4566929133858268
		},
		{
		  "duration": 0.13958333333333428,
		  "durationTicks": 134,
		  "midi": 74,
		  "name": "D5",
		  "ticks": 93940,
		  "time": 97.85416666666667,
		  "velocity": 0.5275590551181102
		},
		{
		  "duration": 0.37187500000000284,
		  "durationTicks": 357,
		  "midi": 40,
		  "name": "E2",
		  "ticks": 93951,
		  "time": 97.865625,
		  "velocity": 0.3228346456692913
		},
		{
		  "duration": 0.32500000000000284,
		  "durationTicks": 312,
		  "midi": 78,
		  "name": "F#5",
		  "ticks": 93951,
		  "time": 97.865625,
		  "velocity": 0.5669291338582677
		},
		{
		  "duration": 0.13958333333333428,
		  "durationTicks": 134,
		  "midi": 64,
		  "name": "E4",
		  "ticks": 94151,
		  "time": 98.07395833333334,
		  "velocity": 0.23622047244094488
		},
		{
		  "duration": 0.13958333333333428,
		  "durationTicks": 134,
		  "midi": 69,
		  "name": "A4",
		  "ticks": 94263,
		  "time": 98.190625,
		  "velocity": 0.5275590551181102
		},
		{
		  "duration": 0.1510416666666572,
		  "durationTicks": 145,
		  "midi": 64,
		  "name": "E4",
		  "ticks": 94285,
		  "time": 98.21354166666667,
		  "velocity": 0.4645669291338583
		},
		{
		  "duration": 0.1510416666666572,
		  "durationTicks": 145,
		  "midi": 57,
		  "name": "A3",
		  "ticks": 94285,
		  "time": 98.21354166666667,
		  "velocity": 0.4881889763779528
		},
		{
		  "duration": 0.48749999999999716,
		  "durationTicks": 468,
		  "midi": 74,
		  "name": "D5",
		  "ticks": 94397,
		  "time": 98.33020833333333,
		  "velocity": 0.5196850393700787
		},
		{
		  "duration": 0.18541666666666856,
		  "durationTicks": 178,
		  "midi": 40,
		  "name": "E2",
		  "ticks": 94619,
		  "time": 98.56145833333333,
		  "velocity": 0.36220472440944884
		},
		{
		  "duration": 0.13958333333333428,
		  "durationTicks": 134,
		  "midi": 64,
		  "name": "E4",
		  "ticks": 94631,
		  "time": 98.57395833333334,
		  "velocity": 0.5905511811023622
		},
		{
		  "duration": 0.23229166666666856,
		  "durationTicks": 223,
		  "midi": 69,
		  "name": "A4",
		  "ticks": 94642,
		  "time": 98.58541666666666,
		  "velocity": 0.4645669291338583
		},
		{
		  "duration": 0.18541666666666856,
		  "durationTicks": 178,
		  "midi": 38,
		  "name": "D2",
		  "ticks": 94842,
		  "time": 98.79375,
		  "velocity": 0.2992125984251969
		},
		{
		  "duration": 0.23229166666665435,
		  "durationTicks": 223,
		  "midi": 78,
		  "name": "F#5",
		  "ticks": 94854,
		  "time": 98.80625,
		  "velocity": 0.5275590551181102
		},
		{
		  "duration": 0.18541666666665435,
		  "durationTicks": 178,
		  "midi": 50,
		  "name": "D3",
		  "ticks": 94854,
		  "time": 98.80625,
		  "velocity": 0.4409448818897638
		},
		{
		  "duration": 0.18541666666666856,
		  "durationTicks": 178,
		  "midi": 69,
		  "name": "A4",
		  "ticks": 94865,
		  "time": 98.81770833333333,
		  "velocity": 0.4881889763779528
		},
		{
		  "duration": 0.13958333333333428,
		  "durationTicks": 134,
		  "midi": 78,
		  "name": "F#5",
		  "ticks": 95076,
		  "time": 99.0375,
		  "velocity": 0.5748031496062992
		},
		{
		  "duration": 0.1510416666666714,
		  "durationTicks": 145,
		  "midi": 59,
		  "name": "B3",
		  "ticks": 95210,
		  "time": 99.17708333333333,
		  "velocity": 0.5433070866141733
		},
		{
		  "duration": 0.13958333333333428,
		  "durationTicks": 134,
		  "midi": 52,
		  "name": "E3",
		  "ticks": 95210,
		  "time": 99.17708333333333,
		  "velocity": 0.5275590551181102
		},
		{
		  "duration": 0.17395833333333144,
		  "durationTicks": 167,
		  "midi": 79,
		  "name": "G5",
		  "ticks": 95412,
		  "time": 99.3875,
		  "velocity": 0.5590551181102362
		},
		{
		  "duration": 0.19687500000000568,
		  "durationTicks": 189,
		  "midi": 40,
		  "name": "E2",
		  "ticks": 95524,
		  "time": 99.50416666666666,
		  "velocity": 0.30708661417322836
		},
		{
		  "duration": 0.17395833333333144,
		  "durationTicks": 167,
		  "midi": 59,
		  "name": "B3",
		  "ticks": 95535,
		  "time": 99.515625,
		  "velocity": 0.3464566929133858
		},
		{
		  "duration": 0.13958333333333428,
		  "durationTicks": 134,
		  "midi": 71,
		  "name": "B4",
		  "ticks": 95546,
		  "time": 99.52708333333334,
		  "velocity": 0.5196850393700787
		},
		{
		  "duration": 0.23229166666666856,
		  "durationTicks": 223,
		  "midi": 78,
		  "name": "F#5",
		  "ticks": 95657,
		  "time": 99.64270833333333,
		  "velocity": 0.5984251968503937
		},
		{
		  "duration": 0.13958333333333428,
		  "durationTicks": 134,
		  "midi": 64,
		  "name": "E4",
		  "ticks": 95758,
		  "time": 99.74791666666667,
		  "velocity": 0.3779527559055118
		},
		{
		  "duration": 0.13958333333333428,
		  "durationTicks": 134,
		  "midi": 52,
		  "name": "E3",
		  "ticks": 95880,
		  "time": 99.875,
		  "velocity": 0.47244094488188976
		},
		{
		  "duration": 0.23229166666666856,
		  "durationTicks": 223,
		  "midi": 76,
		  "name": "E5",
		  "ticks": 95891,
		  "time": 99.88645833333334,
		  "velocity": 0.48031496062992124
		},
		{
		  "duration": 0.17395833333333144,
		  "durationTicks": 167,
		  "midi": 64,
		  "name": "E4",
		  "ticks": 95891,
		  "time": 99.88645833333334,
		  "velocity": 0.5118110236220472
		},
		{
		  "duration": 0.1510416666666714,
		  "durationTicks": 145,
		  "midi": 39,
		  "name": "D#2",
		  "ticks": 95992,
		  "time": 99.99166666666666,
		  "velocity": 0.33070866141732286
		},
		{
		  "duration": 0.13958333333333428,
		  "durationTicks": 134,
		  "midi": 76,
		  "name": "E5",
		  "ticks": 96114,
		  "time": 100.11875,
		  "velocity": 0.5748031496062992
		},
		{
		  "duration": 0.1510416666666572,
		  "durationTicks": 145,
		  "midi": 59,
		  "name": "B3",
		  "ticks": 96237,
		  "time": 100.246875,
		  "velocity": 0.4566929133858268
		},
		{
		  "duration": 0.13958333333332007,
		  "durationTicks": 134,
		  "midi": 71,
		  "name": "B4",
		  "ticks": 96248,
		  "time": 100.25833333333334,
		  "velocity": 0.47244094488188976
		},
		{
		  "duration": 0.1510416666666572,
		  "durationTicks": 145,
		  "midi": 64,
		  "name": "E4",
		  "ticks": 96248,
		  "time": 100.25833333333334,
		  "velocity": 0.48031496062992124
		},
		{
		  "duration": 0.16249999999999432,
		  "durationTicks": 156,
		  "midi": 52,
		  "name": "E3",
		  "ticks": 96248,
		  "time": 100.25833333333334,
		  "velocity": 0.5196850393700787
		},
		{
		  "duration": 0.24375000000000568,
		  "durationTicks": 234,
		  "midi": 74,
		  "name": "D5",
		  "ticks": 96348,
		  "time": 100.3625,
		  "velocity": 0.6220472440944882
		},
		{
		  "duration": 0.24374999999999147,
		  "durationTicks": 234,
		  "midi": 64,
		  "name": "E4",
		  "ticks": 96460,
		  "time": 100.47916666666667,
		  "velocity": 0.4330708661417323
		},
		{
		  "duration": 0.23229166666666856,
		  "durationTicks": 223,
		  "midi": 40,
		  "name": "E2",
		  "ticks": 96571,
		  "time": 100.59479166666667,
		  "velocity": 0.33858267716535434
		},
		{
		  "duration": 0.23229166666666856,
		  "durationTicks": 223,
		  "midi": 74,
		  "name": "D5",
		  "ticks": 96582,
		  "time": 100.60625,
		  "velocity": 0.5196850393700787
		},
		{
		  "duration": 0.13958333333333428,
		  "durationTicks": 134,
		  "midi": 71,
		  "name": "B4",
		  "ticks": 96582,
		  "time": 100.60625,
		  "velocity": 0.5118110236220472
		},
		{
		  "duration": 0.1510416666666572,
		  "durationTicks": 145,
		  "midi": 59,
		  "name": "B3",
		  "ticks": 96582,
		  "time": 100.60625,
		  "velocity": 0.4330708661417323
		},
		{
		  "duration": 0.16249999999999432,
		  "durationTicks": 156,
		  "midi": 73,
		  "name": "C#5",
		  "ticks": 96805,
		  "time": 100.83854166666667,
		  "velocity": 0.5748031496062992
		},
		{
		  "duration": 0.2552083333333286,
		  "durationTicks": 245,
		  "midi": 71,
		  "name": "B4",
		  "ticks": 96928,
		  "time": 100.96666666666667,
		  "velocity": 0.5511811023622047
		},
		{
		  "duration": 0.13958333333333428,
		  "durationTicks": 134,
		  "midi": 64,
		  "name": "E4",
		  "ticks": 96928,
		  "time": 100.96666666666667,
		  "velocity": 0.5511811023622047
		},
		{
		  "duration": 0.13958333333333428,
		  "durationTicks": 134,
		  "midi": 59,
		  "name": "B3",
		  "ticks": 96928,
		  "time": 100.96666666666667,
		  "velocity": 0.5039370078740157
		},
		{
		  "duration": 0.16249999999999432,
		  "durationTicks": 156,
		  "midi": 52,
		  "name": "E3",
		  "ticks": 96928,
		  "time": 100.96666666666667,
		  "velocity": 0.4251968503937008
		},
		{
		  "duration": 0.16354166666667425,
		  "durationTicks": 157,
		  "midi": 71,
		  "name": "B4",
		  "ticks": 97173,
		  "time": 101.221875,
		  "velocity": 0.44881889763779526
		},
		{
		  "duration": 0.1510416666666714,
		  "durationTicks": 145,
		  "midi": 64,
		  "name": "E4",
		  "ticks": 97263,
		  "time": 101.315625,
		  "velocity": 0.5039370078740157
		},
		{
		  "duration": 0.22083333333333144,
		  "durationTicks": 212,
		  "midi": 69,
		  "name": "A4",
		  "ticks": 97397,
		  "time": 101.45520833333333,
		  "velocity": 0.6141732283464567
		},
		{
		  "duration": 0.1510416666666714,
		  "durationTicks": 145,
		  "midi": 71,
		  "name": "B4",
		  "ticks": 97609,
		  "time": 101.67604166666666,
		  "velocity": 0.47244094488188976
		},
		{
		  "duration": 0.16250000000000853,
		  "durationTicks": 156,
		  "midi": 64,
		  "name": "E4",
		  "ticks": 97609,
		  "time": 101.67604166666666,
		  "velocity": 0.49606299212598426
		},
		{
		  "duration": 0.17395833333333144,
		  "durationTicks": 167,
		  "midi": 52,
		  "name": "E3",
		  "ticks": 97609,
		  "time": 101.67604166666666,
		  "velocity": 0.5039370078740157
		},
		{
		  "duration": 0.23229166666666856,
		  "durationTicks": 223,
		  "midi": 67,
		  "name": "G4",
		  "ticks": 97732,
		  "time": 101.80416666666666,
		  "velocity": 0.5590551181102362
		},
		{
		  "duration": 0.23229166666666856,
		  "durationTicks": 223,
		  "midi": 64,
		  "name": "E4",
		  "ticks": 97843,
		  "time": 101.91979166666667,
		  "velocity": 0.31496062992125984
		},
		{
		  "duration": 0.3604166666666657,
		  "durationTicks": 346,
		  "midi": 71,
		  "name": "B4",
		  "ticks": 98088,
		  "time": 102.175,
		  "velocity": 0.5511811023622047
		},
		{
		  "duration": 0.1510416666666714,
		  "durationTicks": 145,
		  "midi": 52,
		  "name": "E3",
		  "ticks": 98311,
		  "time": 102.40729166666667,
		  "velocity": 0.5118110236220472
		},
		{
		  "duration": 0.23229166666666856,
		  "durationTicks": 223,
		  "midi": 69,
		  "name": "A4",
		  "ticks": 98434,
		  "time": 102.53541666666666,
		  "velocity": 0.5118110236220472
		},
		{
		  "duration": 0.1510416666666572,
		  "durationTicks": 145,
		  "midi": 74,
		  "name": "D5",
		  "ticks": 98545,
		  "time": 102.65104166666667,
		  "velocity": 0.4881889763779528
		},
		{
		  "duration": 0.23229166666666856,
		  "durationTicks": 223,
		  "midi": 67,
		  "name": "G4",
		  "ticks": 98545,
		  "time": 102.65104166666667,
		  "velocity": 0.3937007874015748
		},
		{
		  "duration": 0.13958333333333428,
		  "durationTicks": 134,
		  "midi": 76,
		  "name": "E5",
		  "ticks": 98880,
		  "time": 103,
		  "velocity": 0.5275590551181102
		},
		{
		  "duration": 0.19895833333333712,
		  "durationTicks": 191,
		  "midi": 78,
		  "name": "F#5",
		  "ticks": 99013,
		  "time": 103.13854166666667,
		  "velocity": 0.48031496062992124
		},
		{
		  "duration": 0.13958333333333428,
		  "durationTicks": 134,
		  "midi": 71,
		  "name": "B4",
		  "ticks": 99215,
		  "time": 103.34895833333333,
		  "velocity": 0.4881889763779528
		},
		{
		  "duration": 0.13958333333333428,
		  "durationTicks": 134,
		  "midi": 59,
		  "name": "B3",
		  "ticks": 99237,
		  "time": 103.371875,
		  "velocity": 0.4251968503937008
		},
		{
		  "duration": 0.20937499999999432,
		  "durationTicks": 201,
		  "midi": 76,
		  "name": "E5",
		  "ticks": 99249,
		  "time": 103.384375,
		  "velocity": 0.7086614173228346
		},
		{
		  "duration": 0.13958333333333428,
		  "durationTicks": 134,
		  "midi": 40,
		  "name": "E2",
		  "ticks": 99249,
		  "time": 103.384375,
		  "velocity": 0.30708661417322836
		},
		{
		  "duration": 0.13958333333333428,
		  "durationTicks": 134,
		  "midi": 76,
		  "name": "E5",
		  "ticks": 99449,
		  "time": 103.59270833333333,
		  "velocity": 0.6929133858267716
		},
		{
		  "duration": 0.22083333333333144,
		  "durationTicks": 212,
		  "midi": 76,
		  "name": "E5",
		  "ticks": 99583,
		  "time": 103.73229166666667,
		  "velocity": 0.7007874015748031
		},
		{
		  "duration": 0.17395833333333144,
		  "durationTicks": 167,
		  "midi": 64,
		  "name": "E4",
		  "ticks": 99583,
		  "time": 103.73229166666667,
		  "velocity": 0.33070866141732286
		},
		{
		  "duration": 0.13958333333333428,
		  "durationTicks": 134,
		  "midi": 76,
		  "name": "E5",
		  "ticks": 99795,
		  "time": 103.953125,
		  "velocity": 0.6535433070866141
		},
		{
		  "duration": 0.17395833333333144,
		  "durationTicks": 167,
		  "midi": 52,
		  "name": "E3",
		  "ticks": 99917,
		  "time": 104.08020833333333,
		  "velocity": 0.5433070866141733
		},
		{
		  "duration": 0.23229166666666856,
		  "durationTicks": 223,
		  "midi": 76,
		  "name": "E5",
		  "ticks": 99928,
		  "time": 104.09166666666667,
		  "velocity": 0.6692913385826772
		},
		{
		  "duration": 0.1510416666666714,
		  "durationTicks": 145,
		  "midi": 59,
		  "name": "B3",
		  "ticks": 99928,
		  "time": 104.09166666666667,
		  "velocity": 0.4645669291338583
		},
		{
		  "duration": 0.23229166666666856,
		  "durationTicks": 223,
		  "midi": 76,
		  "name": "E5",
		  "ticks": 100151,
		  "time": 104.32395833333334,
		  "velocity": 0.6929133858267716
		},
		{
		  "duration": 0.38333333333332575,
		  "durationTicks": 368,
		  "midi": 76,
		  "name": "E5",
		  "ticks": 100374,
		  "time": 104.55625,
		  "velocity": 0.5275590551181102
		},
		{
		  "duration": 0.1510416666666714,
		  "durationTicks": 145,
		  "midi": 69,
		  "name": "A4",
		  "ticks": 100619,
		  "time": 104.81145833333333,
		  "velocity": 0.5590551181102362
		},
		{
		  "duration": 0.22083333333333144,
		  "durationTicks": 212,
		  "midi": 76,
		  "name": "E5",
		  "ticks": 100742,
		  "time": 104.93958333333333,
		  "velocity": 0.47244094488188976
		},
		{
		  "duration": 0.22083333333333144,
		  "durationTicks": 212,
		  "midi": 76,
		  "name": "E5",
		  "ticks": 101089,
		  "time": 105.30104166666666,
		  "velocity": 0.6299212598425197
		},
		{
		  "duration": 0.24375000000000568,
		  "durationTicks": 234,
		  "midi": 76,
		  "name": "E5",
		  "ticks": 101301,
		  "time": 105.521875,
		  "velocity": 0.4566929133858268
		},
		{
		  "duration": 0.13958333333333428,
		  "durationTicks": 134,
		  "midi": 62,
		  "name": "D4",
		  "ticks": 101312,
		  "time": 105.53333333333333,
		  "velocity": 0.5118110236220472
		},
		{
		  "duration": 0.3479166666666629,
		  "durationTicks": 334,
		  "midi": 74,
		  "name": "D5",
		  "ticks": 101657,
		  "time": 105.89270833333333,
		  "velocity": 0.5590551181102362
		},
		{
		  "duration": 0.13958333333333428,
		  "durationTicks": 134,
		  "midi": 57,
		  "name": "A3",
		  "ticks": 101657,
		  "time": 105.89270833333333,
		  "velocity": 0.4251968503937008
		},
		{
		  "duration": 0.18541666666666856,
		  "durationTicks": 178,
		  "midi": 40,
		  "name": "E2",
		  "ticks": 101980,
		  "time": 106.22916666666667,
		  "velocity": 0.29133858267716534
		},
		{
		  "duration": 0.2552083333333428,
		  "durationTicks": 245,
		  "midi": 74,
		  "name": "D5",
		  "ticks": 101992,
		  "time": 106.24166666666666,
		  "velocity": 0.4251968503937008
		},
		{
		  "duration": 0.22083333333333144,
		  "durationTicks": 212,
		  "midi": 76,
		  "name": "E5",
		  "ticks": 102003,
		  "time": 106.253125,
		  "velocity": 0.44881889763779526
		},
		{
		  "duration": 0.3479166666666629,
		  "durationTicks": 334,
		  "midi": 57,
		  "name": "A3",
		  "ticks": 102003,
		  "time": 106.253125,
		  "velocity": 0.3543307086614173
		},
		{
		  "duration": 0.20937499999999432,
		  "durationTicks": 201,
		  "midi": 81,
		  "name": "A5",
		  "ticks": 102237,
		  "time": 106.496875,
		  "velocity": 0.3543307086614173
		},
		{
		  "duration": 0.17395833333333144,
		  "durationTicks": 167,
		  "midi": 74,
		  "name": "D5",
		  "ticks": 102237,
		  "time": 106.496875,
		  "velocity": 0.5748031496062992
		},
		{
		  "duration": 0.13958333333333428,
		  "durationTicks": 134,
		  "midi": 69,
		  "name": "A4",
		  "ticks": 102270,
		  "time": 106.53125,
		  "velocity": 0.48031496062992124
		},
		{
		  "duration": 0.17395833333333144,
		  "durationTicks": 167,
		  "midi": 78,
		  "name": "F#5",
		  "ticks": 102716,
		  "time": 106.99583333333334,
		  "velocity": 0.5669291338582677
		},
		{
		  "duration": 0.12916666666666288,
		  "durationTicks": 124,
		  "midi": 52,
		  "name": "E3",
		  "ticks": 102917,
		  "time": 107.20520833333333,
		  "velocity": 0.33070866141732286
		},
		{
		  "duration": 0.21041666666666003,
		  "durationTicks": 202,
		  "midi": 76,
		  "name": "E5",
		  "ticks": 102928,
		  "time": 107.21666666666667,
		  "velocity": 0.6535433070866141
		},
		{
		  "duration": 0.24375000000000568,
		  "durationTicks": 234,
		  "midi": 76,
		  "name": "E5",
		  "ticks": 103130,
		  "time": 107.42708333333333,
		  "velocity": 0.5511811023622047
		},
		{
		  "duration": 0.2552083333333286,
		  "durationTicks": 245,
		  "midi": 76,
		  "name": "E5",
		  "ticks": 103364,
		  "time": 107.67083333333333,
		  "velocity": 0.6377952755905512
		},
		{
		  "duration": 0.17395833333333144,
		  "durationTicks": 167,
		  "midi": 52,
		  "name": "E3",
		  "ticks": 103598,
		  "time": 107.91458333333334,
		  "velocity": 0.4566929133858268
		},
		{
		  "duration": 0.23229166666666856,
		  "durationTicks": 223,
		  "midi": 76,
		  "name": "E5",
		  "ticks": 103609,
		  "time": 107.92604166666666,
		  "velocity": 0.5984251968503937
		},
		{
		  "duration": 0.13958333333333428,
		  "durationTicks": 134,
		  "midi": 71,
		  "name": "B4",
		  "ticks": 103609,
		  "time": 107.92604166666666,
		  "velocity": 0.4015748031496063
		},
		{
		  "duration": 0.13958333333333428,
		  "durationTicks": 134,
		  "midi": 76,
		  "name": "E5",
		  "ticks": 103832,
		  "time": 108.15833333333333,
		  "velocity": 0.6614173228346457
		},
		{
		  "duration": 0.3604166666666657,
		  "durationTicks": 346,
		  "midi": 76,
		  "name": "E5",
		  "ticks": 103966,
		  "time": 108.29791666666667,
		  "velocity": 0.6535433070866141
		},
		{
		  "duration": 0.1510416666666714,
		  "durationTicks": 145,
		  "midi": 52,
		  "name": "E3",
		  "ticks": 104300,
		  "time": 108.64583333333333,
		  "velocity": 0.4409448818897638
		},
		{
		  "duration": 0.3479166666666629,
		  "durationTicks": 334,
		  "midi": 76,
		  "name": "E5",
		  "ticks": 104311,
		  "time": 108.65729166666667,
		  "velocity": 0.6062992125984252
		},
		{
		  "duration": 0.13958333333333428,
		  "durationTicks": 134,
		  "midi": 59,
		  "name": "B3",
		  "ticks": 104311,
		  "time": 108.65729166666667,
		  "velocity": 0.5354330708661418
		},
		{
		  "duration": 0.13958333333333428,
		  "durationTicks": 134,
		  "midi": 76,
		  "name": "E5",
		  "ticks": 104646,
		  "time": 109.00625,
		  "velocity": 0.6456692913385826
		},
		{
		  "duration": 0.17395833333334565,
		  "durationTicks": 167,
		  "midi": 40,
		  "name": "E2",
		  "ticks": 104646,
		  "time": 109.00625,
		  "velocity": 0.3858267716535433
		},
		{
		  "duration": 0.21041666666667425,
		  "durationTicks": 202,
		  "midi": 76,
		  "name": "E5",
		  "ticks": 104779,
		  "time": 109.14479166666666,
		  "velocity": 0.6850393700787402
		},
		{
		  "duration": 0.37187500000000284,
		  "durationTicks": 357,
		  "midi": 76,
		  "name": "E5",
		  "ticks": 104981,
		  "time": 109.35520833333334,
		  "velocity": 0.5354330708661418
		},
		{
		  "duration": 0.13958333333333428,
		  "durationTicks": 134,
		  "midi": 52,
		  "name": "E3",
		  "ticks": 104981,
		  "time": 109.35520833333334,
		  "velocity": 0.49606299212598426
		},
		{
		  "duration": 0.20937499999999432,
		  "durationTicks": 201,
		  "midi": 71,
		  "name": "B4",
		  "ticks": 105226,
		  "time": 109.61041666666667,
		  "velocity": 0.4881889763779528
		},
		{
		  "duration": 0.1510416666666572,
		  "durationTicks": 145,
		  "midi": 76,
		  "name": "E5",
		  "ticks": 105338,
		  "time": 109.72708333333334,
		  "velocity": 0.5669291338582677
		},
		{
		  "duration": 0.1510416666666572,
		  "durationTicks": 145,
		  "midi": 52,
		  "name": "E3",
		  "ticks": 105338,
		  "time": 109.72708333333334,
		  "velocity": 0.4566929133858268
		},
		{
		  "duration": 0.19687500000000568,
		  "durationTicks": 189,
		  "midi": 74,
		  "name": "D5",
		  "ticks": 105449,
		  "time": 109.84270833333333,
		  "velocity": 0.4094488188976378
		},
		{
		  "duration": 0.22083333333333144,
		  "durationTicks": 212,
		  "midi": 76,
		  "name": "E5",
		  "ticks": 105683,
		  "time": 110.08645833333334,
		  "velocity": 0.5905511811023622
		},
		{
		  "duration": 0.2552083333333286,
		  "durationTicks": 245,
		  "midi": 79,
		  "name": "G5",
		  "ticks": 105973,
		  "time": 110.38854166666667,
		  "velocity": 0.3464566929133858
		},
		{
		  "duration": 0.16250000000000853,
		  "durationTicks": 156,
		  "midi": 40,
		  "name": "E2",
		  "ticks": 106085,
		  "time": 110.50520833333333,
		  "velocity": 0.33070866141732286
		},
		{
		  "duration": 0.26666666666667993,
		  "durationTicks": 256,
		  "midi": 40,
		  "name": "E2",
		  "ticks": 106252,
		  "time": 110.67916666666666,
		  "velocity": 0.47244094488188976
		},
		{
		  "duration": 0.13958333333333428,
		  "durationTicks": 134,
		  "midi": 71,
		  "name": "B4",
		  "ticks": 106263,
		  "time": 110.690625,
		  "velocity": 0.47244094488188976
		},
		{
		  "duration": 0.18541666666666856,
		  "durationTicks": 178,
		  "midi": 76,
		  "name": "E5",
		  "ticks": 106397,
		  "time": 110.83020833333333,
		  "velocity": 0.5826771653543307
		},
		{
		  "duration": 0.19687500000000568,
		  "durationTicks": 189,
		  "midi": 78,
		  "name": "F#5",
		  "ticks": 106608,
		  "time": 111.05,
		  "velocity": 0.2677165354330709
		},
		{
		  "duration": 0.13958333333333428,
		  "durationTicks": 134,
		  "midi": 71,
		  "name": "B4",
		  "ticks": 106608,
		  "time": 111.05,
		  "velocity": 0.4409448818897638
		},
		{
		  "duration": 0.18541666666666856,
		  "durationTicks": 178,
		  "midi": 59,
		  "name": "B3",
		  "ticks": 106608,
		  "time": 111.05,
		  "velocity": 0.4409448818897638
		},
		{
		  "duration": 0.19895833333333712,
		  "durationTicks": 191,
		  "midi": 64,
		  "name": "E4",
		  "ticks": 106620,
		  "time": 111.0625,
		  "velocity": 0.3937007874015748
		},
		{
		  "duration": 0.3479166666666629,
		  "durationTicks": 334,
		  "midi": 79,
		  "name": "G5",
		  "ticks": 106810,
		  "time": 111.26041666666667,
		  "velocity": 0.3464566929133858
		},
		{
		  "duration": 0.2552083333333286,
		  "durationTicks": 245,
		  "midi": 64,
		  "name": "E4",
		  "ticks": 106810,
		  "time": 111.26041666666667,
		  "velocity": 0.5275590551181102
		},
		{
		  "duration": 0.20937499999999432,
		  "durationTicks": 201,
		  "midi": 76,
		  "name": "E5",
		  "ticks": 106944,
		  "time": 111.4,
		  "velocity": 0.2992125984251969
		},
		{
		  "duration": 0.37187499999998863,
		  "durationTicks": 357,
		  "midi": 59,
		  "name": "B3",
		  "ticks": 106944,
		  "time": 111.4,
		  "velocity": 0.31496062992125984
		},
		{
		  "duration": 0.3135416666666657,
		  "durationTicks": 301,
		  "midi": 40,
		  "name": "E2",
		  "ticks": 106944,
		  "time": 111.4,
		  "velocity": 0.4015748031496063
		},
		{
		  "duration": 0.2552083333333286,
		  "durationTicks": 245,
		  "midi": 64,
		  "name": "E4",
		  "ticks": 107055,
		  "time": 111.515625,
		  "velocity": 0.47244094488188976
		},
		{
		  "duration": 0.1510416666666572,
		  "durationTicks": 145,
		  "midi": 36,
		  "name": "C2",
		  "ticks": 107078,
		  "time": 111.53958333333334,
		  "velocity": 0.3543307086614173
		},
		{
		  "duration": 0.16249999999999432,
		  "durationTicks": 156,
		  "midi": 52,
		  "name": "E3",
		  "ticks": 107289,
		  "time": 111.759375,
		  "velocity": 0.47244094488188976
		},
		{
		  "duration": 0.13958333333333428,
		  "durationTicks": 134,
		  "midi": 71,
		  "name": "B4",
		  "ticks": 107301,
		  "time": 111.771875,
		  "velocity": 0.4015748031496063
		},
		{
		  "duration": 0.22083333333334565,
		  "durationTicks": 212,
		  "midi": 64,
		  "name": "E4",
		  "ticks": 107301,
		  "time": 111.771875,
		  "velocity": 0.3937007874015748
		},
		{
		  "duration": 0.3604166666666657,
		  "durationTicks": 346,
		  "midi": 59,
		  "name": "B3",
		  "ticks": 107301,
		  "time": 111.771875,
		  "velocity": 0.3858267716535433
		},
		{
		  "duration": 0.22083333333333144,
		  "durationTicks": 212,
		  "midi": 40,
		  "name": "E2",
		  "ticks": 107412,
		  "time": 111.8875,
		  "velocity": 0.33070866141732286
		},
		{
		  "duration": 0.16249999999999432,
		  "durationTicks": 156,
		  "midi": 76,
		  "name": "E5",
		  "ticks": 107423,
		  "time": 111.89895833333334,
		  "velocity": 0.5275590551181102
		},
		{
		  "duration": 0.13958333333333428,
		  "durationTicks": 134,
		  "midi": 64,
		  "name": "E4",
		  "ticks": 107512,
		  "time": 111.99166666666666,
		  "velocity": 0.3700787401574803
		},
		{
		  "duration": 0.3135416666666657,
		  "durationTicks": 301,
		  "midi": 40,
		  "name": "E2",
		  "ticks": 107635,
		  "time": 112.11979166666667,
		  "velocity": 0.3464566929133858
		},
		{
		  "duration": 0.22083333333334565,
		  "durationTicks": 212,
		  "midi": 64,
		  "name": "E4",
		  "ticks": 107646,
		  "time": 112.13125,
		  "velocity": 0.48031496062992124
		},
		{
		  "duration": 0.1510416666666714,
		  "durationTicks": 145,
		  "midi": 59,
		  "name": "B3",
		  "ticks": 107646,
		  "time": 112.13125,
		  "velocity": 0.5118110236220472
		},
		{
		  "duration": 0.20937499999999432,
		  "durationTicks": 201,
		  "midi": 79,
		  "name": "G5",
		  "ticks": 107769,
		  "time": 112.259375,
		  "velocity": 0.5039370078740157
		},
		{
		  "duration": 0.22083333333333144,
		  "durationTicks": 212,
		  "midi": 59,
		  "name": "B3",
		  "ticks": 107981,
		  "time": 112.48020833333334,
		  "velocity": 0.36220472440944884
		},
		{
		  "duration": 0.19687500000000568,
		  "durationTicks": 189,
		  "midi": 74,
		  "name": "D5",
		  "ticks": 107992,
		  "time": 112.49166666666666,
		  "velocity": 0.44881889763779526
		},
		{
		  "duration": 0.13958333333333428,
		  "durationTicks": 134,
		  "midi": 67,
		  "name": "G4",
		  "ticks": 107992,
		  "time": 112.49166666666666,
		  "velocity": 0.2755905511811024
		},
		{
		  "duration": 0.16250000000000853,
		  "durationTicks": 156,
		  "midi": 55,
		  "name": "G3",
		  "ticks": 107992,
		  "time": 112.49166666666666,
		  "velocity": 0.2992125984251969
		},
		{
		  "duration": 0.16250000000000853,
		  "durationTicks": 156,
		  "midi": 52,
		  "name": "E3",
		  "ticks": 107992,
		  "time": 112.49166666666666,
		  "velocity": 0.4330708661417323
		},
		{
		  "duration": 0.36041666666667993,
		  "durationTicks": 346,
		  "midi": 43,
		  "name": "G2",
		  "ticks": 107992,
		  "time": 112.49166666666666,
		  "velocity": 0.4409448818897638
		},
		{
		  "duration": 0.18541666666666856,
		  "durationTicks": 178,
		  "midi": 74,
		  "name": "D5",
		  "ticks": 108337,
		  "time": 112.85104166666666,
		  "velocity": 0.4094488188976378
		},
		{
		  "duration": 0.2906250000000057,
		  "durationTicks": 279,
		  "midi": 62,
		  "name": "D4",
		  "ticks": 108337,
		  "time": 112.85104166666666,
		  "velocity": 0.36220472440944884
		},
		{
		  "duration": 0.1510416666666714,
		  "durationTicks": 145,
		  "midi": 43,
		  "name": "G2",
		  "ticks": 108337,
		  "time": 112.85104166666666,
		  "velocity": 0.3779527559055118
		},
		{
		  "duration": 0.24374999999999147,
		  "durationTicks": 234,
		  "midi": 40,
		  "name": "E2",
		  "ticks": 108371,
		  "time": 112.88645833333334,
		  "velocity": 0.3937007874015748
		},
		{
		  "duration": 0.22083333333333144,
		  "durationTicks": 212,
		  "midi": 59,
		  "name": "B3",
		  "ticks": 108449,
		  "time": 112.96770833333333,
		  "velocity": 0.5118110236220472
		},
		{
		  "duration": 0.13958333333333428,
		  "durationTicks": 134,
		  "midi": 55,
		  "name": "G3",
		  "ticks": 108471,
		  "time": 112.990625,
		  "velocity": 0.4251968503937008
		},
		{
		  "duration": 0.16250000000000853,
		  "durationTicks": 156,
		  "midi": 78,
		  "name": "F#5",
		  "ticks": 108471,
		  "time": 112.990625,
		  "velocity": 0.41732283464566927
		},
		{
		  "duration": 0.20937500000000853,
		  "durationTicks": 201,
		  "midi": 43,
		  "name": "G2",
		  "ticks": 108482,
		  "time": 113.00208333333333,
		  "velocity": 0.5511811023622047
		},
		{
		  "duration": 0.17499999999999716,
		  "durationTicks": 168,
		  "midi": 62,
		  "name": "D4",
		  "ticks": 108683,
		  "time": 113.21145833333334,
		  "velocity": 0.2755905511811024
		},
		{
		  "duration": 0.16354166666667425,
		  "durationTicks": 157,
		  "midi": 74,
		  "name": "D5",
		  "ticks": 108694,
		  "time": 113.22291666666666,
		  "velocity": 0.5118110236220472
		},
		{
		  "duration": 0.1291666666666771,
		  "durationTicks": 124,
		  "midi": 64,
		  "name": "E4",
		  "ticks": 108694,
		  "time": 113.22291666666666,
		  "velocity": 0.5118110236220472
		},
		{
		  "duration": 0.2552083333333286,
		  "durationTicks": 245,
		  "midi": 64,
		  "name": "E4",
		  "ticks": 108896,
		  "time": 113.43333333333334,
		  "velocity": 0.33858267716535434
		},
		{
		  "duration": 0.1510416666666572,
		  "durationTicks": 145,
		  "midi": 40,
		  "name": "E2",
		  "ticks": 108940,
		  "time": 113.47916666666667,
		  "velocity": 0.3779527559055118
		},
		{
		  "duration": 0.1510416666666714,
		  "durationTicks": 145,
		  "midi": 57,
		  "name": "A3",
		  "ticks": 109018,
		  "time": 113.56041666666667,
		  "velocity": 0.41732283464566927
		},
		{
		  "duration": 0.23229166666666856,
		  "durationTicks": 223,
		  "midi": 76,
		  "name": "E5",
		  "ticks": 109130,
		  "time": 113.67708333333333,
		  "velocity": 0.4566929133858268
		},
		{
		  "duration": 0.23229166666666856,
		  "durationTicks": 223,
		  "midi": 76,
		  "name": "E5",
		  "ticks": 109353,
		  "time": 113.909375,
		  "velocity": 0.33070866141732286
		},
		{
		  "duration": 0.2552083333333286,
		  "durationTicks": 245,
		  "midi": 69,
		  "name": "A4",
		  "ticks": 109364,
		  "time": 113.92083333333333,
		  "velocity": 0.3700787401574803
		},
		{
		  "duration": 0.13958333333333428,
		  "durationTicks": 134,
		  "midi": 64,
		  "name": "E4",
		  "ticks": 109364,
		  "time": 113.92083333333333,
		  "velocity": 0.4645669291338583
		},
		{
		  "duration": 0.18541666666666856,
		  "durationTicks": 178,
		  "midi": 40,
		  "name": "E2",
		  "ticks": 109375,
		  "time": 113.93229166666667,
		  "velocity": 0.4881889763779528
		},
		{
		  "duration": 0.17395833333333144,
		  "durationTicks": 167,
		  "midi": 62,
		  "name": "D4",
		  "ticks": 109598,
		  "time": 114.16458333333334,
		  "velocity": 0.5118110236220472
		},
		{
		  "duration": 0.19687499999999147,
		  "durationTicks": 189,
		  "midi": 38,
		  "name": "D2",
		  "ticks": 109598,
		  "time": 114.16458333333334,
		  "velocity": 0.3858267716535433
		},
		{
		  "duration": 0.13958333333333428,
		  "durationTicks": 134,
		  "midi": 69,
		  "name": "A4",
		  "ticks": 109609,
		  "time": 114.17604166666666,
		  "velocity": 0.41732283464566927
		},
		{
		  "duration": 0.19687500000000568,
		  "durationTicks": 189,
		  "midi": 74,
		  "name": "D5",
		  "ticks": 109698,
		  "time": 114.26875,
		  "velocity": 0.49606299212598426
		},
		{
		  "duration": 0.3135416666666657,
		  "durationTicks": 301,
		  "midi": 33,
		  "name": "A1",
		  "ticks": 109787,
		  "time": 114.36145833333333,
		  "velocity": 0.4566929133858268
		},
		{
		  "duration": 0.16249999999999432,
		  "durationTicks": 156,
		  "midi": 52,
		  "name": "E3",
		  "ticks": 109876,
		  "time": 114.45416666666667,
		  "velocity": 0.29133858267716534
		},
		{
		  "duration": 0.1510416666666714,
		  "durationTicks": 145,
		  "midi": 45,
		  "name": "A2",
		  "ticks": 110088,
		  "time": 114.675,
		  "velocity": 0.4566929133858268
		},
		{
		  "duration": 0.1510416666666572,
		  "durationTicks": 145,
		  "midi": 73,
		  "name": "C#5",
		  "ticks": 110111,
		  "time": 114.69895833333334,
		  "velocity": 0.4251968503937008
		},
		{
		  "duration": 0.23229166666666856,
		  "durationTicks": 223,
		  "midi": 71,
		  "name": "B4",
		  "ticks": 110300,
		  "time": 114.89583333333333,
		  "velocity": 0.3464566929133858
		},
		{
		  "duration": 0.17395833333333144,
		  "durationTicks": 167,
		  "midi": 40,
		  "name": "E2",
		  "ticks": 110300,
		  "time": 114.89583333333333,
		  "velocity": 0.36220472440944884
		},
		{
		  "duration": 0.22083333333333144,
		  "durationTicks": 212,
		  "midi": 64,
		  "name": "E4",
		  "ticks": 110311,
		  "time": 114.90729166666667,
		  "velocity": 0.4251968503937008
		},
		{
		  "duration": 0.17395833333333144,
		  "durationTicks": 167,
		  "midi": 61,
		  "name": "C#4",
		  "ticks": 110311,
		  "time": 114.90729166666667,
		  "velocity": 0.4094488188976378
		},
		{
		  "duration": 0.13958333333333428,
		  "durationTicks": 134,
		  "midi": 52,
		  "name": "E3",
		  "ticks": 110311,
		  "time": 114.90729166666667,
		  "velocity": 0.4881889763779528
		},
		{
		  "duration": 0.19687500000000568,
		  "durationTicks": 189,
		  "midi": 45,
		  "name": "A2",
		  "ticks": 110311,
		  "time": 114.90729166666667,
		  "velocity": 0.3464566929133858
		},
		{
		  "duration": 0.17395833333333144,
		  "durationTicks": 167,
		  "midi": 73,
		  "name": "C#5",
		  "ticks": 110411,
		  "time": 115.01145833333334,
		  "velocity": 0.29133858267716534
		},
		{
		  "duration": 0.23333333333333428,
		  "durationTicks": 224,
		  "midi": 71,
		  "name": "B4",
		  "ticks": 110523,
		  "time": 115.128125,
		  "velocity": 0.5354330708661418
		},
		{
		  "duration": 0.23333333333333428,
		  "durationTicks": 224,
		  "midi": 64,
		  "name": "E4",
		  "ticks": 110523,
		  "time": 115.128125,
		  "velocity": 0.5039370078740157
		},
		{
		  "duration": 0.13958333333333428,
		  "durationTicks": 134,
		  "midi": 59,
		  "name": "B3",
		  "ticks": 110624,
		  "time": 115.23333333333333,
		  "velocity": 0.4094488188976378
		},
		{
		  "duration": 0.23229166666666856,
		  "durationTicks": 223,
		  "midi": 40,
		  "name": "E2",
		  "ticks": 110624,
		  "time": 115.23333333333333,
		  "velocity": 0.3779527559055118
		},
		{
		  "duration": 0.1510416666666572,
		  "durationTicks": 145,
		  "midi": 76,
		  "name": "E5",
		  "ticks": 110636,
		  "time": 115.24583333333334,
		  "velocity": 0.2204724409448819
		},
		{
		  "duration": 0.16249999999999432,
		  "durationTicks": 156,
		  "midi": 52,
		  "name": "E3",
		  "ticks": 110636,
		  "time": 115.24583333333334,
		  "velocity": 0.48031496062992124
		},
		{
		  "duration": 0.24375000000000568,
		  "durationTicks": 234,
		  "midi": 64,
		  "name": "E4",
		  "ticks": 110747,
		  "time": 115.36145833333333,
		  "velocity": 0.3858267716535433
		},
		{
		  "duration": 0.17395833333333144,
		  "durationTicks": 167,
		  "midi": 61,
		  "name": "C#4",
		  "ticks": 110747,
		  "time": 115.36145833333333,
		  "velocity": 0.5039370078740157
		},
		{
		  "duration": 0.19687499999999147,
		  "durationTicks": 189,
		  "midi": 74,
		  "name": "D5",
		  "ticks": 110758,
		  "time": 115.37291666666667,
		  "velocity": 0.49606299212598426
		},
		{
		  "duration": 0.1510416666666714,
		  "durationTicks": 145,
		  "midi": 45,
		  "name": "A2",
		  "ticks": 110781,
		  "time": 115.396875,
		  "velocity": 0.4015748031496063
		},
		{
		  "duration": 0.33645833333332575,
		  "durationTicks": 323,
		  "midi": 33,
		  "name": "A1",
		  "ticks": 110859,
		  "time": 115.478125,
		  "velocity": 0.3543307086614173
		},
		{
		  "duration": 0.17395833333333144,
		  "durationTicks": 167,
		  "midi": 52,
		  "name": "E3",
		  "ticks": 110970,
		  "time": 115.59375,
		  "velocity": 0.44881889763779526
		},
		{
		  "duration": 0.22083333333333144,
		  "durationTicks": 212,
		  "midi": 71,
		  "name": "B4",
		  "ticks": 110981,
		  "time": 115.60520833333334,
		  "velocity": 0.4881889763779528
		},
		{
		  "duration": 0.3604166666666657,
		  "durationTicks": 346,
		  "midi": 64,
		  "name": "E4",
		  "ticks": 110981,
		  "time": 115.60520833333334,
		  "velocity": 0.3779527559055118
		},
		{
		  "duration": 0.3135416666666657,
		  "durationTicks": 301,
		  "midi": 40,
		  "name": "E2",
		  "ticks": 111316,
		  "time": 115.95416666666667,
		  "velocity": 0.36220472440944884
		},
		{
		  "duration": 0.23229166666666856,
		  "durationTicks": 223,
		  "midi": 64,
		  "name": "E4",
		  "ticks": 111327,
		  "time": 115.965625,
		  "velocity": 0.4251968503937008
		},
		{
		  "duration": 0.20937499999999432,
		  "durationTicks": 201,
		  "midi": 74,
		  "name": "D5",
		  "ticks": 111449,
		  "time": 116.09270833333333,
		  "velocity": 0.5669291338582677
		},
		{
		  "duration": 0.24374999999999147,
		  "durationTicks": 234,
		  "midi": 36,
		  "name": "C2",
		  "ticks": 111505,
		  "time": 116.15104166666667,
		  "velocity": 0.4330708661417323
		},
		{
		  "duration": 0.13958333333333428,
		  "durationTicks": 134,
		  "midi": 71,
		  "name": "B4",
		  "ticks": 111672,
		  "time": 116.325,
		  "velocity": 0.5039370078740157
		},
		{
		  "duration": 0.17395833333333144,
		  "durationTicks": 167,
		  "midi": 64,
		  "name": "E4",
		  "ticks": 111672,
		  "time": 116.325,
		  "velocity": 0.5039370078740157
		},
		{
		  "duration": 0.1510416666666572,
		  "durationTicks": 145,
		  "midi": 59,
		  "name": "B3",
		  "ticks": 111672,
		  "time": 116.325,
		  "velocity": 0.5275590551181102
		},
		{
		  "duration": 0.1510416666666714,
		  "durationTicks": 145,
		  "midi": 52,
		  "name": "E3",
		  "ticks": 111694,
		  "time": 116.34791666666666,
		  "velocity": 0.5039370078740157
		},
		{
		  "duration": 0.23229166666666856,
		  "durationTicks": 223,
		  "midi": 71,
		  "name": "B4",
		  "ticks": 111906,
		  "time": 116.56875,
		  "velocity": 0.3779527559055118
		},
		{
		  "duration": 0.23229166666665435,
		  "durationTicks": 223,
		  "midi": 64,
		  "name": "E4",
		  "ticks": 112029,
		  "time": 116.696875,
		  "velocity": 0.48031496062992124
		},
		{
		  "duration": 0.13958333333333428,
		  "durationTicks": 134,
		  "midi": 52,
		  "name": "E3",
		  "ticks": 112029,
		  "time": 116.696875,
		  "velocity": 0.4645669291338583
		},
		{
		  "duration": 0.1510416666666572,
		  "durationTicks": 145,
		  "midi": 40,
		  "name": "E2",
		  "ticks": 112029,
		  "time": 116.696875,
		  "velocity": 0.25984251968503935
		},
		{
		  "duration": 0.13958333333332007,
		  "durationTicks": 134,
		  "midi": 67,
		  "name": "G4",
		  "ticks": 112163,
		  "time": 116.83645833333334,
		  "velocity": 0.4094488188976378
		},
		{
		  "duration": 0.13958333333333428,
		  "durationTicks": 134,
		  "midi": 72,
		  "name": "C5",
		  "ticks": 112196,
		  "time": 116.87083333333334,
		  "velocity": 0.4015748031496063
		},
		{
		  "duration": 0.16249999999999432,
		  "durationTicks": 156,
		  "midi": 64,
		  "name": "E4",
		  "ticks": 112363,
		  "time": 117.04479166666667,
		  "velocity": 0.4094488188976378
		},
		{
		  "duration": 0.1989583333333229,
		  "durationTicks": 191,
		  "midi": 71,
		  "name": "B4",
		  "ticks": 112374,
		  "time": 117.05625,
		  "velocity": 0.5118110236220472
		},
		{
		  "duration": 0.13958333333333428,
		  "durationTicks": 134,
		  "midi": 52,
		  "name": "E3",
		  "ticks": 112374,
		  "time": 117.05625,
		  "velocity": 0.4251968503937008
		},
		{
		  "duration": 0.17499999999999716,
		  "durationTicks": 168,
		  "midi": 48,
		  "name": "C3",
		  "ticks": 112486,
		  "time": 117.17291666666667,
		  "velocity": 0.36220472440944884
		},
		{
		  "duration": 0.17395833333333144,
		  "durationTicks": 167,
		  "midi": 36,
		  "name": "C2",
		  "ticks": 112576,
		  "time": 117.26666666666667,
		  "velocity": 0.3228346456692913
		},
		{
		  "duration": 0.24374999999999147,
		  "durationTicks": 234,
		  "midi": 64,
		  "name": "E4",
		  "ticks": 112587,
		  "time": 117.278125,
		  "velocity": 0.44881889763779526
		},
		{
		  "duration": 0.17395833333333144,
		  "durationTicks": 167,
		  "midi": 52,
		  "name": "E3",
		  "ticks": 112699,
		  "time": 117.39479166666666,
		  "velocity": 0.5039370078740157
		},
		{
		  "duration": 0.16250000000000853,
		  "durationTicks": 156,
		  "midi": 43,
		  "name": "G2",
		  "ticks": 112699,
		  "time": 117.39479166666666,
		  "velocity": 0.4330708661417323
		},
		{
		  "duration": 0.23229166666666856,
		  "durationTicks": 223,
		  "midi": 64,
		  "name": "E4",
		  "ticks": 112821,
		  "time": 117.521875,
		  "velocity": 0.5039370078740157
		},
		{
		  "duration": 0.1510416666666714,
		  "durationTicks": 145,
		  "midi": 40,
		  "name": "E2",
		  "ticks": 112933,
		  "time": 117.63854166666667,
		  "velocity": 0.2755905511811024
		},
		{
		  "duration": 0.19687500000000568,
		  "durationTicks": 189,
		  "midi": 76,
		  "name": "E5",
		  "ticks": 113044,
		  "time": 117.75416666666666,
		  "velocity": 0.30708661417322836
		},
		{
		  "duration": 0.18541666666666856,
		  "durationTicks": 178,
		  "midi": 64,
		  "name": "E4",
		  "ticks": 113044,
		  "time": 117.75416666666666,
		  "velocity": 0.5118110236220472
		},
		{
		  "duration": 0.1510416666666714,
		  "durationTicks": 145,
		  "midi": 52,
		  "name": "E3",
		  "ticks": 113044,
		  "time": 117.75416666666666,
		  "velocity": 0.48031496062992124
		},
		{
		  "duration": 0.13958333333333428,
		  "durationTicks": 134,
		  "midi": 71,
		  "name": "B4",
		  "ticks": 113055,
		  "time": 117.765625,
		  "velocity": 0.5196850393700787
		},
		{
		  "duration": 0.13958333333332007,
		  "durationTicks": 134,
		  "midi": 40,
		  "name": "E2",
		  "ticks": 113078,
		  "time": 117.78958333333334,
		  "velocity": 0.4409448818897638
		},
		{
		  "duration": 0.3479166666666629,
		  "durationTicks": 334,
		  "midi": 81,
		  "name": "A5",
		  "ticks": 113290,
		  "time": 118.01041666666667,
		  "velocity": 0.30708661417322836
		},
		{
		  "duration": 0.13958333333333428,
		  "durationTicks": 134,
		  "midi": 74,
		  "name": "D5",
		  "ticks": 113290,
		  "time": 118.01041666666667,
		  "velocity": 0.5275590551181102
		},
		{
		  "duration": 0.13958333333333428,
		  "durationTicks": 134,
		  "midi": 57,
		  "name": "A3",
		  "ticks": 113290,
		  "time": 118.01041666666667,
		  "velocity": 0.33070866141732286
		},
		{
		  "duration": 0.27812499999998863,
		  "durationTicks": 267,
		  "midi": 40,
		  "name": "E2",
		  "ticks": 113334,
		  "time": 118.05625,
		  "velocity": 0.4251968503937008
		},
		{
		  "duration": 0.19687500000000568,
		  "durationTicks": 189,
		  "midi": 59,
		  "name": "B3",
		  "ticks": 113524,
		  "time": 118.25416666666666,
		  "velocity": 0.3543307086614173
		},
		{
		  "duration": 0.37187500000000284,
		  "durationTicks": 357,
		  "midi": 40,
		  "name": "E2",
		  "ticks": 113613,
		  "time": 118.346875,
		  "velocity": 0.5039370078740157
		},
		{
		  "duration": 0.37187499999998863,
		  "durationTicks": 357,
		  "midi": 76,
		  "name": "E5",
		  "ticks": 113635,
		  "time": 118.36979166666667,
		  "velocity": 0.3858267716535433
		},
		{
		  "duration": 0.40625,
		  "durationTicks": 390,
		  "midi": 79,
		  "name": "G5",
		  "ticks": 113780,
		  "time": 118.52083333333333,
		  "velocity": 0.4015748031496063
		},
		{
		  "duration": 0.2906249999999915,
		  "durationTicks": 279,
		  "midi": 64,
		  "name": "E4",
		  "ticks": 113981,
		  "time": 118.73020833333334,
		  "velocity": 0.30708661417322836
		},
		{
		  "duration": 0.20937500000000853,
		  "durationTicks": 201,
		  "midi": 76,
		  "name": "E5",
		  "ticks": 113992,
		  "time": 118.74166666666666,
		  "velocity": 0.49606299212598426
		},
		{
		  "duration": 0.17395833333334565,
		  "durationTicks": 167,
		  "midi": 59,
		  "name": "B3",
		  "ticks": 113992,
		  "time": 118.74166666666666,
		  "velocity": 0.4566929133858268
		},
		{
		  "duration": 0.20937500000000853,
		  "durationTicks": 201,
		  "midi": 40,
		  "name": "E2",
		  "ticks": 113992,
		  "time": 118.74166666666666,
		  "velocity": 0.4251968503937008
		},
		{
		  "duration": 0.2447916666666572,
		  "durationTicks": 235,
		  "midi": 76,
		  "name": "E5",
		  "ticks": 114192,
		  "time": 118.95,
		  "velocity": 0.5748031496062992
		},
		{
		  "duration": 0.3375000000000057,
		  "durationTicks": 324,
		  "midi": 59,
		  "name": "B3",
		  "ticks": 114337,
		  "time": 119.10104166666666,
		  "velocity": 0.3937007874015748
		},
		{
		  "duration": 0.140625,
		  "durationTicks": 135,
		  "midi": 40,
		  "name": "E2",
		  "ticks": 114348,
		  "time": 119.1125,
		  "velocity": 0.3464566929133858
		},
		{
		  "duration": 0.24374999999999147,
		  "durationTicks": 234,
		  "midi": 76,
		  "name": "E5",
		  "ticks": 114428,
		  "time": 119.19583333333334,
		  "velocity": 0.4251968503937008
		},
		{
		  "duration": 0.22083333333333144,
		  "durationTicks": 212,
		  "midi": 64,
		  "name": "E4",
		  "ticks": 114428,
		  "time": 119.19583333333334,
		  "velocity": 0.4645669291338583
		},
		{
		  "duration": 0.1510416666666572,
		  "durationTicks": 145,
		  "midi": 55,
		  "name": "G3",
		  "ticks": 114461,
		  "time": 119.23020833333334,
		  "velocity": 0.4015748031496063
		},
		{
		  "duration": 0.1510416666666714,
		  "durationTicks": 145,
		  "midi": 40,
		  "name": "E2",
		  "ticks": 114483,
		  "time": 119.253125,
		  "velocity": 0.5118110236220472
		},
		{
		  "duration": 0.23229166666666856,
		  "durationTicks": 223,
		  "midi": 76,
		  "name": "E5",
		  "ticks": 114662,
		  "time": 119.43958333333333,
		  "velocity": 0.47244094488188976
		},
		{
		  "duration": 0.1510416666666714,
		  "durationTicks": 145,
		  "midi": 59,
		  "name": "B3",
		  "ticks": 114662,
		  "time": 119.43958333333333,
		  "velocity": 0.41732283464566927
		},
		{
		  "duration": 0.18541666666666856,
		  "durationTicks": 178,
		  "midi": 40,
		  "name": "E2",
		  "ticks": 114751,
		  "time": 119.53229166666667,
		  "velocity": 0.36220472440944884
		},
		{
		  "duration": 0.13958333333333428,
		  "durationTicks": 134,
		  "midi": 76,
		  "name": "E5",
		  "ticks": 114885,
		  "time": 119.671875,
		  "velocity": 0.5433070866141733
		},
		{
		  "duration": 0.16249999999999432,
		  "durationTicks": 156,
		  "midi": 76,
		  "name": "E5",
		  "ticks": 115018,
		  "time": 119.81041666666667,
		  "velocity": 0.5511811023622047
		},
		{
		  "duration": 0.4645833333333371,
		  "durationTicks": 446,
		  "midi": 40,
		  "name": "E2",
		  "ticks": 115018,
		  "time": 119.81041666666667,
		  "velocity": 0.33858267716535434
		},
		{
		  "duration": 0.17395833333333144,
		  "durationTicks": 167,
		  "midi": 81,
		  "name": "A5",
		  "ticks": 115141,
		  "time": 119.93854166666667,
		  "velocity": 0.4566929133858268
		},
		{
		  "duration": 0.20937499999999432,
		  "durationTicks": 201,
		  "midi": 62,
		  "name": "D4",
		  "ticks": 115152,
		  "time": 119.95,
		  "velocity": 0.4015748031496063
		},
		{
		  "duration": 0.5572916666666714,
		  "durationTicks": 535,
		  "midi": 43,
		  "name": "G2",
		  "ticks": 115174,
		  "time": 119.97291666666666,
		  "velocity": 0.47244094488188976
		},
		{
		  "duration": 0.16249999999999432,
		  "durationTicks": 156,
		  "midi": 69,
		  "name": "A4",
		  "ticks": 115364,
		  "time": 120.17083333333333,
		  "velocity": 0.6141732283464567
		},
		{
		  "duration": 0.19687500000000568,
		  "durationTicks": 189,
		  "midi": 62,
		  "name": "D4",
		  "ticks": 115364,
		  "time": 120.17083333333333,
		  "velocity": 0.47244094488188976
		},
		{
		  "duration": 0.20937499999999432,
		  "durationTicks": 201,
		  "midi": 59,
		  "name": "B3",
		  "ticks": 115364,
		  "time": 120.17083333333333,
		  "velocity": 0.33858267716535434
		},
		{
		  "duration": 0.19687499999999147,
		  "durationTicks": 189,
		  "midi": 74,
		  "name": "D5",
		  "ticks": 115375,
		  "time": 120.18229166666667,
		  "velocity": 0.5196850393700787
		},
		{
		  "duration": 0.3020833333333428,
		  "durationTicks": 290,
		  "midi": 40,
		  "name": "E2",
		  "ticks": 115698,
		  "time": 120.51875,
		  "velocity": 0.33070866141732286
		},
		{
		  "duration": 0.20937499999999432,
		  "durationTicks": 201,
		  "midi": 74,
		  "name": "D5",
		  "ticks": 115709,
		  "time": 120.53020833333333,
		  "velocity": 0.4881889763779528
		},
		{
		  "duration": 0.13958333333333428,
		  "durationTicks": 134,
		  "midi": 69,
		  "name": "A4",
		  "ticks": 115709,
		  "time": 120.53020833333333,
		  "velocity": 0.5905511811023622
		},
		{
		  "duration": 0.20937499999999432,
		  "durationTicks": 201,
		  "midi": 62,
		  "name": "D4",
		  "ticks": 115709,
		  "time": 120.53020833333333,
		  "velocity": 0.3937007874015748
		},
		{
		  "duration": 0.13958333333333428,
		  "durationTicks": 134,
		  "midi": 43,
		  "name": "G2",
		  "ticks": 115720,
		  "time": 120.54166666666667,
		  "velocity": 0.3779527559055118
		},
		{
		  "duration": 0.19687500000000568,
		  "durationTicks": 189,
		  "midi": 79,
		  "name": "G5",
		  "ticks": 115821,
		  "time": 120.646875,
		  "velocity": 0.5039370078740157
		},
		{
		  "duration": 0.16249999999999432,
		  "durationTicks": 156,
		  "midi": 55,
		  "name": "G3",
		  "ticks": 115854,
		  "time": 120.68125,
		  "velocity": 0.44881889763779526
		},
		{
		  "duration": 0.20937499999999432,
		  "durationTicks": 201,
		  "midi": 43,
		  "name": "G2",
		  "ticks": 115854,
		  "time": 120.68125,
		  "velocity": 0.5669291338582677
		},
		{
		  "duration": 0.3499999999999943,
		  "durationTicks": 336,
		  "midi": 74,
		  "name": "D5",
		  "ticks": 116055,
		  "time": 120.890625,
		  "velocity": 0.4566929133858268
		},
		{
		  "duration": 0.1510416666666714,
		  "durationTicks": 145,
		  "midi": 69,
		  "name": "A4",
		  "ticks": 116055,
		  "time": 120.890625,
		  "velocity": 0.5669291338582677
		},
		{
		  "duration": 0.17395833333333144,
		  "durationTicks": 167,
		  "midi": 62,
		  "name": "D4",
		  "ticks": 116055,
		  "time": 120.890625,
		  "velocity": 0.4566929133858268
		},
		{
		  "duration": 0.13958333333333428,
		  "durationTicks": 134,
		  "midi": 76,
		  "name": "E5",
		  "ticks": 116177,
		  "time": 121.01770833333333,
		  "velocity": 0.49606299212598426
		},
		{
		  "duration": 0.22187499999999716,
		  "durationTicks": 213,
		  "midi": 40,
		  "name": "E2",
		  "ticks": 116267,
		  "time": 121.11145833333333,
		  "velocity": 0.4251968503937008
		},
		{
		  "duration": 0.1510416666666714,
		  "durationTicks": 145,
		  "midi": 74,
		  "name": "D5",
		  "ticks": 116390,
		  "time": 121.23958333333333,
		  "velocity": 0.6220472440944882
		},
		{
		  "duration": 0.2906250000000057,
		  "durationTicks": 279,
		  "midi": 62,
		  "name": "D4",
		  "ticks": 116390,
		  "time": 121.23958333333333,
		  "velocity": 0.2992125984251969
		},
		{
		  "duration": 0.1510416666666714,
		  "durationTicks": 145,
		  "midi": 57,
		  "name": "A3",
		  "ticks": 116390,
		  "time": 121.23958333333333,
		  "velocity": 0.3779527559055118
		},
		{
		  "duration": 0.23229166666665435,
		  "durationTicks": 223,
		  "midi": 76,
		  "name": "E5",
		  "ticks": 116513,
		  "time": 121.36770833333334,
		  "velocity": 0.5118110236220472
		},
		{
		  "duration": 0.23229166666666856,
		  "durationTicks": 223,
		  "midi": 43,
		  "name": "G2",
		  "ticks": 116736,
		  "time": 121.6,
		  "velocity": 0.3779527559055118
		},
		{
		  "duration": 0.22083333333334565,
		  "durationTicks": 212,
		  "midi": 40,
		  "name": "E2",
		  "ticks": 116736,
		  "time": 121.6,
		  "velocity": 0.47244094488188976
		},
		{
		  "duration": 0.24375000000000568,
		  "durationTicks": 234,
		  "midi": 74,
		  "name": "D5",
		  "ticks": 116747,
		  "time": 121.61145833333333,
		  "velocity": 0.4409448818897638
		},
		{
		  "duration": 0.1510416666666714,
		  "durationTicks": 145,
		  "midi": 59,
		  "name": "B3",
		  "ticks": 116781,
		  "time": 121.646875,
		  "velocity": 0.3779527559055118
		},
		{
		  "duration": 0.1510416666666572,
		  "durationTicks": 145,
		  "midi": 78,
		  "name": "F#5",
		  "ticks": 116814,
		  "time": 121.68125,
		  "velocity": 0.4409448818897638
		},
		{
		  "duration": 0.24375000000000568,
		  "durationTicks": 234,
		  "midi": 78,
		  "name": "F#5",
		  "ticks": 116970,
		  "time": 121.84375,
		  "velocity": 0.4566929133858268
		},
		{
		  "duration": 0.17395833333333144,
		  "durationTicks": 167,
		  "midi": 50,
		  "name": "D3",
		  "ticks": 116970,
		  "time": 121.84375,
		  "velocity": 0.5039370078740157
		},
		{
		  "duration": 0.16249999999999432,
		  "durationTicks": 156,
		  "midi": 74,
		  "name": "D5",
		  "ticks": 116981,
		  "time": 121.85520833333334,
		  "velocity": 0.5748031496062992
		},
		{
		  "duration": 0.17395833333333144,
		  "durationTicks": 167,
		  "midi": 69,
		  "name": "A4",
		  "ticks": 116981,
		  "time": 121.85520833333334,
		  "velocity": 0.5354330708661418
		},
		{
		  "duration": 0.27812500000000284,
		  "durationTicks": 267,
		  "midi": 33,
		  "name": "A1",
		  "ticks": 117137,
		  "time": 122.01770833333333,
		  "velocity": 0.4881889763779528
		},
		{
		  "duration": 0.22083333333333144,
		  "durationTicks": 212,
		  "midi": 76,
		  "name": "E5",
		  "ticks": 117316,
		  "time": 122.20416666666667,
		  "velocity": 0.4881889763779528
		},
		{
		  "duration": 0.2552083333333286,
		  "durationTicks": 245,
		  "midi": 45,
		  "name": "A2",
		  "ticks": 117327,
		  "time": 122.215625,
		  "velocity": 0.4015748031496063
		},
		{
		  "duration": 0.16249999999999432,
		  "durationTicks": 156,
		  "midi": 45,
		  "name": "A2",
		  "ticks": 117583,
		  "time": 122.48229166666667,
		  "velocity": 0.2992125984251969
		},
		{
		  "duration": 0.18541666666665435,
		  "durationTicks": 178,
		  "midi": 40,
		  "name": "E2",
		  "ticks": 117639,
		  "time": 122.540625,
		  "velocity": 0.29133858267716534
		},
		{
		  "duration": 0.20937499999999432,
		  "durationTicks": 201,
		  "midi": 76,
		  "name": "E5",
		  "ticks": 117683,
		  "time": 122.58645833333334,
		  "velocity": 0.5433070866141733
		},
		{
		  "duration": 0.16249999999999432,
		  "durationTicks": 156,
		  "midi": 61,
		  "name": "C#4",
		  "ticks": 117683,
		  "time": 122.58645833333334,
		  "velocity": 0.4094488188976378
		},
		{
		  "duration": 0.20937499999999432,
		  "durationTicks": 201,
		  "midi": 57,
		  "name": "A3",
		  "ticks": 117795,
		  "time": 122.703125,
		  "velocity": 0.3779527559055118
		},
		{
		  "duration": 0.24375000000000568,
		  "durationTicks": 234,
		  "midi": 76,
		  "name": "E5",
		  "ticks": 117884,
		  "time": 122.79583333333333,
		  "velocity": 0.5905511811023622
		},
		{
		  "duration": 0.2552083333333286,
		  "durationTicks": 245,
		  "midi": 64,
		  "name": "E4",
		  "ticks": 117884,
		  "time": 122.79583333333333,
		  "velocity": 0.2992125984251969
		},
		{
		  "duration": 0.13958333333333428,
		  "durationTicks": 134,
		  "midi": 71,
		  "name": "B4",
		  "ticks": 117984,
		  "time": 122.9,
		  "velocity": 0.47244094488188976
		},
		{
		  "duration": 0.1510416666666714,
		  "durationTicks": 145,
		  "midi": 52,
		  "name": "E3",
		  "ticks": 118007,
		  "time": 122.92395833333333,
		  "velocity": 0.44881889763779526
		},
		{
		  "duration": 0.2447916666666572,
		  "durationTicks": 235,
		  "midi": 76,
		  "name": "E5",
		  "ticks": 118118,
		  "time": 123.03958333333334,
		  "velocity": 0.48031496062992124
		},
		{
		  "duration": 0.23333333333333428,
		  "durationTicks": 224,
		  "midi": 64,
		  "name": "E4",
		  "ticks": 118129,
		  "time": 123.05104166666666,
		  "velocity": 0.4330708661417323
		},
		{
		  "duration": 0.1875,
		  "durationTicks": 180,
		  "midi": 61,
		  "name": "C#4",
		  "ticks": 118129,
		  "time": 123.05104166666666,
		  "velocity": 0.5826771653543307
		},
		{
		  "duration": 0.6281249999999972,
		  "durationTicks": 603,
		  "midi": 45,
		  "name": "A2",
		  "ticks": 118129,
		  "time": 123.05104166666666,
		  "velocity": 0.3464566929133858
		},
		{
		  "duration": 0.140625,
		  "durationTicks": 135,
		  "midi": 57,
		  "name": "A3",
		  "ticks": 118140,
		  "time": 123.0625,
		  "velocity": 0.4645669291338583
		},
		{
		  "duration": 0.3135416666666657,
		  "durationTicks": 301,
		  "midi": 33,
		  "name": "A1",
		  "ticks": 118253,
		  "time": 123.18020833333334,
		  "velocity": 0.3779527559055118
		},
		{
		  "duration": 0.1510416666666714,
		  "durationTicks": 145,
		  "midi": 52,
		  "name": "E3",
		  "ticks": 118342,
		  "time": 123.27291666666666,
		  "velocity": 0.33858267716535434
		},
		{
		  "duration": 0.3604166666666657,
		  "durationTicks": 346,
		  "midi": 76,
		  "name": "E5",
		  "ticks": 118353,
		  "time": 123.284375,
		  "velocity": 0.4251968503937008
		},
		{
		  "duration": 0.3135416666666657,
		  "durationTicks": 301,
		  "midi": 64,
		  "name": "E4",
		  "ticks": 118353,
		  "time": 123.284375,
		  "velocity": 0.33070866141732286
		},
		{
		  "duration": 0.19687500000000568,
		  "durationTicks": 189,
		  "midi": 57,
		  "name": "A3",
		  "ticks": 118576,
		  "time": 123.51666666666667,
		  "velocity": 0.4330708661417323
		},
		{
		  "duration": 0.1510416666666714,
		  "durationTicks": 145,
		  "midi": 76,
		  "name": "E5",
		  "ticks": 118699,
		  "time": 123.64479166666666,
		  "velocity": 0.5590551181102362
		},
		{
		  "duration": 0.47604166666666003,
		  "durationTicks": 457,
		  "midi": 81,
		  "name": "A5",
		  "ticks": 118810,
		  "time": 123.76041666666667,
		  "velocity": 0.47244094488188976
		},
		{
		  "duration": 0.18541666666666856,
		  "durationTicks": 178,
		  "midi": 48,
		  "name": "C3",
		  "ticks": 118855,
		  "time": 123.80729166666667,
		  "velocity": 0.41732283464566927
		},
		{
		  "duration": 0.20937499999999432,
		  "durationTicks": 201,
		  "midi": 55,
		  "name": "G3",
		  "ticks": 119033,
		  "time": 123.99270833333334,
		  "velocity": 0.25984251968503935
		},
		{
		  "duration": 0.1510416666666714,
		  "durationTicks": 145,
		  "midi": 76,
		  "name": "E5",
		  "ticks": 119044,
		  "time": 124.00416666666666,
		  "velocity": 0.5354330708661418
		},
		{
		  "duration": 0.13958333333333428,
		  "durationTicks": 134,
		  "midi": 59,
		  "name": "B3",
		  "ticks": 119044,
		  "time": 124.00416666666666,
		  "velocity": 0.5118110236220472
		},
		{
		  "duration": 0.16250000000000853,
		  "durationTicks": 156,
		  "midi": 52,
		  "name": "E3",
		  "ticks": 119044,
		  "time": 124.00416666666666,
		  "velocity": 0.5196850393700787
		},
		{
		  "duration": 0.453125,
		  "durationTicks": 435,
		  "midi": 48,
		  "name": "C3",
		  "ticks": 119044,
		  "time": 124.00416666666666,
		  "velocity": 0.48031496062992124
		},
		{
		  "duration": 0.24375000000000568,
		  "durationTicks": 234,
		  "midi": 81,
		  "name": "A5",
		  "ticks": 119267,
		  "time": 124.23645833333333,
		  "velocity": 0.3937007874015748
		},
		{
		  "duration": 0.13958333333333428,
		  "durationTicks": 134,
		  "midi": 76,
		  "name": "E5",
		  "ticks": 119356,
		  "time": 124.32916666666667,
		  "velocity": 0.5748031496062992
		},
		{
		  "duration": 0.13958333333333428,
		  "durationTicks": 134,
		  "midi": 52,
		  "name": "E3",
		  "ticks": 119390,
		  "time": 124.36458333333333,
		  "velocity": 0.5669291338582677
		},
		{
		  "duration": 0.17395833333333144,
		  "durationTicks": 167,
		  "midi": 55,
		  "name": "G3",
		  "ticks": 119490,
		  "time": 124.46875,
		  "velocity": 0.36220472440944884
		},
		{
		  "duration": 0.6156249999999943,
		  "durationTicks": 591,
		  "midi": 81,
		  "name": "A5",
		  "ticks": 119501,
		  "time": 124.48020833333334,
		  "velocity": 0.48031496062992124
		},
		{
		  "duration": 0.16250000000000853,
		  "durationTicks": 156,
		  "midi": 60,
		  "name": "C4",
		  "ticks": 119512,
		  "time": 124.49166666666666,
		  "velocity": 0.4094488188976378
		},
		{
		  "duration": 0.4645833333333371,
		  "durationTicks": 446,
		  "midi": 48,
		  "name": "C3",
		  "ticks": 119512,
		  "time": 124.49166666666666,
		  "velocity": 0.36220472440944884
		},
		{
		  "duration": 0.27812500000000284,
		  "durationTicks": 267,
		  "midi": 64,
		  "name": "E4",
		  "ticks": 119524,
		  "time": 124.50416666666666,
		  "velocity": 0.33070866141732286
		},
		{
		  "duration": 0.18541666666666856,
		  "durationTicks": 178,
		  "midi": 72,
		  "name": "C5",
		  "ticks": 119535,
		  "time": 124.515625,
		  "velocity": 0.48031496062992124
		},
		{
		  "duration": 0.16250000000000853,
		  "durationTicks": 156,
		  "midi": 52,
		  "name": "E3",
		  "ticks": 119735,
		  "time": 124.72395833333333,
		  "velocity": 0.4645669291338583
		},
		{
		  "duration": 0.3604166666666657,
		  "durationTicks": 346,
		  "midi": 76,
		  "name": "E5",
		  "ticks": 119746,
		  "time": 124.73541666666667,
		  "velocity": 0.4566929133858268
		},
		{
		  "duration": 0.13958333333333428,
		  "durationTicks": 134,
		  "midi": 71,
		  "name": "B4",
		  "ticks": 119746,
		  "time": 124.73541666666667,
		  "velocity": 0.5196850393700787
		},
		{
		  "duration": 0.13958333333333428,
		  "durationTicks": 134,
		  "midi": 59,
		  "name": "B3",
		  "ticks": 119746,
		  "time": 124.73541666666667,
		  "velocity": 0.5354330708661418
		},
		{
		  "duration": 0.19895833333333712,
		  "durationTicks": 191,
		  "midi": 48,
		  "name": "C3",
		  "ticks": 119958,
		  "time": 124.95625,
		  "velocity": 0.3700787401574803
		},
		{
		  "duration": 0.18541666666666856,
		  "durationTicks": 178,
		  "midi": 64,
		  "name": "E4",
		  "ticks": 119969,
		  "time": 124.96770833333333,
		  "velocity": 0.44881889763779526
		},
		{
		  "duration": 0.15208333333333712,
		  "durationTicks": 146,
		  "midi": 76,
		  "name": "E5",
		  "ticks": 120092,
		  "time": 125.09583333333333,
		  "velocity": 0.5354330708661418
		},
		{
		  "duration": 0.1510416666666714,
		  "durationTicks": 145,
		  "midi": 52,
		  "name": "E3",
		  "ticks": 120405,
		  "time": 125.421875,
		  "velocity": 0.41732283464566927
		},
		{
		  "duration": 0.1510416666666572,
		  "durationTicks": 145,
		  "midi": 76,
		  "name": "E5",
		  "ticks": 120428,
		  "time": 125.44583333333334,
		  "velocity": 0.5905511811023622
		},
		{
		  "duration": 0.13958333333332007,
		  "durationTicks": 134,
		  "midi": 71,
		  "name": "B4",
		  "ticks": 120428,
		  "time": 125.44583333333334,
		  "velocity": 0.5196850393700787
		},
		{
		  "duration": 0.18541666666666856,
		  "durationTicks": 178,
		  "midi": 36,
		  "name": "C2",
		  "ticks": 120450,
		  "time": 125.46875,
		  "velocity": 0.4645669291338583
		},
		{
		  "duration": 0.3604166666666657,
		  "durationTicks": 346,
		  "midi": 76,
		  "name": "E5",
		  "ticks": 120662,
		  "time": 125.68958333333333,
		  "velocity": 0.3858267716535433
		},
		{
		  "duration": 0.13958333333333428,
		  "durationTicks": 134,
		  "midi": 38,
		  "name": "D2",
		  "ticks": 120673,
		  "time": 125.70104166666667,
		  "velocity": 0.3464566929133858
		},
		{
		  "duration": 0.3604166666666657,
		  "durationTicks": 346,
		  "midi": 40,
		  "name": "E2",
		  "ticks": 120717,
		  "time": 125.746875,
		  "velocity": 0.4566929133858268
		},
		{
		  "duration": 0.17395833333334565,
		  "durationTicks": 167,
		  "midi": 28,
		  "name": "E1",
		  "ticks": 120862,
		  "time": 125.89791666666666,
		  "velocity": 0.3700787401574803
		},
		{
		  "duration": 0.18541666666666856,
		  "durationTicks": 178,
		  "midi": 59,
		  "name": "B3",
		  "ticks": 120885,
		  "time": 125.921875,
		  "velocity": 0.2755905511811024
		},
		{
		  "duration": 0.13958333333333428,
		  "durationTicks": 134,
		  "midi": 71,
		  "name": "B4",
		  "ticks": 120974,
		  "time": 126.01458333333333,
		  "velocity": 0.5275590551181102
		},
		{
		  "duration": 0.20937500000000853,
		  "durationTicks": 201,
		  "midi": 64,
		  "name": "E4",
		  "ticks": 120996,
		  "time": 126.0375,
		  "velocity": 0.4566929133858268
		},
		{
		  "duration": 0.17395833333333144,
		  "durationTicks": 167,
		  "midi": 28,
		  "name": "E1",
		  "ticks": 121152,
		  "time": 126.2,
		  "velocity": 0.36220472440944884
		},
		{
		  "duration": 0.16249999999999432,
		  "durationTicks": 156,
		  "midi": 28,
		  "name": "E1",
		  "ticks": 121330,
		  "time": 126.38541666666667,
		  "velocity": 0.47244094488188976
		},
		{
		  "duration": 0.33645833333333997,
		  "durationTicks": 323,
		  "midi": 40,
		  "name": "E2",
		  "ticks": 121342,
		  "time": 126.39791666666666,
		  "velocity": 0.4015748031496063
		},
		{
		  "duration": 0.16250000000000853,
		  "durationTicks": 156,
		  "midi": 64,
		  "name": "E4",
		  "ticks": 121353,
		  "time": 126.409375,
		  "velocity": 0.47244094488188976
		},
		{
		  "duration": 0.47708333333333997,
		  "durationTicks": 458,
		  "midi": 64,
		  "name": "E4",
		  "ticks": 121698,
		  "time": 126.76875,
		  "velocity": 0.4566929133858268
		},
		{
		  "duration": 0.16250000000000853,
		  "durationTicks": 156,
		  "midi": 40,
		  "name": "E2",
		  "ticks": 121698,
		  "time": 126.76875,
		  "velocity": 0.44881889763779526
		},
		{
		  "duration": 0.1510416666666714,
		  "durationTicks": 145,
		  "midi": 59,
		  "name": "B3",
		  "ticks": 121709,
		  "time": 126.78020833333333,
		  "velocity": 0.30708661417322836
		},
		{
		  "duration": 0.19687499999999147,
		  "durationTicks": 189,
		  "midi": 76,
		  "name": "E5",
		  "ticks": 121810,
		  "time": 126.88541666666667,
		  "velocity": 0.49606299212598426
		},
		{
		  "duration": 0.13958333333333428,
		  "durationTicks": 134,
		  "midi": 40,
		  "name": "E2",
		  "ticks": 121854,
		  "time": 126.93125,
		  "velocity": 0.5196850393700787
		},
		{
		  "duration": 0.140625,
		  "durationTicks": 135,
		  "midi": 71,
		  "name": "B4",
		  "ticks": 122055,
		  "time": 127.140625,
		  "velocity": 0.44881889763779526
		},
		{
		  "duration": 0.17395833333333144,
		  "durationTicks": 167,
		  "midi": 52,
		  "name": "E3",
		  "ticks": 122056,
		  "time": 127.14166666666667,
		  "velocity": 0.3858267716535433
		},
		{
		  "duration": 0.13958333333333428,
		  "durationTicks": 134,
		  "midi": 76,
		  "name": "E5",
		  "ticks": 122112,
		  "time": 127.2,
		  "velocity": 0.5039370078740157
		},
		{
		  "duration": 0.20937500000000853,
		  "durationTicks": 201,
		  "midi": 31,
		  "name": "G1",
		  "ticks": 122134,
		  "time": 127.22291666666666,
		  "velocity": 0.5590551181102362
		},
		{
		  "duration": 0.13958333333333428,
		  "durationTicks": 134,
		  "midi": 76,
		  "name": "E5",
		  "ticks": 122257,
		  "time": 127.35104166666666,
		  "velocity": 0.5984251968503937
		},
		{
		  "duration": 0.17395833333334565,
		  "durationTicks": 167,
		  "midi": 64,
		  "name": "E4",
		  "ticks": 122301,
		  "time": 127.396875,
		  "velocity": 0.48031496062992124
		},
		{
		  "duration": 0.37187500000000284,
		  "durationTicks": 357,
		  "midi": 31,
		  "name": "G1",
		  "ticks": 122346,
		  "time": 127.44375,
		  "velocity": 0.4251968503937008
		},
		{
		  "duration": 0.18541666666666856,
		  "durationTicks": 178,
		  "midi": 43,
		  "name": "G2",
		  "ticks": 122368,
		  "time": 127.46666666666667,
		  "velocity": 0.31496062992125984
		},
		{
		  "duration": 0.16249999999999432,
		  "durationTicks": 156,
		  "midi": 59,
		  "name": "B3",
		  "ticks": 122379,
		  "time": 127.478125,
		  "velocity": 0.3700787401574803
		},
		{
		  "duration": 0.20937499999999432,
		  "durationTicks": 201,
		  "midi": 100,
		  "name": "E7",
		  "ticks": 122491,
		  "time": 127.59479166666667,
		  "velocity": 0.36220472440944884
		},
		{
		  "duration": 0.23229166666666856,
		  "durationTicks": 223,
		  "midi": 76,
		  "name": "E5",
		  "ticks": 122491,
		  "time": 127.59479166666667,
		  "velocity": 0.5826771653543307
		},
		{
		  "duration": 0.18541666666666856,
		  "durationTicks": 178,
		  "midi": 43,
		  "name": "G2",
		  "ticks": 122546,
		  "time": 127.65208333333334,
		  "velocity": 0.5669291338582677
		},
		{
		  "duration": 0.24374999999999147,
		  "durationTicks": 234,
		  "midi": 31,
		  "name": "G1",
		  "ticks": 122703,
		  "time": 127.815625,
		  "velocity": 0.5669291338582677
		},
		{
		  "duration": 0.13958333333333428,
		  "durationTicks": 134,
		  "midi": 52,
		  "name": "E3",
		  "ticks": 122725,
		  "time": 127.83854166666667,
		  "velocity": 0.3858267716535433
		},
		{
		  "duration": 0.24374999999999147,
		  "durationTicks": 234,
		  "midi": 43,
		  "name": "G2",
		  "ticks": 122725,
		  "time": 127.83854166666667,
		  "velocity": 0.5590551181102362
		},
		{
		  "duration": 0.1510416666666572,
		  "durationTicks": 145,
		  "midi": 40,
		  "name": "E2",
		  "ticks": 122725,
		  "time": 127.83854166666667,
		  "velocity": 0.4015748031496063
		},
		{
		  "duration": 0.24375000000000568,
		  "durationTicks": 234,
		  "midi": 76,
		  "name": "E5",
		  "ticks": 122736,
		  "time": 127.85,
		  "velocity": 0.3858267716535433
		},
		{
		  "duration": 0.13958333333333428,
		  "durationTicks": 134,
		  "midi": 62,
		  "name": "D4",
		  "ticks": 122736,
		  "time": 127.85,
		  "velocity": 0.3228346456692913
		},
		{
		  "duration": 0.16249999999999432,
		  "durationTicks": 156,
		  "midi": 59,
		  "name": "B3",
		  "ticks": 122736,
		  "time": 127.85,
		  "velocity": 0.2677165354330709
		},
		{
		  "duration": 0.2552083333333428,
		  "durationTicks": 245,
		  "midi": 43,
		  "name": "G2",
		  "ticks": 122959,
		  "time": 128.08229166666666,
		  "velocity": 0.49606299212598426
		},
		{
		  "duration": 0.24375000000000568,
		  "durationTicks": 234,
		  "midi": 76,
		  "name": "E5",
		  "ticks": 122970,
		  "time": 128.09375,
		  "velocity": 0.30708661417322836
		},
		{
		  "duration": 0.15104166666668561,
		  "durationTicks": 145,
		  "midi": 64,
		  "name": "E4",
		  "ticks": 123081,
		  "time": 128.209375,
		  "velocity": 0.5118110236220472
		},
		{
		  "duration": 0.1395833333333485,
		  "durationTicks": 134,
		  "midi": 62,
		  "name": "D4",
		  "ticks": 123081,
		  "time": 128.209375,
		  "velocity": 0.3700787401574803
		},
		{
		  "duration": 0.24375000000000568,
		  "durationTicks": 234,
		  "midi": 31,
		  "name": "G1",
		  "ticks": 123193,
		  "time": 128.32604166666667,
		  "velocity": 0.5511811023622047
		},
		{
		  "duration": 0.22083333333333144,
		  "durationTicks": 212,
		  "midi": 76,
		  "name": "E5",
		  "ticks": 123204,
		  "time": 128.3375,
		  "velocity": 0.5905511811023622
		},
		{
		  "duration": 0.5687499999999943,
		  "durationTicks": 546,
		  "midi": 43,
		  "name": "G2",
		  "ticks": 123204,
		  "time": 128.3375,
		  "velocity": 0.5590551181102362
		},
		{
		  "duration": 0.24375000000000568,
		  "durationTicks": 234,
		  "midi": 76,
		  "name": "E5",
		  "ticks": 123416,
		  "time": 128.55833333333334,
		  "velocity": 0.3700787401574803
		},
		{
		  "duration": 0.13958333333332007,
		  "durationTicks": 134,
		  "midi": 64,
		  "name": "E4",
		  "ticks": 123427,
		  "time": 128.56979166666667,
		  "velocity": 0.5511811023622047
		},
		{
		  "duration": 0.2552083333333144,
		  "durationTicks": 245,
		  "midi": 31,
		  "name": "G1",
		  "ticks": 123594,
		  "time": 128.74375,
		  "velocity": 0.44881889763779526
		},
		{
		  "duration": 0.13958333333332007,
		  "durationTicks": 134,
		  "midi": 76,
		  "name": "E5",
		  "ticks": 123650,
		  "time": 128.80208333333334,
		  "velocity": 0.5590551181102362
		},
		{
		  "duration": 0.13958333333332007,
		  "durationTicks": 134,
		  "midi": 69,
		  "name": "A4",
		  "ticks": 123750,
		  "time": 128.90625,
		  "velocity": 0.5590551181102362
		},
		{
		  "duration": 0.16249999999999432,
		  "durationTicks": 156,
		  "midi": 64,
		  "name": "E4",
		  "ticks": 123773,
		  "time": 128.93020833333333,
		  "velocity": 0.5748031496062992
		},
		{
		  "duration": 0.2447916666666572,
		  "durationTicks": 235,
		  "midi": 43,
		  "name": "G2",
		  "ticks": 123862,
		  "time": 129.02291666666667,
		  "velocity": 0.44881889763779526
		},
		{
		  "duration": 0.2333333333333485,
		  "durationTicks": 224,
		  "midi": 76,
		  "name": "E5",
		  "ticks": 123884,
		  "time": 129.04583333333332,
		  "velocity": 0.5118110236220472
		},
		{
		  "duration": 0.19687500000000568,
		  "durationTicks": 189,
		  "midi": 45,
		  "name": "A2",
		  "ticks": 124097,
		  "time": 129.26770833333333,
		  "velocity": 0.5039370078740157
		},
		{
		  "duration": 0.22083333333333144,
		  "durationTicks": 212,
		  "midi": 76,
		  "name": "E5",
		  "ticks": 124108,
		  "time": 129.27916666666667,
		  "velocity": 0.3858267716535433
		},
		{
		  "duration": 0.1510416666666572,
		  "durationTicks": 145,
		  "midi": 64,
		  "name": "E4",
		  "ticks": 124119,
		  "time": 129.290625,
		  "velocity": 0.5669291338582677
		},
		{
		  "duration": 0.20937499999999432,
		  "durationTicks": 201,
		  "midi": 38,
		  "name": "D2",
		  "ticks": 124309,
		  "time": 129.48854166666666,
		  "velocity": 0.3779527559055118
		},
		{
		  "duration": 0.33645833333332575,
		  "durationTicks": 323,
		  "midi": 57,
		  "name": "A3",
		  "ticks": 124331,
		  "time": 129.51145833333334,
		  "velocity": 0.4330708661417323
		},
		{
		  "duration": 0.24375000000000568,
		  "durationTicks": 234,
		  "midi": 45,
		  "name": "A2",
		  "ticks": 124331,
		  "time": 129.51145833333334,
		  "velocity": 0.44881889763779526
		},
		{
		  "duration": 0.3604166666666515,
		  "durationTicks": 346,
		  "midi": 76,
		  "name": "E5",
		  "ticks": 124342,
		  "time": 129.52291666666667,
		  "velocity": 0.3858267716535433
		},
		{
		  "duration": 0.1510416666666572,
		  "durationTicks": 145,
		  "midi": 69,
		  "name": "A4",
		  "ticks": 124342,
		  "time": 129.52291666666667,
		  "velocity": 0.4330708661417323
		},
		{
		  "duration": 0.16249999999999432,
		  "durationTicks": 156,
		  "midi": 50,
		  "name": "D3",
		  "ticks": 124342,
		  "time": 129.52291666666667,
		  "velocity": 0.49606299212598426
		},
		{
		  "duration": 0.19687500000000568,
		  "durationTicks": 189,
		  "midi": 33,
		  "name": "A1",
		  "ticks": 124487,
		  "time": 129.67395833333333,
		  "velocity": 0.6220472440944882
		},
		{
		  "duration": 0.13958333333332007,
		  "durationTicks": 134,
		  "midi": 45,
		  "name": "A2",
		  "ticks": 124565,
		  "time": 129.75520833333334,
		  "velocity": 0.5196850393700787
		},
		{
		  "duration": 0.3479166666666913,
		  "durationTicks": 334,
		  "midi": 33,
		  "name": "A1",
		  "ticks": 124677,
		  "time": 129.871875,
		  "velocity": 0.4409448818897638
		},
		{
		  "duration": 0.3479166666666629,
		  "durationTicks": 334,
		  "midi": 45,
		  "name": "A2",
		  "ticks": 124699,
		  "time": 129.89479166666666,
		  "velocity": 0.3858267716535433
		},
		{
		  "duration": 0.19687499999997726,
		  "durationTicks": 189,
		  "midi": 76,
		  "name": "E5",
		  "ticks": 124833,
		  "time": 130.034375,
		  "velocity": 0.5354330708661418
		},
		{
		  "duration": 0.24374999999997726,
		  "durationTicks": 234,
		  "midi": 33,
		  "name": "A1",
		  "ticks": 125011,
		  "time": 130.21979166666668,
		  "velocity": 0.5196850393700787
		},
		{
		  "duration": 0.15104166666668561,
		  "durationTicks": 145,
		  "midi": 71,
		  "name": "B4",
		  "ticks": 125033,
		  "time": 130.24270833333333,
		  "velocity": 0.4881889763779528
		},
		{
		  "duration": 0.24375000000000568,
		  "durationTicks": 234,
		  "midi": 45,
		  "name": "A2",
		  "ticks": 125033,
		  "time": 130.24270833333333,
		  "velocity": 0.4881889763779528
		},
		{
		  "duration": 0.22083333333333144,
		  "durationTicks": 212,
		  "midi": 76,
		  "name": "E5",
		  "ticks": 125044,
		  "time": 130.25416666666666,
		  "velocity": 0.3937007874015748
		},
		{
		  "duration": 0.16249999999999432,
		  "durationTicks": 156,
		  "midi": 64,
		  "name": "E4",
		  "ticks": 125044,
		  "time": 130.25416666666666,
		  "velocity": 0.5118110236220472
		},
		{
		  "duration": 0.1395833333333485,
		  "durationTicks": 134,
		  "midi": 52,
		  "name": "E3",
		  "ticks": 125044,
		  "time": 130.25416666666666,
		  "velocity": 0.49606299212598426
		},
		{
		  "duration": 0.1510416666666572,
		  "durationTicks": 145,
		  "midi": 40,
		  "name": "E2",
		  "ticks": 125044,
		  "time": 130.25416666666666,
		  "velocity": 0.28346456692913385
		},
		{
		  "duration": 0.24375000000000568,
		  "durationTicks": 234,
		  "midi": 76,
		  "name": "E5",
		  "ticks": 125256,
		  "time": 130.475,
		  "velocity": 0.3779527559055118
		},
		{
		  "duration": 0.20937499999999432,
		  "durationTicks": 201,
		  "midi": 45,
		  "name": "A2",
		  "ticks": 125267,
		  "time": 130.48645833333333,
		  "velocity": 0.4251968503937008
		},
		{
		  "duration": 0.16249999999999432,
		  "durationTicks": 156,
		  "midi": 52,
		  "name": "E3",
		  "ticks": 125379,
		  "time": 130.603125,
		  "velocity": 0.4251968503937008
		},
		{
		  "duration": 0.20937499999999432,
		  "durationTicks": 201,
		  "midi": 76,
		  "name": "E5",
		  "ticks": 125490,
		  "time": 130.71875,
		  "velocity": 0.5039370078740157
		},
		{
		  "duration": 0.19687500000000568,
		  "durationTicks": 189,
		  "midi": 64,
		  "name": "E4",
		  "ticks": 125490,
		  "time": 130.71875,
		  "velocity": 0.3464566929133858
		},
		{
		  "duration": 0.22083333333333144,
		  "durationTicks": 212,
		  "midi": 45,
		  "name": "A2",
		  "ticks": 125490,
		  "time": 130.71875,
		  "velocity": 0.4330708661417323
		},
		{
		  "duration": 0.17395833333333144,
		  "durationTicks": 167,
		  "midi": 33,
		  "name": "A1",
		  "ticks": 125490,
		  "time": 130.71875,
		  "velocity": 0.4645669291338583
		},
		{
		  "duration": 0.1510416666666572,
		  "durationTicks": 145,
		  "midi": 61,
		  "name": "C#4",
		  "ticks": 125524,
		  "time": 130.75416666666666,
		  "velocity": 0.5118110236220472
		},
		{
		  "duration": 0.22187499999998295,
		  "durationTicks": 213,
		  "midi": 76,
		  "name": "E5",
		  "ticks": 125724,
		  "time": 130.9625,
		  "velocity": 0.4015748031496063
		},
		{
		  "duration": 0.37291666666666856,
		  "durationTicks": 358,
		  "midi": 64,
		  "name": "E4",
		  "ticks": 125724,
		  "time": 130.9625,
		  "velocity": 0.3700787401574803
		},
		{
		  "duration": 0.12916666666666288,
		  "durationTicks": 124,
		  "midi": 52,
		  "name": "E3",
		  "ticks": 125747,
		  "time": 130.98645833333333,
		  "velocity": 0.48031496062992124
		},
		{
		  "duration": 0.16249999999999432,
		  "durationTicks": 156,
		  "midi": 57,
		  "name": "A3",
		  "ticks": 125881,
		  "time": 131.12604166666668,
		  "velocity": 0.44881889763779526
		},
		{
		  "duration": 0.13958333333332007,
		  "durationTicks": 134,
		  "midi": 42,
		  "name": "F#2",
		  "ticks": 125926,
		  "time": 131.17291666666668,
		  "velocity": 0.3228346456692913
		},
		{
		  "duration": 0.16250000000002274,
		  "durationTicks": 156,
		  "midi": 76,
		  "name": "E5",
		  "ticks": 125937,
		  "time": 131.184375,
		  "velocity": 0.5354330708661418
		},
		{
		  "duration": 0.13958333333332007,
		  "durationTicks": 134,
		  "midi": 71,
		  "name": "B4",
		  "ticks": 126060,
		  "time": 131.3125,
		  "velocity": 0.5118110236220472
		},
		{
		  "duration": 0.18541666666666856,
		  "durationTicks": 178,
		  "midi": 64,
		  "name": "E4",
		  "ticks": 126082,
		  "time": 131.33541666666667,
		  "velocity": 0.4015748031496063
		},
		{
		  "duration": 0.17395833333333144,
		  "durationTicks": 167,
		  "midi": 100,
		  "name": "E7",
		  "ticks": 126182,
		  "time": 131.43958333333333,
		  "velocity": 0.30708661417322836
		},
		{
		  "duration": 0.22083333333333144,
		  "durationTicks": 212,
		  "midi": 76,
		  "name": "E5",
		  "ticks": 126182,
		  "time": 131.43958333333333,
		  "velocity": 0.5669291338582677
		},
		{
		  "duration": 0.17395833333333144,
		  "durationTicks": 167,
		  "midi": 35,
		  "name": "B1",
		  "ticks": 126405,
		  "time": 131.671875,
		  "velocity": 0.31496062992125984
		},
		{
		  "duration": 0.16249999999999432,
		  "durationTicks": 156,
		  "midi": 71,
		  "name": "B4",
		  "ticks": 126416,
		  "time": 131.68333333333334,
		  "velocity": 0.41732283464566927
		},
		{
		  "duration": 0.1510416666666572,
		  "durationTicks": 145,
		  "midi": 52,
		  "name": "E3",
		  "ticks": 126416,
		  "time": 131.68333333333334,
		  "velocity": 0.48031496062992124
		},
		{
		  "duration": 0.17395833333333144,
		  "durationTicks": 167,
		  "midi": 47,
		  "name": "B2",
		  "ticks": 126416,
		  "time": 131.68333333333334,
		  "velocity": 0.2992125984251969
		},
		{
		  "duration": 0.20937499999999432,
		  "durationTicks": 201,
		  "midi": 76,
		  "name": "E5",
		  "ticks": 126428,
		  "time": 131.69583333333333,
		  "velocity": 0.4015748031496063
		},
		{
		  "duration": 0.16249999999999432,
		  "durationTicks": 156,
		  "midi": 64,
		  "name": "E4",
		  "ticks": 126428,
		  "time": 131.69583333333333,
		  "velocity": 0.4330708661417323
		},
		{
		  "duration": 0.16250000000002274,
		  "durationTicks": 156,
		  "midi": 71,
		  "name": "B4",
		  "ticks": 126762,
		  "time": 132.04375,
		  "velocity": 0.4251968503937008
		},
		{
		  "duration": 0.17395833333333144,
		  "durationTicks": 167,
		  "midi": 59,
		  "name": "B3",
		  "ticks": 126762,
		  "time": 132.04375,
		  "velocity": 0.29133858267716534
		},
		{
		  "duration": 0.1395833333333485,
		  "durationTicks": 134,
		  "midi": 52,
		  "name": "E3",
		  "ticks": 126773,
		  "time": 132.05520833333333,
		  "velocity": 0.5275590551181102
		},
		{
		  "duration": 0.22083333333333144,
		  "durationTicks": 212,
		  "midi": 76,
		  "name": "E5",
		  "ticks": 126885,
		  "time": 132.171875,
		  "velocity": 0.5039370078740157
		},
		{
		  "duration": 0.16249999999999432,
		  "durationTicks": 156,
		  "midi": 64,
		  "name": "E4",
		  "ticks": 126885,
		  "time": 132.171875,
		  "velocity": 0.47244094488188976
		},
		{
		  "duration": 0.23229166666666856,
		  "durationTicks": 223,
		  "midi": 47,
		  "name": "B2",
		  "ticks": 126885,
		  "time": 132.171875,
		  "velocity": 0.5826771653543307
		},
		{
		  "duration": 0.13958333333332007,
		  "durationTicks": 134,
		  "midi": 76,
		  "name": "E5",
		  "ticks": 127096,
		  "time": 132.39166666666668,
		  "velocity": 0.2440944881889764
		},
		{
		  "duration": 0.17395833333333144,
		  "durationTicks": 167,
		  "midi": 71,
		  "name": "B4",
		  "ticks": 127108,
		  "time": 132.40416666666667,
		  "velocity": 0.44881889763779526
		},
		{
		  "duration": 0.16249999999999432,
		  "durationTicks": 156,
		  "midi": 64,
		  "name": "E4",
		  "ticks": 127108,
		  "time": 132.40416666666667,
		  "velocity": 0.4409448818897638
		},
		{
		  "duration": 0.1510416666666572,
		  "durationTicks": 145,
		  "midi": 52,
		  "name": "E3",
		  "ticks": 127108,
		  "time": 132.40416666666667,
		  "velocity": 0.4251968503937008
		},
		{
		  "duration": 0.1510416666666572,
		  "durationTicks": 145,
		  "midi": 47,
		  "name": "B2",
		  "ticks": 127108,
		  "time": 132.40416666666667,
		  "velocity": 0.23622047244094488
		},
		{
		  "duration": 0.20937499999999432,
		  "durationTicks": 201,
		  "midi": 76,
		  "name": "E5",
		  "ticks": 127230,
		  "time": 132.53125,
		  "velocity": 0.5196850393700787
		},
		{
		  "duration": 0.18541666666666856,
		  "durationTicks": 178,
		  "midi": 47,
		  "name": "B2",
		  "ticks": 127252,
		  "time": 132.55416666666667,
		  "velocity": 0.4094488188976378
		},
		{
		  "duration": 0.22083333333333144,
		  "durationTicks": 212,
		  "midi": 64,
		  "name": "E4",
		  "ticks": 127342,
		  "time": 132.64791666666667,
		  "velocity": 0.4094488188976378
		},
		{
		  "duration": 0.32500000000001705,
		  "durationTicks": 312,
		  "midi": 47,
		  "name": "B2",
		  "ticks": 127431,
		  "time": 132.740625,
		  "velocity": 0.36220472440944884
		},
		{
		  "duration": 0.1510416666666572,
		  "durationTicks": 145,
		  "midi": 52,
		  "name": "E3",
		  "ticks": 127453,
		  "time": 132.76354166666667,
		  "velocity": 0.48031496062992124
		},
		{
		  "duration": 0.22083333333333144,
		  "durationTicks": 212,
		  "midi": 43,
		  "name": "G2",
		  "ticks": 127553,
		  "time": 132.86770833333333,
		  "velocity": 0.3858267716535433
		},
		{
		  "duration": 0.23333333333332007,
		  "durationTicks": 224,
		  "midi": 76,
		  "name": "E5",
		  "ticks": 127576,
		  "time": 132.89166666666668,
		  "velocity": 0.5433070866141733
		},
		{
		  "duration": 0.3031249999999943,
		  "durationTicks": 291,
		  "midi": 31,
		  "name": "G1",
		  "ticks": 127776,
		  "time": 133.1,
		  "velocity": 0.3937007874015748
		},
		{
		  "duration": 0.17395833333333144,
		  "durationTicks": 167,
		  "midi": 40,
		  "name": "E2",
		  "ticks": 127789,
		  "time": 133.11354166666666,
		  "velocity": 0.31496062992125984
		},
		{
		  "duration": 0.20937499999999432,
		  "durationTicks": 201,
		  "midi": 76,
		  "name": "E5",
		  "ticks": 127800,
		  "time": 133.125,
		  "velocity": 0.36220472440944884
		},
		{
		  "duration": 0.16249999999999432,
		  "durationTicks": 156,
		  "midi": 64,
		  "name": "E4",
		  "ticks": 127800,
		  "time": 133.125,
		  "velocity": 0.3858267716535433
		},
		{
		  "duration": 0.1510416666666572,
		  "durationTicks": 145,
		  "midi": 52,
		  "name": "E3",
		  "ticks": 127800,
		  "time": 133.125,
		  "velocity": 0.47244094488188976
		},
		{
		  "duration": 0.13958333333332007,
		  "durationTicks": 134,
		  "midi": 50,
		  "name": "D3",
		  "ticks": 128023,
		  "time": 133.35729166666667,
		  "velocity": 0.4015748031496063
		},
		{
		  "duration": 0.3604166666666515,
		  "durationTicks": 346,
		  "midi": 76,
		  "name": "E5",
		  "ticks": 128034,
		  "time": 133.36875,
		  "velocity": 0.33858267716535434
		},
		{
		  "duration": 0.3479166666666629,
		  "durationTicks": 334,
		  "midi": 74,
		  "name": "D5",
		  "ticks": 128034,
		  "time": 133.36875,
		  "velocity": 0.3937007874015748
		},
		{
		  "duration": 0.23229166666666856,
		  "durationTicks": 223,
		  "midi": 40,
		  "name": "E2",
		  "ticks": 128123,
		  "time": 133.46145833333333,
		  "velocity": 0.5354330708661418
		},
		{
		  "duration": 0.16249999999999432,
		  "durationTicks": 156,
		  "midi": 28,
		  "name": "E1",
		  "ticks": 128212,
		  "time": 133.55416666666667,
		  "velocity": 0.4330708661417323
		},
		{
		  "duration": 0.20937499999999432,
		  "durationTicks": 201,
		  "midi": 59,
		  "name": "B3",
		  "ticks": 128257,
		  "time": 133.60104166666667,
		  "velocity": 0.5275590551181102
		},
		{
		  "duration": 0.20937499999999432,
		  "durationTicks": 201,
		  "midi": 55,
		  "name": "G3",
		  "ticks": 128257,
		  "time": 133.60104166666667,
		  "velocity": 0.4330708661417323
		},
		{
		  "duration": 0.36041666666667993,
		  "durationTicks": 346,
		  "midi": 40,
		  "name": "E2",
		  "ticks": 128357,
		  "time": 133.70520833333333,
		  "velocity": 0.4094488188976378
		},
		{
		  "duration": 0.3604166666666515,
		  "durationTicks": 346,
		  "midi": 76,
		  "name": "E5",
		  "ticks": 128379,
		  "time": 133.728125,
		  "velocity": 0.5196850393700787
		},
		{
		  "duration": 0.3364583333333542,
		  "durationTicks": 323,
		  "midi": 28,
		  "name": "E1",
		  "ticks": 128502,
		  "time": 133.85625,
		  "velocity": 0.3464566929133858
		},
		{
		  "duration": 0.13958333333332007,
		  "durationTicks": 134,
		  "midi": 40,
		  "name": "E2",
		  "ticks": 128703,
		  "time": 134.065625,
		  "velocity": 0.4881889763779528
		},
		{
		  "duration": 0.22083333333333144,
		  "durationTicks": 212,
		  "midi": 76,
		  "name": "E5",
		  "ticks": 128725,
		  "time": 134.08854166666666,
		  "velocity": 0.6456692913385826
		},
		{
		  "duration": 0.15104166666668561,
		  "durationTicks": 145,
		  "midi": 71,
		  "name": "B4",
		  "ticks": 128725,
		  "time": 134.08854166666666,
		  "velocity": 0.41732283464566927
		},
		{
		  "duration": 0.24374999999997726,
		  "durationTicks": 234,
		  "midi": 40,
		  "name": "E2",
		  "ticks": 128836,
		  "time": 134.20416666666668,
		  "velocity": 0.3228346456692913
		},
		{
		  "duration": 0.2552083333333428,
		  "durationTicks": 245,
		  "midi": 76,
		  "name": "E5",
		  "ticks": 128937,
		  "time": 134.309375,
		  "velocity": 0.7007874015748031
		},
		{
		  "duration": 0.20937500000002274,
		  "durationTicks": 201,
		  "midi": 59,
		  "name": "B3",
		  "ticks": 129070,
		  "time": 134.44791666666666,
		  "velocity": 0.41732283464566927
		},
		{
		  "duration": 0.15104166666668561,
		  "durationTicks": 145,
		  "midi": 40,
		  "name": "E2",
		  "ticks": 129070,
		  "time": 134.44791666666666,
		  "velocity": 0.4094488188976378
		},
		{
		  "duration": 0.2552083333333428,
		  "durationTicks": 245,
		  "midi": 76,
		  "name": "E5",
		  "ticks": 129182,
		  "time": 134.56458333333333,
		  "velocity": 0.5118110236220472
		},
		{
		  "duration": 0.16249999999999432,
		  "durationTicks": 156,
		  "midi": 64,
		  "name": "E4",
		  "ticks": 129193,
		  "time": 134.57604166666667,
		  "velocity": 0.3937007874015748
		},
		{
		  "duration": 0.1510416666666572,
		  "durationTicks": 145,
		  "midi": 40,
		  "name": "E2",
		  "ticks": 129215,
		  "time": 134.59895833333334,
		  "velocity": 0.5196850393700787
		},
		{
		  "duration": 0.13958333333332007,
		  "durationTicks": 134,
		  "midi": 59,
		  "name": "B3",
		  "ticks": 129416,
		  "time": 134.80833333333334,
		  "velocity": 0.36220472440944884
		},
		{
		  "duration": 0.19687500000000568,
		  "durationTicks": 189,
		  "midi": 40,
		  "name": "E2",
		  "ticks": 129416,
		  "time": 134.80833333333334,
		  "velocity": 0.25196850393700787
		},
		{
		  "duration": 0.3375000000000057,
		  "durationTicks": 324,
		  "midi": 76,
		  "name": "E5",
		  "ticks": 129427,
		  "time": 134.81979166666667,
		  "velocity": 0.5984251968503937
		},
		{
		  "duration": 0.18541666666666856,
		  "durationTicks": 178,
		  "midi": 52,
		  "name": "E3",
		  "ticks": 129427,
		  "time": 134.81979166666667,
		  "velocity": 0.4566929133858268
		},
		{
		  "duration": 0.2916666666666572,
		  "durationTicks": 280,
		  "midi": 43,
		  "name": "G2",
		  "ticks": 129639,
		  "time": 135.040625,
		  "velocity": 0.33070866141732286
		},
		{
		  "duration": 0.47708333333332575,
		  "durationTicks": 458,
		  "midi": 31,
		  "name": "G1",
		  "ticks": 129650,
		  "time": 135.05208333333334,
		  "velocity": 0.49606299212598426
		},
		{
		  "duration": 0.13958333333332007,
		  "durationTicks": 134,
		  "midi": 76,
		  "name": "E5",
		  "ticks": 129751,
		  "time": 135.15729166666668,
		  "velocity": 0.5984251968503937
		},
		{
		  "duration": 0.4645833333333371,
		  "durationTicks": 446,
		  "midi": 40,
		  "name": "E2",
		  "ticks": 129763,
		  "time": 135.16979166666667,
		  "velocity": 0.3228346456692913
		},
		{
		  "duration": 0.19687500000000568,
		  "durationTicks": 189,
		  "midi": 100,
		  "name": "E7",
		  "ticks": 129863,
		  "time": 135.27395833333333,
		  "velocity": 0.2992125984251969
		},
		{
		  "duration": 0.20937499999999432,
		  "durationTicks": 201,
		  "midi": 76,
		  "name": "E5",
		  "ticks": 129885,
		  "time": 135.296875,
		  "velocity": 0.5748031496062992
		},
		{
		  "duration": 0.19687500000000568,
		  "durationTicks": 189,
		  "midi": 43,
		  "name": "G2",
		  "ticks": 129919,
		  "time": 135.33229166666666,
		  "velocity": 0.5669291338582677
		},
		{
		  "duration": 0.47604166666667425,
		  "durationTicks": 457,
		  "midi": 76,
		  "name": "E5",
		  "ticks": 130108,
		  "time": 135.52916666666667,
		  "velocity": 0.33070866141732286
		},
		{
		  "duration": 0.1510416666666572,
		  "durationTicks": 145,
		  "midi": 62,
		  "name": "D4",
		  "ticks": 130108,
		  "time": 135.52916666666667,
		  "velocity": 0.3779527559055118
		},
		{
		  "duration": 0.1510416666666572,
		  "durationTicks": 145,
		  "midi": 43,
		  "name": "G2",
		  "ticks": 130108,
		  "time": 135.52916666666667,
		  "velocity": 0.3700787401574803
		},
		{
		  "duration": 0.18541666666666856,
		  "durationTicks": 178,
		  "midi": 31,
		  "name": "G1",
		  "ticks": 130108,
		  "time": 135.52916666666667,
		  "velocity": 0.5039370078740157
		},
		{
		  "duration": 0.16249999999999432,
		  "durationTicks": 156,
		  "midi": 43,
		  "name": "G2",
		  "ticks": 130309,
		  "time": 135.73854166666666,
		  "velocity": 0.28346456692913385
		},
		{
		  "duration": 0.33645833333332575,
		  "durationTicks": 323,
		  "midi": 62,
		  "name": "D4",
		  "ticks": 130442,
		  "time": 135.87708333333333,
		  "velocity": 0.41732283464566927
		},
		{
		  "duration": 0.1395833333333485,
		  "durationTicks": 134,
		  "midi": 69,
		  "name": "A4",
		  "ticks": 130454,
		  "time": 135.88958333333332,
		  "velocity": 0.6062992125984252
		},
		{
		  "duration": 0.1395833333333485,
		  "durationTicks": 134,
		  "midi": 43,
		  "name": "G2",
		  "ticks": 130465,
		  "time": 135.90104166666666,
		  "velocity": 0.49606299212598426
		},
		{
		  "duration": 0.23229166666666856,
		  "durationTicks": 223,
		  "midi": 76,
		  "name": "E5",
		  "ticks": 130565,
		  "time": 136.00520833333334,
		  "velocity": 0.5748031496062992
		},
		{
		  "duration": 0.4177083333333371,
		  "durationTicks": 401,
		  "midi": 43,
		  "name": "G2",
		  "ticks": 130599,
		  "time": 136.040625,
		  "velocity": 0.5590551181102362
		},
		{
		  "duration": 0.16249999999999432,
		  "durationTicks": 156,
		  "midi": 31,
		  "name": "G1",
		  "ticks": 130599,
		  "time": 136.040625,
		  "velocity": 0.44881889763779526
		},
		{
		  "duration": 0.32500000000001705,
		  "durationTicks": 312,
		  "midi": 62,
		  "name": "D4",
		  "ticks": 130799,
		  "time": 136.24895833333332,
		  "velocity": 0.3464566929133858
		},
		{
		  "duration": 0.20937500000002274,
		  "durationTicks": 201,
		  "midi": 76,
		  "name": "E5",
		  "ticks": 130810,
		  "time": 136.26041666666666,
		  "velocity": 0.5196850393700787
		},
		{
		  "duration": 0.1395833333333485,
		  "durationTicks": 134,
		  "midi": 69,
		  "name": "A4",
		  "ticks": 130810,
		  "time": 136.26041666666666,
		  "velocity": 0.5826771653543307
		},
		{
		  "duration": 0.1510416666666572,
		  "durationTicks": 145,
		  "midi": 43,
		  "name": "G2",
		  "ticks": 131000,
		  "time": 136.45833333333334,
		  "velocity": 0.5590551181102362
		},
		{
		  "duration": 0.2552083333333144,
		  "durationTicks": 245,
		  "midi": 31,
		  "name": "G1",
		  "ticks": 131000,
		  "time": 136.45833333333334,
		  "velocity": 0.4881889763779528
		},
		{
		  "duration": 0.2552083333333144,
		  "durationTicks": 245,
		  "midi": 76,
		  "name": "E5",
		  "ticks": 131011,
		  "time": 136.46979166666668,
		  "velocity": 0.4409448818897638
		},
		{
		  "duration": 0.13958333333332007,
		  "durationTicks": 134,
		  "midi": 57,
		  "name": "A3",
		  "ticks": 131145,
		  "time": 136.609375,
		  "velocity": 0.4409448818897638
		},
		{
		  "duration": 0.24375000000000568,
		  "durationTicks": 234,
		  "midi": 76,
		  "name": "E5",
		  "ticks": 131256,
		  "time": 136.725,
		  "velocity": 0.5275590551181102
		},
		{
		  "duration": 0.20937500000002274,
		  "durationTicks": 201,
		  "midi": 43,
		  "name": "G2",
		  "ticks": 131290,
		  "time": 136.76041666666666,
		  "velocity": 0.5039370078740157
		},
		{
		  "duration": 0.22187500000001137,
		  "durationTicks": 213,
		  "midi": 40,
		  "name": "E2",
		  "ticks": 131468,
		  "time": 136.94583333333333,
		  "velocity": 0.4251968503937008
		},
		{
		  "duration": 0.17500000000001137,
		  "durationTicks": 168,
		  "midi": 33,
		  "name": "A1",
		  "ticks": 131479,
		  "time": 136.95729166666666,
		  "velocity": 0.36220472440944884
		},
		{
		  "duration": 0.59375,
		  "durationTicks": 570,
		  "midi": 76,
		  "name": "E5",
		  "ticks": 131490,
		  "time": 136.96875,
		  "velocity": 0.4094488188976378
		},
		{
		  "duration": 0.22187499999998295,
		  "durationTicks": 213,
		  "midi": 74,
		  "name": "D5",
		  "ticks": 131501,
		  "time": 136.98020833333334,
		  "velocity": 0.33858267716535434
		},
		{
		  "duration": 0.16354166666667425,
		  "durationTicks": 157,
		  "midi": 62,
		  "name": "D4",
		  "ticks": 131501,
		  "time": 136.98020833333334,
		  "velocity": 0.31496062992125984
		},
		{
		  "duration": 0.22187499999998295,
		  "durationTicks": 213,
		  "midi": 43,
		  "name": "G2",
		  "ticks": 131501,
		  "time": 136.98020833333334,
		  "velocity": 0.4094488188976378
		},
		{
		  "duration": 0.40729166666667993,
		  "durationTicks": 391,
		  "midi": 45,
		  "name": "A2",
		  "ticks": 131535,
		  "time": 137.015625,
		  "velocity": 0.41732283464566927
		},
		{
		  "duration": 0.1510416666666572,
		  "durationTicks": 145,
		  "midi": 38,
		  "name": "D2",
		  "ticks": 131703,
		  "time": 137.190625,
		  "velocity": 0.29133858267716534
		},
		{
		  "duration": 0.1395833333333485,
		  "durationTicks": 134,
		  "midi": 74,
		  "name": "D5",
		  "ticks": 131714,
		  "time": 137.20208333333332,
		  "velocity": 0.5669291338582677
		},
		{
		  "duration": 0.3020833333333428,
		  "durationTicks": 290,
		  "midi": 57,
		  "name": "A3",
		  "ticks": 131725,
		  "time": 137.21354166666666,
		  "velocity": 0.33070866141732286
		},
		{
		  "duration": 0.24374999999997726,
		  "durationTicks": 234,
		  "midi": 45,
		  "name": "A2",
		  "ticks": 131926,
		  "time": 137.42291666666668,
		  "velocity": 0.47244094488188976
		},
		{
		  "duration": 0.18541666666666856,
		  "durationTicks": 178,
		  "midi": 33,
		  "name": "A1",
		  "ticks": 131948,
		  "time": 137.44583333333333,
		  "velocity": 0.5354330708661418
		},
		{
		  "duration": 0.37187499999998863,
		  "durationTicks": 357,
		  "midi": 76,
		  "name": "E5",
		  "ticks": 132060,
		  "time": 137.5625,
		  "velocity": 0.49606299212598426
		},
		{
		  "duration": 0.2666666666666515,
		  "durationTicks": 256,
		  "midi": 33,
		  "name": "A1",
		  "ticks": 132127,
		  "time": 137.63229166666667,
		  "velocity": 0.33070866141732286
		},
		{
		  "duration": 0.23229166666666856,
		  "durationTicks": 223,
		  "midi": 45,
		  "name": "A2",
		  "ticks": 132160,
		  "time": 137.66666666666666,
		  "velocity": 0.4645669291338583
		},
		{
		  "duration": 0.19687500000000568,
		  "durationTicks": 189,
		  "midi": 33,
		  "name": "A1",
		  "ticks": 132383,
		  "time": 137.89895833333333,
		  "velocity": 0.5275590551181102
		},
		{
		  "duration": 0.23229166666666856,
		  "durationTicks": 223,
		  "midi": 76,
		  "name": "E5",
		  "ticks": 132416,
		  "time": 137.93333333333334,
		  "velocity": 0.5275590551181102
		},
		{
		  "duration": 0.20937499999999432,
		  "durationTicks": 201,
		  "midi": 45,
		  "name": "A2",
		  "ticks": 132439,
		  "time": 137.95729166666666,
		  "velocity": 0.4881889763779528
		},
		{
		  "duration": 0.23229166666666856,
		  "durationTicks": 223,
		  "midi": 76,
		  "name": "E5",
		  "ticks": 132639,
		  "time": 138.165625,
		  "velocity": 0.6692913385826772
		},
		{
		  "duration": 0.24375000000000568,
		  "durationTicks": 234,
		  "midi": 45,
		  "name": "A2",
		  "ticks": 132639,
		  "time": 138.165625,
		  "velocity": 0.3464566929133858
		},
		{
		  "duration": 0.2666666666666515,
		  "durationTicks": 256,
		  "midi": 76,
		  "name": "E5",
		  "ticks": 132862,
		  "time": 138.39791666666667,
		  "velocity": 0.49606299212598426
		},
		{
		  "duration": 0.18541666666666856,
		  "durationTicks": 178,
		  "midi": 45,
		  "name": "A2",
		  "ticks": 132873,
		  "time": 138.409375,
		  "velocity": 0.4251968503937008
		},
		{
		  "duration": 0.22083333333333144,
		  "durationTicks": 212,
		  "midi": 76,
		  "name": "E5",
		  "ticks": 133119,
		  "time": 138.665625,
		  "velocity": 0.5905511811023622
		},
		{
		  "duration": 0.16249999999999432,
		  "durationTicks": 156,
		  "midi": 57,
		  "name": "A3",
		  "ticks": 133275,
		  "time": 138.828125,
		  "velocity": 0.4330708661417323
		},
		{
		  "duration": 0.24479166666668561,
		  "durationTicks": 235,
		  "midi": 76,
		  "name": "E5",
		  "ticks": 133330,
		  "time": 138.88541666666666,
		  "velocity": 0.5826771653543307
		},
		{
		  "duration": 0.512500000000017,
		  "durationTicks": 492,
		  "midi": 35,
		  "name": "B1",
		  "ticks": 133364,
		  "time": 138.92083333333332,
		  "velocity": 0.3543307086614173
		},
		{
		  "duration": 0.12916666666666288,
		  "durationTicks": 124,
		  "midi": 40,
		  "name": "E2",
		  "ticks": 133420,
		  "time": 138.97916666666666,
		  "velocity": 0.3779527559055118
		},
		{
		  "duration": 0.21041666666667425,
		  "durationTicks": 202,
		  "midi": 45,
		  "name": "A2",
		  "ticks": 133453,
		  "time": 139.01354166666667,
		  "velocity": 0.3543307086614173
		},
		{
		  "duration": 0.23229166666666856,
		  "durationTicks": 223,
		  "midi": 76,
		  "name": "E5",
		  "ticks": 133566,
		  "time": 139.13125,
		  "velocity": 0.5826771653543307
		},
		{
		  "duration": 0.17395833333333144,
		  "durationTicks": 167,
		  "midi": 39,
		  "name": "D#2",
		  "ticks": 133577,
		  "time": 139.14270833333333,
		  "velocity": 0.3700787401574803
		},
		{
		  "duration": 0.16249999999999432,
		  "durationTicks": 156,
		  "midi": 47,
		  "name": "B2",
		  "ticks": 133610,
		  "time": 139.17708333333334,
		  "velocity": 0.48031496062992124
		},
		{
		  "duration": 0.22083333333333144,
		  "durationTicks": 212,
		  "midi": 47,
		  "name": "B2",
		  "ticks": 133777,
		  "time": 139.35104166666667,
		  "velocity": 0.5196850393700787
		},
		{
		  "duration": 0.36041666666667993,
		  "durationTicks": 346,
		  "midi": 76,
		  "name": "E5",
		  "ticks": 133789,
		  "time": 139.36354166666666,
		  "velocity": 0.5511811023622047
		},
		{
		  "duration": 0.17395833333333144,
		  "durationTicks": 167,
		  "midi": 71,
		  "name": "B4",
		  "ticks": 133789,
		  "time": 139.36354166666666,
		  "velocity": 0.4409448818897638
		},
		{
		  "duration": 0.1510416666666572,
		  "durationTicks": 145,
		  "midi": 52,
		  "name": "E3",
		  "ticks": 133789,
		  "time": 139.36354166666666,
		  "velocity": 0.5039370078740157
		},
		{
		  "duration": 0.23229166666666856,
		  "durationTicks": 223,
		  "midi": 76,
		  "name": "E5",
		  "ticks": 134134,
		  "time": 139.72291666666666,
		  "velocity": 0.6692913385826772
		},
		{
		  "duration": 0.1395833333333485,
		  "durationTicks": 134,
		  "midi": 59,
		  "name": "B3",
		  "ticks": 134134,
		  "time": 139.72291666666666,
		  "velocity": 0.4409448818897638
		},
		{
		  "duration": 0.1395833333333485,
		  "durationTicks": 134,
		  "midi": 52,
		  "name": "E3",
		  "ticks": 134134,
		  "time": 139.72291666666666,
		  "velocity": 0.47244094488188976
		},
		{
		  "duration": 0.1395833333333485,
		  "durationTicks": 134,
		  "midi": 47,
		  "name": "B2",
		  "ticks": 134134,
		  "time": 139.72291666666666,
		  "velocity": 0.3700787401574803
		},
		{
		  "duration": 0.23229166666666856,
		  "durationTicks": 223,
		  "midi": 59,
		  "name": "B3",
		  "ticks": 134268,
		  "time": 139.8625,
		  "velocity": 0.33070866141732286
		},
		{
		  "duration": 0.19687500000000568,
		  "durationTicks": 189,
		  "midi": 47,
		  "name": "B2",
		  "ticks": 134279,
		  "time": 139.87395833333332,
		  "velocity": 0.5748031496062992
		},
		{
		  "duration": 0.1395833333333485,
		  "durationTicks": 134,
		  "midi": 43,
		  "name": "G2",
		  "ticks": 134312,
		  "time": 139.90833333333333,
		  "velocity": 0.41732283464566927
		},
		{
		  "duration": 0.1395833333333485,
		  "durationTicks": 134,
		  "midi": 76,
		  "name": "E5",
		  "ticks": 134357,
		  "time": 139.95520833333333,
		  "velocity": 0.5826771653543307
		},
		{
		  "duration": 0.1510416666666572,
		  "durationTicks": 145,
		  "midi": 39,
		  "name": "D#2",
		  "ticks": 134480,
		  "time": 140.08333333333334,
		  "velocity": 0.31496062992125984
		},
		{
		  "duration": 0.22083333333333144,
		  "durationTicks": 212,
		  "midi": 76,
		  "name": "E5",
		  "ticks": 134491,
		  "time": 140.09479166666668,
		  "velocity": 0.6377952755905512
		},
		{
		  "duration": 0.17395833333333144,
		  "durationTicks": 167,
		  "midi": 71,
		  "name": "B4",
		  "ticks": 134491,
		  "time": 140.09479166666668,
		  "velocity": 0.4409448818897638
		},
		{
		  "duration": 0.1510416666666572,
		  "durationTicks": 145,
		  "midi": 59,
		  "name": "B3",
		  "ticks": 134491,
		  "time": 140.09479166666668,
		  "velocity": 0.4645669291338583
		},
		{
		  "duration": 0.17395833333333144,
		  "durationTicks": 167,
		  "midi": 35,
		  "name": "B1",
		  "ticks": 134691,
		  "time": 140.303125,
		  "velocity": 0.33858267716535434
		},
		{
		  "duration": 0.24374999999997726,
		  "durationTicks": 234,
		  "midi": 76,
		  "name": "E5",
		  "ticks": 134703,
		  "time": 140.315625,
		  "velocity": 0.5984251968503937
		},
		{
		  "duration": 0.1395833333333485,
		  "durationTicks": 134,
		  "midi": 43,
		  "name": "G2",
		  "ticks": 134781,
		  "time": 140.396875,
		  "velocity": 0.41732283464566927
		},
		{
		  "duration": 0.3479166666666629,
		  "durationTicks": 334,
		  "midi": 43,
		  "name": "G2",
		  "ticks": 134925,
		  "time": 140.546875,
		  "velocity": 0.3779527559055118
		},
		{
		  "duration": 0.24375000000000568,
		  "durationTicks": 234,
		  "midi": 76,
		  "name": "E5",
		  "ticks": 134937,
		  "time": 140.559375,
		  "velocity": 0.47244094488188976
		},
		{
		  "duration": 0.16249999999999432,
		  "durationTicks": 156,
		  "midi": 31,
		  "name": "G1",
		  "ticks": 135048,
		  "time": 140.675,
		  "velocity": 0.33858267716535434
		},
		{
		  "duration": 0.16249999999999432,
		  "durationTicks": 156,
		  "midi": 76,
		  "name": "E5",
		  "ticks": 135171,
		  "time": 140.803125,
		  "velocity": 0.5748031496062992
		},
		{
		  "duration": 0.16249999999999432,
		  "durationTicks": 156,
		  "midi": 71,
		  "name": "B4",
		  "ticks": 135171,
		  "time": 140.803125,
		  "velocity": 0.5196850393700787
		},
		{
		  "duration": 0.1510416666666572,
		  "durationTicks": 145,
		  "midi": 79,
		  "name": "G5",
		  "ticks": 135204,
		  "time": 140.8375,
		  "velocity": 0.3779527559055118
		},
		{
		  "duration": 0.21041666666664582,
		  "durationTicks": 202,
		  "midi": 31,
		  "name": "G1",
		  "ticks": 135215,
		  "time": 140.84895833333334,
		  "velocity": 0.5118110236220472
		},
		{
		  "duration": 0.13958333333332007,
		  "durationTicks": 134,
		  "midi": 43,
		  "name": "G2",
		  "ticks": 135260,
		  "time": 140.89583333333334,
		  "velocity": 0.5039370078740157
		},
		{
		  "duration": 0.15104166666668561,
		  "durationTicks": 145,
		  "midi": 28,
		  "name": "E1",
		  "ticks": 135595,
		  "time": 141.24479166666666,
		  "velocity": 0.3937007874015748
		},
		{
		  "duration": 0.13958333333332007,
		  "durationTicks": 134,
		  "midi": 81,
		  "name": "A5",
		  "ticks": 135618,
		  "time": 141.26875,
		  "velocity": 0.4094488188976378
		},
		{
		  "duration": 0.1395833333333485,
		  "durationTicks": 134,
		  "midi": 40,
		  "name": "E2",
		  "ticks": 135629,
		  "time": 141.28020833333332,
		  "velocity": 0.48031496062992124
		},
		{
		  "duration": 0.19687499999997726,
		  "durationTicks": 189,
		  "midi": 28,
		  "name": "E1",
		  "ticks": 135751,
		  "time": 141.40729166666668,
		  "velocity": 0.33858267716535434
		},
		{
		  "duration": 0.32499999999998863,
		  "durationTicks": 312,
		  "midi": 40,
		  "name": "E2",
		  "ticks": 135763,
		  "time": 141.41979166666667,
		  "velocity": 0.3543307086614173
		},
		{
		  "duration": 0.17395833333333144,
		  "durationTicks": 167,
		  "midi": 40,
		  "name": "E2",
		  "ticks": 136075,
		  "time": 141.74479166666666,
		  "velocity": 0.4409448818897638
		},
		{
		  "duration": 0.1510416666666572,
		  "durationTicks": 145,
		  "midi": 64,
		  "name": "E4",
		  "ticks": 136097,
		  "time": 141.76770833333333,
		  "velocity": 0.4645669291338583
		},
		{
		  "duration": 0.13958333333332007,
		  "durationTicks": 134,
		  "midi": 81,
		  "name": "A5",
		  "ticks": 136175,
		  "time": 141.84895833333334,
		  "velocity": 0.2755905511811024
		},
		{
		  "duration": 0.859375,
		  "durationTicks": 825,
		  "midi": 81,
		  "name": "A5",
		  "ticks": 136320,
		  "time": 142,
		  "velocity": 0.4094488188976378
		},
		{
		  "duration": 0.1395833333333485,
		  "durationTicks": 134,
		  "midi": 40,
		  "name": "E2",
		  "ticks": 136420,
		  "time": 142.10416666666666,
		  "velocity": 0.47244094488188976
		},
		{
		  "duration": 0.13958333333332007,
		  "durationTicks": 134,
		  "midi": 71,
		  "name": "B4",
		  "ticks": 136443,
		  "time": 142.128125,
		  "velocity": 0.4566929133858268
		},
		{
		  "duration": 0.22083333333333144,
		  "durationTicks": 212,
		  "midi": 64,
		  "name": "E4",
		  "ticks": 136443,
		  "time": 142.128125,
		  "velocity": 0.4330708661417323
		},
		{
		  "duration": 0.27812499999998863,
		  "durationTicks": 267,
		  "midi": 59,
		  "name": "B3",
		  "ticks": 136443,
		  "time": 142.128125,
		  "velocity": 0.3779527559055118
		},
		{
		  "duration": 0.16249999999999432,
		  "durationTicks": 156,
		  "midi": 28,
		  "name": "E1",
		  "ticks": 136532,
		  "time": 142.22083333333333,
		  "velocity": 0.4330708661417323
		},
		{
		  "duration": 0.19687500000000568,
		  "durationTicks": 189,
		  "midi": 40,
		  "name": "E2",
		  "ticks": 136554,
		  "time": 142.24375,
		  "velocity": 0.5748031496062992
		},
		{
		  "duration": 0.13958333333332007,
		  "durationTicks": 134,
		  "midi": 71,
		  "name": "B4",
		  "ticks": 136788,
		  "time": 142.4875,
		  "velocity": 0.36220472440944884
		},
		{
		  "duration": 0.16249999999999432,
		  "durationTicks": 156,
		  "midi": 64,
		  "name": "E4",
		  "ticks": 136788,
		  "time": 142.4875,
		  "velocity": 0.4251968503937008
		},
		{
		  "duration": 0.1510416666666572,
		  "durationTicks": 145,
		  "midi": 52,
		  "name": "E3",
		  "ticks": 136788,
		  "time": 142.4875,
		  "velocity": 0.3700787401574803
		},
		{
		  "duration": 0.23229166666666856,
		  "durationTicks": 223,
		  "midi": 31,
		  "name": "G1",
		  "ticks": 136855,
		  "time": 142.55729166666666,
		  "velocity": 0.48031496062992124
		},
		{
		  "duration": 0.3135416666666515,
		  "durationTicks": 301,
		  "midi": 43,
		  "name": "G2",
		  "ticks": 137011,
		  "time": 142.71979166666668,
		  "velocity": 0.33858267716535434
		},
		{
		  "duration": 0.3843750000000057,
		  "durationTicks": 369,
		  "midi": 31,
		  "name": "G1",
		  "ticks": 137089,
		  "time": 142.80104166666666,
		  "velocity": 0.41732283464566927
		},
		{
		  "duration": 0.16249999999999432,
		  "durationTicks": 156,
		  "midi": 59,
		  "name": "B3",
		  "ticks": 137145,
		  "time": 142.859375,
		  "velocity": 0.47244094488188976
		},
		{
		  "duration": 0.22187500000001137,
		  "durationTicks": 213,
		  "midi": 40,
		  "name": "E2",
		  "ticks": 137145,
		  "time": 142.859375,
		  "velocity": 0.28346456692913385
		},
		{
		  "duration": 0.59375,
		  "durationTicks": 570,
		  "midi": 81,
		  "name": "A5",
		  "ticks": 137245,
		  "time": 142.96354166666666,
		  "velocity": 0.4251968503937008
		},
		{
		  "duration": 0.17500000000001137,
		  "durationTicks": 168,
		  "midi": 43,
		  "name": "G2",
		  "ticks": 137312,
		  "time": 143.03333333333333,
		  "velocity": 0.5826771653543307
		},
		{
		  "duration": 0.47604166666667425,
		  "durationTicks": 457,
		  "midi": 31,
		  "name": "G1",
		  "ticks": 137458,
		  "time": 143.18541666666667,
		  "velocity": 0.48031496062992124
		},
		{
		  "duration": 0.17395833333333144,
		  "durationTicks": 167,
		  "midi": 62,
		  "name": "D4",
		  "ticks": 137480,
		  "time": 143.20833333333334,
		  "velocity": 0.3937007874015748
		},
		{
		  "duration": 0.13958333333332007,
		  "durationTicks": 134,
		  "midi": 43,
		  "name": "G2",
		  "ticks": 137480,
		  "time": 143.20833333333334,
		  "velocity": 0.6377952755905512
		},
		{
		  "duration": 0.13958333333332007,
		  "durationTicks": 134,
		  "midi": 40,
		  "name": "E2",
		  "ticks": 137480,
		  "time": 143.20833333333334,
		  "velocity": 0.31496062992125984
		},
		{
		  "duration": 0.19687500000000568,
		  "durationTicks": 189,
		  "midi": 43,
		  "name": "G2",
		  "ticks": 137614,
		  "time": 143.34791666666666,
		  "velocity": 0.4645669291338583
		},
		{
		  "duration": 0.17395833333335986,
		  "durationTicks": 167,
		  "midi": 43,
		  "name": "G2",
		  "ticks": 137804,
		  "time": 143.54583333333332,
		  "velocity": 0.44881889763779526
		},
		{
		  "duration": 0.1395833333333485,
		  "durationTicks": 134,
		  "midi": 64,
		  "name": "E4",
		  "ticks": 137826,
		  "time": 143.56875,
		  "velocity": 0.47244094488188976
		},
		{
		  "duration": 0.49895833333332007,
		  "durationTicks": 479,
		  "midi": 31,
		  "name": "G1",
		  "ticks": 137915,
		  "time": 143.66145833333334,
		  "velocity": 0.4881889763779528
		},
		{
		  "duration": 0.20937500000002274,
		  "durationTicks": 201,
		  "midi": 83,
		  "name": "B5",
		  "ticks": 137937,
		  "time": 143.684375,
		  "velocity": 0.4645669291338583
		},
		{
		  "duration": 0.15104166666668561,
		  "durationTicks": 145,
		  "midi": 59,
		  "name": "B3",
		  "ticks": 137948,
		  "time": 143.69583333333333,
		  "velocity": 0.4330708661417323
		},
		{
		  "duration": 0.534374999999983,
		  "durationTicks": 513,
		  "midi": 43,
		  "name": "G2",
		  "ticks": 137971,
		  "time": 143.71979166666668,
		  "velocity": 0.5433070866141733
		},
		{
		  "duration": 0.22083333333333144,
		  "durationTicks": 212,
		  "midi": 81,
		  "name": "A5",
		  "ticks": 138160,
		  "time": 143.91666666666666,
		  "velocity": 0.4094488188976378
		},
		{
		  "duration": 0.19687500000000568,
		  "durationTicks": 189,
		  "midi": 62,
		  "name": "D4",
		  "ticks": 138171,
		  "time": 143.928125,
		  "velocity": 0.3858267716535433
		},
		{
		  "duration": 0.19687500000000568,
		  "durationTicks": 189,
		  "midi": 31,
		  "name": "G1",
		  "ticks": 138394,
		  "time": 144.16041666666666,
		  "velocity": 0.5275590551181102
		},
		{
		  "duration": 0.13958333333332007,
		  "durationTicks": 134,
		  "midi": 57,
		  "name": "A3",
		  "ticks": 138517,
		  "time": 144.28854166666667,
		  "velocity": 0.4251968503937008
		},
		{
		  "duration": 0.19687500000000568,
		  "durationTicks": 189,
		  "midi": 43,
		  "name": "G2",
		  "ticks": 138617,
		  "time": 144.39270833333333,
		  "velocity": 0.4330708661417323
		},
		{
		  "duration": 0.2552083333333428,
		  "durationTicks": 245,
		  "midi": 76,
		  "name": "E5",
		  "ticks": 138628,
		  "time": 144.40416666666667,
		  "velocity": 0.5039370078740157
		},
		{
		  "duration": 0.22083333333333144,
		  "durationTicks": 212,
		  "midi": 40,
		  "name": "E2",
		  "ticks": 138840,
		  "time": 144.625,
		  "velocity": 0.3779527559055118
		},
		{
		  "duration": 0.20937499999999432,
		  "durationTicks": 201,
		  "midi": 45,
		  "name": "A2",
		  "ticks": 138851,
		  "time": 144.63645833333334,
		  "velocity": 0.47244094488188976
		},
		{
		  "duration": 0.20937499999999432,
		  "durationTicks": 201,
		  "midi": 79,
		  "name": "G5",
		  "ticks": 138862,
		  "time": 144.64791666666667,
		  "velocity": 0.33858267716535434
		},
		{
		  "duration": 0.13958333333332007,
		  "durationTicks": 134,
		  "midi": 33,
		  "name": "A1",
		  "ticks": 138862,
		  "time": 144.64791666666667,
		  "velocity": 0.31496062992125984
		},
		{
		  "duration": 0.13958333333332007,
		  "durationTicks": 134,
		  "midi": 64,
		  "name": "E4",
		  "ticks": 138873,
		  "time": 144.659375,
		  "velocity": 0.48031496062992124
		},
		{
		  "duration": 0.3031249999999943,
		  "durationTicks": 291,
		  "midi": 57,
		  "name": "A3",
		  "ticks": 139085,
		  "time": 144.88020833333334,
		  "velocity": 0.33070866141732286
		},
		{
		  "duration": 0.12916666666666288,
		  "durationTicks": 124,
		  "midi": 69,
		  "name": "A4",
		  "ticks": 139108,
		  "time": 144.90416666666667,
		  "velocity": 0.3858267716535433
		},
		{
		  "duration": 0.12916666666666288,
		  "durationTicks": 124,
		  "midi": 62,
		  "name": "D4",
		  "ticks": 139108,
		  "time": 144.90416666666667,
		  "velocity": 0.47244094488188976
		},
		{
		  "duration": 0.19895833333333712,
		  "durationTicks": 191,
		  "midi": 76,
		  "name": "E5",
		  "ticks": 139208,
		  "time": 145.00833333333333,
		  "velocity": 0.4015748031496063
		},
		{
		  "duration": 0.17395833333333144,
		  "durationTicks": 167,
		  "midi": 45,
		  "name": "A2",
		  "ticks": 139298,
		  "time": 145.10208333333333,
		  "velocity": 0.4015748031496063
		},
		{
		  "duration": 0.18541666666664014,
		  "durationTicks": 178,
		  "midi": 33,
		  "name": "A1",
		  "ticks": 139321,
		  "time": 145.12604166666668,
		  "velocity": 0.47244094488188976
		},
		{
		  "duration": 0.3020833333333428,
		  "durationTicks": 290,
		  "midi": 45,
		  "name": "A2",
		  "ticks": 139465,
		  "time": 145.27604166666666,
		  "velocity": 0.4094488188976378
		},
		{
		  "duration": 0.19687500000000568,
		  "durationTicks": 189,
		  "midi": 76,
		  "name": "E5",
		  "ticks": 139566,
		  "time": 145.38125,
		  "velocity": 0.4566929133858268
		},
		{
		  "duration": 0.16249999999999432,
		  "durationTicks": 156,
		  "midi": 40,
		  "name": "E2",
		  "ticks": 139755,
		  "time": 145.578125,
		  "velocity": 0.33070866141732286
		},
		{
		  "duration": 0.19687500000000568,
		  "durationTicks": 189,
		  "midi": 33,
		  "name": "A1",
		  "ticks": 139755,
		  "time": 145.578125,
		  "velocity": 0.48031496062992124
		},
		{
		  "duration": 0.22083333333333144,
		  "durationTicks": 212,
		  "midi": 74,
		  "name": "D5",
		  "ticks": 139778,
		  "time": 145.60208333333333,
		  "velocity": 0.3543307086614173
		},
		{
		  "duration": 0.16249999999999432,
		  "durationTicks": 156,
		  "midi": 52,
		  "name": "E3",
		  "ticks": 139778,
		  "time": 145.60208333333333,
		  "velocity": 0.4881889763779528
		},
		{
		  "duration": 0.2552083333333428,
		  "durationTicks": 245,
		  "midi": 45,
		  "name": "A2",
		  "ticks": 139778,
		  "time": 145.60208333333333,
		  "velocity": 0.2677165354330709
		},
		{
		  "duration": 0.15104166666668561,
		  "durationTicks": 145,
		  "midi": 76,
		  "name": "E5",
		  "ticks": 140123,
		  "time": 145.96145833333333,
		  "velocity": 0.2283464566929134
		},
		{
		  "duration": 0.37187500000001705,
		  "durationTicks": 357,
		  "midi": 64,
		  "name": "E4",
		  "ticks": 140123,
		  "time": 145.96145833333333,
		  "velocity": 0.33858267716535434
		},
		{
		  "duration": 0.1395833333333485,
		  "durationTicks": 134,
		  "midi": 59,
		  "name": "B3",
		  "ticks": 140123,
		  "time": 145.96145833333333,
		  "velocity": 0.3779527559055118
		},
		{
		  "duration": 0.19687500000000568,
		  "durationTicks": 189,
		  "midi": 52,
		  "name": "E3",
		  "ticks": 140123,
		  "time": 145.96145833333333,
		  "velocity": 0.4645669291338583
		},
		{
		  "duration": 0.20937499999999432,
		  "durationTicks": 201,
		  "midi": 74,
		  "name": "D5",
		  "ticks": 140246,
		  "time": 146.08958333333334,
		  "velocity": 0.5039370078740157
		},
		{
		  "duration": 0.1395833333333485,
		  "durationTicks": 134,
		  "midi": 45,
		  "name": "A2",
		  "ticks": 140357,
		  "time": 146.20520833333333,
		  "velocity": 0.47244094488188976
		},
		{
		  "duration": 0.29062499999997726,
		  "durationTicks": 279,
		  "midi": 76,
		  "name": "E5",
		  "ticks": 140480,
		  "time": 146.33333333333334,
		  "velocity": 0.4094488188976378
		},
		{
		  "duration": 0.18541666666666856,
		  "durationTicks": 178,
		  "midi": 64,
		  "name": "E4",
		  "ticks": 140480,
		  "time": 146.33333333333334,
		  "velocity": 0.36220472440944884
		},
		{
		  "duration": 0.1510416666666572,
		  "durationTicks": 145,
		  "midi": 52,
		  "name": "E3",
		  "ticks": 140480,
		  "time": 146.33333333333334,
		  "velocity": 0.41732283464566927
		},
		{
		  "duration": 0.13958333333332007,
		  "durationTicks": 134,
		  "midi": 71,
		  "name": "B4",
		  "ticks": 140491,
		  "time": 146.34479166666668,
		  "velocity": 0.4645669291338583
		},
		{
		  "duration": 0.13958333333332007,
		  "durationTicks": 134,
		  "midi": 79,
		  "name": "G5",
		  "ticks": 140703,
		  "time": 146.565625,
		  "velocity": 0.4409448818897638
		},
		{
		  "duration": 0.22083333333333144,
		  "durationTicks": 212,
		  "midi": 64,
		  "name": "E4",
		  "ticks": 140703,
		  "time": 146.565625,
		  "velocity": 0.3464566929133858
		},
		{
		  "duration": 0.37187499999998863,
		  "durationTicks": 357,
		  "midi": 45,
		  "name": "A2",
		  "ticks": 140703,
		  "time": 146.565625,
		  "velocity": 0.44881889763779526
		},
		{
		  "duration": 0.19687500000000568,
		  "durationTicks": 189,
		  "midi": 35,
		  "name": "B1",
		  "ticks": 140725,
		  "time": 146.58854166666666,
		  "velocity": 0.25196850393700787
		},
		{
		  "duration": 0.16249999999999432,
		  "durationTicks": 156,
		  "midi": 52,
		  "name": "E3",
		  "ticks": 140814,
		  "time": 146.68125,
		  "velocity": 0.4566929133858268
		},
		{
		  "duration": 0.1875,
		  "durationTicks": 180,
		  "midi": 79,
		  "name": "G5",
		  "ticks": 140948,
		  "time": 146.82083333333333,
		  "velocity": 0.4566929133858268
		},
		{
		  "duration": 0.24375000000000568,
		  "durationTicks": 234,
		  "midi": 36,
		  "name": "C2",
		  "ticks": 141139,
		  "time": 147.01979166666666,
		  "velocity": 0.49606299212598426
		},
		{
		  "duration": 0.1395833333333485,
		  "durationTicks": 134,
		  "midi": 64,
		  "name": "E4",
		  "ticks": 141139,
		  "time": 147.01979166666666,
		  "velocity": 0.4566929133858268
		},
		{
		  "duration": 0.20937499999999432,
		  "durationTicks": 201,
		  "midi": 78,
		  "name": "F#5",
		  "ticks": 141161,
		  "time": 147.04270833333334,
		  "velocity": 0.3937007874015748
		},
		{
		  "duration": 0.13958333333332007,
		  "durationTicks": 134,
		  "midi": 59,
		  "name": "B3",
		  "ticks": 141161,
		  "time": 147.04270833333334,
		  "velocity": 0.4330708661417323
		},
		{
		  "duration": 0.13958333333332007,
		  "durationTicks": 134,
		  "midi": 52,
		  "name": "E3",
		  "ticks": 141161,
		  "time": 147.04270833333334,
		  "velocity": 0.5039370078740157
		},
		{
		  "duration": 0.19687500000000568,
		  "durationTicks": 189,
		  "midi": 48,
		  "name": "C3",
		  "ticks": 141161,
		  "time": 147.04270833333334,
		  "velocity": 0.36220472440944884
		},
		{
		  "duration": 0.453125,
		  "durationTicks": 435,
		  "midi": 64,
		  "name": "E4",
		  "ticks": 141506,
		  "time": 147.40208333333334,
		  "velocity": 0.3937007874015748
		},
		{
		  "duration": 0.13958333333332007,
		  "durationTicks": 134,
		  "midi": 52,
		  "name": "E3",
		  "ticks": 141506,
		  "time": 147.40208333333334,
		  "velocity": 0.5354330708661418
		},
		{
		  "duration": 0.22083333333333144,
		  "durationTicks": 212,
		  "midi": 55,
		  "name": "G3",
		  "ticks": 141607,
		  "time": 147.50729166666667,
		  "velocity": 0.47244094488188976
		},
		{
		  "duration": 0.2552083333333144,
		  "durationTicks": 245,
		  "midi": 36,
		  "name": "C2",
		  "ticks": 141607,
		  "time": 147.50729166666667,
		  "velocity": 0.5433070866141733
		},
		{
		  "duration": 0.22083333333333144,
		  "durationTicks": 212,
		  "midi": 48,
		  "name": "C3",
		  "ticks": 141618,
		  "time": 147.51875,
		  "velocity": 0.4566929133858268
		},
		{
		  "duration": 0.5572916666666856,
		  "durationTicks": 535,
		  "midi": 74,
		  "name": "D5",
		  "ticks": 141629,
		  "time": 147.53020833333332,
		  "velocity": 0.4015748031496063
		},
		{
		  "duration": 0.17395833333333144,
		  "durationTicks": 167,
		  "midi": 40,
		  "name": "E2",
		  "ticks": 141852,
		  "time": 147.7625,
		  "velocity": 0.3700787401574803
		},
		{
		  "duration": 0.15104166666668561,
		  "durationTicks": 145,
		  "midi": 52,
		  "name": "E3",
		  "ticks": 141863,
		  "time": 147.77395833333333,
		  "velocity": 0.49606299212598426
		},
		{
		  "duration": 0.1395833333333485,
		  "durationTicks": 134,
		  "midi": 64,
		  "name": "E4",
		  "ticks": 142075,
		  "time": 147.99479166666666,
		  "velocity": 0.25984251968503935
		},
		{
		  "duration": 0.4416666666666629,
		  "durationTicks": 424,
		  "midi": 48,
		  "name": "C3",
		  "ticks": 142075,
		  "time": 147.99479166666666,
		  "velocity": 0.3779527559055118
		},
		{
		  "duration": 0.1395833333333485,
		  "durationTicks": 134,
		  "midi": 64,
		  "name": "E4",
		  "ticks": 142208,
		  "time": 148.13333333333333,
		  "velocity": 0.4330708661417323
		},
		{
		  "duration": 0.2906250000000057,
		  "durationTicks": 279,
		  "midi": 76,
		  "name": "E5",
		  "ticks": 142309,
		  "time": 148.23854166666666,
		  "velocity": 0.44881889763779526
		},
		{
		  "duration": 0.17395833333333144,
		  "durationTicks": 167,
		  "midi": 43,
		  "name": "G2",
		  "ticks": 142521,
		  "time": 148.459375,
		  "velocity": 0.4251968503937008
		},
		{
		  "duration": 0.1510416666666572,
		  "durationTicks": 145,
		  "midi": 64,
		  "name": "E4",
		  "ticks": 142554,
		  "time": 148.49375,
		  "velocity": 0.4251968503937008
		},
		{
		  "duration": 0.1510416666666572,
		  "durationTicks": 145,
		  "midi": 40,
		  "name": "E2",
		  "ticks": 142554,
		  "time": 148.49375,
		  "velocity": 0.3700787401574803
		},
		{
		  "duration": 0.16249999999999432,
		  "durationTicks": 156,
		  "midi": 31,
		  "name": "G1",
		  "ticks": 142554,
		  "time": 148.49375,
		  "velocity": 0.4094488188976378
		},
		{
		  "duration": 0.33749999999997726,
		  "durationTicks": 324,
		  "midi": 81,
		  "name": "A5",
		  "ticks": 142788,
		  "time": 148.7375,
		  "velocity": 0.36220472440944884
		},
		{
		  "duration": 0.13958333333332007,
		  "durationTicks": 134,
		  "midi": 69,
		  "name": "A4",
		  "ticks": 142788,
		  "time": 148.7375,
		  "velocity": 0.4409448818897638
		},
		{
		  "duration": 0.15104166666668561,
		  "durationTicks": 145,
		  "midi": 40,
		  "name": "E2",
		  "ticks": 142844,
		  "time": 148.79583333333332,
		  "velocity": 0.44881889763779526
		},
		{
		  "duration": 0.1875,
		  "durationTicks": 180,
		  "midi": 28,
		  "name": "E1",
		  "ticks": 142978,
		  "time": 148.93541666666667,
		  "velocity": 0.3858267716535433
		},
		{
		  "duration": 0.12916666666666288,
		  "durationTicks": 124,
		  "midi": 40,
		  "name": "E2",
		  "ticks": 143000,
		  "time": 148.95833333333334,
		  "velocity": 0.4881889763779528
		},
		{
		  "duration": 0.1989583333333087,
		  "durationTicks": 191,
		  "midi": 59,
		  "name": "B3",
		  "ticks": 143011,
		  "time": 148.96979166666668,
		  "velocity": 0.33858267716535434
		},
		{
		  "duration": 0.13958333333332007,
		  "durationTicks": 134,
		  "midi": 76,
		  "name": "E5",
		  "ticks": 143090,
		  "time": 149.05208333333334,
		  "velocity": 0.5354330708661418
		},
		{
		  "duration": 0.37187499999998863,
		  "durationTicks": 357,
		  "midi": 40,
		  "name": "E2",
		  "ticks": 143124,
		  "time": 149.0875,
		  "velocity": 0.3700787401574803
		},
		{
		  "duration": 0.48750000000001137,
		  "durationTicks": 468,
		  "midi": 81,
		  "name": "A5",
		  "ticks": 143224,
		  "time": 149.19166666666666,
		  "velocity": 0.48031496062992124
		},
		{
		  "duration": 0.27812499999998863,
		  "durationTicks": 267,
		  "midi": 28,
		  "name": "E1",
		  "ticks": 143280,
		  "time": 149.25,
		  "velocity": 0.3543307086614173
		},
		{
		  "duration": 0.3479166666666629,
		  "durationTicks": 334,
		  "midi": 76,
		  "name": "E5",
		  "ticks": 143480,
		  "time": 149.45833333333334,
		  "velocity": 0.47244094488188976
		},
		{
		  "duration": 0.16249999999999432,
		  "durationTicks": 156,
		  "midi": 71,
		  "name": "B4",
		  "ticks": 143480,
		  "time": 149.45833333333334,
		  "velocity": 0.4645669291338583
		},
		{
		  "duration": 0.16249999999999432,
		  "durationTicks": 156,
		  "midi": 59,
		  "name": "B3",
		  "ticks": 143480,
		  "time": 149.45833333333334,
		  "velocity": 0.3937007874015748
		},
		{
		  "duration": 0.2552083333333144,
		  "durationTicks": 245,
		  "midi": 40,
		  "name": "E2",
		  "ticks": 143480,
		  "time": 149.45833333333334,
		  "velocity": 0.4409448818897638
		},
		{
		  "duration": 0.24375000000000568,
		  "durationTicks": 234,
		  "midi": 81,
		  "name": "A5",
		  "ticks": 143692,
		  "time": 149.67916666666667,
		  "velocity": 0.4015748031496063
		},
		{
		  "duration": 0.20937499999999432,
		  "durationTicks": 201,
		  "midi": 40,
		  "name": "E2",
		  "ticks": 143726,
		  "time": 149.71458333333334,
		  "velocity": 0.48031496062992124
		},
		{
		  "duration": 0.17395833333333144,
		  "durationTicks": 167,
		  "midi": 76,
		  "name": "E5",
		  "ticks": 143815,
		  "time": 149.80729166666666,
		  "velocity": 0.6220472440944882
		},
		{
		  "duration": 0.1395833333333485,
		  "durationTicks": 134,
		  "midi": 71,
		  "name": "B4",
		  "ticks": 143815,
		  "time": 149.80729166666666,
		  "velocity": 0.4645669291338583
		},
		{
		  "duration": 0.2906250000000057,
		  "durationTicks": 279,
		  "midi": 59,
		  "name": "B3",
		  "ticks": 143815,
		  "time": 149.80729166666666,
		  "velocity": 0.3700787401574803
		},
		{
		  "duration": 0.17395833333333144,
		  "durationTicks": 167,
		  "midi": 28,
		  "name": "E1",
		  "ticks": 143904,
		  "time": 149.9,
		  "velocity": 0.4251968503937008
		},
		{
		  "duration": 0.22083333333333144,
		  "durationTicks": 212,
		  "midi": 81,
		  "name": "A5",
		  "ticks": 143926,
		  "time": 149.92291666666668,
		  "velocity": 0.5748031496062992
		},
		{
		  "duration": 0.18541666666664014,
		  "durationTicks": 178,
		  "midi": 40,
		  "name": "E2",
		  "ticks": 143926,
		  "time": 149.92291666666668,
		  "velocity": 0.5748031496062992
		},
		{
		  "duration": 0.3479166666666629,
		  "durationTicks": 334,
		  "midi": 76,
		  "name": "E5",
		  "ticks": 144171,
		  "time": 150.178125,
		  "velocity": 0.3937007874015748
		},
		{
		  "duration": 0.16249999999999432,
		  "durationTicks": 156,
		  "midi": 59,
		  "name": "B3",
		  "ticks": 144171,
		  "time": 150.178125,
		  "velocity": 0.4094488188976378
		},
		{
		  "duration": 0.19687500000000568,
		  "durationTicks": 189,
		  "midi": 52,
		  "name": "E3",
		  "ticks": 144171,
		  "time": 150.178125,
		  "velocity": 0.3858267716535433
		},
		{
		  "duration": 0.1510416666666572,
		  "durationTicks": 145,
		  "midi": 40,
		  "name": "E2",
		  "ticks": 144350,
		  "time": 150.36458333333334,
		  "velocity": 0.36220472440944884
		},
		{
		  "duration": 0.453125,
		  "durationTicks": 435,
		  "midi": 81,
		  "name": "A5",
		  "ticks": 144383,
		  "time": 150.39895833333333,
		  "velocity": 0.48031496062992124
		},
		{
		  "duration": 0.18541666666666856,
		  "durationTicks": 178,
		  "midi": 31,
		  "name": "G1",
		  "ticks": 144417,
		  "time": 150.434375,
		  "velocity": 0.5275590551181102
		},
		{
		  "duration": 0.40625,
		  "durationTicks": 390,
		  "midi": 43,
		  "name": "G2",
		  "ticks": 144483,
		  "time": 150.503125,
		  "velocity": 0.3937007874015748
		},
		{
		  "duration": 0.13958333333332007,
		  "durationTicks": 134,
		  "midi": 76,
		  "name": "E5",
		  "ticks": 144506,
		  "time": 150.52708333333334,
		  "velocity": 0.5905511811023622
		},
		{
		  "duration": 0.16249999999999432,
		  "durationTicks": 156,
		  "midi": 59,
		  "name": "B3",
		  "ticks": 144506,
		  "time": 150.52708333333334,
		  "velocity": 0.3937007874015748
		},
		{
		  "duration": 0.4885416666666629,
		  "durationTicks": 469,
		  "midi": 40,
		  "name": "E2",
		  "ticks": 144506,
		  "time": 150.52708333333334,
		  "velocity": 0.3543307086614173
		},
		{
		  "duration": 0.19895833333333712,
		  "durationTicks": 191,
		  "midi": 81,
		  "name": "A5",
		  "ticks": 144851,
		  "time": 150.88645833333334,
		  "velocity": 0.3228346456692913
		},
		{
		  "duration": 0.140625,
		  "durationTicks": 135,
		  "midi": 69,
		  "name": "A4",
		  "ticks": 144851,
		  "time": 150.88645833333334,
		  "velocity": 0.5748031496062992
		},
		{
		  "duration": 0.19895833333333712,
		  "durationTicks": 191,
		  "midi": 62,
		  "name": "D4",
		  "ticks": 144851,
		  "time": 150.88645833333334,
		  "velocity": 0.4645669291338583
		},
		{
		  "duration": 0.12916666666666288,
		  "durationTicks": 124,
		  "midi": 74,
		  "name": "D5",
		  "ticks": 144862,
		  "time": 150.89791666666667,
		  "velocity": 0.5196850393700787
		},
		{
		  "duration": 0.12916666666666288,
		  "durationTicks": 124,
		  "midi": 43,
		  "name": "G2",
		  "ticks": 144874,
		  "time": 150.91041666666666,
		  "velocity": 0.4094488188976378
		},
		{
		  "duration": 0.12916666666666288,
		  "durationTicks": 124,
		  "midi": 31,
		  "name": "G1",
		  "ticks": 144874,
		  "time": 150.91041666666666,
		  "velocity": 0.4645669291338583
		},
		{
		  "duration": 0.36041666666667993,
		  "durationTicks": 346,
		  "midi": 43,
		  "name": "G2",
		  "ticks": 145064,
		  "time": 151.10833333333332,
		  "velocity": 0.4251968503937008
		},
		{
		  "duration": 0.1395833333333485,
		  "durationTicks": 134,
		  "midi": 74,
		  "name": "D5",
		  "ticks": 145187,
		  "time": 151.23645833333333,
		  "velocity": 0.5354330708661418
		},
		{
		  "duration": 0.22083333333333144,
		  "durationTicks": 212,
		  "midi": 83,
		  "name": "B5",
		  "ticks": 145309,
		  "time": 151.36354166666666,
		  "velocity": 0.4645669291338583
		},
		{
		  "duration": 0.1510416666666572,
		  "durationTicks": 145,
		  "midi": 59,
		  "name": "B3",
		  "ticks": 145321,
		  "time": 151.37604166666668,
		  "velocity": 0.4409448818897638
		},
		{
		  "duration": 0.18541666666664014,
		  "durationTicks": 178,
		  "midi": 55,
		  "name": "G3",
		  "ticks": 145321,
		  "time": 151.37604166666668,
		  "velocity": 0.3779527559055118
		},
		{
		  "duration": 0.20937500000002274,
		  "durationTicks": 201,
		  "midi": 31,
		  "name": "G1",
		  "ticks": 145332,
		  "time": 151.3875,
		  "velocity": 0.5196850393700787
		},
		{
		  "duration": 0.36041666666667993,
		  "durationTicks": 346,
		  "midi": 43,
		  "name": "G2",
		  "ticks": 145410,
		  "time": 151.46875,
		  "velocity": 0.5039370078740157
		},
		{
		  "duration": 0.1510416666666572,
		  "durationTicks": 145,
		  "midi": 69,
		  "name": "A4",
		  "ticks": 145543,
		  "time": 151.60729166666667,
		  "velocity": 0.5511811023622047
		},
		{
		  "duration": 0.18541666666666856,
		  "durationTicks": 178,
		  "midi": 62,
		  "name": "D4",
		  "ticks": 145555,
		  "time": 151.61979166666666,
		  "velocity": 0.49606299212598426
		},
		{
		  "duration": 0.20937499999999432,
		  "durationTicks": 201,
		  "midi": 43,
		  "name": "G2",
		  "ticks": 145755,
		  "time": 151.828125,
		  "velocity": 0.4645669291338583
		},
		{
		  "duration": 0.17395833333333144,
		  "durationTicks": 167,
		  "midi": 31,
		  "name": "G1",
		  "ticks": 145755,
		  "time": 151.828125,
		  "velocity": 0.4330708661417323
		},
		{
		  "duration": 0.13958333333332007,
		  "durationTicks": 134,
		  "midi": 40,
		  "name": "E2",
		  "ticks": 145811,
		  "time": 151.88645833333334,
		  "velocity": 0.29133858267716534
		},
		{
		  "duration": 0.13958333333332007,
		  "durationTicks": 134,
		  "midi": 57,
		  "name": "A3",
		  "ticks": 145878,
		  "time": 151.95625,
		  "velocity": 0.3228346456692913
		},
		{
		  "duration": 0.23229166666666856,
		  "durationTicks": 223,
		  "midi": 43,
		  "name": "G2",
		  "ticks": 145978,
		  "time": 152.06041666666667,
		  "velocity": 0.3700787401574803
		},
		{
		  "duration": 0.2666666666666515,
		  "durationTicks": 256,
		  "midi": 76,
		  "name": "E5",
		  "ticks": 145989,
		  "time": 152.071875,
		  "velocity": 0.47244094488188976
		},
		{
		  "duration": 0.19687500000000568,
		  "durationTicks": 189,
		  "midi": 45,
		  "name": "A2",
		  "ticks": 146212,
		  "time": 152.30416666666667,
		  "velocity": 0.3937007874015748
		},
		{
		  "duration": 0.19687499999997726,
		  "durationTicks": 189,
		  "midi": 40,
		  "name": "E2",
		  "ticks": 146223,
		  "time": 152.315625,
		  "velocity": 0.4251968503937008
		},
		{
		  "duration": 0.18541666666666856,
		  "durationTicks": 178,
		  "midi": 33,
		  "name": "A1",
		  "ticks": 146223,
		  "time": 152.315625,
		  "velocity": 0.3464566929133858
		},
		{
		  "duration": 0.2552083333333428,
		  "durationTicks": 245,
		  "midi": 74,
		  "name": "D5",
		  "ticks": 146234,
		  "time": 152.32708333333332,
		  "velocity": 0.3779527559055118
		},
		{
		  "duration": 0.13958333333332007,
		  "durationTicks": 134,
		  "midi": 79,
		  "name": "G5",
		  "ticks": 146313,
		  "time": 152.409375,
		  "velocity": 0.41732283464566927
		},
		{
		  "duration": 0.1510416666666572,
		  "durationTicks": 145,
		  "midi": 50,
		  "name": "D3",
		  "ticks": 146469,
		  "time": 152.571875,
		  "velocity": 0.4881889763779528
		},
		{
		  "duration": 0.3479166666666629,
		  "durationTicks": 334,
		  "midi": 74,
		  "name": "D5",
		  "ticks": 146480,
		  "time": 152.58333333333334,
		  "velocity": 0.3464566929133858
		},
		{
		  "duration": 0.3020833333333144,
		  "durationTicks": 290,
		  "midi": 57,
		  "name": "A3",
		  "ticks": 146491,
		  "time": 152.59479166666668,
		  "velocity": 0.4015748031496063
		},
		{
		  "duration": 0.27812500000001705,
		  "durationTicks": 267,
		  "midi": 45,
		  "name": "A2",
		  "ticks": 146502,
		  "time": 152.60625,
		  "velocity": 0.4094488188976378
		},
		{
		  "duration": 0.15104166666668561,
		  "durationTicks": 145,
		  "midi": 33,
		  "name": "A1",
		  "ticks": 146558,
		  "time": 152.66458333333333,
		  "velocity": 0.44881889763779526
		},
		{
		  "duration": 0.23229166666666856,
		  "durationTicks": 223,
		  "midi": 76,
		  "name": "E5",
		  "ticks": 146591,
		  "time": 152.69895833333334,
		  "velocity": 0.4566929133858268
		},
		{
		  "duration": 0.15208333333333712,
		  "durationTicks": 146,
		  "midi": 33,
		  "name": "A1",
		  "ticks": 146714,
		  "time": 152.82708333333332,
		  "velocity": 0.5748031496062992
		},
		{
		  "duration": 0.12916666666666288,
		  "durationTicks": 124,
		  "midi": 40,
		  "name": "E2",
		  "ticks": 146803,
		  "time": 152.91979166666667,
		  "velocity": 0.31496062992125984
		},
		{
		  "duration": 0.3499999999999943,
		  "durationTicks": 336,
		  "midi": 76,
		  "name": "E5",
		  "ticks": 146814,
		  "time": 152.93125,
		  "velocity": 0.5433070866141733
		},
		{
		  "duration": 0.32604166666666856,
		  "durationTicks": 313,
		  "midi": 45,
		  "name": "A2",
		  "ticks": 146825,
		  "time": 152.94270833333334,
		  "velocity": 0.3543307086614173
		},
		{
		  "duration": 0.24375000000000568,
		  "durationTicks": 234,
		  "midi": 33,
		  "name": "A1",
		  "ticks": 147127,
		  "time": 153.25729166666667,
		  "velocity": 0.5905511811023622
		},
		{
		  "duration": 0.23229166666666856,
		  "durationTicks": 223,
		  "midi": 45,
		  "name": "A2",
		  "ticks": 147139,
		  "time": 153.26979166666666,
		  "velocity": 0.41732283464566927
		},
		{
		  "duration": 0.36041666666667993,
		  "durationTicks": 346,
		  "midi": 76,
		  "name": "E5",
		  "ticks": 147150,
		  "time": 153.28125,
		  "velocity": 0.5511811023622047
		},
		{
		  "duration": 0.13958333333332007,
		  "durationTicks": 134,
		  "midi": 59,
		  "name": "B3",
		  "ticks": 147150,
		  "time": 153.28125,
		  "velocity": 0.4645669291338583
		},
		{
		  "duration": 0.13958333333332007,
		  "durationTicks": 134,
		  "midi": 52,
		  "name": "E3",
		  "ticks": 147150,
		  "time": 153.28125,
		  "velocity": 0.4015748031496063
		},
		{
		  "duration": 0.18541666666666856,
		  "durationTicks": 178,
		  "midi": 40,
		  "name": "E2",
		  "ticks": 147150,
		  "time": 153.28125,
		  "velocity": 0.4094488188976378
		},
		{
		  "duration": 0.22083333333333144,
		  "durationTicks": 212,
		  "midi": 74,
		  "name": "D5",
		  "ticks": 147161,
		  "time": 153.29270833333334,
		  "velocity": 0.3937007874015748
		},
		{
		  "duration": 0.24374999999997726,
		  "durationTicks": 234,
		  "midi": 45,
		  "name": "A2",
		  "ticks": 147361,
		  "time": 153.50104166666668,
		  "velocity": 0.4330708661417323
		},
		{
		  "duration": 0.16249999999999432,
		  "durationTicks": 156,
		  "midi": 76,
		  "name": "E5",
		  "ticks": 147495,
		  "time": 153.640625,
		  "velocity": 0.5905511811023622
		},
		{
		  "duration": 0.13958333333332007,
		  "durationTicks": 134,
		  "midi": 52,
		  "name": "E3",
		  "ticks": 147506,
		  "time": 153.65208333333334,
		  "velocity": 0.3464566929133858
		},
		{
		  "duration": 0.17395833333333144,
		  "durationTicks": 167,
		  "midi": 33,
		  "name": "A1",
		  "ticks": 147595,
		  "time": 153.74479166666666,
		  "velocity": 0.49606299212598426
		},
		{
		  "duration": 0.17395833333333144,
		  "durationTicks": 167,
		  "midi": 64,
		  "name": "E4",
		  "ticks": 147607,
		  "time": 153.75729166666667,
		  "velocity": 0.3228346456692913
		},
		{
		  "duration": 0.20937499999999432,
		  "durationTicks": 201,
		  "midi": 45,
		  "name": "A2",
		  "ticks": 147607,
		  "time": 153.75729166666667,
		  "velocity": 0.4330708661417323
		},
		{
		  "duration": 0.20937499999999432,
		  "durationTicks": 201,
		  "midi": 74,
		  "name": "D5",
		  "ticks": 147618,
		  "time": 153.76875,
		  "velocity": 0.5118110236220472
		},
		{
		  "duration": 0.24374999999997726,
		  "durationTicks": 234,
		  "midi": 76,
		  "name": "E5",
		  "ticks": 147841,
		  "time": 154.00104166666668,
		  "velocity": 0.5669291338582677
		},
		{
		  "duration": 0.13958333333332007,
		  "durationTicks": 134,
		  "midi": 71,
		  "name": "B4",
		  "ticks": 147841,
		  "time": 154.00104166666668,
		  "velocity": 0.4566929133858268
		},
		{
		  "duration": 0.19687499999997726,
		  "durationTicks": 189,
		  "midi": 64,
		  "name": "E4",
		  "ticks": 147841,
		  "time": 154.00104166666668,
		  "velocity": 0.2440944881889764
		},
		{
		  "duration": 0.19687500000000568,
		  "durationTicks": 189,
		  "midi": 57,
		  "name": "A3",
		  "ticks": 147974,
		  "time": 154.13958333333332,
		  "velocity": 0.33070866141732286
		},
		{
		  "duration": 0.2552083333333428,
		  "durationTicks": 245,
		  "midi": 76,
		  "name": "E5",
		  "ticks": 148075,
		  "time": 154.24479166666666,
		  "velocity": 0.4094488188976378
		},
		{
		  "duration": 0.17395833333333144,
		  "durationTicks": 167,
		  "midi": 79,
		  "name": "G5",
		  "ticks": 148331,
		  "time": 154.51145833333334,
		  "velocity": 0.4330708661417323
		},
		{
		  "duration": 0.1395833333333485,
		  "durationTicks": 134,
		  "midi": 48,
		  "name": "C3",
		  "ticks": 148409,
		  "time": 154.59270833333332,
		  "velocity": 0.3228346456692913
		},
		{
		  "duration": 0.20937499999999432,
		  "durationTicks": 201,
		  "midi": 36,
		  "name": "C2",
		  "ticks": 148521,
		  "time": 154.709375,
		  "velocity": 0.48031496062992124
		},
		{
		  "duration": 0.20937499999999432,
		  "durationTicks": 201,
		  "midi": 78,
		  "name": "F#5",
		  "ticks": 148543,
		  "time": 154.73229166666667,
		  "velocity": 0.3858267716535433
		},
		{
		  "duration": 0.16249999999999432,
		  "durationTicks": 156,
		  "midi": 59,
		  "name": "B3",
		  "ticks": 148543,
		  "time": 154.73229166666667,
		  "velocity": 0.5275590551181102
		},
		{
		  "duration": 0.32604166666666856,
		  "durationTicks": 313,
		  "midi": 76,
		  "name": "E5",
		  "ticks": 148554,
		  "time": 154.74375,
		  "velocity": 0.41732283464566927
		},
		{
		  "duration": 0.18541666666666856,
		  "durationTicks": 178,
		  "midi": 48,
		  "name": "C3",
		  "ticks": 148554,
		  "time": 154.74375,
		  "velocity": 0.4566929133858268
		},
		{
		  "duration": 0.13958333333332007,
		  "durationTicks": 134,
		  "midi": 52,
		  "name": "E3",
		  "ticks": 148856,
		  "time": 155.05833333333334,
		  "velocity": 0.4881889763779528
		},
		{
		  "duration": 0.1510416666666572,
		  "durationTicks": 145,
		  "midi": 76,
		  "name": "E5",
		  "ticks": 148867,
		  "time": 155.06979166666667,
		  "velocity": 0.5275590551181102
		},
		{
		  "duration": 0.6156250000000227,
		  "durationTicks": 591,
		  "midi": 48,
		  "name": "C3",
		  "ticks": 148990,
		  "time": 155.19791666666666,
		  "velocity": 0.4251968503937008
		},
		{
		  "duration": 0.18541666666666856,
		  "durationTicks": 178,
		  "midi": 78,
		  "name": "F#5",
		  "ticks": 149012,
		  "time": 155.22083333333333,
		  "velocity": 0.4881889763779528
		},
		{
		  "duration": 0.1510416666666572,
		  "durationTicks": 145,
		  "midi": 36,
		  "name": "C2",
		  "ticks": 149012,
		  "time": 155.22083333333333,
		  "velocity": 0.4566929133858268
		},
		{
		  "duration": 0.1510416666666572,
		  "durationTicks": 145,
		  "midi": 76,
		  "name": "E5",
		  "ticks": 149090,
		  "time": 155.30208333333334,
		  "velocity": 0.2125984251968504
		},
		{
		  "duration": 0.22083333333333144,
		  "durationTicks": 212,
		  "midi": 76,
		  "name": "E5",
		  "ticks": 149235,
		  "time": 155.453125,
		  "velocity": 0.4330708661417323
		},
		{
		  "duration": 0.15104166666668561,
		  "durationTicks": 145,
		  "midi": 36,
		  "name": "C2",
		  "ticks": 149436,
		  "time": 155.6625,
		  "velocity": 0.41732283464566927
		},
		{
		  "duration": 0.2552083333333428,
		  "durationTicks": 245,
		  "midi": 76,
		  "name": "E5",
		  "ticks": 149447,
		  "time": 155.67395833333333,
		  "velocity": 0.44881889763779526
		},
		{
		  "duration": 0.8125,
		  "durationTicks": 780,
		  "midi": 48,
		  "name": "C3",
		  "ticks": 149581,
		  "time": 155.81354166666668,
		  "velocity": 0.4094488188976378
		},
		{
		  "duration": 0.16249999999999432,
		  "durationTicks": 156,
		  "midi": 36,
		  "name": "C2",
		  "ticks": 149581,
		  "time": 155.81354166666668,
		  "velocity": 0.36220472440944884
		},
		{
		  "duration": 0.2552083333333428,
		  "durationTicks": 245,
		  "midi": 43,
		  "name": "G2",
		  "ticks": 149670,
		  "time": 155.90625,
		  "velocity": 0.3779527559055118
		},
		{
		  "duration": 0.24375000000000568,
		  "durationTicks": 234,
		  "midi": 76,
		  "name": "E5",
		  "ticks": 149692,
		  "time": 155.92916666666667,
		  "velocity": 0.48031496062992124
		},
		{
		  "duration": 0.6854166666666686,
		  "durationTicks": 658,
		  "midi": 31,
		  "name": "G1",
		  "ticks": 149781,
		  "time": 156.021875,
		  "velocity": 0.41732283464566927
		},
		{
		  "duration": 0.40625,
		  "durationTicks": 390,
		  "midi": 43,
		  "name": "G2",
		  "ticks": 149915,
		  "time": 156.16145833333334,
		  "velocity": 0.3543307086614173
		},
		{
		  "duration": 0.2666666666666515,
		  "durationTicks": 256,
		  "midi": 76,
		  "name": "E5",
		  "ticks": 149926,
		  "time": 156.17291666666668,
		  "velocity": 0.3858267716535433
		},
		{
		  "duration": 0.1395833333333485,
		  "durationTicks": 134,
		  "midi": 59,
		  "name": "B3",
		  "ticks": 149937,
		  "time": 156.184375,
		  "velocity": 0.4251968503937008
		},
		{
		  "duration": 0.3479166666666629,
		  "durationTicks": 334,
		  "midi": 40,
		  "name": "E2",
		  "ticks": 149948,
		  "time": 156.19583333333333,
		  "velocity": 0.48031496062992124
		},
		{
		  "duration": 0.24375000000000568,
		  "durationTicks": 234,
		  "midi": 76,
		  "name": "E5",
		  "ticks": 150182,
		  "time": 156.43958333333333,
		  "velocity": 0.5590551181102362
		},
		{
		  "duration": 0.24375000000000568,
		  "durationTicks": 234,
		  "midi": 76,
		  "name": "E5",
		  "ticks": 150417,
		  "time": 156.684375,
		  "velocity": 0.6220472440944882
		},
		{
		  "duration": 0.22187500000001137,
		  "durationTicks": 213,
		  "midi": 76,
		  "name": "E5",
		  "ticks": 150651,
		  "time": 156.928125,
		  "velocity": 0.6614173228346457
		},
		{
		  "duration": 0.32499999999998863,
		  "durationTicks": 312,
		  "midi": 38,
		  "name": "D2",
		  "ticks": 150663,
		  "time": 156.940625,
		  "velocity": 0.3543307086614173
		},
		{
		  "duration": 0.19687500000000568,
		  "durationTicks": 189,
		  "midi": 76,
		  "name": "E5",
		  "ticks": 150864,
		  "time": 157.15,
		  "velocity": 0.6850393700787402
		},
		{
		  "duration": 0.2552083333333144,
		  "durationTicks": 245,
		  "midi": 76,
		  "name": "E5",
		  "ticks": 151053,
		  "time": 157.346875,
		  "velocity": 0.7401574803149606
		},
		{
		  "duration": 0.23229166666666856,
		  "durationTicks": 223,
		  "midi": 76,
		  "name": "E5",
		  "ticks": 151298,
		  "time": 157.60208333333333,
		  "velocity": 0.7795275590551181
		},
		{
		  "duration": 0.24375000000000568,
		  "durationTicks": 234,
		  "midi": 76,
		  "name": "E5",
		  "ticks": 151521,
		  "time": 157.834375,
		  "velocity": 0.7795275590551181
		},
		{
		  "duration": 0.2906250000000057,
		  "durationTicks": 279,
		  "midi": 76,
		  "name": "E5",
		  "ticks": 151755,
		  "time": 158.078125,
		  "velocity": 0.7480314960629921
		},
		{
		  "duration": 0.23229166666666856,
		  "durationTicks": 223,
		  "midi": 76,
		  "name": "E5",
		  "ticks": 152034,
		  "time": 158.36875,
		  "velocity": 0.7322834645669292
		},
		{
		  "duration": 0.23229166666666856,
		  "durationTicks": 223,
		  "midi": 76,
		  "name": "E5",
		  "ticks": 152257,
		  "time": 158.60104166666667,
		  "velocity": 0.7165354330708661
		},
		{
		  "duration": 0.23333333333332007,
		  "durationTicks": 224,
		  "midi": 76,
		  "name": "E5",
		  "ticks": 152480,
		  "time": 158.83333333333334,
		  "velocity": 0.7244094488188977
		},
		{
		  "duration": 0.20937499999999432,
		  "durationTicks": 201,
		  "midi": 76,
		  "name": "E5",
		  "ticks": 152704,
		  "time": 159.06666666666666,
		  "velocity": 0.6614173228346457
		},
		{
		  "duration": 0.24375000000000568,
		  "durationTicks": 234,
		  "midi": 76,
		  "name": "E5",
		  "ticks": 152904,
		  "time": 159.275,
		  "velocity": 0.6535433070866141
		},
		{
		  "duration": 0.24375000000000568,
		  "durationTicks": 234,
		  "midi": 76,
		  "name": "E5",
		  "ticks": 153139,
		  "time": 159.51979166666666,
		  "velocity": 0.6692913385826772
		},
		{
		  "duration": 0.24375000000000568,
		  "durationTicks": 234,
		  "midi": 76,
		  "name": "E5",
		  "ticks": 153373,
		  "time": 159.76354166666667,
		  "velocity": 0.6692913385826772
		},
		{
		  "duration": 0.22083333333333144,
		  "durationTicks": 212,
		  "midi": 76,
		  "name": "E5",
		  "ticks": 153607,
		  "time": 160.00729166666667,
		  "velocity": 0.5748031496062992
		},
		{
		  "duration": 0.23229166666666856,
		  "durationTicks": 223,
		  "midi": 79,
		  "name": "G5",
		  "ticks": 153607,
		  "time": 160.00729166666667,
		  "velocity": 0.6141732283464567
		},
		{
		  "duration": 0.17395833333333144,
		  "durationTicks": 167,
		  "midi": 67,
		  "name": "G4",
		  "ticks": 153830,
		  "time": 160.23958333333334,
		  "velocity": 0.25984251968503935
		},
		{
		  "duration": 0.17395833333333144,
		  "durationTicks": 167,
		  "midi": 36,
		  "name": "C2",
		  "ticks": 153997,
		  "time": 160.41354166666667,
		  "velocity": 0.44881889763779526
		},
		{
		  "duration": 0.19687500000000568,
		  "durationTicks": 189,
		  "midi": 36,
		  "name": "C2",
		  "ticks": 154164,
		  "time": 160.5875,
		  "velocity": 0.4881889763779528
		},
		{
		  "duration": 0.140625,
		  "durationTicks": 135,
		  "midi": 48,
		  "name": "C3",
		  "ticks": 154387,
		  "time": 160.81979166666667,
		  "velocity": 0.4566929133858268
		},
		{
		  "duration": 0.23229166666666856,
		  "durationTicks": 223,
		  "midi": 36,
		  "name": "C2",
		  "ticks": 154511,
		  "time": 160.94895833333334,
		  "velocity": 0.29133858267716534
		},
		{
		  "duration": 0.18541666666666856,
		  "durationTicks": 178,
		  "midi": 48,
		  "name": "C3",
		  "ticks": 154533,
		  "time": 160.971875,
		  "velocity": 0.33070866141732286
		},
		{
		  "duration": 0.17395833333333144,
		  "durationTicks": 167,
		  "midi": 64,
		  "name": "E4",
		  "ticks": 154633,
		  "time": 161.07604166666667,
		  "velocity": 0.23622047244094488
		},
		{
		  "duration": 0.15104166666668561,
		  "durationTicks": 145,
		  "midi": 74,
		  "name": "D5",
		  "ticks": 154767,
		  "time": 161.215625,
		  "velocity": 0.3937007874015748
		},
		{
		  "duration": 0.16249999999999432,
		  "durationTicks": 156,
		  "midi": 48,
		  "name": "C3",
		  "ticks": 154856,
		  "time": 161.30833333333334,
		  "velocity": 0.4409448818897638
		},
		{
		  "duration": 0.20937500000002274,
		  "durationTicks": 201,
		  "midi": 76,
		  "name": "E5",
		  "ticks": 154990,
		  "time": 161.44791666666666,
		  "velocity": 0.3858267716535433
		},
		{
		  "duration": 0.20937500000002274,
		  "durationTicks": 201,
		  "midi": 36,
		  "name": "C2",
		  "ticks": 154990,
		  "time": 161.44791666666666,
		  "velocity": 0.4645669291338583
		},
		{
		  "duration": 0.20937499999999432,
		  "durationTicks": 201,
		  "midi": 48,
		  "name": "C3",
		  "ticks": 155447,
		  "time": 161.92395833333333,
		  "velocity": 0.30708661417322836
		},
		{
		  "duration": 0.19687500000000568,
		  "durationTicks": 189,
		  "midi": 69,
		  "name": "A4",
		  "ticks": 155670,
		  "time": 162.15625,
		  "velocity": 0.30708661417322836
		},
		{
		  "duration": 0.18541666666666856,
		  "durationTicks": 178,
		  "midi": 66,
		  "name": "F#4",
		  "ticks": 155904,
		  "time": 162.4,
		  "velocity": 0.33070866141732286
		},
		{
		  "duration": 0.453125,
		  "durationTicks": 435,
		  "midi": 38,
		  "name": "D2",
		  "ticks": 155904,
		  "time": 162.4,
		  "velocity": 0.4645669291338583
		},
		{
		  "duration": 0.13958333333332007,
		  "durationTicks": 134,
		  "midi": 50,
		  "name": "D3",
		  "ticks": 155915,
		  "time": 162.41145833333334,
		  "velocity": 0.3543307086614173
		},
		{
		  "duration": 0.18541666666664014,
		  "durationTicks": 178,
		  "midi": 78,
		  "name": "F#5",
		  "ticks": 155926,
		  "time": 162.42291666666668,
		  "velocity": 0.3700787401574803
		},
		{
		  "duration": 0.23333333333332007,
		  "durationTicks": 224,
		  "midi": 50,
		  "name": "D3",
		  "ticks": 156249,
		  "time": 162.759375,
		  "velocity": 0.3858267716535433
		},
		{
		  "duration": 0.18541666666666856,
		  "durationTicks": 178,
		  "midi": 38,
		  "name": "D2",
		  "ticks": 156384,
		  "time": 162.9,
		  "velocity": 0.3543307086614173
		},
		{
		  "duration": 0.3135416666666515,
		  "durationTicks": 301,
		  "midi": 50,
		  "name": "D3",
		  "ticks": 156485,
		  "time": 163.00520833333334,
		  "velocity": 0.3543307086614173
		},
		{
		  "duration": 0.23229166666666856,
		  "durationTicks": 223,
		  "midi": 74,
		  "name": "D5",
		  "ticks": 156585,
		  "time": 163.109375,
		  "velocity": 0.4251968503937008
		},
		{
		  "duration": 0.16249999999999432,
		  "durationTicks": 156,
		  "midi": 57,
		  "name": "A3",
		  "ticks": 156830,
		  "time": 163.36458333333334,
		  "velocity": 0.2755905511811024
		},
		{
		  "duration": 0.5458333333333201,
		  "durationTicks": 524,
		  "midi": 38,
		  "name": "D2",
		  "ticks": 156830,
		  "time": 163.36458333333334,
		  "velocity": 0.4566929133858268
		},
		{
		  "duration": 0.1510416666666572,
		  "durationTicks": 145,
		  "midi": 50,
		  "name": "D3",
		  "ticks": 157220,
		  "time": 163.77083333333334,
		  "velocity": 0.33070866141732286
		},
		{
		  "duration": 0.16250000000002274,
		  "durationTicks": 156,
		  "midi": 45,
		  "name": "A2",
		  "ticks": 157287,
		  "time": 163.840625,
		  "velocity": 0.3858267716535433
		},
		{
		  "duration": 0.18541666666666856,
		  "durationTicks": 178,
		  "midi": 79,
		  "name": "G5",
		  "ticks": 157298,
		  "time": 163.85208333333333,
		  "velocity": 0.3464566929133858
		},
		{
		  "duration": 0.2906250000000057,
		  "durationTicks": 279,
		  "midi": 38,
		  "name": "D2",
		  "ticks": 157354,
		  "time": 163.91041666666666,
		  "velocity": 0.49606299212598426
		},
		{
		  "duration": 0.18541666666666856,
		  "durationTicks": 178,
		  "midi": 71,
		  "name": "B4",
		  "ticks": 157521,
		  "time": 164.084375,
		  "velocity": 0.25984251968503935
		},
		{
		  "duration": 0.18541666666666856,
		  "durationTicks": 178,
		  "midi": 67,
		  "name": "G4",
		  "ticks": 157532,
		  "time": 164.09583333333333,
		  "velocity": 0.44881889763779526
		},
		{
		  "duration": 0.17395833333333144,
		  "durationTicks": 167,
		  "midi": 40,
		  "name": "E2",
		  "ticks": 157755,
		  "time": 164.328125,
		  "velocity": 0.47244094488188976
		},
		{
		  "duration": 0.16249999999999432,
		  "durationTicks": 156,
		  "midi": 28,
		  "name": "E1",
		  "ticks": 157789,
		  "time": 164.36354166666666,
		  "velocity": 0.4645669291338583
		},
		{
		  "duration": 0.16249999999999432,
		  "durationTicks": 156,
		  "midi": 76,
		  "name": "E5",
		  "ticks": 157989,
		  "time": 164.571875,
		  "velocity": 0.29133858267716534
		},
		{
		  "duration": 0.19895833333333712,
		  "durationTicks": 191,
		  "midi": 40,
		  "name": "E2",
		  "ticks": 158112,
		  "time": 164.7,
		  "velocity": 0.49606299212598426
		},
		{
		  "duration": 0.1989583333333087,
		  "durationTicks": 191,
		  "midi": 71,
		  "name": "B4",
		  "ticks": 158223,
		  "time": 164.815625,
		  "velocity": 0.29133858267716534
		},
		{
		  "duration": 0.1989583333333087,
		  "durationTicks": 191,
		  "midi": 28,
		  "name": "E1",
		  "ticks": 158223,
		  "time": 164.815625,
		  "velocity": 0.48031496062992124
		},
		{
		  "duration": 0.3020833333333428,
		  "durationTicks": 290,
		  "midi": 40,
		  "name": "E2",
		  "ticks": 158314,
		  "time": 164.91041666666666,
		  "velocity": 0.5275590551181102
		},
		{
		  "duration": 0.24375000000000568,
		  "durationTicks": 234,
		  "midi": 76,
		  "name": "E5",
		  "ticks": 158436,
		  "time": 165.0375,
		  "velocity": 0.3228346456692913
		},
		{
		  "duration": 0.16249999999999432,
		  "durationTicks": 156,
		  "midi": 74,
		  "name": "D5",
		  "ticks": 158448,
		  "time": 165.05,
		  "velocity": 0.4094488188976378
		},
		{
		  "duration": 0.1510416666666572,
		  "durationTicks": 145,
		  "midi": 52,
		  "name": "E3",
		  "ticks": 158448,
		  "time": 165.05,
		  "velocity": 0.3700787401574803
		},
		{
		  "duration": 0.1510416666666572,
		  "durationTicks": 145,
		  "midi": 52,
		  "name": "E3",
		  "ticks": 158604,
		  "time": 165.2125,
		  "velocity": 0.30708661417322836
		},
		{
		  "duration": 0.24375000000000568,
		  "durationTicks": 234,
		  "midi": 40,
		  "name": "E2",
		  "ticks": 158604,
		  "time": 165.2125,
		  "velocity": 0.4015748031496063
		},
		{
		  "duration": 0.18541666666666856,
		  "durationTicks": 178,
		  "midi": 76,
		  "name": "E5",
		  "ticks": 158670,
		  "time": 165.28125,
		  "velocity": 0.3779527559055118
		},
		{
		  "duration": 0.15104166666668561,
		  "durationTicks": 145,
		  "midi": 28,
		  "name": "E1",
		  "ticks": 158693,
		  "time": 165.30520833333333,
		  "velocity": 0.4566929133858268
		},
		{
		  "duration": 0.13958333333332007,
		  "durationTicks": 134,
		  "midi": 71,
		  "name": "B4",
		  "ticks": 158949,
		  "time": 165.571875,
		  "velocity": 0.4251968503937008
		},
		{
		  "duration": 0.20937499999999432,
		  "durationTicks": 201,
		  "midi": 52,
		  "name": "E3",
		  "ticks": 158960,
		  "time": 165.58333333333334,
		  "velocity": 0.4330708661417323
		},
		{
		  "duration": 0.24375000000000568,
		  "durationTicks": 234,
		  "midi": 28,
		  "name": "E1",
		  "ticks": 159105,
		  "time": 165.734375,
		  "velocity": 0.41732283464566927
		},
		{
		  "duration": 0.2906250000000057,
		  "durationTicks": 279,
		  "midi": 40,
		  "name": "E2",
		  "ticks": 159116,
		  "time": 165.74583333333334,
		  "velocity": 0.5118110236220472
		},
		{
		  "duration": 0.16249999999999432,
		  "durationTicks": 156,
		  "midi": 47,
		  "name": "B2",
		  "ticks": 159596,
		  "time": 166.24583333333334,
		  "velocity": 0.2204724409448819
		},
		{
		  "duration": 0.18541666666666856,
		  "durationTicks": 178,
		  "midi": 35,
		  "name": "B1",
		  "ticks": 159618,
		  "time": 166.26875,
		  "velocity": 0.5039370078740157
		},
		{
		  "duration": 0.13958333333332007,
		  "durationTicks": 134,
		  "midi": 71,
		  "name": "B4",
		  "ticks": 159885,
		  "time": 166.546875,
		  "velocity": 0.4330708661417323
		},
		{
		  "duration": 0.22187500000001137,
		  "durationTicks": 213,
		  "midi": 35,
		  "name": "B1",
		  "ticks": 160052,
		  "time": 166.72083333333333,
		  "velocity": 0.5354330708661418
		},
		{
		  "duration": 0.3031249999999943,
		  "durationTicks": 291,
		  "midi": 71,
		  "name": "B4",
		  "ticks": 160186,
		  "time": 166.86041666666668,
		  "velocity": 0.2992125984251969
		},
		{
		  "duration": 0.22083333333333144,
		  "durationTicks": 212,
		  "midi": 35,
		  "name": "B1",
		  "ticks": 160488,
		  "time": 167.175,
		  "velocity": 0.3228346456692913
		},
		{
		  "duration": 0.20937499999999432,
		  "durationTicks": 201,
		  "midi": 47,
		  "name": "B2",
		  "ticks": 160500,
		  "time": 167.1875,
		  "velocity": 0.3464566929133858
		},
		{
		  "duration": 0.20937499999999432,
		  "durationTicks": 201,
		  "midi": 71,
		  "name": "B4",
		  "ticks": 160511,
		  "time": 167.19895833333334,
		  "velocity": 0.3700787401574803
		},
		{
		  "duration": 0.16249999999999432,
		  "durationTicks": 156,
		  "midi": 66,
		  "name": "F#4",
		  "ticks": 160511,
		  "time": 167.19895833333334,
		  "velocity": 0.25984251968503935
		},
		{
		  "duration": 0.24375000000000568,
		  "durationTicks": 234,
		  "midi": 35,
		  "name": "B1",
		  "ticks": 160979,
		  "time": 167.68645833333332,
		  "velocity": 0.5196850393700787
		},
		{
		  "duration": 0.20937500000002274,
		  "durationTicks": 201,
		  "midi": 67,
		  "name": "G4",
		  "ticks": 161202,
		  "time": 167.91875,
		  "velocity": 0.2992125984251969
		},
		{
		  "duration": 0.19687500000000568,
		  "durationTicks": 189,
		  "midi": 48,
		  "name": "C3",
		  "ticks": 161458,
		  "time": 168.18541666666667,
		  "velocity": 0.3228346456692913
		},
		{
		  "duration": 0.18541666666666856,
		  "durationTicks": 178,
		  "midi": 67,
		  "name": "G4",
		  "ticks": 161670,
		  "time": 168.40625,
		  "velocity": 0.3543307086614173
		},
		{
		  "duration": 0.24375000000000568,
		  "durationTicks": 234,
		  "midi": 48,
		  "name": "C3",
		  "ticks": 161670,
		  "time": 168.40625,
		  "velocity": 0.3858267716535433
		},
		{
		  "duration": 0.5822916666666629,
		  "durationTicks": 559,
		  "midi": 48,
		  "name": "C3",
		  "ticks": 161904,
		  "time": 168.65,
		  "velocity": 0.33858267716535434
		},
		{
		  "duration": 0.20937499999999432,
		  "durationTicks": 201,
		  "midi": 36,
		  "name": "C2",
		  "ticks": 161904,
		  "time": 168.65,
		  "velocity": 0.3937007874015748
		},
		{
		  "duration": 0.40625,
		  "durationTicks": 390,
		  "midi": 81,
		  "name": "A5",
		  "ticks": 162128,
		  "time": 168.88333333333333,
		  "velocity": 0.3464566929133858
		},
		{
		  "duration": 0.24375000000000568,
		  "durationTicks": 234,
		  "midi": 76,
		  "name": "E5",
		  "ticks": 162585,
		  "time": 169.359375,
		  "velocity": 0.4015748031496063
		},
		{
		  "duration": 0.23229166666666856,
		  "durationTicks": 223,
		  "midi": 48,
		  "name": "C3",
		  "ticks": 162585,
		  "time": 169.359375,
		  "velocity": 0.3700787401574803
		},
		{
		  "duration": 0.16249999999999432,
		  "durationTicks": 156,
		  "midi": 36,
		  "name": "C2",
		  "ticks": 162886,
		  "time": 169.67291666666668,
		  "velocity": 0.5354330708661418
		},
		{
		  "duration": 0.19687500000000568,
		  "durationTicks": 189,
		  "midi": 74,
		  "name": "D5",
		  "ticks": 163042,
		  "time": 169.83541666666667,
		  "velocity": 0.28346456692913385
		},
		{
		  "duration": 0.20937499999999432,
		  "durationTicks": 201,
		  "midi": 69,
		  "name": "A4",
		  "ticks": 163042,
		  "time": 169.83541666666667,
		  "velocity": 0.33858267716535434
		},
		{
		  "duration": 0.18541666666666856,
		  "durationTicks": 178,
		  "midi": 66,
		  "name": "F#4",
		  "ticks": 163053,
		  "time": 169.846875,
		  "velocity": 0.29133858267716534
		},
		{
		  "duration": 0.2552083333333144,
		  "durationTicks": 245,
		  "midi": 38,
		  "name": "D2",
		  "ticks": 163265,
		  "time": 170.06770833333334,
		  "velocity": 0.5905511811023622
		},
		{
		  "duration": 0.17395833333333144,
		  "durationTicks": 167,
		  "midi": 66,
		  "name": "F#4",
		  "ticks": 163276,
		  "time": 170.07916666666668,
		  "velocity": 0.25984251968503935
		},
		{
		  "duration": 0.15104166666668561,
		  "durationTicks": 145,
		  "midi": 50,
		  "name": "D3",
		  "ticks": 163287,
		  "time": 170.090625,
		  "velocity": 0.2755905511811024
		},
		{
		  "duration": 0.19687500000000568,
		  "durationTicks": 189,
		  "midi": 74,
		  "name": "D5",
		  "ticks": 163521,
		  "time": 170.334375,
		  "velocity": 0.44881889763779526
		},
		{
		  "duration": 0.22083333333333144,
		  "durationTicks": 212,
		  "midi": 50,
		  "name": "D3",
		  "ticks": 163655,
		  "time": 170.47395833333334,
		  "velocity": 0.3937007874015748
		},
		{
		  "duration": 0.17395833333333144,
		  "durationTicks": 167,
		  "midi": 38,
		  "name": "D2",
		  "ticks": 163688,
		  "time": 170.50833333333333,
		  "velocity": 0.5039370078740157
		},
		{
		  "duration": 0.1510416666666572,
		  "durationTicks": 145,
		  "midi": 66,
		  "name": "F#4",
		  "ticks": 163755,
		  "time": 170.578125,
		  "velocity": 0.23622047244094488
		},
		{
		  "duration": 0.2916666666666572,
		  "durationTicks": 280,
		  "midi": 50,
		  "name": "D3",
		  "ticks": 163867,
		  "time": 170.69479166666667,
		  "velocity": 0.5118110236220472
		},
		{
		  "duration": 0.1510416666666572,
		  "durationTicks": 145,
		  "midi": 38,
		  "name": "D2",
		  "ticks": 163867,
		  "time": 170.69479166666667,
		  "velocity": 0.44881889763779526
		},
		{
		  "duration": 0.22187500000001137,
		  "durationTicks": 213,
		  "midi": 74,
		  "name": "D5",
		  "ticks": 163978,
		  "time": 170.81041666666667,
		  "velocity": 0.47244094488188976
		},
		{
		  "duration": 0.19687500000000568,
		  "durationTicks": 189,
		  "midi": 76,
		  "name": "E5",
		  "ticks": 164202,
		  "time": 171.04375,
		  "velocity": 0.36220472440944884
		},
		{
		  "duration": 0.3364583333333542,
		  "durationTicks": 323,
		  "midi": 38,
		  "name": "D2",
		  "ticks": 164258,
		  "time": 171.10208333333333,
		  "velocity": 0.49606299212598426
		},
		{
		  "duration": 0.18541666666664014,
		  "durationTicks": 178,
		  "midi": 38,
		  "name": "D2",
		  "ticks": 164581,
		  "time": 171.43854166666668,
		  "velocity": 0.5433070866141733
		},
		{
		  "duration": 0.13958333333332007,
		  "durationTicks": 134,
		  "midi": 50,
		  "name": "D3",
		  "ticks": 164670,
		  "time": 171.53125,
		  "velocity": 0.2283464566929134
		},
		{
		  "duration": 0.1395833333333485,
		  "durationTicks": 134,
		  "midi": 45,
		  "name": "A2",
		  "ticks": 164682,
		  "time": 171.54375,
		  "velocity": 0.3543307086614173
		},
		{
		  "duration": 0.17395833333333144,
		  "durationTicks": 167,
		  "midi": 38,
		  "name": "D2",
		  "ticks": 164760,
		  "time": 171.625,
		  "velocity": 0.5433070866141733
		},
		{
		  "duration": 0.19687500000000568,
		  "durationTicks": 189,
		  "midi": 81,
		  "name": "A5",
		  "ticks": 164771,
		  "time": 171.63645833333334,
		  "velocity": 0.33858267716535434
		},
		{
		  "duration": 0.19687500000000568,
		  "durationTicks": 189,
		  "midi": 40,
		  "name": "E2",
		  "ticks": 165083,
		  "time": 171.96145833333333,
		  "velocity": 0.4330708661417323
		},
		{
		  "duration": 0.23229166666666856,
		  "durationTicks": 223,
		  "midi": 28,
		  "name": "E1",
		  "ticks": 165083,
		  "time": 171.96145833333333,
		  "velocity": 0.47244094488188976
		},
		{
		  "duration": 0.16249999999999432,
		  "durationTicks": 156,
		  "midi": 47,
		  "name": "B2",
		  "ticks": 165116,
		  "time": 171.99583333333334,
		  "velocity": 0.3464566929133858
		},
		{
		  "duration": 0.19687500000000568,
		  "durationTicks": 189,
		  "midi": 40,
		  "name": "E2",
		  "ticks": 165584,
		  "time": 172.48333333333332,
		  "velocity": 0.7086614173228346
		},
		{
		  "duration": 0.23229166666666856,
		  "durationTicks": 223,
		  "midi": 76,
		  "name": "E5",
		  "ticks": 165596,
		  "time": 172.49583333333334,
		  "velocity": 0.2677165354330709
		},
		{
		  "duration": 0.17395833333333144,
		  "durationTicks": 167,
		  "midi": 64,
		  "name": "E4",
		  "ticks": 165707,
		  "time": 172.61145833333333,
		  "velocity": 0.2283464566929134
		},
		{
		  "duration": 0.3375000000000057,
		  "durationTicks": 324,
		  "midi": 40,
		  "name": "E2",
		  "ticks": 165774,
		  "time": 172.68125,
		  "velocity": 0.4566929133858268
		},
		{
		  "duration": 0.2333333333333485,
		  "durationTicks": 224,
		  "midi": 76,
		  "name": "E5",
		  "ticks": 165818,
		  "time": 172.72708333333333,
		  "velocity": 0.36220472440944884
		},
		{
		  "duration": 0.17500000000001137,
		  "durationTicks": 168,
		  "midi": 74,
		  "name": "D5",
		  "ticks": 165818,
		  "time": 172.72708333333333,
		  "velocity": 0.4330708661417323
		},
		{
		  "duration": 0.2562499999999943,
		  "durationTicks": 246,
		  "midi": 52,
		  "name": "E3",
		  "ticks": 165841,
		  "time": 172.75104166666668,
		  "velocity": 0.3779527559055118
		},
		{
		  "duration": 0.19687500000000568,
		  "durationTicks": 189,
		  "midi": 76,
		  "name": "E5",
		  "ticks": 166043,
		  "time": 172.96145833333333,
		  "velocity": 0.44881889763779526
		},
		{
		  "duration": 0.1510416666666572,
		  "durationTicks": 145,
		  "midi": 40,
		  "name": "E2",
		  "ticks": 166098,
		  "time": 173.01875,
		  "velocity": 0.4566929133858268
		},
		{
		  "duration": 0.18541666666666856,
		  "durationTicks": 178,
		  "midi": 28,
		  "name": "E1",
		  "ticks": 166098,
		  "time": 173.01875,
		  "velocity": 0.5275590551181102
		},
		{
		  "duration": 0.22083333333333144,
		  "durationTicks": 212,
		  "midi": 79,
		  "name": "G5",
		  "ticks": 166277,
		  "time": 173.20520833333333,
		  "velocity": 0.5354330708661418
		},
		{
		  "duration": 0.20937499999999432,
		  "durationTicks": 201,
		  "midi": 52,
		  "name": "E3",
		  "ticks": 166321,
		  "time": 173.25104166666668,
		  "velocity": 0.4645669291338583
		},
		{
		  "duration": 0.2552083333333144,
		  "durationTicks": 245,
		  "midi": 40,
		  "name": "E2",
		  "ticks": 166477,
		  "time": 173.41354166666667,
		  "velocity": 0.5590551181102362
		},
		{
		  "duration": 0.2552083333333144,
		  "durationTicks": 245,
		  "midi": 28,
		  "name": "E1",
		  "ticks": 166488,
		  "time": 173.425,
		  "velocity": 0.49606299212598426
		},
		{
		  "duration": 0.4291666666666458,
		  "durationTicks": 412,
		  "midi": 81,
		  "name": "A5",
		  "ticks": 166533,
		  "time": 173.471875,
		  "velocity": 0.3858267716535433
		},
		{
		  "duration": 0.1510416666666572,
		  "durationTicks": 145,
		  "midi": 47,
		  "name": "B2",
		  "ticks": 166968,
		  "time": 173.925,
		  "velocity": 0.2755905511811024
		},
		{
		  "duration": 0.17395833333333144,
		  "durationTicks": 167,
		  "midi": 35,
		  "name": "B1",
		  "ticks": 167001,
		  "time": 173.959375,
		  "velocity": 0.33858267716535434
		},
		{
		  "duration": 0.1395833333333485,
		  "durationTicks": 134,
		  "midi": 47,
		  "name": "B2",
		  "ticks": 167414,
		  "time": 174.38958333333332,
		  "velocity": 0.5590551181102362
		},
		{
		  "duration": 0.24375000000000568,
		  "durationTicks": 234,
		  "midi": 35,
		  "name": "B1",
		  "ticks": 167414,
		  "time": 174.38958333333332,
		  "velocity": 0.3937007874015748
		},
		{
		  "duration": 0.31458333333333144,
		  "durationTicks": 302,
		  "midi": 47,
		  "name": "B2",
		  "ticks": 167547,
		  "time": 174.528125,
		  "velocity": 0.47244094488188976
		},
		{
		  "duration": 0.18541666666666856,
		  "durationTicks": 178,
		  "midi": 81,
		  "name": "A5",
		  "ticks": 167603,
		  "time": 174.58645833333333,
		  "velocity": 0.3858267716535433
		},
		{
		  "duration": 0.20937499999999432,
		  "durationTicks": 201,
		  "midi": 35,
		  "name": "B1",
		  "ticks": 167872,
		  "time": 174.86666666666667,
		  "velocity": 0.3937007874015748
		},
		{
		  "duration": 0.16249999999999432,
		  "durationTicks": 156,
		  "midi": 81,
		  "name": "A5",
		  "ticks": 168139,
		  "time": 175.14479166666666,
		  "velocity": 0.3700787401574803
		},
		{
		  "duration": 0.20937499999999432,
		  "durationTicks": 201,
		  "midi": 47,
		  "name": "B2",
		  "ticks": 168362,
		  "time": 175.37708333333333,
		  "velocity": 0.33858267716535434
		},
		{
		  "duration": 0.1395833333333485,
		  "durationTicks": 134,
		  "midi": 42,
		  "name": "F#2",
		  "ticks": 168362,
		  "time": 175.37708333333333,
		  "velocity": 0.2755905511811024
		},
		{
		  "duration": 0.2552083333333428,
		  "durationTicks": 245,
		  "midi": 35,
		  "name": "B1",
		  "ticks": 168396,
		  "time": 175.4125,
		  "velocity": 0.3779527559055118
		},
		{
		  "duration": 0.1395833333333485,
		  "durationTicks": 134,
		  "midi": 51,
		  "name": "D#3",
		  "ticks": 168396,
		  "time": 175.4125,
		  "velocity": 0.4094488188976378
		},
		{
		  "duration": 0.33645833333332575,
		  "durationTicks": 323,
		  "midi": 79,
		  "name": "G5",
		  "ticks": 168407,
		  "time": 175.42395833333333,
		  "velocity": 0.4251968503937008
		},
		{
		  "duration": 0.26666666666667993,
		  "durationTicks": 256,
		  "midi": 47,
		  "name": "B2",
		  "ticks": 168563,
		  "time": 175.58645833333333,
		  "velocity": 0.3858267716535433
		},
		{
		  "duration": 0.17395833333333144,
		  "durationTicks": 167,
		  "midi": 66,
		  "name": "F#4",
		  "ticks": 168574,
		  "time": 175.59791666666666,
		  "velocity": 0.2755905511811024
		},
		{
		  "duration": 0.20937499999999432,
		  "durationTicks": 201,
		  "midi": 75,
		  "name": "D#5",
		  "ticks": 168585,
		  "time": 175.609375,
		  "velocity": 0.48031496062992124
		},
		{
		  "duration": 0.17395833333333144,
		  "durationTicks": 167,
		  "midi": 71,
		  "name": "B4",
		  "ticks": 168585,
		  "time": 175.609375,
		  "velocity": 0.30708661417322836
		},
		{
		  "duration": 0.18541666666666856,
		  "durationTicks": 178,
		  "midi": 69,
		  "name": "A4",
		  "ticks": 168585,
		  "time": 175.609375,
		  "velocity": 0.25984251968503935
		},
		{
		  "duration": 0.36041666666667993,
		  "durationTicks": 346,
		  "midi": 79,
		  "name": "G5",
		  "ticks": 168741,
		  "time": 175.771875,
		  "velocity": 0.5511811023622047
		},
		{
		  "duration": 0.19687500000000568,
		  "durationTicks": 189,
		  "midi": 75,
		  "name": "D#5",
		  "ticks": 168919,
		  "time": 175.95729166666666,
		  "velocity": 0.33070866141732286
		},
		{
		  "duration": 0.1510416666666572,
		  "durationTicks": 145,
		  "midi": 71,
		  "name": "B4",
		  "ticks": 168919,
		  "time": 175.95729166666666,
		  "velocity": 0.25196850393700787
		},
		{
		  "duration": 0.16249999999999432,
		  "durationTicks": 156,
		  "midi": 69,
		  "name": "A4",
		  "ticks": 168931,
		  "time": 175.96979166666668,
		  "velocity": 0.25196850393700787
		},
		{
		  "duration": 0.37187499999998863,
		  "durationTicks": 357,
		  "midi": 79,
		  "name": "G5",
		  "ticks": 169087,
		  "time": 176.13229166666667,
		  "velocity": 0.5984251968503937
		},
		{
		  "duration": 0.18541666666666856,
		  "durationTicks": 178,
		  "midi": 75,
		  "name": "D#5",
		  "ticks": 169265,
		  "time": 176.31770833333334,
		  "velocity": 0.4409448818897638
		},
		{
		  "duration": 0.17395833333333144,
		  "durationTicks": 167,
		  "midi": 71,
		  "name": "B4",
		  "ticks": 169265,
		  "time": 176.31770833333334,
		  "velocity": 0.33070866141732286
		},
		{
		  "duration": 0.17395833333333144,
		  "durationTicks": 167,
		  "midi": 66,
		  "name": "F#4",
		  "ticks": 169265,
		  "time": 176.31770833333334,
		  "velocity": 0.30708661417322836
		},
		{
		  "duration": 0.23229166666666856,
		  "durationTicks": 223,
		  "midi": 79,
		  "name": "G5",
		  "ticks": 169443,
		  "time": 176.503125,
		  "velocity": 0.6614173228346457
		},
		{
		  "duration": 0.16354166666664582,
		  "durationTicks": 157,
		  "midi": 75,
		  "name": "D#5",
		  "ticks": 169610,
		  "time": 176.67708333333334,
		  "velocity": 0.36220472440944884
		},
		{
		  "duration": 0.9187499999999886,
		  "durationTicks": 882,
		  "midi": 79,
		  "name": "G5",
		  "ticks": 169666,
		  "time": 176.73541666666668,
		  "velocity": 0.6062992125984252
		},
		{
		  "duration": 0.17395833333333144,
		  "durationTicks": 167,
		  "midi": 55,
		  "name": "G3",
		  "ticks": 169835,
		  "time": 176.91145833333334,
		  "velocity": 0.30708661417322836
		},
		{
		  "duration": 0.16250000000002274,
		  "durationTicks": 156,
		  "midi": 69,
		  "name": "A4",
		  "ticks": 170425,
		  "time": 177.52604166666666,
		  "velocity": 0.48031496062992124
		},
		{
		  "duration": 0.1395833333333485,
		  "durationTicks": 134,
		  "midi": 57,
		  "name": "A3",
		  "ticks": 170425,
		  "time": 177.52604166666666,
		  "velocity": 0.33070866141732286
		},
		{
		  "duration": 0.20937500000002274,
		  "durationTicks": 201,
		  "midi": 38,
		  "name": "D2",
		  "ticks": 170425,
		  "time": 177.52604166666666,
		  "velocity": 0.33858267716535434
		},
		{
		  "duration": 0.1395833333333485,
		  "durationTicks": 134,
		  "midi": 50,
		  "name": "D3",
		  "ticks": 170436,
		  "time": 177.5375,
		  "velocity": 0.4881889763779528
		},
		{
		  "duration": 0.23229166666666856,
		  "durationTicks": 223,
		  "midi": 79,
		  "name": "G5",
		  "ticks": 170548,
		  "time": 177.65416666666667,
		  "velocity": 0.6850393700787402
		},
		{
		  "duration": 0.47604166666667425,
		  "durationTicks": 457,
		  "midi": 79,
		  "name": "G5",
		  "ticks": 170771,
		  "time": 177.88645833333334,
		  "velocity": 0.5905511811023622
		},
		{
		  "duration": 0.16249999999999432,
		  "durationTicks": 156,
		  "midi": 71,
		  "name": "B4",
		  "ticks": 170771,
		  "time": 177.88645833333334,
		  "velocity": 0.5275590551181102
		},
		{
		  "duration": 0.13958333333332007,
		  "durationTicks": 134,
		  "midi": 64,
		  "name": "E4",
		  "ticks": 170771,
		  "time": 177.88645833333334,
		  "velocity": 0.49606299212598426
		},
		{
		  "duration": 0.16249999999999432,
		  "durationTicks": 156,
		  "midi": 59,
		  "name": "B3",
		  "ticks": 170771,
		  "time": 177.88645833333334,
		  "velocity": 0.49606299212598426
		},
		{
		  "duration": 0.1510416666666572,
		  "durationTicks": 145,
		  "midi": 52,
		  "name": "E3",
		  "ticks": 170771,
		  "time": 177.88645833333334,
		  "velocity": 0.4645669291338583
		},
		{
		  "duration": 0.20937499999999432,
		  "durationTicks": 201,
		  "midi": 52,
		  "name": "E3",
		  "ticks": 171038,
		  "time": 178.16458333333333,
		  "velocity": 0.3858267716535433
		},
		{
		  "duration": 0.18541666666666856,
		  "durationTicks": 178,
		  "midi": 40,
		  "name": "E2",
		  "ticks": 171105,
		  "time": 178.234375,
		  "velocity": 0.3700787401574803
		},
		{
		  "duration": 0.1510416666666572,
		  "durationTicks": 145,
		  "midi": 71,
		  "name": "B4",
		  "ticks": 171116,
		  "time": 178.24583333333334,
		  "velocity": 0.48031496062992124
		},
		{
		  "duration": 0.1510416666666572,
		  "durationTicks": 145,
		  "midi": 64,
		  "name": "E4",
		  "ticks": 171116,
		  "time": 178.24583333333334,
		  "velocity": 0.5196850393700787
		},
		{
		  "duration": 0.3604166666666515,
		  "durationTicks": 346,
		  "midi": 79,
		  "name": "G5",
		  "ticks": 171228,
		  "time": 178.3625,
		  "velocity": 0.6299212598425197
		},
		{
		  "duration": 0.16250000000002274,
		  "durationTicks": 156,
		  "midi": 71,
		  "name": "B4",
		  "ticks": 171462,
		  "time": 178.60625,
		  "velocity": 0.5196850393700787
		},
		{
		  "duration": 0.16250000000002274,
		  "durationTicks": 156,
		  "midi": 64,
		  "name": "E4",
		  "ticks": 171462,
		  "time": 178.60625,
		  "velocity": 0.48031496062992124
		},
		{
		  "duration": 0.15104166666668561,
		  "durationTicks": 145,
		  "midi": 52,
		  "name": "E3",
		  "ticks": 171462,
		  "time": 178.60625,
		  "velocity": 0.47244094488188976
		},
		{
		  "duration": 0.16250000000002274,
		  "durationTicks": 156,
		  "midi": 40,
		  "name": "E2",
		  "ticks": 171462,
		  "time": 178.60625,
		  "velocity": 0.30708661417322836
		},
		{
		  "duration": 0.36145833333333144,
		  "durationTicks": 347,
		  "midi": 79,
		  "name": "G5",
		  "ticks": 171573,
		  "time": 178.721875,
		  "velocity": 0.6141732283464567
		},
		{
		  "duration": 0.1395833333333485,
		  "durationTicks": 134,
		  "midi": 59,
		  "name": "B3",
		  "ticks": 171797,
		  "time": 178.95520833333333,
		  "velocity": 0.36220472440944884
		},
		{
		  "duration": 0.16250000000002274,
		  "durationTicks": 156,
		  "midi": 71,
		  "name": "B4",
		  "ticks": 171809,
		  "time": 178.96770833333332,
		  "velocity": 0.5196850393700787
		},
		{
		  "duration": 0.16250000000002274,
		  "durationTicks": 156,
		  "midi": 64,
		  "name": "E4",
		  "ticks": 171809,
		  "time": 178.96770833333332,
		  "velocity": 0.48031496062992124
		},
		{
		  "duration": 0.1395833333333485,
		  "durationTicks": 134,
		  "midi": 52,
		  "name": "E3",
		  "ticks": 171809,
		  "time": 178.96770833333332,
		  "velocity": 0.4566929133858268
		},
		{
		  "duration": 0.3604166666666515,
		  "durationTicks": 346,
		  "midi": 79,
		  "name": "G5",
		  "ticks": 171920,
		  "time": 179.08333333333334,
		  "velocity": 0.5984251968503937
		},
		{
		  "duration": 0.1395833333333485,
		  "durationTicks": 134,
		  "midi": 64,
		  "name": "E4",
		  "ticks": 172154,
		  "time": 179.32708333333332,
		  "velocity": 0.49606299212598426
		},
		{
		  "duration": 0.1395833333333485,
		  "durationTicks": 134,
		  "midi": 52,
		  "name": "E3",
		  "ticks": 172154,
		  "time": 179.32708333333332,
		  "velocity": 0.41732283464566927
		},
		{
		  "duration": 0.37187500000001705,
		  "durationTicks": 357,
		  "midi": 79,
		  "name": "G5",
		  "ticks": 172266,
		  "time": 179.44375,
		  "velocity": 0.6062992125984252
		},
		{
		  "duration": 0.13958333333332007,
		  "durationTicks": 134,
		  "midi": 74,
		  "name": "D5",
		  "ticks": 172500,
		  "time": 179.6875,
		  "velocity": 0.4566929133858268
		},
		{
		  "duration": 0.13958333333332007,
		  "durationTicks": 134,
		  "midi": 52,
		  "name": "E3",
		  "ticks": 172500,
		  "time": 179.6875,
		  "velocity": 0.4566929133858268
		},
		{
		  "duration": 0.3479166666666629,
		  "durationTicks": 334,
		  "midi": 79,
		  "name": "G5",
		  "ticks": 172622,
		  "time": 179.81458333333333,
		  "velocity": 0.6062992125984252
		},
		{
		  "duration": 0.1510416666666572,
		  "durationTicks": 145,
		  "midi": 52,
		  "name": "E3",
		  "ticks": 172834,
		  "time": 180.03541666666666,
		  "velocity": 0.5196850393700787
		},
		{
		  "duration": 0.16249999999999432,
		  "durationTicks": 156,
		  "midi": 74,
		  "name": "D5",
		  "ticks": 172845,
		  "time": 180.046875,
		  "velocity": 0.5669291338582677
		},
		{
		  "duration": 0.37187499999998863,
		  "durationTicks": 357,
		  "midi": 79,
		  "name": "G5",
		  "ticks": 172957,
		  "time": 180.16354166666667,
		  "velocity": 0.6220472440944882
		},
		{
		  "duration": 0.16249999999999432,
		  "durationTicks": 156,
		  "midi": 74,
		  "name": "D5",
		  "ticks": 173191,
		  "time": 180.40729166666668,
		  "velocity": 0.5748031496062992
		},
		{
		  "duration": 0.36145833333333144,
		  "durationTicks": 347,
		  "midi": 79,
		  "name": "G5",
		  "ticks": 173313,
		  "time": 180.534375,
		  "velocity": 0.5669291338582677
		},
		{
		  "duration": 0.1291666666666913,
		  "durationTicks": 124,
		  "midi": 69,
		  "name": "A4",
		  "ticks": 173547,
		  "time": 180.778125,
		  "velocity": 0.47244094488188976
		},
		{
		  "duration": 0.1291666666666913,
		  "durationTicks": 124,
		  "midi": 64,
		  "name": "E4",
		  "ticks": 173547,
		  "time": 180.778125,
		  "velocity": 0.48031496062992124
		},
		{
		  "duration": 0.15208333333333712,
		  "durationTicks": 146,
		  "midi": 57,
		  "name": "A3",
		  "ticks": 173547,
		  "time": 180.778125,
		  "velocity": 0.4881889763779528
		},
		{
		  "duration": 0.1291666666666913,
		  "durationTicks": 124,
		  "midi": 52,
		  "name": "E3",
		  "ticks": 173547,
		  "time": 180.778125,
		  "velocity": 0.47244094488188976
		},
		{
		  "duration": 0.3604166666666515,
		  "durationTicks": 346,
		  "midi": 79,
		  "name": "G5",
		  "ticks": 173660,
		  "time": 180.89583333333334,
		  "velocity": 0.5984251968503937
		},
		{
		  "duration": 0.24374999999997726,
		  "durationTicks": 234,
		  "midi": 69,
		  "name": "A4",
		  "ticks": 173883,
		  "time": 181.128125,
		  "velocity": 0.4251968503937008
		},
		{
		  "duration": 0.13958333333332007,
		  "durationTicks": 134,
		  "midi": 64,
		  "name": "E4",
		  "ticks": 173883,
		  "time": 181.128125,
		  "velocity": 0.4409448818897638
		},
		{
		  "duration": 0.1510416666666572,
		  "durationTicks": 145,
		  "midi": 57,
		  "name": "A3",
		  "ticks": 173883,
		  "time": 181.128125,
		  "velocity": 0.4566929133858268
		},
		{
		  "duration": 0.18541666666666856,
		  "durationTicks": 178,
		  "midi": 45,
		  "name": "A2",
		  "ticks": 173883,
		  "time": 181.128125,
		  "velocity": 0.4566929133858268
		},
		{
		  "duration": 0.23229166666666856,
		  "durationTicks": 223,
		  "midi": 79,
		  "name": "G5",
		  "ticks": 174005,
		  "time": 181.25520833333334,
		  "velocity": 0.5354330708661418
		},
		{
		  "duration": 0.1510416666666572,
		  "durationTicks": 145,
		  "midi": 38,
		  "name": "D2",
		  "ticks": 174106,
		  "time": 181.36041666666668,
		  "velocity": 0.30708661417322836
		},
		{
		  "duration": 0.18541666666666856,
		  "durationTicks": 178,
		  "midi": 69,
		  "name": "A4",
		  "ticks": 174117,
		  "time": 181.371875,
		  "velocity": 0.47244094488188976
		},
		{
		  "duration": 0.16250000000002274,
		  "durationTicks": 156,
		  "midi": 57,
		  "name": "A3",
		  "ticks": 174117,
		  "time": 181.371875,
		  "velocity": 0.3937007874015748
		},
		{
		  "duration": 1.0802083333333314,
		  "durationTicks": 1037,
		  "midi": 79,
		  "name": "G5",
		  "ticks": 174228,
		  "time": 181.4875,
		  "velocity": 0.5590551181102362
		},
		{
		  "duration": 0.1510416666666572,
		  "durationTicks": 145,
		  "midi": 40,
		  "name": "E2",
		  "ticks": 174440,
		  "time": 181.70833333333334,
		  "velocity": 0.3228346456692913
		},
		{
		  "duration": 0.13958333333332007,
		  "durationTicks": 134,
		  "midi": 59,
		  "name": "B3",
		  "ticks": 174808,
		  "time": 182.09166666666667,
		  "velocity": 0.4330708661417323
		},
		{
		  "duration": 0.1510416666666572,
		  "durationTicks": 145,
		  "midi": 52,
		  "name": "E3",
		  "ticks": 174808,
		  "time": 182.09166666666667,
		  "velocity": 0.5118110236220472
		},
		{
		  "duration": 0.1510416666666572,
		  "durationTicks": 145,
		  "midi": 71,
		  "name": "B4",
		  "ticks": 175153,
		  "time": 182.45104166666667,
		  "velocity": 0.5118110236220472
		},
		{
		  "duration": 0.1510416666666572,
		  "durationTicks": 145,
		  "midi": 64,
		  "name": "E4",
		  "ticks": 175153,
		  "time": 182.45104166666667,
		  "velocity": 0.4566929133858268
		},
		{
		  "duration": 0.36145833333333144,
		  "durationTicks": 347,
		  "midi": 79,
		  "name": "G5",
		  "ticks": 175265,
		  "time": 182.56770833333334,
		  "velocity": 0.5826771653543307
		},
		{
		  "duration": 0.1510416666666572,
		  "durationTicks": 145,
		  "midi": 71,
		  "name": "B4",
		  "ticks": 175489,
		  "time": 182.80104166666666,
		  "velocity": 0.4409448818897638
		},
		{
		  "duration": 0.1395833333333485,
		  "durationTicks": 134,
		  "midi": 52,
		  "name": "E3",
		  "ticks": 175489,
		  "time": 182.80104166666666,
		  "velocity": 0.3937007874015748
		},
		{
		  "duration": 0.2666666666666515,
		  "durationTicks": 256,
		  "midi": 79,
		  "name": "G5",
		  "ticks": 175612,
		  "time": 182.92916666666667,
		  "velocity": 0.6062992125984252
		},
		{
		  "duration": 0.13958333333332007,
		  "durationTicks": 134,
		  "midi": 59,
		  "name": "B3",
		  "ticks": 175835,
		  "time": 183.16145833333334,
		  "velocity": 0.47244094488188976
		},
		{
		  "duration": 0.16249999999999432,
		  "durationTicks": 156,
		  "midi": 52,
		  "name": "E3",
		  "ticks": 176169,
		  "time": 183.509375,
		  "velocity": 0.47244094488188976
		},
		{
		  "duration": 0.1510416666666572,
		  "durationTicks": 145,
		  "midi": 71,
		  "name": "B4",
		  "ticks": 176180,
		  "time": 183.52083333333334,
		  "velocity": 0.4409448818897638
		},
		{
		  "duration": 0.13958333333332007,
		  "durationTicks": 134,
		  "midi": 59,
		  "name": "B3",
		  "ticks": 176180,
		  "time": 183.52083333333334,
		  "velocity": 0.5118110236220472
		},
		{
		  "duration": 0.13958333333332007,
		  "durationTicks": 134,
		  "midi": 64,
		  "name": "E4",
		  "ticks": 176514,
		  "time": 183.86875,
		  "velocity": 0.49606299212598426
		},
		{
		  "duration": 0.1510416666666572,
		  "durationTicks": 145,
		  "midi": 71,
		  "name": "B4",
		  "ticks": 176537,
		  "time": 183.89270833333333,
		  "velocity": 0.4881889763779528
		},
		{
		  "duration": 0.1510416666666572,
		  "durationTicks": 145,
		  "midi": 59,
		  "name": "B3",
		  "ticks": 176537,
		  "time": 183.89270833333333,
		  "velocity": 0.4330708661417323
		},
		{
		  "duration": 0.16249999999999432,
		  "durationTicks": 156,
		  "midi": 52,
		  "name": "E3",
		  "ticks": 176537,
		  "time": 183.89270833333333,
		  "velocity": 0.5433070866141733
		},
		{
		  "duration": 0.20937499999999432,
		  "durationTicks": 201,
		  "midi": 40,
		  "name": "E2",
		  "ticks": 176871,
		  "time": 184.240625,
		  "velocity": 0.4094488188976378
		},
		{
		  "duration": 0.1395833333333485,
		  "durationTicks": 134,
		  "midi": 71,
		  "name": "B4",
		  "ticks": 176882,
		  "time": 184.25208333333333,
		  "velocity": 0.4409448818897638
		},
		{
		  "duration": 0.16249999999999432,
		  "durationTicks": 156,
		  "midi": 64,
		  "name": "E4",
		  "ticks": 176882,
		  "time": 184.25208333333333,
		  "velocity": 0.5748031496062992
		},
		{
		  "duration": 0.1510416666666572,
		  "durationTicks": 145,
		  "midi": 59,
		  "name": "B3",
		  "ticks": 176882,
		  "time": 184.25208333333333,
		  "velocity": 0.4251968503937008
		},
		{
		  "duration": 0.1395833333333485,
		  "durationTicks": 134,
		  "midi": 64,
		  "name": "E4",
		  "ticks": 177194,
		  "time": 184.57708333333332,
		  "velocity": 0.4645669291338583
		},
		{
		  "duration": 0.13958333333332007,
		  "durationTicks": 134,
		  "midi": 52,
		  "name": "E3",
		  "ticks": 177217,
		  "time": 184.60104166666667,
		  "velocity": 0.4645669291338583
		},
		{
		  "duration": 0.1395833333333485,
		  "durationTicks": 134,
		  "midi": 71,
		  "name": "B4",
		  "ticks": 177563,
		  "time": 184.96145833333333,
		  "velocity": 0.4881889763779528
		},
		{
		  "duration": 0.16249999999999432,
		  "durationTicks": 156,
		  "midi": 64,
		  "name": "E4",
		  "ticks": 177563,
		  "time": 184.96145833333333,
		  "velocity": 0.5669291338582677
		},
		{
		  "duration": 0.15104166666668561,
		  "durationTicks": 145,
		  "midi": 59,
		  "name": "B3",
		  "ticks": 177563,
		  "time": 184.96145833333333,
		  "velocity": 0.5039370078740157
		},
		{
		  "duration": 0.19687500000000568,
		  "durationTicks": 189,
		  "midi": 38,
		  "name": "D2",
		  "ticks": 177775,
		  "time": 185.18229166666666,
		  "velocity": 0.3228346456692913
		},
		{
		  "duration": 0.1395833333333485,
		  "durationTicks": 134,
		  "midi": 74,
		  "name": "D5",
		  "ticks": 177797,
		  "time": 185.20520833333333,
		  "velocity": 0.5826771653543307
		},
		{
		  "duration": 0.18541666666666856,
		  "durationTicks": 178,
		  "midi": 71,
		  "name": "B4",
		  "ticks": 177953,
		  "time": 185.36770833333333,
		  "velocity": 0.5590551181102362
		},
		{
		  "duration": 0.13958333333332007,
		  "durationTicks": 134,
		  "midi": 76,
		  "name": "E5",
		  "ticks": 178143,
		  "time": 185.565625,
		  "velocity": 0.5433070866141733
		},
		{
		  "duration": 0.3604166666666515,
		  "durationTicks": 346,
		  "midi": 71,
		  "name": "B4",
		  "ticks": 178143,
		  "time": 185.565625,
		  "velocity": 0.48031496062992124
		},
		{
		  "duration": 0.13958333333332007,
		  "durationTicks": 134,
		  "midi": 76,
		  "name": "E5",
		  "ticks": 178477,
		  "time": 185.91354166666667,
		  "velocity": 0.5275590551181102
		},
		{
		  "duration": 0.24374999999997726,
		  "durationTicks": 234,
		  "midi": 71,
		  "name": "B4",
		  "ticks": 178488,
		  "time": 185.925,
		  "velocity": 0.5590551181102362
		},
		{
		  "duration": 0.13958333333332007,
		  "durationTicks": 134,
		  "midi": 52,
		  "name": "E3",
		  "ticks": 178488,
		  "time": 185.925,
		  "velocity": 0.4645669291338583
		},
		{
		  "duration": 0.13958333333332007,
		  "durationTicks": 134,
		  "midi": 40,
		  "name": "E2",
		  "ticks": 178500,
		  "time": 185.9375,
		  "velocity": 0.33858267716535434
		},
		{
		  "duration": 0.24375000000000568,
		  "durationTicks": 234,
		  "midi": 71,
		  "name": "B4",
		  "ticks": 178723,
		  "time": 186.16979166666667,
		  "velocity": 0.5905511811023622
		},
		{
		  "duration": 0.15104166666668561,
		  "durationTicks": 145,
		  "midi": 76,
		  "name": "E5",
		  "ticks": 178812,
		  "time": 186.2625,
		  "velocity": 0.5905511811023622
		},
		{
		  "duration": 0.1395833333333485,
		  "durationTicks": 134,
		  "midi": 59,
		  "name": "B3",
		  "ticks": 178834,
		  "time": 186.28541666666666,
		  "velocity": 0.4330708661417323
		},
		{
		  "duration": 0.1395833333333485,
		  "durationTicks": 134,
		  "midi": 52,
		  "name": "E3",
		  "ticks": 178834,
		  "time": 186.28541666666666,
		  "velocity": 0.4094488188976378
		},
		{
		  "duration": 0.23229166666666856,
		  "durationTicks": 223,
		  "midi": 71,
		  "name": "B4",
		  "ticks": 178957,
		  "time": 186.41354166666667,
		  "velocity": 0.6377952755905512
		},
		{
		  "duration": 0.2333333333333485,
		  "durationTicks": 224,
		  "midi": 71,
		  "name": "B4",
		  "ticks": 179179,
		  "time": 186.64479166666666,
		  "velocity": 0.5354330708661418
		},
		{
		  "duration": 0.12916666666666288,
		  "durationTicks": 124,
		  "midi": 40,
		  "name": "E2",
		  "ticks": 179179,
		  "time": 186.64479166666666,
		  "velocity": 0.2992125984251969
		},
		{
		  "duration": 0.12916666666666288,
		  "durationTicks": 124,
		  "midi": 76,
		  "name": "E5",
		  "ticks": 179191,
		  "time": 186.65729166666668,
		  "velocity": 0.5511811023622047
		},
		{
		  "duration": 0.20937499999999432,
		  "durationTicks": 201,
		  "midi": 71,
		  "name": "B4",
		  "ticks": 179404,
		  "time": 186.87916666666666,
		  "velocity": 0.5354330708661418
		},
		{
		  "duration": 0.32500000000001705,
		  "durationTicks": 312,
		  "midi": 76,
		  "name": "E5",
		  "ticks": 179526,
		  "time": 187.00625,
		  "velocity": 0.3937007874015748
		},
		{
		  "duration": 0.16249999999999432,
		  "durationTicks": 156,
		  "midi": 40,
		  "name": "E2",
		  "ticks": 179526,
		  "time": 187.00625,
		  "velocity": 0.3228346456692913
		},
		{
		  "duration": 0.17395833333333144,
		  "durationTicks": 167,
		  "midi": 100,
		  "name": "E7",
		  "ticks": 179638,
		  "time": 187.12291666666667,
		  "velocity": 0.3228346456692913
		},
		{
		  "duration": 0.24375000000000568,
		  "durationTicks": 234,
		  "midi": 69,
		  "name": "A4",
		  "ticks": 179649,
		  "time": 187.134375,
		  "velocity": 0.6456692913385826
		},
		{
		  "duration": 0.23229166666666856,
		  "durationTicks": 223,
		  "midi": 69,
		  "name": "A4",
		  "ticks": 179883,
		  "time": 187.378125,
		  "velocity": 0.6535433070866141
		},
		{
		  "duration": 0.24374999999997726,
		  "durationTicks": 234,
		  "midi": 69,
		  "name": "A4",
		  "ticks": 180106,
		  "time": 187.61041666666668,
		  "velocity": 0.5748031496062992
		},
		{
		  "duration": 0.13958333333332007,
		  "durationTicks": 134,
		  "midi": 74,
		  "name": "D5",
		  "ticks": 180195,
		  "time": 187.703125,
		  "velocity": 0.5118110236220472
		},
		{
		  "duration": 0.1510416666666572,
		  "durationTicks": 145,
		  "midi": 40,
		  "name": "E2",
		  "ticks": 180206,
		  "time": 187.71458333333334,
		  "velocity": 0.3228346456692913
		},
		{
		  "duration": 0.1510416666666572,
		  "durationTicks": 145,
		  "midi": 62,
		  "name": "D4",
		  "ticks": 180217,
		  "time": 187.72604166666667,
		  "velocity": 0.5433070866141733
		},
		{
		  "duration": 0.36041666666667993,
		  "durationTicks": 346,
		  "midi": 69,
		  "name": "A4",
		  "ticks": 180340,
		  "time": 187.85416666666666,
		  "velocity": 0.6692913385826772
		},
		{
		  "duration": 0.13958333333332007,
		  "durationTicks": 134,
		  "midi": 74,
		  "name": "D5",
		  "ticks": 180540,
		  "time": 188.0625,
		  "velocity": 0.5196850393700787
		},
		{
		  "duration": 0.1395833333333485,
		  "durationTicks": 134,
		  "midi": 62,
		  "name": "D4",
		  "ticks": 180574,
		  "time": 188.09791666666666,
		  "velocity": 0.5275590551181102
		},
		{
		  "duration": 0.3020833333333428,
		  "durationTicks": 290,
		  "midi": 69,
		  "name": "A4",
		  "ticks": 180685,
		  "time": 188.21354166666666,
		  "velocity": 0.4251968503937008
		},
		{
		  "duration": 0.17395833333333144,
		  "durationTicks": 167,
		  "midi": 38,
		  "name": "D2",
		  "ticks": 180886,
		  "time": 188.42291666666668,
		  "velocity": 0.25196850393700787
		},
		{
		  "duration": 0.13958333333332007,
		  "durationTicks": 134,
		  "midi": 74,
		  "name": "D5",
		  "ticks": 180886,
		  "time": 188.42291666666668,
		  "velocity": 0.5905511811023622
		},
		{
		  "duration": 0.3499999999999943,
		  "durationTicks": 336,
		  "midi": 67,
		  "name": "G4",
		  "ticks": 181142,
		  "time": 188.68958333333333,
		  "velocity": 0.4409448818897638
		},
		{
		  "duration": 0.23229166666666856,
		  "durationTicks": 223,
		  "midi": 74,
		  "name": "D5",
		  "ticks": 181255,
		  "time": 188.80729166666666,
		  "velocity": 0.48031496062992124
		},
		{
		  "duration": 0.24375000000000568,
		  "durationTicks": 234,
		  "midi": 69,
		  "name": "A4",
		  "ticks": 181255,
		  "time": 188.80729166666666,
		  "velocity": 0.3937007874015748
		},
		{
		  "duration": 0.15104166666668561,
		  "durationTicks": 145,
		  "midi": 57,
		  "name": "A3",
		  "ticks": 181255,
		  "time": 188.80729166666666,
		  "velocity": 0.47244094488188976
		},
		{
		  "duration": 0.23229166666666856,
		  "durationTicks": 223,
		  "midi": 74,
		  "name": "D5",
		  "ticks": 181478,
		  "time": 189.03958333333333,
		  "velocity": 0.5669291338582677
		},
		{
		  "duration": 0.3479166666666629,
		  "durationTicks": 334,
		  "midi": 69,
		  "name": "A4",
		  "ticks": 181489,
		  "time": 189.05104166666666,
		  "velocity": 0.5039370078740157
		},
		{
		  "duration": 0.1395833333333485,
		  "durationTicks": 134,
		  "midi": 57,
		  "name": "A3",
		  "ticks": 181489,
		  "time": 189.05104166666666,
		  "velocity": 0.4330708661417323
		},
		{
		  "duration": 0.5916666666666686,
		  "durationTicks": 568,
		  "midi": 52,
		  "name": "E3",
		  "ticks": 181823,
		  "time": 189.39895833333333,
		  "velocity": 0.5354330708661418
		},
		{
		  "duration": 1.0916666666666686,
		  "durationTicks": 1048,
		  "midi": 59,
		  "name": "B3",
		  "ticks": 181835,
		  "time": 189.41145833333334,
		  "velocity": 0.5118110236220472
		},
		{
		  "duration": 0.5572916666666572,
		  "durationTicks": 535,
		  "midi": 40,
		  "name": "E2",
		  "ticks": 181924,
		  "time": 189.50416666666666,
		  "velocity": 0.5039370078740157
		},
		{
		  "duration": 0.4645833333333371,
		  "durationTicks": 446,
		  "midi": 76,
		  "name": "E5",
		  "ticks": 181946,
		  "time": 189.52708333333334,
		  "velocity": 0.5748031496062992
		},
		{
		  "duration": 0.453125,
		  "durationTicks": 435,
		  "midi": 71,
		  "name": "B4",
		  "ticks": 181957,
		  "time": 189.53854166666667,
		  "velocity": 0.4094488188976378
		},
		{
		  "duration": 0.19687500000000568,
		  "durationTicks": 189,
		  "midi": 69,
		  "name": "A4",
		  "ticks": 182280,
		  "time": 189.875,
		  "velocity": 0.4015748031496063
		},
		{
		  "duration": 0.5104166666666572,
		  "durationTicks": 490,
		  "midi": 76,
		  "name": "E5",
		  "ticks": 182392,
		  "time": 189.99166666666667,
		  "velocity": 0.6220472440944882
		},
		{
		  "duration": 0.3947916666666629,
		  "durationTicks": 379,
		  "midi": 71,
		  "name": "B4",
		  "ticks": 182392,
		  "time": 189.99166666666667,
		  "velocity": 0.4409448818897638
		},
		{
		  "duration": 1.940624999999983,
		  "durationTicks": 1863,
		  "midi": 52,
		  "name": "E3",
		  "ticks": 182392,
		  "time": 189.99166666666667,
		  "velocity": 0.6377952755905512
		},
		{
		  "duration": 0.26666666666667993,
		  "durationTicks": 256,
		  "midi": 40,
		  "name": "E2",
		  "ticks": 182459,
		  "time": 190.06145833333332,
		  "velocity": 0.5511811023622047
		},
		{
		  "duration": 0.23229166666666856,
		  "durationTicks": 223,
		  "midi": 40,
		  "name": "E2",
		  "ticks": 182715,
		  "time": 190.328125,
		  "velocity": 0.5118110236220472
		},
		{
		  "duration": 0.45416666666667993,
		  "durationTicks": 436,
		  "midi": 76,
		  "name": "E5",
		  "ticks": 182882,
		  "time": 190.50208333333333,
		  "velocity": 0.5590551181102362
		},
		{
		  "duration": 1.3020833333333428,
		  "durationTicks": 1250,
		  "midi": 59,
		  "name": "B3",
		  "ticks": 182882,
		  "time": 190.50208333333333,
		  "velocity": 0.6614173228346457
		},
		{
		  "duration": 0.19895833333333712,
		  "durationTicks": 191,
		  "midi": 40,
		  "name": "E2",
		  "ticks": 182938,
		  "time": 190.56041666666667,
		  "velocity": 0.5433070866141733
		},
		{
		  "duration": 0.22187500000001137,
		  "durationTicks": 213,
		  "midi": 64,
		  "name": "E4",
		  "ticks": 182938,
		  "time": 190.56041666666667,
		  "velocity": 0.3464566929133858
		},
		{
		  "duration": 0.6864583333333201,
		  "durationTicks": 659,
		  "midi": 71,
		  "name": "B4",
		  "ticks": 182949,
		  "time": 190.571875,
		  "velocity": 0.3858267716535433
		},
		{
		  "duration": 1.2885416666666458,
		  "durationTicks": 1237,
		  "midi": 100,
		  "name": "E7",
		  "ticks": 183318,
		  "time": 190.95625,
		  "velocity": 0.4330708661417323
		},
		{
		  "duration": 1.9166666666666572,
		  "durationTicks": 1840,
		  "midi": 76,
		  "name": "E5",
		  "ticks": 183318,
		  "time": 190.95625,
		  "velocity": 0.5748031496062992
		},
		{
		  "duration": 0.24374999999997726,
		  "durationTicks": 234,
		  "midi": 64,
		  "name": "E4",
		  "ticks": 183318,
		  "time": 190.95625,
		  "velocity": 0.4409448818897638
		},
		{
		  "duration": 0.42916666666667425,
		  "durationTicks": 412,
		  "midi": 64,
		  "name": "E4",
		  "ticks": 183552,
		  "time": 191.2,
		  "velocity": 0.4330708661417323
		},
		{
		  "duration": 0.9177083333333371,
		  "durationTicks": 881,
		  "midi": 71,
		  "name": "B4",
		  "ticks": 183786,
		  "time": 191.44375,
		  "velocity": 0.4094488188976378
		},
		{
		  "duration": 0.16249999999999432,
		  "durationTicks": 156,
		  "midi": 88,
		  "name": "E6",
		  "ticks": 183853,
		  "time": 191.51354166666667,
		  "velocity": 0.30708661417322836
		},
		{
		  "duration": 0.6041666666666572,
		  "durationTicks": 580,
		  "midi": 59,
		  "name": "B3",
		  "ticks": 184132,
		  "time": 191.80416666666667,
		  "velocity": 0.6614173228346457
		},
		{
		  "duration": 0.18541666666666856,
		  "durationTicks": 178,
		  "midi": 52,
		  "name": "E3",
		  "ticks": 184254,
		  "time": 191.93125,
		  "velocity": 0.5039370078740157
		},
		{
		  "duration": 0.24374999999997726,
		  "durationTicks": 234,
		  "midi": 64,
		  "name": "E4",
		  "ticks": 184366,
		  "time": 192.04791666666668,
		  "velocity": 0.5905511811023622
		},
		{
		  "duration": 0.36041666666667993,
		  "durationTicks": 346,
		  "midi": 64,
		  "name": "E4",
		  "ticks": 184600,
		  "time": 192.29166666666666,
		  "velocity": 0.49606299212598426
		},
		{
		  "duration": 0.17395833333333144,
		  "durationTicks": 167,
		  "midi": 52,
		  "name": "E3",
		  "ticks": 184600,
		  "time": 192.29166666666666,
		  "velocity": 0.3228346456692913
		},
		{
		  "duration": 0.4427083333333144,
		  "durationTicks": 425,
		  "midi": 59,
		  "name": "B3",
		  "ticks": 184711,
		  "time": 192.40729166666668,
		  "velocity": 0.4881889763779528
		},
		{
		  "duration": 0.30312500000002274,
		  "durationTicks": 291,
		  "midi": 71,
		  "name": "B4",
		  "ticks": 184812,
		  "time": 192.5125,
		  "velocity": 0.4015748031496063
		},
		{
		  "duration": 0.13958333333332007,
		  "durationTicks": 134,
		  "midi": 28,
		  "name": "E1",
		  "ticks": 185370,
		  "time": 193.09375,
		  "velocity": 0.3858267716535433
		},
		{
		  "duration": 0.17395833333333144,
		  "durationTicks": 167,
		  "midi": 40,
		  "name": "E2",
		  "ticks": 185393,
		  "time": 193.11770833333333,
		  "velocity": 0.4645669291338583
		},
		{
		  "duration": 0.1395833333333485,
		  "durationTicks": 134,
		  "midi": 64,
		  "name": "E4",
		  "ticks": 185459,
		  "time": 193.18645833333332,
		  "velocity": 0.5118110236220472
		},
		{
		  "duration": 0.13958333333332007,
		  "durationTicks": 134,
		  "midi": 71,
		  "name": "B4",
		  "ticks": 185482,
		  "time": 193.21041666666667,
		  "velocity": 0.49606299212598426
		},
		{
		  "duration": 0.16249999999999432,
		  "durationTicks": 156,
		  "midi": 76,
		  "name": "E5",
		  "ticks": 185649,
		  "time": 193.384375,
		  "velocity": 0.4094488188976378
		},
		{
		  "duration": 0.3604166666666515,
		  "durationTicks": 346,
		  "midi": 40,
		  "name": "E2",
		  "ticks": 185861,
		  "time": 193.60520833333334,
		  "velocity": 0.3858267716535433
		},
		{
		  "duration": 0.22083333333333144,
		  "durationTicks": 212,
		  "midi": 76,
		  "name": "E5",
		  "ticks": 185872,
		  "time": 193.61666666666667,
		  "velocity": 0.3700787401574803
		},
		{
		  "duration": 0.16249999999999432,
		  "durationTicks": 156,
		  "midi": 71,
		  "name": "B4",
		  "ticks": 185872,
		  "time": 193.61666666666667,
		  "velocity": 0.4566929133858268
		},
		{
		  "duration": 0.13958333333332007,
		  "durationTicks": 134,
		  "midi": 64,
		  "name": "E4",
		  "ticks": 185872,
		  "time": 193.61666666666667,
		  "velocity": 0.5118110236220472
		},
		{
		  "duration": 0.24375000000000568,
		  "durationTicks": 234,
		  "midi": 76,
		  "name": "E5",
		  "ticks": 186084,
		  "time": 193.8375,
		  "velocity": 0.4409448818897638
		},
		{
		  "duration": 0.37187499999998863,
		  "durationTicks": 357,
		  "midi": 64,
		  "name": "E4",
		  "ticks": 186206,
		  "time": 193.96458333333334,
		  "velocity": 0.3700787401574803
		},
		{
		  "duration": 0.3020833333333428,
		  "durationTicks": 290,
		  "midi": 40,
		  "name": "E2",
		  "ticks": 186206,
		  "time": 193.96458333333334,
		  "velocity": 0.47244094488188976
		},
		{
		  "duration": 0.16249999999999432,
		  "durationTicks": 156,
		  "midi": 59,
		  "name": "B3",
		  "ticks": 186217,
		  "time": 193.97604166666667,
		  "velocity": 0.4330708661417323
		},
		{
		  "duration": 0.16250000000002274,
		  "durationTicks": 156,
		  "midi": 28,
		  "name": "E1",
		  "ticks": 186295,
		  "time": 194.05729166666666,
		  "velocity": 0.41732283464566927
		},
		{
		  "duration": 0.19687499999997726,
		  "durationTicks": 189,
		  "midi": 76,
		  "name": "E5",
		  "ticks": 186318,
		  "time": 194.08125,
		  "velocity": 0.5511811023622047
		},
		{
		  "duration": 0.23229166666666856,
		  "durationTicks": 223,
		  "midi": 76,
		  "name": "E5",
		  "ticks": 186552,
		  "time": 194.325,
		  "velocity": 0.3543307086614173
		},
		{
		  "duration": 0.15104166666668561,
		  "durationTicks": 145,
		  "midi": 71,
		  "name": "B4",
		  "ticks": 186552,
		  "time": 194.325,
		  "velocity": 0.44881889763779526
		},
		{
		  "duration": 0.17395833333333144,
		  "durationTicks": 167,
		  "midi": 52,
		  "name": "E3",
		  "ticks": 186552,
		  "time": 194.325,
		  "velocity": 0.2992125984251969
		},
		{
		  "duration": 0.17395833333333144,
		  "durationTicks": 167,
		  "midi": 64,
		  "name": "E4",
		  "ticks": 186563,
		  "time": 194.33645833333333,
		  "velocity": 0.5354330708661418
		},
		{
		  "duration": 0.20937499999999432,
		  "durationTicks": 201,
		  "midi": 31,
		  "name": "G1",
		  "ticks": 186652,
		  "time": 194.42916666666667,
		  "velocity": 0.4015748031496063
		},
		{
		  "duration": 0.25625000000002274,
		  "durationTicks": 246,
		  "midi": 76,
		  "name": "E5",
		  "ticks": 186775,
		  "time": 194.55729166666666,
		  "velocity": 0.4015748031496063
		},
		{
		  "duration": 0.19895833333333712,
		  "durationTicks": 191,
		  "midi": 64,
		  "name": "E4",
		  "ticks": 186775,
		  "time": 194.55729166666666,
		  "velocity": 0.2992125984251969
		},
		{
		  "duration": 0.12916666666666288,
		  "durationTicks": 124,
		  "midi": 31,
		  "name": "G1",
		  "ticks": 186864,
		  "time": 194.65,
		  "velocity": 0.48031496062992124
		},
		{
		  "duration": 0.1291666666666913,
		  "durationTicks": 124,
		  "midi": 52,
		  "name": "E3",
		  "ticks": 186897,
		  "time": 194.684375,
		  "velocity": 0.4330708661417323
		},
		{
		  "duration": 0.20937499999999432,
		  "durationTicks": 201,
		  "midi": 76,
		  "name": "E5",
		  "ticks": 187021,
		  "time": 194.81354166666668,
		  "velocity": 0.5905511811023622
		},
		{
		  "duration": 0.19687500000000568,
		  "durationTicks": 189,
		  "midi": 43,
		  "name": "G2",
		  "ticks": 187043,
		  "time": 194.83645833333333,
		  "velocity": 0.4566929133858268
		},
		{
		  "duration": 0.1395833333333485,
		  "durationTicks": 134,
		  "midi": 100,
		  "name": "E7",
		  "ticks": 187054,
		  "time": 194.84791666666666,
		  "velocity": 0.3228346456692913
		},
		{
		  "duration": 0.1510416666666572,
		  "durationTicks": 145,
		  "midi": 52,
		  "name": "E3",
		  "ticks": 187233,
		  "time": 195.034375,
		  "velocity": 0.31496062992125984
		},
		{
		  "duration": 0.36041666666667993,
		  "durationTicks": 346,
		  "midi": 76,
		  "name": "E5",
		  "ticks": 187244,
		  "time": 195.04583333333332,
		  "velocity": 0.3700787401574803
		},
		{
		  "duration": 0.15104166666668561,
		  "durationTicks": 145,
		  "midi": 64,
		  "name": "E4",
		  "ticks": 187244,
		  "time": 195.04583333333332,
		  "velocity": 0.4330708661417323
		},
		{
		  "duration": 0.1395833333333485,
		  "durationTicks": 134,
		  "midi": 62,
		  "name": "D4",
		  "ticks": 187244,
		  "time": 195.04583333333332,
		  "velocity": 0.3228346456692913
		},
		{
		  "duration": 0.15104166666668561,
		  "durationTicks": 145,
		  "midi": 43,
		  "name": "G2",
		  "ticks": 187244,
		  "time": 195.04583333333332,
		  "velocity": 0.4015748031496063
		},
		{
		  "duration": 0.15104166666668561,
		  "durationTicks": 145,
		  "midi": 40,
		  "name": "E2",
		  "ticks": 187244,
		  "time": 195.04583333333332,
		  "velocity": 0.29133858267716534
		},
		{
		  "duration": 0.15104166666668561,
		  "durationTicks": 145,
		  "midi": 31,
		  "name": "G1",
		  "ticks": 187266,
		  "time": 195.06875,
		  "velocity": 0.5354330708661418
		},
		{
		  "duration": 0.19687500000000568,
		  "durationTicks": 189,
		  "midi": 43,
		  "name": "G2",
		  "ticks": 187389,
		  "time": 195.196875,
		  "velocity": 0.3228346456692913
		},
		{
		  "duration": 0.23229166666666856,
		  "durationTicks": 223,
		  "midi": 43,
		  "name": "G2",
		  "ticks": 187578,
		  "time": 195.39375,
		  "velocity": 0.6062992125984252
		},
		{
		  "duration": 0.22083333333335986,
		  "durationTicks": 212,
		  "midi": 76,
		  "name": "E5",
		  "ticks": 187589,
		  "time": 195.40520833333332,
		  "velocity": 0.44881889763779526
		},
		{
		  "duration": 0.16250000000002274,
		  "durationTicks": 156,
		  "midi": 64,
		  "name": "E4",
		  "ticks": 187589,
		  "time": 195.40520833333332,
		  "velocity": 0.6062992125984252
		},
		{
		  "duration": 0.2552083333333428,
		  "durationTicks": 245,
		  "midi": 31,
		  "name": "G1",
		  "ticks": 187690,
		  "time": 195.51041666666666,
		  "velocity": 0.5275590551181102
		},
		{
		  "duration": 0.13958333333332007,
		  "durationTicks": 134,
		  "midi": 76,
		  "name": "E5",
		  "ticks": 187801,
		  "time": 195.62604166666668,
		  "velocity": 0.5275590551181102
		},
		{
		  "duration": 0.29062499999997726,
		  "durationTicks": 279,
		  "midi": 43,
		  "name": "G2",
		  "ticks": 187801,
		  "time": 195.62604166666668,
		  "velocity": 0.44881889763779526
		},
		{
		  "duration": 0.23229166666666856,
		  "durationTicks": 223,
		  "midi": 76,
		  "name": "E5",
		  "ticks": 187935,
		  "time": 195.765625,
		  "velocity": 0.44881889763779526
		},
		{
		  "duration": 0.13958333333332007,
		  "durationTicks": 134,
		  "midi": 64,
		  "name": "E4",
		  "ticks": 187935,
		  "time": 195.765625,
		  "velocity": 0.5354330708661418
		},
		{
		  "duration": 0.18541666666666856,
		  "durationTicks": 178,
		  "midi": 43,
		  "name": "G2",
		  "ticks": 188080,
		  "time": 195.91666666666666,
		  "velocity": 0.5669291338582677
		},
		{
		  "duration": 0.13958333333332007,
		  "durationTicks": 134,
		  "midi": 76,
		  "name": "E5",
		  "ticks": 188158,
		  "time": 195.99791666666667,
		  "velocity": 0.6141732283464567
		},
		{
		  "duration": 0.20937499999999432,
		  "durationTicks": 201,
		  "midi": 31,
		  "name": "G1",
		  "ticks": 188180,
		  "time": 196.02083333333334,
		  "velocity": 0.5590551181102362
		},
		{
		  "duration": 0.23229166666666856,
		  "durationTicks": 223,
		  "midi": 76,
		  "name": "E5",
		  "ticks": 188403,
		  "time": 196.253125,
		  "velocity": 0.5354330708661418
		},
		{
		  "duration": 0.18541666666666856,
		  "durationTicks": 178,
		  "midi": 43,
		  "name": "G2",
		  "ticks": 188425,
		  "time": 196.27604166666666,
		  "velocity": 0.44881889763779526
		},
		{
		  "duration": 0.13958333333332007,
		  "durationTicks": 134,
		  "midi": 64,
		  "name": "E4",
		  "ticks": 188615,
		  "time": 196.47395833333334,
		  "velocity": 0.5196850393700787
		},
		{
		  "duration": 0.23333333333332007,
		  "durationTicks": 224,
		  "midi": 76,
		  "name": "E5",
		  "ticks": 188626,
		  "time": 196.48541666666668,
		  "velocity": 0.41732283464566927
		},
		{
		  "duration": 0.18541666666664014,
		  "durationTicks": 178,
		  "midi": 45,
		  "name": "A2",
		  "ticks": 188626,
		  "time": 196.48541666666668,
		  "velocity": 0.44881889763779526
		},
		{
		  "duration": 0.16249999999999432,
		  "durationTicks": 156,
		  "midi": 33,
		  "name": "A1",
		  "ticks": 188626,
		  "time": 196.48541666666668,
		  "velocity": 0.4015748031496063
		},
		{
		  "duration": 0.36145833333333144,
		  "durationTicks": 347,
		  "midi": 69,
		  "name": "A4",
		  "ticks": 188637,
		  "time": 196.496875,
		  "velocity": 0.3858267716535433
		},
		{
		  "duration": 0.24479166666668561,
		  "durationTicks": 235,
		  "midi": 43,
		  "name": "G2",
		  "ticks": 188637,
		  "time": 196.496875,
		  "velocity": 0.41732283464566927
		},
		{
		  "duration": 0.1875,
		  "durationTicks": 180,
		  "midi": 40,
		  "name": "E2",
		  "ticks": 188637,
		  "time": 196.496875,
		  "velocity": 0.4645669291338583
		},
		{
		  "duration": 0.31354166666667993,
		  "durationTicks": 301,
		  "midi": 57,
		  "name": "A3",
		  "ticks": 188839,
		  "time": 196.70729166666666,
		  "velocity": 0.3464566929133858
		},
		{
		  "duration": 0.1395833333333485,
		  "durationTicks": 134,
		  "midi": 45,
		  "name": "A2",
		  "ticks": 188839,
		  "time": 196.70729166666666,
		  "velocity": 0.2440944881889764
		},
		{
		  "duration": 0.36041666666667993,
		  "durationTicks": 346,
		  "midi": 76,
		  "name": "E5",
		  "ticks": 188850,
		  "time": 196.71875,
		  "velocity": 0.36220472440944884
		},
		{
		  "duration": 0.13958333333332007,
		  "durationTicks": 134,
		  "midi": 50,
		  "name": "D3",
		  "ticks": 188861,
		  "time": 196.73020833333334,
		  "velocity": 0.4409448818897638
		},
		{
		  "duration": 0.19687499999997726,
		  "durationTicks": 189,
		  "midi": 45,
		  "name": "A2",
		  "ticks": 188973,
		  "time": 196.846875,
		  "velocity": 0.5118110236220472
		},
		{
		  "duration": 0.22083333333333144,
		  "durationTicks": 212,
		  "midi": 33,
		  "name": "A1",
		  "ticks": 189084,
		  "time": 196.9625,
		  "velocity": 0.5511811023622047
		},
		{
		  "duration": 0.4645833333333371,
		  "durationTicks": 446,
		  "midi": 45,
		  "name": "A2",
		  "ticks": 189207,
		  "time": 197.090625,
		  "velocity": 0.3858267716535433
		},
		{
		  "duration": 0.4416666666666913,
		  "durationTicks": 424,
		  "midi": 76,
		  "name": "E5",
		  "ticks": 189329,
		  "time": 197.21770833333332,
		  "velocity": 0.4094488188976378
		},
		{
		  "duration": 0.3020833333333144,
		  "durationTicks": 290,
		  "midi": 33,
		  "name": "A1",
		  "ticks": 189530,
		  "time": 197.42708333333334,
		  "velocity": 0.4881889763779528
		},
		{
		  "duration": 0.15104166666668561,
		  "durationTicks": 145,
		  "midi": 64,
		  "name": "E4",
		  "ticks": 189552,
		  "time": 197.45,
		  "velocity": 0.5275590551181102
		},
		{
		  "duration": 0.36041666666667993,
		  "durationTicks": 346,
		  "midi": 45,
		  "name": "A2",
		  "ticks": 189653,
		  "time": 197.55520833333333,
		  "velocity": 0.3858267716535433
		},
		{
		  "duration": 0.13958333333332007,
		  "durationTicks": 134,
		  "midi": 57,
		  "name": "A3",
		  "ticks": 189675,
		  "time": 197.578125,
		  "velocity": 0.3779527559055118
		},
		{
		  "duration": 0.2552083333333428,
		  "durationTicks": 245,
		  "midi": 76,
		  "name": "E5",
		  "ticks": 189764,
		  "time": 197.67083333333332,
		  "velocity": 0.3937007874015748
		},
		{
		  "duration": 0.16249999999999432,
		  "durationTicks": 156,
		  "midi": 52,
		  "name": "E3",
		  "ticks": 189887,
		  "time": 197.79895833333333,
		  "velocity": 0.3779527559055118
		},
		{
		  "duration": 0.3604166666666515,
		  "durationTicks": 346,
		  "midi": 64,
		  "name": "E4",
		  "ticks": 189898,
		  "time": 197.81041666666667,
		  "velocity": 0.44881889763779526
		},
		{
		  "duration": 0.17395833333333144,
		  "durationTicks": 167,
		  "midi": 45,
		  "name": "A2",
		  "ticks": 189998,
		  "time": 197.91458333333333,
		  "velocity": 0.4094488188976378
		},
		{
		  "duration": 0.17395833333333144,
		  "durationTicks": 167,
		  "midi": 76,
		  "name": "E5",
		  "ticks": 190009,
		  "time": 197.92604166666666,
		  "velocity": 0.49606299212598426
		},
		{
		  "duration": 0.18541666666666856,
		  "durationTicks": 178,
		  "midi": 57,
		  "name": "A3",
		  "ticks": 190009,
		  "time": 197.92604166666666,
		  "velocity": 0.33858267716535434
		},
		{
		  "duration": 0.1510416666666572,
		  "durationTicks": 145,
		  "midi": 61,
		  "name": "C#4",
		  "ticks": 190020,
		  "time": 197.9375,
		  "velocity": 0.48031496062992124
		},
		{
		  "duration": 0.13958333333332007,
		  "durationTicks": 134,
		  "midi": 71,
		  "name": "B4",
		  "ticks": 190243,
		  "time": 198.16979166666667,
		  "velocity": 0.41732283464566927
		},
		{
		  "duration": 0.3604166666666515,
		  "durationTicks": 346,
		  "midi": 64,
		  "name": "E4",
		  "ticks": 190243,
		  "time": 198.16979166666667,
		  "velocity": 0.4251968503937008
		},
		{
		  "duration": 0.20937499999999432,
		  "durationTicks": 201,
		  "midi": 76,
		  "name": "E5",
		  "ticks": 190254,
		  "time": 198.18125,
		  "velocity": 0.3937007874015748
		},
		{
		  "duration": 0.17395833333333144,
		  "durationTicks": 167,
		  "midi": 57,
		  "name": "A3",
		  "ticks": 190410,
		  "time": 198.34375,
		  "velocity": 0.44881889763779526
		},
		{
		  "duration": 0.2552083333333428,
		  "durationTicks": 245,
		  "midi": 76,
		  "name": "E5",
		  "ticks": 190455,
		  "time": 198.390625,
		  "velocity": 0.3937007874015748
		},
		{
		  "duration": 0.140625,
		  "durationTicks": 135,
		  "midi": 52,
		  "name": "E3",
		  "ticks": 190578,
		  "time": 198.51875,
		  "velocity": 0.4251968503937008
		},
		{
		  "duration": 0.13958333333332007,
		  "durationTicks": 134,
		  "midi": 71,
		  "name": "B4",
		  "ticks": 190578,
		  "time": 198.51875,
		  "velocity": 0.48031496062992124
		},
		{
		  "duration": 0.1291666666666913,
		  "durationTicks": 124,
		  "midi": 64,
		  "name": "E4",
		  "ticks": 190589,
		  "time": 198.53020833333332,
		  "velocity": 0.48031496062992124
		},
		{
		  "duration": 0.1875,
		  "durationTicks": 180,
		  "midi": 100,
		  "name": "E7",
		  "ticks": 190700,
		  "time": 198.64583333333334,
		  "velocity": 0.3700787401574803
		},
		{
		  "duration": 0.36145833333333144,
		  "durationTicks": 347,
		  "midi": 76,
		  "name": "E5",
		  "ticks": 190700,
		  "time": 198.64583333333334,
		  "velocity": 0.44881889763779526
		},
		{
		  "duration": 0.17395833333333144,
		  "durationTicks": 167,
		  "midi": 47,
		  "name": "B2",
		  "ticks": 190757,
		  "time": 198.70520833333333,
		  "velocity": 0.3464566929133858
		},
		{
		  "duration": 0.1395833333333485,
		  "durationTicks": 134,
		  "midi": 35,
		  "name": "B1",
		  "ticks": 190913,
		  "time": 198.86770833333333,
		  "velocity": 0.3858267716535433
		},
		{
		  "duration": 0.1395833333333485,
		  "durationTicks": 134,
		  "midi": 59,
		  "name": "B3",
		  "ticks": 190913,
		  "time": 198.86770833333333,
		  "velocity": 0.48031496062992124
		},
		{
		  "duration": 0.17395833333333144,
		  "durationTicks": 167,
		  "midi": 71,
		  "name": "B4",
		  "ticks": 190936,
		  "time": 198.89166666666668,
		  "velocity": 0.5511811023622047
		},
		{
		  "duration": 0.16249999999999432,
		  "durationTicks": 156,
		  "midi": 64,
		  "name": "E4",
		  "ticks": 190936,
		  "time": 198.89166666666668,
		  "velocity": 0.5118110236220472
		},
		{
		  "duration": 0.18541666666664014,
		  "durationTicks": 178,
		  "midi": 47,
		  "name": "B2",
		  "ticks": 190936,
		  "time": 198.89166666666668,
		  "velocity": 0.4015748031496063
		},
		{
		  "duration": 0.22083333333333144,
		  "durationTicks": 212,
		  "midi": 76,
		  "name": "E5",
		  "ticks": 191047,
		  "time": 199.00729166666667,
		  "velocity": 0.4409448818897638
		},
		{
		  "duration": 0.1510416666666572,
		  "durationTicks": 145,
		  "midi": 64,
		  "name": "E4",
		  "ticks": 191236,
		  "time": 199.20416666666668,
		  "velocity": 0.5669291338582677
		},
		{
		  "duration": 0.13958333333332007,
		  "durationTicks": 134,
		  "midi": 76,
		  "name": "E5",
		  "ticks": 191270,
		  "time": 199.23958333333334,
		  "velocity": 0.2047244094488189
		},
		{
		  "duration": 0.37187499999998863,
		  "durationTicks": 357,
		  "midi": 71,
		  "name": "B4",
		  "ticks": 191270,
		  "time": 199.23958333333334,
		  "velocity": 0.33858267716535434
		},
		{
		  "duration": 0.17395833333333144,
		  "durationTicks": 167,
		  "midi": 59,
		  "name": "B3",
		  "ticks": 191270,
		  "time": 199.23958333333334,
		  "velocity": 0.4251968503937008
		},
		{
		  "duration": 0.18541666666664014,
		  "durationTicks": 178,
		  "midi": 35,
		  "name": "B1",
		  "ticks": 191326,
		  "time": 199.29791666666668,
		  "velocity": 0.47244094488188976
		},
		{
		  "duration": 0.23229166666666856,
		  "durationTicks": 223,
		  "midi": 64,
		  "name": "E4",
		  "ticks": 191393,
		  "time": 199.36770833333333,
		  "velocity": 0.47244094488188976
		},
		{
		  "duration": 0.22083333333333144,
		  "durationTicks": 212,
		  "midi": 76,
		  "name": "E5",
		  "ticks": 191404,
		  "time": 199.37916666666666,
		  "velocity": 0.5748031496062992
		},
		{
		  "duration": 0.23229166666666856,
		  "durationTicks": 223,
		  "midi": 47,
		  "name": "B2",
		  "ticks": 191404,
		  "time": 199.37916666666666,
		  "velocity": 0.5905511811023622
		},
		{
		  "duration": 0.13958333333332007,
		  "durationTicks": 134,
		  "midi": 40,
		  "name": "E2",
		  "ticks": 191604,
		  "time": 199.5875,
		  "velocity": 0.28346456692913385
		},
		{
		  "duration": 0.23229166666666856,
		  "durationTicks": 223,
		  "midi": 76,
		  "name": "E5",
		  "ticks": 191615,
		  "time": 199.59895833333334,
		  "velocity": 0.44881889763779526
		},
		{
		  "duration": 0.24374999999997726,
		  "durationTicks": 234,
		  "midi": 64,
		  "name": "E4",
		  "ticks": 191615,
		  "time": 199.59895833333334,
		  "velocity": 0.3858267716535433
		},
		{
		  "duration": 0.1510416666666572,
		  "durationTicks": 145,
		  "midi": 59,
		  "name": "B3",
		  "ticks": 191615,
		  "time": 199.59895833333334,
		  "velocity": 0.41732283464566927
		},
		{
		  "duration": 0.17395833333333144,
		  "durationTicks": 167,
		  "midi": 71,
		  "name": "B4",
		  "ticks": 191627,
		  "time": 199.61145833333333,
		  "velocity": 0.5196850393700787
		},
		{
		  "duration": 0.19687500000000568,
		  "durationTicks": 189,
		  "midi": 47,
		  "name": "B2",
		  "ticks": 191749,
		  "time": 199.73854166666666,
		  "velocity": 0.4566929133858268
		},
		{
		  "duration": 0.2666666666666515,
		  "durationTicks": 256,
		  "midi": 76,
		  "name": "E5",
		  "ticks": 191838,
		  "time": 199.83125,
		  "velocity": 0.3858267716535433
		},
		{
		  "duration": 0.23229166666666856,
		  "durationTicks": 223,
		  "midi": 52,
		  "name": "E3",
		  "ticks": 191838,
		  "time": 199.83125,
		  "velocity": 0.29133858267716534
		},
		{
		  "duration": 0.24375000000000568,
		  "durationTicks": 234,
		  "midi": 64,
		  "name": "E4",
		  "ticks": 191849,
		  "time": 199.84270833333332,
		  "velocity": 0.5196850393700787
		},
		{
		  "duration": 0.23229166666666856,
		  "durationTicks": 223,
		  "midi": 59,
		  "name": "B3",
		  "ticks": 191849,
		  "time": 199.84270833333332,
		  "velocity": 0.31496062992125984
		},
		{
		  "duration": 0.2906250000000057,
		  "durationTicks": 279,
		  "midi": 47,
		  "name": "B2",
		  "ticks": 191950,
		  "time": 199.94791666666666,
		  "velocity": 0.33858267716535434
		},
		{
		  "duration": 0.2552083333333144,
		  "durationTicks": 245,
		  "midi": 43,
		  "name": "G2",
		  "ticks": 192084,
		  "time": 200.0875,
		  "velocity": 0.2992125984251969
		},
		{
		  "duration": 0.22083333333333144,
		  "durationTicks": 212,
		  "midi": 76,
		  "name": "E5",
		  "ticks": 192095,
		  "time": 200.09895833333334,
		  "velocity": 0.5748031496062992
		},
		{
		  "duration": 0.32500000000001705,
		  "durationTicks": 312,
		  "midi": 31,
		  "name": "G1",
		  "ticks": 192184,
		  "time": 200.19166666666666,
		  "velocity": 0.3700787401574803
		},
		{
		  "duration": 0.37291666666666856,
		  "durationTicks": 358,
		  "midi": 76,
		  "name": "E5",
		  "ticks": 192306,
		  "time": 200.31875,
		  "velocity": 0.3779527559055118
		},
		{
		  "duration": 0.18541666666666856,
		  "durationTicks": 178,
		  "midi": 64,
		  "name": "E4",
		  "ticks": 192318,
		  "time": 200.33125,
		  "velocity": 0.5275590551181102
		},
		{
		  "duration": 0.17395833333335986,
		  "durationTicks": 167,
		  "midi": 71,
		  "name": "B4",
		  "ticks": 192329,
		  "time": 200.34270833333332,
		  "velocity": 0.5511811023622047
		},
		{
		  "duration": 0.15104166666668561,
		  "durationTicks": 145,
		  "midi": 43,
		  "name": "G2",
		  "ticks": 192329,
		  "time": 200.34270833333332,
		  "velocity": 0.4251968503937008
		},
		{
		  "duration": 0.32604166666666856,
		  "durationTicks": 313,
		  "midi": 74,
		  "name": "D5",
		  "ticks": 192563,
		  "time": 200.58645833333333,
		  "velocity": 0.3937007874015748
		},
		{
		  "duration": 0.12916666666666288,
		  "durationTicks": 124,
		  "midi": 57,
		  "name": "A3",
		  "ticks": 192563,
		  "time": 200.58645833333333,
		  "velocity": 0.4645669291338583
		},
		{
		  "duration": 0.23229166666666856,
		  "durationTicks": 223,
		  "midi": 76,
		  "name": "E5",
		  "ticks": 192664,
		  "time": 200.69166666666666,
		  "velocity": 0.33070866141732286
		},
		{
		  "duration": 0.22083333333333144,
		  "durationTicks": 212,
		  "midi": 59,
		  "name": "B3",
		  "ticks": 192765,
		  "time": 200.796875,
		  "velocity": 0.4645669291338583
		},
		{
		  "duration": 0.23229166666666856,
		  "durationTicks": 223,
		  "midi": 55,
		  "name": "G3",
		  "ticks": 192765,
		  "time": 200.796875,
		  "velocity": 0.4251968503937008
		},
		{
		  "duration": 0.13958333333332007,
		  "durationTicks": 134,
		  "midi": 40,
		  "name": "E2",
		  "ticks": 192765,
		  "time": 200.796875,
		  "velocity": 0.5511811023622047
		},
		{
		  "duration": 0.5687499999999943,
		  "durationTicks": 546,
		  "midi": 28,
		  "name": "E1",
		  "ticks": 192787,
		  "time": 200.81979166666667,
		  "velocity": 0.3779527559055118
		},
		{
		  "duration": 0.36041666666667993,
		  "durationTicks": 346,
		  "midi": 76,
		  "name": "E5",
		  "ticks": 192887,
		  "time": 200.92395833333333,
		  "velocity": 0.5511811023622047
		},
		{
		  "duration": 0.3604166666666515,
		  "durationTicks": 346,
		  "midi": 40,
		  "name": "E2",
		  "ticks": 192898,
		  "time": 200.93541666666667,
		  "velocity": 0.3464566929133858
		},
		{
		  "duration": 0.23229166666666856,
		  "durationTicks": 223,
		  "midi": 76,
		  "name": "E5",
		  "ticks": 193233,
		  "time": 201.284375,
		  "velocity": 0.6220472440944882
		},
		{
		  "duration": 0.13958333333332007,
		  "durationTicks": 134,
		  "midi": 71,
		  "name": "B4",
		  "ticks": 193233,
		  "time": 201.284375,
		  "velocity": 0.4094488188976378
		},
		{
		  "duration": 0.15104166666668561,
		  "durationTicks": 145,
		  "midi": 59,
		  "name": "B3",
		  "ticks": 193244,
		  "time": 201.29583333333332,
		  "velocity": 0.5039370078740157
		},
		{
		  "duration": 0.2552083333333428,
		  "durationTicks": 245,
		  "midi": 40,
		  "name": "E2",
		  "ticks": 193244,
		  "time": 201.29583333333332,
		  "velocity": 0.4094488188976378
		},
		{
		  "duration": 0.24374999999997726,
		  "durationTicks": 234,
		  "midi": 76,
		  "name": "E5",
		  "ticks": 193456,
		  "time": 201.51666666666668,
		  "velocity": 0.6929133858267716
		},
		{
		  "duration": 0.20937499999999432,
		  "durationTicks": 201,
		  "midi": 40,
		  "name": "E2",
		  "ticks": 193489,
		  "time": 201.55104166666666,
		  "velocity": 0.4409448818897638
		},
		{
		  "duration": 0.23229166666666856,
		  "durationTicks": 223,
		  "midi": 59,
		  "name": "B3",
		  "ticks": 193578,
		  "time": 201.64375,
		  "velocity": 0.3937007874015748
		},
		{
		  "duration": 0.17395833333335986,
		  "durationTicks": 167,
		  "midi": 55,
		  "name": "G3",
		  "ticks": 193679,
		  "time": 201.74895833333332,
		  "velocity": 0.3700787401574803
		},
		{
		  "duration": 0.2552083333333428,
		  "durationTicks": 245,
		  "midi": 76,
		  "name": "E5",
		  "ticks": 193690,
		  "time": 201.76041666666666,
		  "velocity": 0.5118110236220472
		},
		{
		  "duration": 0.18541666666666856,
		  "durationTicks": 178,
		  "midi": 40,
		  "name": "E2",
		  "ticks": 193690,
		  "time": 201.76041666666666,
		  "velocity": 0.5748031496062992
		},
		{
		  "duration": 0.17395833333333144,
		  "durationTicks": 167,
		  "midi": 28,
		  "name": "E1",
		  "ticks": 193690,
		  "time": 201.76041666666666,
		  "velocity": 0.4251968503937008
		},
		{
		  "duration": 0.3479166666666629,
		  "durationTicks": 334,
		  "midi": 76,
		  "name": "E5",
		  "ticks": 193935,
		  "time": 202.015625,
		  "velocity": 0.6062992125984252
		},
		{
		  "duration": 0.20937499999999432,
		  "durationTicks": 201,
		  "midi": 52,
		  "name": "E3",
		  "ticks": 193946,
		  "time": 202.02708333333334,
		  "velocity": 0.4330708661417323
		},
		{
		  "duration": 0.1395833333333485,
		  "durationTicks": 134,
		  "midi": 43,
		  "name": "G2",
		  "ticks": 194080,
		  "time": 202.16666666666666,
		  "velocity": 0.4251968503937008
		},
		{
		  "duration": 0.16249999999999432,
		  "durationTicks": 156,
		  "midi": 31,
		  "name": "G1",
		  "ticks": 194169,
		  "time": 202.259375,
		  "velocity": 0.5511811023622047
		},
		{
		  "duration": 0.24375000000000568,
		  "durationTicks": 234,
		  "midi": 43,
		  "name": "G2",
		  "ticks": 194247,
		  "time": 202.340625,
		  "velocity": 0.29133858267716534
		},
		{
		  "duration": 0.1395833333333485,
		  "durationTicks": 134,
		  "midi": 76,
		  "name": "E5",
		  "ticks": 194269,
		  "time": 202.36354166666666,
		  "velocity": 0.6141732283464567
		},
		{
		  "duration": 0.1510416666666572,
		  "durationTicks": 145,
		  "midi": 52,
		  "name": "E3",
		  "ticks": 194280,
		  "time": 202.375,
		  "velocity": 0.4251968503937008
		},
		{
		  "duration": 0.3499999999999943,
		  "durationTicks": 336,
		  "midi": 40,
		  "name": "E2",
		  "ticks": 194280,
		  "time": 202.375,
		  "velocity": 0.3543307086614173
		},
		{
		  "duration": 0.19895833333333712,
		  "durationTicks": 191,
		  "midi": 100,
		  "name": "E7",
		  "ticks": 194381,
		  "time": 202.48020833333334,
		  "velocity": 0.28346456692913385
		},
		{
		  "duration": 0.33749999999997726,
		  "durationTicks": 324,
		  "midi": 76,
		  "name": "E5",
		  "ticks": 194403,
		  "time": 202.503125,
		  "velocity": 0.48031496062992124
		},
		{
		  "duration": 0.15208333333333712,
		  "durationTicks": 146,
		  "midi": 31,
		  "name": "G1",
		  "ticks": 194459,
		  "time": 202.56145833333332,
		  "velocity": 0.44881889763779526
		},
		{
		  "duration": 0.12916666666666288,
		  "durationTicks": 124,
		  "midi": 43,
		  "name": "G2",
		  "ticks": 194481,
		  "time": 202.584375,
		  "velocity": 0.5905511811023622
		},
		{
		  "duration": 0.23229166666666856,
		  "durationTicks": 223,
		  "midi": 43,
		  "name": "G2",
		  "ticks": 194605,
		  "time": 202.71354166666666,
		  "velocity": 0.47244094488188976
		},
		{
		  "duration": 0.17395833333333144,
		  "durationTicks": 167,
		  "midi": 62,
		  "name": "D4",
		  "ticks": 194616,
		  "time": 202.725,
		  "velocity": 0.4015748031496063
		},
		{
		  "duration": 0.1395833333333485,
		  "durationTicks": 134,
		  "midi": 40,
		  "name": "E2",
		  "ticks": 194616,
		  "time": 202.725,
		  "velocity": 0.4566929133858268
		},
		{
		  "duration": 0.20937499999999432,
		  "durationTicks": 201,
		  "midi": 31,
		  "name": "G1",
		  "ticks": 194616,
		  "time": 202.725,
		  "velocity": 0.5118110236220472
		},
		{
		  "duration": 0.4645833333333371,
		  "durationTicks": 446,
		  "midi": 76,
		  "name": "E5",
		  "ticks": 194728,
		  "time": 202.84166666666667,
		  "velocity": 0.4251968503937008
		},
		{
		  "duration": 0.36041666666667993,
		  "durationTicks": 346,
		  "midi": 43,
		  "name": "G2",
		  "ticks": 194828,
		  "time": 202.94583333333333,
		  "velocity": 0.4409448818897638
		},
		{
		  "duration": 0.13958333333332007,
		  "durationTicks": 134,
		  "midi": 69,
		  "name": "A4",
		  "ticks": 194962,
		  "time": 203.08541666666667,
		  "velocity": 0.5511811023622047
		},
		{
		  "duration": 0.3135416666666515,
		  "durationTicks": 301,
		  "midi": 62,
		  "name": "D4",
		  "ticks": 194962,
		  "time": 203.08541666666667,
		  "velocity": 0.3779527559055118
		},
		{
		  "duration": 0.19687500000000568,
		  "durationTicks": 189,
		  "midi": 31,
		  "name": "G1",
		  "ticks": 195073,
		  "time": 203.20104166666667,
		  "velocity": 0.49606299212598426
		},
		{
		  "duration": 0.1395833333333485,
		  "durationTicks": 134,
		  "midi": 76,
		  "name": "E5",
		  "ticks": 195173,
		  "time": 203.30520833333333,
		  "velocity": 0.5039370078740157
		},
		{
		  "duration": 0.37187500000001705,
		  "durationTicks": 357,
		  "midi": 43,
		  "name": "G2",
		  "ticks": 195173,
		  "time": 203.30520833333333,
		  "velocity": 0.4409448818897638
		},
		{
		  "duration": 0.23229166666666856,
		  "durationTicks": 223,
		  "midi": 76,
		  "name": "E5",
		  "ticks": 195307,
		  "time": 203.44479166666667,
		  "velocity": 0.49606299212598426
		},
		{
		  "duration": 0.1510416666666572,
		  "durationTicks": 145,
		  "midi": 69,
		  "name": "A4",
		  "ticks": 195318,
		  "time": 203.45625,
		  "velocity": 0.5748031496062992
		},
		{
		  "duration": 0.32499999999998863,
		  "durationTicks": 312,
		  "midi": 62,
		  "name": "D4",
		  "ticks": 195318,
		  "time": 203.45625,
		  "velocity": 0.29133858267716534
		},
		{
		  "duration": 0.2552083333333144,
		  "durationTicks": 245,
		  "midi": 76,
		  "name": "E5",
		  "ticks": 195530,
		  "time": 203.67708333333334,
		  "velocity": 0.4251968503937008
		},
		{
		  "duration": 0.1510416666666572,
		  "durationTicks": 145,
		  "midi": 43,
		  "name": "G2",
		  "ticks": 195530,
		  "time": 203.67708333333334,
		  "velocity": 0.5354330708661418
		},
		{
		  "duration": 0.20937499999999432,
		  "durationTicks": 201,
		  "midi": 31,
		  "name": "G1",
		  "ticks": 195530,
		  "time": 203.67708333333334,
		  "velocity": 0.5354330708661418
		},
		{
		  "duration": 0.15104166666668561,
		  "durationTicks": 145,
		  "midi": 43,
		  "name": "G2",
		  "ticks": 195764,
		  "time": 203.92083333333332,
		  "velocity": 0.3779527559055118
		},
		{
		  "duration": 0.23229166666666856,
		  "durationTicks": 223,
		  "midi": 76,
		  "name": "E5",
		  "ticks": 195775,
		  "time": 203.93229166666666,
		  "velocity": 0.5590551181102362
		},
		{
		  "duration": 0.27812499999998863,
		  "durationTicks": 267,
		  "midi": 43,
		  "name": "G2",
		  "ticks": 195909,
		  "time": 204.071875,
		  "velocity": 0.3228346456692913
		},
		{
		  "duration": 0.13958333333332007,
		  "durationTicks": 134,
		  "midi": 33,
		  "name": "A1",
		  "ticks": 195965,
		  "time": 204.13020833333334,
		  "velocity": 0.33070866141732286
		},
		{
		  "duration": 0.20937500000002274,
		  "durationTicks": 201,
		  "midi": 45,
		  "name": "A2",
		  "ticks": 195987,
		  "time": 204.153125,
		  "velocity": 0.3228346456692913
		},
		{
		  "duration": 0.24375000000000568,
		  "durationTicks": 234,
		  "midi": 76,
		  "name": "E5",
		  "ticks": 195998,
		  "time": 204.16458333333333,
		  "velocity": 0.4251968503937008
		},
		{
		  "duration": 0.24375000000000568,
		  "durationTicks": 234,
		  "midi": 74,
		  "name": "D5",
		  "ticks": 196009,
		  "time": 204.17604166666666,
		  "velocity": 0.33070866141732286
		},
		{
		  "duration": 0.18541666666666856,
		  "durationTicks": 178,
		  "midi": 62,
		  "name": "D4",
		  "ticks": 196009,
		  "time": 204.17604166666666,
		  "velocity": 0.3779527559055118
		},
		{
		  "duration": 0.19687500000000568,
		  "durationTicks": 189,
		  "midi": 40,
		  "name": "E2",
		  "ticks": 196009,
		  "time": 204.17604166666666,
		  "velocity": 0.4330708661417323
		},
		{
		  "duration": 0.1395833333333485,
		  "durationTicks": 134,
		  "midi": 50,
		  "name": "D3",
		  "ticks": 196210,
		  "time": 204.38541666666666,
		  "velocity": 0.4251968503937008
		},
		{
		  "duration": 0.2333333333333485,
		  "durationTicks": 224,
		  "midi": 45,
		  "name": "A2",
		  "ticks": 196221,
		  "time": 204.396875,
		  "velocity": 0.41732283464566927
		},
		{
		  "duration": 0.3499999999999943,
		  "durationTicks": 336,
		  "midi": 76,
		  "name": "E5",
		  "ticks": 196232,
		  "time": 204.40833333333333,
		  "velocity": 0.3700787401574803
		},
		{
		  "duration": 0.31458333333333144,
		  "durationTicks": 302,
		  "midi": 57,
		  "name": "A3",
		  "ticks": 196232,
		  "time": 204.40833333333333,
		  "velocity": 0.4094488188976378
		},
		{
		  "duration": 0.17395833333333144,
		  "durationTicks": 167,
		  "midi": 38,
		  "name": "D2",
		  "ticks": 196232,
		  "time": 204.40833333333333,
		  "velocity": 0.31496062992125984
		},
		{
		  "duration": 0.13958333333332007,
		  "durationTicks": 134,
		  "midi": 74,
		  "name": "D5",
		  "ticks": 196243,
		  "time": 204.41979166666667,
		  "velocity": 0.5433070866141733
		},
		{
		  "duration": 0.140625,
		  "durationTicks": 135,
		  "midi": 33,
		  "name": "A1",
		  "ticks": 196321,
		  "time": 204.50104166666668,
		  "velocity": 0.3779527559055118
		},
		{
		  "duration": 0.16249999999999432,
		  "durationTicks": 156,
		  "midi": 45,
		  "name": "A2",
		  "ticks": 196445,
		  "time": 204.63020833333334,
		  "velocity": 0.4330708661417323
		},
		{
		  "duration": 0.17395833333333144,
		  "durationTicks": 167,
		  "midi": 33,
		  "name": "A1",
		  "ticks": 196467,
		  "time": 204.653125,
		  "velocity": 0.5118110236220472
		},
		{
		  "duration": 0.37187500000001705,
		  "durationTicks": 357,
		  "midi": 76,
		  "name": "E5",
		  "ticks": 196568,
		  "time": 204.75833333333333,
		  "velocity": 0.5118110236220472
		},
		{
		  "duration": 0.17395833333333144,
		  "durationTicks": 167,
		  "midi": 45,
		  "name": "A2",
		  "ticks": 196735,
		  "time": 204.93229166666666,
		  "velocity": 0.44881889763779526
		},
		{
		  "duration": 0.19687499999997726,
		  "durationTicks": 189,
		  "midi": 33,
		  "name": "A1",
		  "ticks": 196891,
		  "time": 205.09479166666668,
		  "velocity": 0.47244094488188976
		},
		{
		  "duration": 0.22083333333333144,
		  "durationTicks": 212,
		  "midi": 45,
		  "name": "A2",
		  "ticks": 196913,
		  "time": 205.11770833333333,
		  "velocity": 0.4094488188976378
		},
		{
		  "duration": 0.23229166666666856,
		  "durationTicks": 223,
		  "midi": 76,
		  "name": "E5",
		  "ticks": 196924,
		  "time": 205.12916666666666,
		  "velocity": 0.5354330708661418
		},
		{
		  "duration": 0.23229166666666856,
		  "durationTicks": 223,
		  "midi": 76,
		  "name": "E5",
		  "ticks": 197147,
		  "time": 205.36145833333333,
		  "velocity": 0.6535433070866141
		},
		{
		  "duration": 0.15104166666668561,
		  "durationTicks": 145,
		  "midi": 33,
		  "name": "A1",
		  "ticks": 197348,
		  "time": 205.57083333333333,
		  "velocity": 0.44881889763779526
		},
		{
		  "duration": 0.2552083333333428,
		  "durationTicks": 245,
		  "midi": 76,
		  "name": "E5",
		  "ticks": 197370,
		  "time": 205.59375,
		  "velocity": 0.4881889763779528
		},
		{
		  "duration": 0.19687500000000568,
		  "durationTicks": 189,
		  "midi": 45,
		  "name": "A2",
		  "ticks": 197370,
		  "time": 205.59375,
		  "velocity": 0.47244094488188976
		},
		{
		  "duration": 0.22083333333333144,
		  "durationTicks": 212,
		  "midi": 76,
		  "name": "E5",
		  "ticks": 197615,
		  "time": 205.84895833333334,
		  "velocity": 0.5511811023622047
		},
		{
		  "duration": 0.19687499999997726,
		  "durationTicks": 189,
		  "midi": 64,
		  "name": "E4",
		  "ticks": 197615,
		  "time": 205.84895833333334,
		  "velocity": 0.30708661417322836
		},
		{
		  "duration": 0.18541666666666856,
		  "durationTicks": 178,
		  "midi": 45,
		  "name": "A2",
		  "ticks": 197727,
		  "time": 205.965625,
		  "velocity": 0.4015748031496063
		},
		{
		  "duration": 0.13958333333332007,
		  "durationTicks": 134,
		  "midi": 76,
		  "name": "E5",
		  "ticks": 197827,
		  "time": 206.06979166666667,
		  "velocity": 0.5275590551181102
		},
		{
		  "duration": 0.36041666666667993,
		  "durationTicks": 346,
		  "midi": 76,
		  "name": "E5",
		  "ticks": 197961,
		  "time": 206.209375,
		  "velocity": 0.5905511811023622
		},
		{
		  "duration": 0.1395833333333485,
		  "durationTicks": 134,
		  "midi": 52,
		  "name": "E3",
		  "ticks": 197961,
		  "time": 206.209375,
		  "velocity": 0.47244094488188976
		},
		{
		  "duration": 0.19687500000000568,
		  "durationTicks": 189,
		  "midi": 45,
		  "name": "A2",
		  "ticks": 197983,
		  "time": 206.23229166666667,
		  "velocity": 0.29133858267716534
		},
		{
		  "duration": 0.16249999999999432,
		  "durationTicks": 156,
		  "midi": 47,
		  "name": "B2",
		  "ticks": 198128,
		  "time": 206.38333333333333,
		  "velocity": 0.4881889763779528
		},
		{
		  "duration": 0.21041666666667425,
		  "durationTicks": 202,
		  "midi": 47,
		  "name": "B2",
		  "ticks": 198295,
		  "time": 206.55729166666666,
		  "velocity": 0.49606299212598426
		},
		{
		  "duration": 0.3499999999999943,
		  "durationTicks": 336,
		  "midi": 76,
		  "name": "E5",
		  "ticks": 198306,
		  "time": 206.56875,
		  "velocity": 0.5354330708661418
		},
		{
		  "duration": 0.140625,
		  "durationTicks": 135,
		  "midi": 59,
		  "name": "B3",
		  "ticks": 198306,
		  "time": 206.56875,
		  "velocity": 0.4094488188976378
		},
		{
		  "duration": 0.12916666666666288,
		  "durationTicks": 124,
		  "midi": 71,
		  "name": "B4",
		  "ticks": 198318,
		  "time": 206.58125,
		  "velocity": 0.41732283464566927
		},
		{
		  "duration": 0.140625,
		  "durationTicks": 135,
		  "midi": 52,
		  "name": "E3",
		  "ticks": 198318,
		  "time": 206.58125,
		  "velocity": 0.48031496062992124
		},
		{
		  "duration": 0.17500000000001137,
		  "durationTicks": 168,
		  "midi": 35,
		  "name": "B1",
		  "ticks": 198329,
		  "time": 206.59270833333332,
		  "velocity": 0.33858267716535434
		},
		{
		  "duration": 0.13958333333332007,
		  "durationTicks": 134,
		  "midi": 71,
		  "name": "B4",
		  "ticks": 198631,
		  "time": 206.90729166666668,
		  "velocity": 0.4566929133858268
		},
		{
		  "duration": 0.23229166666666856,
		  "durationTicks": 223,
		  "midi": 76,
		  "name": "E5",
		  "ticks": 198642,
		  "time": 206.91875,
		  "velocity": 0.6771653543307087
		},
		{
		  "duration": 0.1395833333333485,
		  "durationTicks": 134,
		  "midi": 52,
		  "name": "E3",
		  "ticks": 198642,
		  "time": 206.91875,
		  "velocity": 0.44881889763779526
		},
		{
		  "duration": 0.48750000000001137,
		  "durationTicks": 468,
		  "midi": 59,
		  "name": "B3",
		  "ticks": 198653,
		  "time": 206.93020833333333,
		  "velocity": 0.33858267716535434
		},
		{
		  "duration": 0.20937499999999432,
		  "durationTicks": 201,
		  "midi": 47,
		  "name": "B2",
		  "ticks": 198664,
		  "time": 206.94166666666666,
		  "velocity": 0.48031496062992124
		},
		{
		  "duration": 0.2552083333333428,
		  "durationTicks": 245,
		  "midi": 76,
		  "name": "E5",
		  "ticks": 198865,
		  "time": 207.15104166666666,
		  "velocity": 0.6141732283464567
		},
		{
		  "duration": 0.1395833333333485,
		  "durationTicks": 134,
		  "midi": 47,
		  "name": "B2",
		  "ticks": 198865,
		  "time": 207.15104166666666,
		  "velocity": 0.6062992125984252
		},
		{
		  "duration": 0.16249999999999432,
		  "durationTicks": 156,
		  "midi": 40,
		  "name": "E2",
		  "ticks": 198988,
		  "time": 207.27916666666667,
		  "velocity": 0.29133858267716534
		},
		{
		  "duration": 0.1510416666666572,
		  "durationTicks": 145,
		  "midi": 71,
		  "name": "B4",
		  "ticks": 198999,
		  "time": 207.290625,
		  "velocity": 0.4330708661417323
		},
		{
		  "duration": 0.13958333333332007,
		  "durationTicks": 134,
		  "midi": 47,
		  "name": "B2",
		  "ticks": 198999,
		  "time": 207.290625,
		  "velocity": 0.28346456692913385
		},
		{
		  "duration": 0.23229166666666856,
		  "durationTicks": 223,
		  "midi": 76,
		  "name": "E5",
		  "ticks": 199110,
		  "time": 207.40625,
		  "velocity": 0.6062992125984252
		},
		{
		  "duration": 0.19687500000000568,
		  "durationTicks": 189,
		  "midi": 47,
		  "name": "B2",
		  "ticks": 199132,
		  "time": 207.42916666666667,
		  "velocity": 0.5039370078740157
		},
		{
		  "duration": 0.23229166666666856,
		  "durationTicks": 223,
		  "midi": 43,
		  "name": "G2",
		  "ticks": 199222,
		  "time": 207.52291666666667,
		  "velocity": 0.3779527559055118
		},
		{
		  "duration": 0.16249999999999432,
		  "durationTicks": 156,
		  "midi": 47,
		  "name": "B2",
		  "ticks": 199322,
		  "time": 207.62708333333333,
		  "velocity": 0.41732283464566927
		},
		{
		  "duration": 0.37187499999998863,
		  "durationTicks": 357,
		  "midi": 76,
		  "name": "E5",
		  "ticks": 199333,
		  "time": 207.63854166666667,
		  "velocity": 0.5433070866141733
		},
		{
		  "duration": 0.1510416666666572,
		  "durationTicks": 145,
		  "midi": 52,
		  "name": "E3",
		  "ticks": 199333,
		  "time": 207.63854166666667,
		  "velocity": 0.4409448818897638
		},
		{
		  "duration": 0.23229166666666856,
		  "durationTicks": 223,
		  "midi": 43,
		  "name": "G2",
		  "ticks": 199445,
		  "time": 207.75520833333334,
		  "velocity": 0.33070866141732286
		},
		{
		  "duration": 0.36041666666667993,
		  "durationTicks": 346,
		  "midi": 31,
		  "name": "G1",
		  "ticks": 199523,
		  "time": 207.83645833333333,
		  "velocity": 0.3700787401574803
		},
		{
		  "duration": 0.23229166666666856,
		  "durationTicks": 223,
		  "midi": 43,
		  "name": "G2",
		  "ticks": 199667,
		  "time": 207.98645833333333,
		  "velocity": 0.41732283464566927
		},
		{
		  "duration": 0.1395833333333485,
		  "durationTicks": 134,
		  "midi": 71,
		  "name": "B4",
		  "ticks": 199667,
		  "time": 207.98645833333333,
		  "velocity": 0.4881889763779528
		},
		{
		  "duration": 0.19687500000000568,
		  "durationTicks": 189,
		  "midi": 79,
		  "name": "G5",
		  "ticks": 199679,
		  "time": 207.99895833333332,
		  "velocity": 0.36220472440944884
		},
		{
		  "duration": 0.15104166666668561,
		  "durationTicks": 145,
		  "midi": 38,
		  "name": "D2",
		  "ticks": 199679,
		  "time": 207.99895833333332,
		  "velocity": 0.31496062992125984
		},
		{
		  "duration": 0.1395833333333485,
		  "durationTicks": 134,
		  "midi": 76,
		  "name": "E5",
		  "ticks": 199690,
		  "time": 208.01041666666666,
		  "velocity": 0.5196850393700787
		},
		{
		  "duration": 0.1395833333333485,
		  "durationTicks": 134,
		  "midi": 62,
		  "name": "D4",
		  "ticks": 199924,
		  "time": 208.25416666666666,
		  "velocity": 0.41732283464566927
		},
		{
		  "duration": 0.1395833333333485,
		  "durationTicks": 134,
		  "midi": 28,
		  "name": "E1",
		  "ticks": 200091,
		  "time": 208.428125,
		  "velocity": 0.4015748031496063
		},
		{
		  "duration": 0.140625,
		  "durationTicks": 135,
		  "midi": 40,
		  "name": "E2",
		  "ticks": 200113,
		  "time": 208.45104166666667,
		  "velocity": 0.5511811023622047
		},
		{
		  "duration": 0.140625,
		  "durationTicks": 135,
		  "midi": 81,
		  "name": "A5",
		  "ticks": 200147,
		  "time": 208.48645833333333,
		  "velocity": 0.41732283464566927
		},
		{
		  "duration": 0.23333333333332007,
		  "durationTicks": 224,
		  "midi": 28,
		  "name": "E1",
		  "ticks": 200236,
		  "time": 208.57916666666668,
		  "velocity": 0.3464566929133858
		},
		{
		  "duration": 0.2666666666666515,
		  "durationTicks": 256,
		  "midi": 40,
		  "name": "E2",
		  "ticks": 200248,
		  "time": 208.59166666666667,
		  "velocity": 0.3228346456692913
		},
		{
		  "duration": 0.18541666666666856,
		  "durationTicks": 178,
		  "midi": 40,
		  "name": "E2",
		  "ticks": 200538,
		  "time": 208.89375,
		  "velocity": 0.33858267716535434
		},
		{
		  "duration": 0.7083333333333428,
		  "durationTicks": 680,
		  "midi": 81,
		  "name": "A5",
		  "ticks": 200828,
		  "time": 209.19583333333333,
		  "velocity": 0.3937007874015748
		},
		{
		  "duration": 0.16250000000002274,
		  "durationTicks": 156,
		  "midi": 52,
		  "name": "E3",
		  "ticks": 200939,
		  "time": 209.31145833333332,
		  "velocity": 0.44881889763779526
		},
		{
		  "duration": 0.1395833333333485,
		  "durationTicks": 134,
		  "midi": 71,
		  "name": "B4",
		  "ticks": 200950,
		  "time": 209.32291666666666,
		  "velocity": 0.49606299212598426
		},
		{
		  "duration": 0.23229166666666856,
		  "durationTicks": 223,
		  "midi": 64,
		  "name": "E4",
		  "ticks": 200950,
		  "time": 209.32291666666666,
		  "velocity": 0.3779527559055118
		},
		{
		  "duration": 0.20937500000002274,
		  "durationTicks": 201,
		  "midi": 59,
		  "name": "B3",
		  "ticks": 200950,
		  "time": 209.32291666666666,
		  "velocity": 0.3937007874015748
		},
		{
		  "duration": 0.19687500000000568,
		  "durationTicks": 189,
		  "midi": 28,
		  "name": "E1",
		  "ticks": 201028,
		  "time": 209.40416666666667,
		  "velocity": 0.4251968503937008
		},
		{
		  "duration": 0.18541666666666856,
		  "durationTicks": 178,
		  "midi": 40,
		  "name": "E2",
		  "ticks": 201062,
		  "time": 209.43958333333333,
		  "velocity": 0.5433070866141733
		},
		{
		  "duration": 0.23229166666666856,
		  "durationTicks": 223,
		  "midi": 71,
		  "name": "B4",
		  "ticks": 201207,
		  "time": 209.590625,
		  "velocity": 0.28346456692913385
		},
		{
		  "duration": 0.1510416666666572,
		  "durationTicks": 145,
		  "midi": 59,
		  "name": "B3",
		  "ticks": 201296,
		  "time": 209.68333333333334,
		  "velocity": 0.33070866141732286
		},
		{
		  "duration": 0.13958333333332007,
		  "durationTicks": 134,
		  "midi": 64,
		  "name": "E4",
		  "ticks": 201307,
		  "time": 209.69479166666667,
		  "velocity": 0.4015748031496063
		},
		{
		  "duration": 0.16250000000002274,
		  "durationTicks": 156,
		  "midi": 52,
		  "name": "E3",
		  "ticks": 201329,
		  "time": 209.71770833333332,
		  "velocity": 0.4645669291338583
		},
		{
		  "duration": 0.1510416666666572,
		  "durationTicks": 145,
		  "midi": 40,
		  "name": "E2",
		  "ticks": 201341,
		  "time": 209.73020833333334,
		  "velocity": 0.25984251968503935
		},
		{
		  "duration": 0.20937500000002274,
		  "durationTicks": 201,
		  "midi": 43,
		  "name": "G2",
		  "ticks": 201430,
		  "time": 209.82291666666666,
		  "velocity": 0.4881889763779528
		},
		{
		  "duration": 0.2552083333333144,
		  "durationTicks": 245,
		  "midi": 81,
		  "name": "A5",
		  "ticks": 201519,
		  "time": 209.915625,
		  "velocity": 0.41732283464566927
		},
		{
		  "duration": 0.22083333333333144,
		  "durationTicks": 212,
		  "midi": 64,
		  "name": "E4",
		  "ticks": 201519,
		  "time": 209.915625,
		  "velocity": 0.31496062992125984
		},
		{
		  "duration": 0.4416666666666629,
		  "durationTicks": 424,
		  "midi": 31,
		  "name": "G1",
		  "ticks": 201541,
		  "time": 209.93854166666668,
		  "velocity": 0.4251968503937008
		},
		{
		  "duration": 0.17395833333333144,
		  "durationTicks": 167,
		  "midi": 59,
		  "name": "B3",
		  "ticks": 201563,
		  "time": 209.96145833333333,
		  "velocity": 0.29133858267716534
		},
		{
		  "duration": 0.38333333333332575,
		  "durationTicks": 368,
		  "midi": 43,
		  "name": "G2",
		  "ticks": 201641,
		  "time": 210.04270833333334,
		  "velocity": 0.3937007874015748
		},
		{
		  "duration": 0.15104166666668561,
		  "durationTicks": 145,
		  "midi": 52,
		  "name": "E3",
		  "ticks": 201653,
		  "time": 210.05520833333333,
		  "velocity": 0.4330708661417323
		},
		{
		  "duration": 0.31354166666667993,
		  "durationTicks": 301,
		  "midi": 40,
		  "name": "E2",
		  "ticks": 201653,
		  "time": 210.05520833333333,
		  "velocity": 0.3858267716535433
		},
		{
		  "duration": 0.4312500000000057,
		  "durationTicks": 414,
		  "midi": 81,
		  "name": "A5",
		  "ticks": 201764,
		  "time": 210.17083333333332,
		  "velocity": 0.44881889763779526
		},
		{
		  "duration": 0.22187499999998295,
		  "durationTicks": 213,
		  "midi": 31,
		  "name": "G1",
		  "ticks": 201965,
		  "time": 210.38020833333334,
		  "velocity": 0.5275590551181102
		},
		{
		  "duration": 0.1875,
		  "durationTicks": 180,
		  "midi": 62,
		  "name": "D4",
		  "ticks": 201998,
		  "time": 210.41458333333333,
		  "velocity": 0.4645669291338583
		},
		{
		  "duration": 0.16354166666667425,
		  "durationTicks": 157,
		  "midi": 43,
		  "name": "G2",
		  "ticks": 202009,
		  "time": 210.42604166666666,
		  "velocity": 0.48031496062992124
		},
		{
		  "duration": 0.1395833333333485,
		  "durationTicks": 134,
		  "midi": 40,
		  "name": "E2",
		  "ticks": 202009,
		  "time": 210.42604166666666,
		  "velocity": 0.3858267716535433
		},
		{
		  "duration": 0.15104166666668561,
		  "durationTicks": 145,
		  "midi": 43,
		  "name": "G2",
		  "ticks": 202289,
		  "time": 210.71770833333332,
		  "velocity": 0.4251968503937008
		},
		{
		  "duration": 0.13958333333332007,
		  "durationTicks": 134,
		  "midi": 74,
		  "name": "D5",
		  "ticks": 202323,
		  "time": 210.753125,
		  "velocity": 0.4881889763779528
		},
		{
		  "duration": 0.16250000000002274,
		  "durationTicks": 156,
		  "midi": 64,
		  "name": "E4",
		  "ticks": 202334,
		  "time": 210.76458333333332,
		  "velocity": 0.5511811023622047
		},
		{
		  "duration": 0.15104166666668561,
		  "durationTicks": 145,
		  "midi": 62,
		  "name": "D4",
		  "ticks": 202334,
		  "time": 210.76458333333332,
		  "velocity": 0.4330708661417323
		},
		{
		  "duration": 0.3947916666666629,
		  "durationTicks": 379,
		  "midi": 43,
		  "name": "G2",
		  "ticks": 202445,
		  "time": 210.88020833333334,
		  "velocity": 0.5433070866141733
		},
		{
		  "duration": 0.23229166666666856,
		  "durationTicks": 223,
		  "midi": 31,
		  "name": "G1",
		  "ticks": 202445,
		  "time": 210.88020833333334,
		  "velocity": 0.5196850393700787
		},
		{
		  "duration": 0.17395833333333144,
		  "durationTicks": 167,
		  "midi": 59,
		  "name": "B3",
		  "ticks": 202445,
		  "time": 210.88020833333334,
		  "velocity": 0.4645669291338583
		},
		{
		  "duration": 0.20937499999999432,
		  "durationTicks": 201,
		  "midi": 83,
		  "name": "B5",
		  "ticks": 202456,
		  "time": 210.89166666666668,
		  "velocity": 0.4645669291338583
		},
		{
		  "duration": 0.1395833333333485,
		  "durationTicks": 134,
		  "midi": 64,
		  "name": "E4",
		  "ticks": 202679,
		  "time": 211.12395833333332,
		  "velocity": 0.4251968503937008
		},
		{
		  "duration": 0.18541666666666856,
		  "durationTicks": 178,
		  "midi": 62,
		  "name": "D4",
		  "ticks": 202679,
		  "time": 211.12395833333332,
		  "velocity": 0.47244094488188976
		},
		{
		  "duration": 0.19687500000000568,
		  "durationTicks": 189,
		  "midi": 43,
		  "name": "G2",
		  "ticks": 202824,
		  "time": 211.275,
		  "velocity": 0.5433070866141733
		},
		{
		  "duration": 0.27812500000001705,
		  "durationTicks": 267,
		  "midi": 31,
		  "name": "G1",
		  "ticks": 202902,
		  "time": 211.35625,
		  "velocity": 0.49606299212598426
		},
		{
		  "duration": 0.13958333333332007,
		  "durationTicks": 134,
		  "midi": 64,
		  "name": "E4",
		  "ticks": 203025,
		  "time": 211.484375,
		  "velocity": 0.48031496062992124
		},
		{
		  "duration": 0.19687499999997726,
		  "durationTicks": 189,
		  "midi": 38,
		  "name": "D2",
		  "ticks": 203103,
		  "time": 211.565625,
		  "velocity": 0.2992125984251969
		},
		{
		  "duration": 0.24375000000000568,
		  "durationTicks": 234,
		  "midi": 76,
		  "name": "E5",
		  "ticks": 203147,
		  "time": 211.61145833333333,
		  "velocity": 0.5196850393700787
		},
		{
		  "duration": 0.1510416666666572,
		  "durationTicks": 145,
		  "midi": 43,
		  "name": "G2",
		  "ticks": 203147,
		  "time": 211.61145833333333,
		  "velocity": 0.4094488188976378
		},
		{
		  "duration": 0.22083333333333144,
		  "durationTicks": 212,
		  "midi": 40,
		  "name": "E2",
		  "ticks": 203348,
		  "time": 211.82083333333333,
		  "velocity": 0.3700787401574803
		},
		{
		  "duration": 0.16249999999999432,
		  "durationTicks": 156,
		  "midi": 33,
		  "name": "A1",
		  "ticks": 203359,
		  "time": 211.83229166666666,
		  "velocity": 0.28346456692913385
		},
		{
		  "duration": 0.22083333333333144,
		  "durationTicks": 212,
		  "midi": 45,
		  "name": "A2",
		  "ticks": 203370,
		  "time": 211.84375,
		  "velocity": 0.5354330708661418
		},
		{
		  "duration": 0.3604166666666515,
		  "durationTicks": 346,
		  "midi": 69,
		  "name": "A4",
		  "ticks": 203381,
		  "time": 211.85520833333334,
		  "velocity": 0.3700787401574803
		},
		{
		  "duration": 0.16249999999999432,
		  "durationTicks": 156,
		  "midi": 79,
		  "name": "G5",
		  "ticks": 203415,
		  "time": 211.890625,
		  "velocity": 0.4015748031496063
		},
		{
		  "duration": 0.23229166666666856,
		  "durationTicks": 223,
		  "midi": 45,
		  "name": "A2",
		  "ticks": 203593,
		  "time": 212.07604166666667,
		  "velocity": 0.3937007874015748
		},
		{
		  "duration": 0.3604166666666515,
		  "durationTicks": 346,
		  "midi": 76,
		  "name": "E5",
		  "ticks": 203604,
		  "time": 212.0875,
		  "velocity": 0.36220472440944884
		},
		{
		  "duration": 0.32499999999998863,
		  "durationTicks": 312,
		  "midi": 57,
		  "name": "A3",
		  "ticks": 203604,
		  "time": 212.0875,
		  "velocity": 0.4251968503937008
		},
		{
		  "duration": 0.17395833333333144,
		  "durationTicks": 167,
		  "midi": 38,
		  "name": "D2",
		  "ticks": 203604,
		  "time": 212.0875,
		  "velocity": 0.3937007874015748
		},
		{
		  "duration": 0.13958333333332007,
		  "durationTicks": 134,
		  "midi": 50,
		  "name": "D3",
		  "ticks": 203615,
		  "time": 212.09895833333334,
		  "velocity": 0.4409448818897638
		},
		{
		  "duration": 0.20937499999999432,
		  "durationTicks": 201,
		  "midi": 45,
		  "name": "A2",
		  "ticks": 203816,
		  "time": 212.30833333333334,
		  "velocity": 0.33858267716535434
		},
		{
		  "duration": 0.19687500000000568,
		  "durationTicks": 189,
		  "midi": 33,
		  "name": "A1",
		  "ticks": 203816,
		  "time": 212.30833333333334,
		  "velocity": 0.49606299212598426
		},
		{
		  "duration": 0.18541666666666856,
		  "durationTicks": 178,
		  "midi": 76,
		  "name": "E5",
		  "ticks": 204107,
		  "time": 212.61145833333333,
		  "velocity": 0.49606299212598426
		},
		{
		  "duration": 0.18541666666666856,
		  "durationTicks": 178,
		  "midi": 33,
		  "name": "A1",
		  "ticks": 204252,
		  "time": 212.7625,
		  "velocity": 0.4566929133858268
		},
		{
		  "duration": 0.26666666666667993,
		  "durationTicks": 256,
		  "midi": 45,
		  "name": "A2",
		  "ticks": 204263,
		  "time": 212.77395833333333,
		  "velocity": 0.44881889763779526
		},
		{
		  "duration": 0.20937499999999432,
		  "durationTicks": 201,
		  "midi": 61,
		  "name": "C#4",
		  "ticks": 204274,
		  "time": 212.78541666666666,
		  "velocity": 0.2440944881889764
		},
		{
		  "duration": 0.1395833333333485,
		  "durationTicks": 134,
		  "midi": 52,
		  "name": "E3",
		  "ticks": 204274,
		  "time": 212.78541666666666,
		  "velocity": 0.4094488188976378
		},
		{
		  "duration": 0.13958333333332007,
		  "durationTicks": 134,
		  "midi": 71,
		  "name": "B4",
		  "ticks": 204285,
		  "time": 212.796875,
		  "velocity": 0.4566929133858268
		},
		{
		  "duration": 0.16249999999999432,
		  "durationTicks": 156,
		  "midi": 64,
		  "name": "E4",
		  "ticks": 204285,
		  "time": 212.796875,
		  "velocity": 0.47244094488188976
		},
		{
		  "duration": 0.22083333333333144,
		  "durationTicks": 212,
		  "midi": 76,
		  "name": "E5",
		  "ticks": 204297,
		  "time": 212.809375,
		  "velocity": 0.4330708661417323
		},
		{
		  "duration": 0.2552083333333428,
		  "durationTicks": 245,
		  "midi": 76,
		  "name": "E5",
		  "ticks": 204508,
		  "time": 213.02916666666667,
		  "velocity": 0.4409448818897638
		},
		{
		  "duration": 0.22083333333333144,
		  "durationTicks": 212,
		  "midi": 45,
		  "name": "A2",
		  "ticks": 204519,
		  "time": 213.040625,
		  "velocity": 0.4330708661417323
		},
		{
		  "duration": 0.1510416666666572,
		  "durationTicks": 145,
		  "midi": 64,
		  "name": "E4",
		  "ticks": 204598,
		  "time": 213.12291666666667,
		  "velocity": 0.5118110236220472
		},
		{
		  "duration": 0.16249999999999432,
		  "durationTicks": 156,
		  "midi": 52,
		  "name": "E3",
		  "ticks": 204631,
		  "time": 213.15729166666668,
		  "velocity": 0.4566929133858268
		},
		{
		  "duration": 0.18541666666664014,
		  "durationTicks": 178,
		  "midi": 33,
		  "name": "A1",
		  "ticks": 204676,
		  "time": 213.20416666666668,
		  "velocity": 0.36220472440944884
		},
		{
		  "duration": 0.24375000000000568,
		  "durationTicks": 234,
		  "midi": 76,
		  "name": "E5",
		  "ticks": 204754,
		  "time": 213.28541666666666,
		  "velocity": 0.4645669291338583
		},
		{
		  "duration": 0.24375000000000568,
		  "durationTicks": 234,
		  "midi": 64,
		  "name": "E4",
		  "ticks": 204754,
		  "time": 213.28541666666666,
		  "velocity": 0.3700787401574803
		},
		{
		  "duration": 0.18541666666666856,
		  "durationTicks": 178,
		  "midi": 61,
		  "name": "C#4",
		  "ticks": 204754,
		  "time": 213.28541666666666,
		  "velocity": 0.44881889763779526
		},
		{
		  "duration": 0.23229166666666856,
		  "durationTicks": 223,
		  "midi": 45,
		  "name": "A2",
		  "ticks": 204754,
		  "time": 213.28541666666666,
		  "velocity": 0.44881889763779526
		},
		{
		  "duration": 0.3604166666666515,
		  "durationTicks": 346,
		  "midi": 76,
		  "name": "E5",
		  "ticks": 204988,
		  "time": 213.52916666666667,
		  "velocity": 0.41732283464566927
		},
		{
		  "duration": 0.19687500000000568,
		  "durationTicks": 189,
		  "midi": 64,
		  "name": "E4",
		  "ticks": 204988,
		  "time": 213.52916666666667,
		  "velocity": 0.4330708661417323
		},
		{
		  "duration": 0.32499999999998863,
		  "durationTicks": 312,
		  "midi": 45,
		  "name": "A2",
		  "ticks": 205110,
		  "time": 213.65625,
		  "velocity": 0.33070866141732286
		},
		{
		  "duration": 0.13958333333332007,
		  "durationTicks": 134,
		  "midi": 57,
		  "name": "A3",
		  "ticks": 205166,
		  "time": 213.71458333333334,
		  "velocity": 0.4094488188976378
		},
		{
		  "duration": 0.27812500000001705,
		  "durationTicks": 267,
		  "midi": 40,
		  "name": "E2",
		  "ticks": 205311,
		  "time": 213.865625,
		  "velocity": 0.30708661417322836
		},
		{
		  "duration": 0.27812500000001705,
		  "durationTicks": 267,
		  "midi": 35,
		  "name": "B1",
		  "ticks": 205311,
		  "time": 213.865625,
		  "velocity": 0.3858267716535433
		},
		{
		  "duration": 0.13958333333332007,
		  "durationTicks": 134,
		  "midi": 76,
		  "name": "E5",
		  "ticks": 205333,
		  "time": 213.88854166666667,
		  "velocity": 0.2755905511811024
		},
		{
		  "duration": 0.5583333333333371,
		  "durationTicks": 536,
		  "midi": 76,
		  "name": "E5",
		  "ticks": 205467,
		  "time": 214.028125,
		  "velocity": 0.4251968503937008
		},
		{
		  "duration": 0.15104166666668561,
		  "durationTicks": 145,
		  "midi": 47,
		  "name": "B2",
		  "ticks": 205523,
		  "time": 214.08645833333333,
		  "velocity": 0.3858267716535433
		},
		{
		  "duration": 0.18541666666666856,
		  "durationTicks": 178,
		  "midi": 35,
		  "name": "B1",
		  "ticks": 205645,
		  "time": 214.21354166666666,
		  "velocity": 0.3228346456692913
		},
		{
		  "duration": 0.19687500000000568,
		  "durationTicks": 189,
		  "midi": 47,
		  "name": "B2",
		  "ticks": 205679,
		  "time": 214.24895833333332,
		  "velocity": 0.4015748031496063
		},
		{
		  "duration": 0.16250000000002274,
		  "durationTicks": 156,
		  "midi": 71,
		  "name": "B4",
		  "ticks": 205690,
		  "time": 214.26041666666666,
		  "velocity": 0.48031496062992124
		},
		{
		  "duration": 0.17395833333333144,
		  "durationTicks": 167,
		  "midi": 64,
		  "name": "E4",
		  "ticks": 205690,
		  "time": 214.26041666666666,
		  "velocity": 0.48031496062992124
		},
		{
		  "duration": 0.1395833333333485,
		  "durationTicks": 134,
		  "midi": 64,
		  "name": "E4",
		  "ticks": 205992,
		  "time": 214.575,
		  "velocity": 0.4330708661417323
		},
		{
		  "duration": 0.16249999999999432,
		  "durationTicks": 156,
		  "midi": 71,
		  "name": "B4",
		  "ticks": 206014,
		  "time": 214.59791666666666,
		  "velocity": 0.4566929133858268
		},
		{
		  "duration": 0.1510416666666572,
		  "durationTicks": 145,
		  "midi": 59,
		  "name": "B3",
		  "ticks": 206025,
		  "time": 214.609375,
		  "velocity": 0.4566929133858268
		},
		{
		  "duration": 0.27812499999998863,
		  "durationTicks": 267,
		  "midi": 76,
		  "name": "E5",
		  "ticks": 206137,
		  "time": 214.72604166666667,
		  "velocity": 0.5354330708661418
		},
		{
		  "duration": 0.24375000000000568,
		  "durationTicks": 234,
		  "midi": 64,
		  "name": "E4",
		  "ticks": 206137,
		  "time": 214.72604166666667,
		  "velocity": 0.4566929133858268
		},
		{
		  "duration": 0.20937499999999432,
		  "durationTicks": 201,
		  "midi": 47,
		  "name": "B2",
		  "ticks": 206148,
		  "time": 214.7375,
		  "velocity": 0.5433070866141733
		},
		{
		  "duration": 0.17395833333333144,
		  "durationTicks": 167,
		  "midi": 35,
		  "name": "B1",
		  "ticks": 206170,
		  "time": 214.76041666666666,
		  "velocity": 0.4251968503937008
		},
		{
		  "duration": 0.13958333333332007,
		  "durationTicks": 134,
		  "midi": 40,
		  "name": "E2",
		  "ticks": 206360,
		  "time": 214.95833333333334,
		  "velocity": 0.3700787401574803
		},
		{
		  "duration": 0.17395833333333144,
		  "durationTicks": 167,
		  "midi": 71,
		  "name": "B4",
		  "ticks": 206371,
		  "time": 214.96979166666668,
		  "velocity": 0.3779527559055118
		},
		{
		  "duration": 0.24374999999997726,
		  "durationTicks": 234,
		  "midi": 64,
		  "name": "E4",
		  "ticks": 206371,
		  "time": 214.96979166666668,
		  "velocity": 0.44881889763779526
		},
		{
		  "duration": 0.13958333333332007,
		  "durationTicks": 134,
		  "midi": 59,
		  "name": "B3",
		  "ticks": 206371,
		  "time": 214.96979166666668,
		  "velocity": 0.3937007874015748
		},
		{
		  "duration": 0.23229166666666856,
		  "durationTicks": 223,
		  "midi": 59,
		  "name": "B3",
		  "ticks": 206594,
		  "time": 215.20208333333332,
		  "velocity": 0.29133858267716534
		},
		{
		  "duration": 0.24375000000000568,
		  "durationTicks": 234,
		  "midi": 52,
		  "name": "E3",
		  "ticks": 206594,
		  "time": 215.20208333333332,
		  "velocity": 0.31496062992125984
		},
		{
		  "duration": 0.18541666666666856,
		  "durationTicks": 178,
		  "midi": 47,
		  "name": "B2",
		  "ticks": 206594,
		  "time": 215.20208333333332,
		  "velocity": 0.4015748031496063
		},
		{
		  "duration": 0.20937500000002274,
		  "durationTicks": 201,
		  "midi": 64,
		  "name": "E4",
		  "ticks": 206605,
		  "time": 215.21354166666666,
		  "velocity": 0.4645669291338583
		},
		{
		  "duration": 0.15104166666668561,
		  "durationTicks": 145,
		  "midi": 43,
		  "name": "G2",
		  "ticks": 206939,
		  "time": 215.56145833333332,
		  "velocity": 0.33070866141732286
		},
		{
		  "duration": 0.27812500000001705,
		  "durationTicks": 267,
		  "midi": 31,
		  "name": "G1",
		  "ticks": 206950,
		  "time": 215.57291666666666,
		  "velocity": 0.3228346456692913
		},
		{
		  "duration": 0.17395833333333144,
		  "durationTicks": 167,
		  "midi": 40,
		  "name": "E2",
		  "ticks": 207040,
		  "time": 215.66666666666666,
		  "velocity": 0.2992125984251969
		},
		{
		  "duration": 0.18541666666666856,
		  "durationTicks": 178,
		  "midi": 64,
		  "name": "E4",
		  "ticks": 207062,
		  "time": 215.68958333333333,
		  "velocity": 0.5354330708661418
		},
		{
		  "duration": 0.1510416666666572,
		  "durationTicks": 145,
		  "midi": 59,
		  "name": "B3",
		  "ticks": 207073,
		  "time": 215.70104166666667,
		  "velocity": 0.44881889763779526
		},
		{
		  "duration": 0.13958333333332007,
		  "durationTicks": 134,
		  "midi": 57,
		  "name": "A3",
		  "ticks": 207285,
		  "time": 215.921875,
		  "velocity": 0.30708661417322836
		},
		{
		  "duration": 0.22083333333333144,
		  "durationTicks": 212,
		  "midi": 81,
		  "name": "A5",
		  "ticks": 207296,
		  "time": 215.93333333333334,
		  "velocity": 0.33858267716535434
		},
		{
		  "duration": 0.13958333333332007,
		  "durationTicks": 134,
		  "midi": 74,
		  "name": "D5",
		  "ticks": 207296,
		  "time": 215.93333333333334,
		  "velocity": 0.5433070866141733
		},
		{
		  "duration": 0.17395833333333144,
		  "durationTicks": 167,
		  "midi": 40,
		  "name": "E2",
		  "ticks": 207341,
		  "time": 215.98020833333334,
		  "velocity": 0.4645669291338583
		},
		{
		  "duration": 0.2552083333333428,
		  "durationTicks": 245,
		  "midi": 28,
		  "name": "E1",
		  "ticks": 207407,
		  "time": 216.04895833333333,
		  "velocity": 0.4015748031496063
		},
		{
		  "duration": 0.1510416666666572,
		  "durationTicks": 145,
		  "midi": 81,
		  "name": "A5",
		  "ticks": 207508,
		  "time": 216.15416666666667,
		  "velocity": 0.4881889763779528
		},
		{
		  "duration": 0.18541666666666856,
		  "durationTicks": 178,
		  "midi": 40,
		  "name": "E2",
		  "ticks": 207508,
		  "time": 216.15416666666667,
		  "velocity": 0.4409448818897638
		},
		{
		  "duration": 0.20937499999999432,
		  "durationTicks": 201,
		  "midi": 59,
		  "name": "B3",
		  "ticks": 207519,
		  "time": 216.165625,
		  "velocity": 0.4251968503937008
		},
		{
		  "duration": 0.9302083333333542,
		  "durationTicks": 893,
		  "midi": 81,
		  "name": "A5",
		  "ticks": 207764,
		  "time": 216.42083333333332,
		  "velocity": 0.4645669291338583
		},
		{
		  "duration": 0.16249999999999432,
		  "durationTicks": 156,
		  "midi": 28,
		  "name": "E1",
		  "ticks": 207888,
		  "time": 216.55,
		  "velocity": 0.3228346456692913
		},
		{
		  "duration": 0.15104166666668561,
		  "durationTicks": 145,
		  "midi": 40,
		  "name": "E2",
		  "ticks": 207966,
		  "time": 216.63125,
		  "velocity": 0.5433070866141733
		},
		{
		  "duration": 0.18541666666666856,
		  "durationTicks": 178,
		  "midi": 71,
		  "name": "B4",
		  "ticks": 207977,
		  "time": 216.64270833333333,
		  "velocity": 0.44881889763779526
		},
		{
		  "duration": 0.16249999999999432,
		  "durationTicks": 156,
		  "midi": 59,
		  "name": "B3",
		  "ticks": 207977,
		  "time": 216.64270833333333,
		  "velocity": 0.33858267716535434
		},
		{
		  "duration": 0.1395833333333485,
		  "durationTicks": 134,
		  "midi": 52,
		  "name": "E3",
		  "ticks": 207977,
		  "time": 216.64270833333333,
		  "velocity": 0.3228346456692913
		},
		{
		  "duration": 0.3479166666666629,
		  "durationTicks": 334,
		  "midi": 76,
		  "name": "E5",
		  "ticks": 207988,
		  "time": 216.65416666666667,
		  "velocity": 0.4094488188976378
		},
		{
		  "duration": 0.19687499999997726,
		  "durationTicks": 189,
		  "midi": 40,
		  "name": "E2",
		  "ticks": 208111,
		  "time": 216.78229166666668,
		  "velocity": 0.44881889763779526
		},
		{
		  "duration": 0.16250000000002274,
		  "durationTicks": 156,
		  "midi": 40,
		  "name": "E2",
		  "ticks": 208300,
		  "time": 216.97916666666666,
		  "velocity": 0.4645669291338583
		},
		{
		  "duration": 0.18541666666666856,
		  "durationTicks": 178,
		  "midi": 76,
		  "name": "E5",
		  "ticks": 208323,
		  "time": 217.003125,
		  "velocity": 0.5984251968503937
		},
		{
		  "duration": 0.48750000000001137,
		  "durationTicks": 468,
		  "midi": 59,
		  "name": "B3",
		  "ticks": 208334,
		  "time": 217.01458333333332,
		  "velocity": 0.36220472440944884
		},
		{
		  "duration": 0.16249999999999432,
		  "durationTicks": 156,
		  "midi": 40,
		  "name": "E2",
		  "ticks": 208456,
		  "time": 217.14166666666668,
		  "velocity": 0.5511811023622047
		},
		{
		  "duration": 0.23229166666666856,
		  "durationTicks": 223,
		  "midi": 76,
		  "name": "E5",
		  "ticks": 208668,
		  "time": 217.3625,
		  "velocity": 0.4330708661417323
		},
		{
		  "duration": 0.19687499999997726,
		  "durationTicks": 189,
		  "midi": 52,
		  "name": "E3",
		  "ticks": 208668,
		  "time": 217.3625,
		  "velocity": 0.28346456692913385
		},
		{
		  "duration": 0.19687500000000568,
		  "durationTicks": 189,
		  "midi": 31,
		  "name": "G1",
		  "ticks": 208768,
		  "time": 217.46666666666667,
		  "velocity": 0.4566929133858268
		},
		{
		  "duration": 0.4645833333333087,
		  "durationTicks": 446,
		  "midi": 81,
		  "name": "A5",
		  "ticks": 208891,
		  "time": 217.59479166666668,
		  "velocity": 0.4645669291338583
		},
		{
		  "duration": 0.24374999999997726,
		  "durationTicks": 234,
		  "midi": 76,
		  "name": "E5",
		  "ticks": 208891,
		  "time": 217.59479166666668,
		  "velocity": 0.4881889763779528
		},
		{
		  "duration": 0.3947916666666629,
		  "durationTicks": 379,
		  "midi": 43,
		  "name": "G2",
		  "ticks": 208891,
		  "time": 217.59479166666668,
		  "velocity": 0.33858267716535434
		},
		{
		  "duration": 0.1510416666666572,
		  "durationTicks": 145,
		  "midi": 31,
		  "name": "G1",
		  "ticks": 208969,
		  "time": 217.67604166666666,
		  "velocity": 0.49606299212598426
		},
		{
		  "duration": 0.17395833333333144,
		  "durationTicks": 167,
		  "midi": 59,
		  "name": "B3",
		  "ticks": 209025,
		  "time": 217.734375,
		  "velocity": 0.4015748031496063
		},
		{
		  "duration": 0.49895833333332007,
		  "durationTicks": 479,
		  "midi": 40,
		  "name": "E2",
		  "ticks": 209025,
		  "time": 217.734375,
		  "velocity": 0.33070866141732286
		},
		{
		  "duration": 0.18541666666666856,
		  "durationTicks": 178,
		  "midi": 43,
		  "name": "G2",
		  "ticks": 209270,
		  "time": 217.98958333333334,
		  "velocity": 0.4015748031496063
		},
		{
		  "duration": 0.17395833333333144,
		  "durationTicks": 167,
		  "midi": 31,
		  "name": "G1",
		  "ticks": 209348,
		  "time": 218.07083333333333,
		  "velocity": 0.5590551181102362
		},
		{
		  "duration": 0.1510416666666572,
		  "durationTicks": 145,
		  "midi": 69,
		  "name": "A4",
		  "ticks": 209370,
		  "time": 218.09375,
		  "velocity": 0.5748031496062992
		},
		{
		  "duration": 0.19687500000000568,
		  "durationTicks": 189,
		  "midi": 62,
		  "name": "D4",
		  "ticks": 209370,
		  "time": 218.09375,
		  "velocity": 0.47244094488188976
		},
		{
		  "duration": 0.3375000000000057,
		  "durationTicks": 324,
		  "midi": 43,
		  "name": "G2",
		  "ticks": 209593,
		  "time": 218.32604166666667,
		  "velocity": 0.4251968503937008
		},
		{
		  "duration": 0.1875,
		  "durationTicks": 180,
		  "midi": 62,
		  "name": "D4",
		  "ticks": 209716,
		  "time": 218.45416666666668,
		  "velocity": 0.3779527559055118
		},
		{
		  "duration": 0.22083333333333144,
		  "durationTicks": 212,
		  "midi": 83,
		  "name": "B5",
		  "ticks": 209806,
		  "time": 218.54791666666668,
		  "velocity": 0.4094488188976378
		},
		{
		  "duration": 0.16250000000002274,
		  "durationTicks": 156,
		  "midi": 59,
		  "name": "B3",
		  "ticks": 209817,
		  "time": 218.559375,
		  "velocity": 0.41732283464566927
		},
		{
		  "duration": 0.15104166666668561,
		  "durationTicks": 145,
		  "midi": 64,
		  "name": "E4",
		  "ticks": 209828,
		  "time": 218.57083333333333,
		  "velocity": 0.41732283464566927
		},
		{
		  "duration": 0.37187500000001705,
		  "durationTicks": 357,
		  "midi": 31,
		  "name": "G1",
		  "ticks": 209907,
		  "time": 218.653125,
		  "velocity": 0.3858267716535433
		},
		{
		  "duration": 0.36041666666667993,
		  "durationTicks": 346,
		  "midi": 43,
		  "name": "G2",
		  "ticks": 209918,
		  "time": 218.66458333333333,
		  "velocity": 0.48031496062992124
		},
		{
		  "duration": 0.22083333333333144,
		  "durationTicks": 212,
		  "midi": 81,
		  "name": "A5",
		  "ticks": 210051,
		  "time": 218.803125,
		  "velocity": 0.3543307086614173
		},
		{
		  "duration": 0.17395833333333144,
		  "durationTicks": 167,
		  "midi": 69,
		  "name": "A4",
		  "ticks": 210051,
		  "time": 218.803125,
		  "velocity": 0.5748031496062992
		},
		{
		  "duration": 0.3020833333333144,
		  "durationTicks": 290,
		  "midi": 62,
		  "name": "D4",
		  "ticks": 210063,
		  "time": 218.815625,
		  "velocity": 0.3700787401574803
		},
		{
		  "duration": 0.22083333333333144,
		  "durationTicks": 212,
		  "midi": 43,
		  "name": "G2",
		  "ticks": 210263,
		  "time": 219.02395833333333,
		  "velocity": 0.4645669291338583
		},
		{
		  "duration": 0.27812500000001705,
		  "durationTicks": 267,
		  "midi": 31,
		  "name": "G1",
		  "ticks": 210263,
		  "time": 219.02395833333333,
		  "velocity": 0.49606299212598426
		},
		{
		  "duration": 0.26666666666667993,
		  "durationTicks": 256,
		  "midi": 43,
		  "name": "G2",
		  "ticks": 210486,
		  "time": 219.25625,
		  "velocity": 0.33858267716535434
		},
		{
		  "duration": 0.2552083333333428,
		  "durationTicks": 245,
		  "midi": 76,
		  "name": "E5",
		  "ticks": 210508,
		  "time": 219.27916666666667,
		  "velocity": 0.47244094488188976
		},
		{
		  "duration": 0.23229166666666856,
		  "durationTicks": 223,
		  "midi": 45,
		  "name": "A2",
		  "ticks": 210731,
		  "time": 219.51145833333334,
		  "velocity": 0.48031496062992124
		},
		{
		  "duration": 0.24375000000000568,
		  "durationTicks": 234,
		  "midi": 74,
		  "name": "D5",
		  "ticks": 210742,
		  "time": 219.52291666666667,
		  "velocity": 0.3779527559055118
		},
		{
		  "duration": 0.18541666666666856,
		  "durationTicks": 178,
		  "midi": 43,
		  "name": "G2",
		  "ticks": 210742,
		  "time": 219.52291666666667,
		  "velocity": 0.4015748031496063
		},
		{
		  "duration": 0.23229166666666856,
		  "durationTicks": 223,
		  "midi": 40,
		  "name": "E2",
		  "ticks": 210742,
		  "time": 219.52291666666667,
		  "velocity": 0.47244094488188976
		},
		{
		  "duration": 0.13958333333332007,
		  "durationTicks": 134,
		  "midi": 79,
		  "name": "G5",
		  "ticks": 210798,
		  "time": 219.58125,
		  "velocity": 0.4409448818897638
		},
		{
		  "duration": 0.37187499999998863,
		  "durationTicks": 357,
		  "midi": 45,
		  "name": "A2",
		  "ticks": 210954,
		  "time": 219.74375,
		  "velocity": 0.44881889763779526
		},
		{
		  "duration": 0.13958333333332007,
		  "durationTicks": 134,
		  "midi": 76,
		  "name": "E5",
		  "ticks": 210965,
		  "time": 219.75520833333334,
		  "velocity": 0.25196850393700787
		},
		{
		  "duration": 0.33645833333332575,
		  "durationTicks": 323,
		  "midi": 57,
		  "name": "A3",
		  "ticks": 210965,
		  "time": 219.75520833333334,
		  "velocity": 0.3543307086614173
		},
		{
		  "duration": 0.1510416666666572,
		  "durationTicks": 145,
		  "midi": 74,
		  "name": "D5",
		  "ticks": 210976,
		  "time": 219.76666666666668,
		  "velocity": 0.5748031496062992
		},
		{
		  "duration": 0.18541666666664014,
		  "durationTicks": 178,
		  "midi": 38,
		  "name": "D2",
		  "ticks": 210976,
		  "time": 219.76666666666668,
		  "velocity": 0.4330708661417323
		},
		{
		  "duration": 0.24375000000000568,
		  "durationTicks": 234,
		  "midi": 76,
		  "name": "E5",
		  "ticks": 211099,
		  "time": 219.89479166666666,
		  "velocity": 0.4881889763779528
		},
		{
		  "duration": 0.19687500000000568,
		  "durationTicks": 189,
		  "midi": 33,
		  "name": "A1",
		  "ticks": 211211,
		  "time": 220.01145833333334,
		  "velocity": 0.5590551181102362
		},
		{
		  "duration": 0.3604166666666515,
		  "durationTicks": 346,
		  "midi": 76,
		  "name": "E5",
		  "ticks": 211333,
		  "time": 220.13854166666667,
		  "velocity": 0.4881889763779528
		},
		{
		  "duration": 0.2552083333333144,
		  "durationTicks": 245,
		  "midi": 33,
		  "name": "A1",
		  "ticks": 211400,
		  "time": 220.20833333333334,
		  "velocity": 0.3858267716535433
		},
		{
		  "duration": 0.17500000000001137,
		  "durationTicks": 168,
		  "midi": 33,
		  "name": "A1",
		  "ticks": 211645,
		  "time": 220.46354166666666,
		  "velocity": 0.5511811023622047
		},
		{
		  "duration": 0.15208333333333712,
		  "durationTicks": 146,
		  "midi": 45,
		  "name": "A2",
		  "ticks": 211656,
		  "time": 220.475,
		  "velocity": 0.3937007874015748
		},
		{
		  "duration": 0.3375000000000057,
		  "durationTicks": 324,
		  "midi": 76,
		  "name": "E5",
		  "ticks": 211679,
		  "time": 220.49895833333332,
		  "velocity": 0.6771653543307087
		},
		{
		  "duration": 0.18541666666666856,
		  "durationTicks": 178,
		  "midi": 45,
		  "name": "A2",
		  "ticks": 211802,
		  "time": 220.62708333333333,
		  "velocity": 0.44881889763779526
		},
		{
		  "duration": 0.23229166666666856,
		  "durationTicks": 223,
		  "midi": 76,
		  "name": "E5",
		  "ticks": 212003,
		  "time": 220.83645833333333,
		  "velocity": 0.6220472440944882
		},
		{
		  "duration": 0.15104166666668561,
		  "durationTicks": 145,
		  "midi": 52,
		  "name": "E3",
		  "ticks": 212003,
		  "time": 220.83645833333333,
		  "velocity": 0.4645669291338583
		},
		{
		  "duration": 0.1510416666666572,
		  "durationTicks": 145,
		  "midi": 33,
		  "name": "A1",
		  "ticks": 212059,
		  "time": 220.89479166666666,
		  "velocity": 0.3779527559055118
		},
		{
		  "duration": 0.19687499999997726,
		  "durationTicks": 189,
		  "midi": 45,
		  "name": "A2",
		  "ticks": 212148,
		  "time": 220.9875,
		  "velocity": 0.49606299212598426
		},
		{
		  "duration": 0.1395833333333485,
		  "durationTicks": 134,
		  "midi": 76,
		  "name": "E5",
		  "ticks": 212226,
		  "time": 221.06875,
		  "velocity": 0.47244094488188976
		},
		{
		  "duration": 0.1510416666666572,
		  "durationTicks": 145,
		  "midi": 33,
		  "name": "A1",
		  "ticks": 212326,
		  "time": 221.17291666666668,
		  "velocity": 0.3228346456692913
		},
		{
		  "duration": 0.16249999999999432,
		  "durationTicks": 156,
		  "midi": 52,
		  "name": "E3",
		  "ticks": 212349,
		  "time": 221.196875,
		  "velocity": 0.3858267716535433
		},
		{
		  "duration": 0.23229166666666856,
		  "durationTicks": 223,
		  "midi": 76,
		  "name": "E5",
		  "ticks": 212360,
		  "time": 221.20833333333334,
		  "velocity": 0.5984251968503937
		},
		{
		  "duration": 0.17395833333333144,
		  "durationTicks": 167,
		  "midi": 57,
		  "name": "A3",
		  "ticks": 212538,
		  "time": 221.39375,
		  "velocity": 0.4566929133858268
		},
		{
		  "duration": 0.2552083333333144,
		  "durationTicks": 245,
		  "midi": 76,
		  "name": "E5",
		  "ticks": 212583,
		  "time": 221.440625,
		  "velocity": 0.5590551181102362
		},
		{
		  "duration": 0.17395833333333144,
		  "durationTicks": 167,
		  "midi": 45,
		  "name": "A2",
		  "ticks": 212583,
		  "time": 221.440625,
		  "velocity": 0.36220472440944884
		},
		{
		  "duration": 0.37187500000001705,
		  "durationTicks": 357,
		  "midi": 35,
		  "name": "B1",
		  "ticks": 212594,
		  "time": 221.45208333333332,
		  "velocity": 0.2992125984251969
		},
		{
		  "duration": 0.13958333333332007,
		  "durationTicks": 134,
		  "midi": 52,
		  "name": "E3",
		  "ticks": 212705,
		  "time": 221.56770833333334,
		  "velocity": 0.3858267716535433
		},
		{
		  "duration": 0.23229166666666856,
		  "durationTicks": 223,
		  "midi": 76,
		  "name": "E5",
		  "ticks": 212828,
		  "time": 221.69583333333333,
		  "velocity": 0.5905511811023622
		},
		{
		  "duration": 0.16249999999999432,
		  "durationTicks": 156,
		  "midi": 47,
		  "name": "B2",
		  "ticks": 212884,
		  "time": 221.75416666666666,
		  "velocity": 0.4094488188976378
		},
		{
		  "duration": 0.36041666666667993,
		  "durationTicks": 346,
		  "midi": 76,
		  "name": "E5",
		  "ticks": 213051,
		  "time": 221.928125,
		  "velocity": 0.5118110236220472
		},
		{
		  "duration": 0.1395833333333485,
		  "durationTicks": 134,
		  "midi": 52,
		  "name": "E3",
		  "ticks": 213051,
		  "time": 221.928125,
		  "velocity": 0.49606299212598426
		},
		{
		  "duration": 0.22083333333333144,
		  "durationTicks": 212,
		  "midi": 47,
		  "name": "B2",
		  "ticks": 213051,
		  "time": 221.928125,
		  "velocity": 0.47244094488188976
		},
		{
		  "duration": 0.1510416666666572,
		  "durationTicks": 145,
		  "midi": 71,
		  "name": "B4",
		  "ticks": 213062,
		  "time": 221.93958333333333,
		  "velocity": 0.4251968503937008
		},
		{
		  "duration": 0.22187500000001137,
		  "durationTicks": 213,
		  "midi": 76,
		  "name": "E5",
		  "ticks": 213396,
		  "time": 222.2875,
		  "velocity": 0.6377952755905512
		},
		{
		  "duration": 0.26875000000001137,
		  "durationTicks": 258,
		  "midi": 59,
		  "name": "B3",
		  "ticks": 213396,
		  "time": 222.2875,
		  "velocity": 0.36220472440944884
		},
		{
		  "duration": 0.1395833333333485,
		  "durationTicks": 134,
		  "midi": 52,
		  "name": "E3",
		  "ticks": 213396,
		  "time": 222.2875,
		  "velocity": 0.47244094488188976
		},
		{
		  "duration": 0.12916666666666288,
		  "durationTicks": 124,
		  "midi": 55,
		  "name": "G3",
		  "ticks": 213508,
		  "time": 222.40416666666667,
		  "velocity": 0.3937007874015748
		},
		{
		  "duration": 0.4541666666666515,
		  "durationTicks": 436,
		  "midi": 47,
		  "name": "B2",
		  "ticks": 213519,
		  "time": 222.415625,
		  "velocity": 0.4645669291338583
		},
		{
		  "duration": 0.12916666666666288,
		  "durationTicks": 124,
		  "midi": 35,
		  "name": "B1",
		  "ticks": 213530,
		  "time": 222.42708333333334,
		  "velocity": 0.3937007874015748
		},
		{
		  "duration": 0.12916666666666288,
		  "durationTicks": 124,
		  "midi": 43,
		  "name": "G2",
		  "ticks": 213563,
		  "time": 222.46145833333333,
		  "velocity": 0.4251968503937008
		},
		{
		  "duration": 0.13958333333332007,
		  "durationTicks": 134,
		  "midi": 76,
		  "name": "E5",
		  "ticks": 213609,
		  "time": 222.509375,
		  "velocity": 0.5826771653543307
		},
		{
		  "duration": 0.13958333333332007,
		  "durationTicks": 134,
		  "midi": 40,
		  "name": "E2",
		  "ticks": 213721,
		  "time": 222.62604166666668,
		  "velocity": 0.33858267716535434
		},
		{
		  "duration": 0.16250000000002274,
		  "durationTicks": 156,
		  "midi": 71,
		  "name": "B4",
		  "ticks": 213732,
		  "time": 222.6375,
		  "velocity": 0.4409448818897638
		},
		{
		  "duration": 0.15104166666668561,
		  "durationTicks": 145,
		  "midi": 59,
		  "name": "B3",
		  "ticks": 213732,
		  "time": 222.6375,
		  "velocity": 0.4094488188976378
		},
		{
		  "duration": 0.3479166666666629,
		  "durationTicks": 334,
		  "midi": 76,
		  "name": "E5",
		  "ticks": 213743,
		  "time": 222.64895833333333,
		  "velocity": 0.4566929133858268
		},
		{
		  "duration": 0.1395833333333485,
		  "durationTicks": 134,
		  "midi": 52,
		  "name": "E3",
		  "ticks": 213743,
		  "time": 222.64895833333333,
		  "velocity": 0.48031496062992124
		},
		{
		  "duration": 0.23229166666666856,
		  "durationTicks": 223,
		  "midi": 59,
		  "name": "B3",
		  "ticks": 213955,
		  "time": 222.86979166666666,
		  "velocity": 0.2755905511811024
		},
		{
		  "duration": 0.16250000000002274,
		  "durationTicks": 156,
		  "midi": 47,
		  "name": "B2",
		  "ticks": 213955,
		  "time": 222.86979166666666,
		  "velocity": 0.3858267716535433
		},
		{
		  "duration": 0.19687500000000568,
		  "durationTicks": 189,
		  "midi": 43,
		  "name": "G2",
		  "ticks": 213999,
		  "time": 222.915625,
		  "velocity": 0.3543307086614173
		},
		{
		  "duration": 0.1395833333333485,
		  "durationTicks": 134,
		  "midi": 76,
		  "name": "E5",
		  "ticks": 214077,
		  "time": 222.996875,
		  "velocity": 0.5669291338582677
		},
		{
		  "duration": 0.23229166666666856,
		  "durationTicks": 223,
		  "midi": 43,
		  "name": "G2",
		  "ticks": 214200,
		  "time": 223.125,
		  "velocity": 0.3464566929133858
		},
		{
		  "duration": 0.16249999999999432,
		  "durationTicks": 156,
		  "midi": 43,
		  "name": "G2",
		  "ticks": 214423,
		  "time": 223.35729166666667,
		  "velocity": 0.4330708661417323
		},
		{
		  "duration": 0.1510416666666572,
		  "durationTicks": 145,
		  "midi": 76,
		  "name": "E5",
		  "ticks": 214434,
		  "time": 223.36875,
		  "velocity": 0.6062992125984252
		},
		{
		  "duration": 0.13958333333332007,
		  "durationTicks": 134,
		  "midi": 31,
		  "name": "G1",
		  "ticks": 214468,
		  "time": 223.40416666666667,
		  "velocity": 0.4251968503937008
		},
		{
		  "duration": 0.19687500000000568,
		  "durationTicks": 189,
		  "midi": 76,
		  "name": "E5",
		  "ticks": 214791,
		  "time": 223.740625,
		  "velocity": 0.33858267716535434
		},
		{
		  "duration": 0.19687499999997726,
		  "durationTicks": 189,
		  "midi": 28,
		  "name": "E1",
		  "ticks": 214846,
		  "time": 223.79791666666668,
		  "velocity": 0.33858267716535434
		},
		{
		  "duration": 0.17395833333333144,
		  "durationTicks": 167,
		  "midi": 40,
		  "name": "E2",
		  "ticks": 214891,
		  "time": 223.84479166666668,
		  "velocity": 0.5039370078740157
		},
		{
		  "duration": 0.13958333333332007,
		  "durationTicks": 134,
		  "midi": 40,
		  "name": "E2",
		  "ticks": 215214,
		  "time": 224.18125,
		  "velocity": 0.3700787401574803
		},
		{
		  "duration": 0.1395833333333485,
		  "durationTicks": 134,
		  "midi": 71,
		  "name": "B4",
		  "ticks": 215359,
		  "time": 224.33229166666666,
		  "velocity": 0.49606299212598426
		},
		{
		  "duration": 0.26875000000001137,
		  "durationTicks": 258,
		  "midi": 40,
		  "name": "E2",
		  "ticks": 215359,
		  "time": 224.33229166666666,
		  "velocity": 0.47244094488188976
		},
		{
		  "duration": 0.13958333333332007,
		  "durationTicks": 134,
		  "midi": 64,
		  "name": "E4",
		  "ticks": 215370,
		  "time": 224.34375,
		  "velocity": 0.4645669291338583
		},
		{
		  "duration": 0.31354166666667993,
		  "durationTicks": 301,
		  "midi": 40,
		  "name": "E2",
		  "ticks": 215672,
		  "time": 224.65833333333333,
		  "velocity": 0.4645669291338583
		},
		{
		  "duration": 0.1510416666666572,
		  "durationTicks": 145,
		  "midi": 71,
		  "name": "B4",
		  "ticks": 215672,
		  "time": 224.65833333333333,
		  "velocity": 0.5039370078740157
		},
		{
		  "duration": 0.3020833333333428,
		  "durationTicks": 290,
		  "midi": 64,
		  "name": "E4",
		  "ticks": 215695,
		  "time": 224.68229166666666,
		  "velocity": 0.47244094488188976
		},
		{
		  "duration": 0.19687500000000568,
		  "durationTicks": 189,
		  "midi": 59,
		  "name": "B3",
		  "ticks": 215706,
		  "time": 224.69375,
		  "velocity": 0.4881889763779528
		},
		{
		  "duration": 0.18541666666664014,
		  "durationTicks": 178,
		  "midi": 76,
		  "name": "E5",
		  "ticks": 215806,
		  "time": 224.79791666666668,
		  "velocity": 0.4645669291338583
		},
		{
		  "duration": 0.17395833333333144,
		  "durationTicks": 167,
		  "midi": 64,
		  "name": "E4",
		  "ticks": 216040,
		  "time": 225.04166666666666,
		  "velocity": 0.41732283464566927
		},
		{
		  "duration": 0.20937500000002274,
		  "durationTicks": 201,
		  "midi": 52,
		  "name": "E3",
		  "ticks": 216040,
		  "time": 225.04166666666666,
		  "velocity": 0.33070866141732286
		},
		{
		  "duration": 0.3479166666666629,
		  "durationTicks": 334,
		  "midi": 76,
		  "name": "E5",
		  "ticks": 216051,
		  "time": 225.053125,
		  "velocity": 0.4094488188976378
		},
		{
		  "duration": 0.1395833333333485,
		  "durationTicks": 134,
		  "midi": 31,
		  "name": "G1",
		  "ticks": 216152,
		  "time": 225.15833333333333,
		  "velocity": 0.48031496062992124
		},
		{
		  "duration": 0.18541666666666856,
		  "durationTicks": 178,
		  "midi": 31,
		  "name": "G1",
		  "ticks": 216297,
		  "time": 225.309375,
		  "velocity": 0.5039370078740157
		},
		{
		  "duration": 0.17395833333333144,
		  "durationTicks": 167,
		  "midi": 64,
		  "name": "E4",
		  "ticks": 216341,
		  "time": 225.35520833333334,
		  "velocity": 0.5118110236220472
		},
		{
		  "duration": 0.27812499999998863,
		  "durationTicks": 267,
		  "midi": 40,
		  "name": "E2",
		  "ticks": 216375,
		  "time": 225.390625,
		  "velocity": 0.33070866141732286
		},
		{
		  "duration": 0.1510416666666572,
		  "durationTicks": 145,
		  "midi": 59,
		  "name": "B3",
		  "ticks": 216386,
		  "time": 225.40208333333334,
		  "velocity": 0.4566929133858268
		},
		{
		  "duration": 0.23229166666666856,
		  "durationTicks": 223,
		  "midi": 76,
		  "name": "E5",
		  "ticks": 216497,
		  "time": 225.51770833333333,
		  "velocity": 0.5748031496062992
		},
		{
		  "duration": 0.16249999999999432,
		  "durationTicks": 156,
		  "midi": 43,
		  "name": "G2",
		  "ticks": 216553,
		  "time": 225.57604166666667,
		  "velocity": 0.5118110236220472
		},
		{
		  "duration": 0.2552083333333428,
		  "durationTicks": 245,
		  "midi": 31,
		  "name": "G1",
		  "ticks": 216709,
		  "time": 225.73854166666666,
		  "velocity": 0.5354330708661418
		},
		{
		  "duration": 0.49895833333332007,
		  "durationTicks": 479,
		  "midi": 43,
		  "name": "G2",
		  "ticks": 216720,
		  "time": 225.75,
		  "velocity": 0.44881889763779526
		},
		{
		  "duration": 0.32499999999998863,
		  "durationTicks": 312,
		  "midi": 76,
		  "name": "E5",
		  "ticks": 216742,
		  "time": 225.77291666666667,
		  "velocity": 0.31496062992125984
		},
		{
		  "duration": 0.1510416666666572,
		  "durationTicks": 145,
		  "midi": 64,
		  "name": "E4",
		  "ticks": 216742,
		  "time": 225.77291666666667,
		  "velocity": 0.5196850393700787
		},
		{
		  "duration": 0.13958333333332007,
		  "durationTicks": 134,
		  "midi": 40,
		  "name": "E2",
		  "ticks": 216742,
		  "time": 225.77291666666667,
		  "velocity": 0.33858267716535434
		},
		{
		  "duration": 0.36145833333333144,
		  "durationTicks": 347,
		  "midi": 76,
		  "name": "E5",
		  "ticks": 217077,
		  "time": 226.121875,
		  "velocity": 0.4094488188976378
		},
		{
		  "duration": 0.1395833333333485,
		  "durationTicks": 134,
		  "midi": 64,
		  "name": "E4",
		  "ticks": 217088,
		  "time": 226.13333333333333,
		  "velocity": 0.48031496062992124
		},
		{
		  "duration": 0.1395833333333485,
		  "durationTicks": 134,
		  "midi": 43,
		  "name": "G2",
		  "ticks": 217199,
		  "time": 226.24895833333332,
		  "velocity": 0.7007874015748031
		},
		{
		  "duration": 0.4427083333333144,
		  "durationTicks": 425,
		  "midi": 31,
		  "name": "G1",
		  "ticks": 217222,
		  "time": 226.27291666666667,
		  "velocity": 0.4566929133858268
		},
		{
		  "duration": 0.21041666666667425,
		  "durationTicks": 202,
		  "midi": 43,
		  "name": "G2",
		  "ticks": 217333,
		  "time": 226.38854166666667,
		  "velocity": 0.5118110236220472
		},
		{
		  "duration": 0.1510416666666572,
		  "durationTicks": 145,
		  "midi": 40,
		  "name": "E2",
		  "ticks": 217412,
		  "time": 226.47083333333333,
		  "velocity": 0.33070866141732286
		},
		{
		  "duration": 0.23229166666666856,
		  "durationTicks": 223,
		  "midi": 76,
		  "name": "E5",
		  "ticks": 217424,
		  "time": 226.48333333333332,
		  "velocity": 0.4015748031496063
		},
		{
		  "duration": 0.15104166666668561,
		  "durationTicks": 145,
		  "midi": 64,
		  "name": "E4",
		  "ticks": 217435,
		  "time": 226.49479166666666,
		  "velocity": 0.5196850393700787
		},
		{
		  "duration": 0.15104166666668561,
		  "durationTicks": 145,
		  "midi": 62,
		  "name": "D4",
		  "ticks": 217446,
		  "time": 226.50625,
		  "velocity": 0.3464566929133858
		},
		{
		  "duration": 0.19687499999997726,
		  "durationTicks": 189,
		  "midi": 43,
		  "name": "G2",
		  "ticks": 217535,
		  "time": 226.59895833333334,
		  "velocity": 0.5275590551181102
		},
		{
		  "duration": 0.1510416666666572,
		  "durationTicks": 145,
		  "midi": 76,
		  "name": "E5",
		  "ticks": 217646,
		  "time": 226.71458333333334,
		  "velocity": 0.5669291338582677
		},
		{
		  "duration": 0.19687500000000568,
		  "durationTicks": 189,
		  "midi": 31,
		  "name": "G1",
		  "ticks": 217646,
		  "time": 226.71458333333334,
		  "velocity": 0.49606299212598426
		},
		{
		  "duration": 0.1395833333333485,
		  "durationTicks": 134,
		  "midi": 57,
		  "name": "A3",
		  "ticks": 217769,
		  "time": 226.84270833333332,
		  "velocity": 0.44881889763779526
		},
		{
		  "duration": 0.1395833333333485,
		  "durationTicks": 134,
		  "midi": 64,
		  "name": "E4",
		  "ticks": 217780,
		  "time": 226.85416666666666,
		  "velocity": 0.5039370078740157
		},
		{
		  "duration": 0.23229166666666856,
		  "durationTicks": 223,
		  "midi": 76,
		  "name": "E5",
		  "ticks": 217892,
		  "time": 226.97083333333333,
		  "velocity": 0.5118110236220472
		},
		{
		  "duration": 0.18541666666666856,
		  "durationTicks": 178,
		  "midi": 33,
		  "name": "A1",
		  "ticks": 218092,
		  "time": 227.17916666666667,
		  "velocity": 0.3858267716535433
		},
		{
		  "duration": 0.13958333333332007,
		  "durationTicks": 134,
		  "midi": 57,
		  "name": "A3",
		  "ticks": 218092,
		  "time": 227.17916666666667,
		  "velocity": 0.3937007874015748
		},
		{
		  "duration": 0.20937499999999432,
		  "durationTicks": 201,
		  "midi": 40,
		  "name": "E2",
		  "ticks": 218103,
		  "time": 227.190625,
		  "velocity": 0.3779527559055118
		},
		{
		  "duration": 0.20937499999999432,
		  "durationTicks": 201,
		  "midi": 76,
		  "name": "E5",
		  "ticks": 218115,
		  "time": 227.203125,
		  "velocity": 0.41732283464566927
		},
		{
		  "duration": 0.13958333333332007,
		  "durationTicks": 134,
		  "midi": 69,
		  "name": "A4",
		  "ticks": 218115,
		  "time": 227.203125,
		  "velocity": 0.4881889763779528
		},
		{
		  "duration": 0.16249999999999432,
		  "durationTicks": 156,
		  "midi": 64,
		  "name": "E4",
		  "ticks": 218115,
		  "time": 227.203125,
		  "velocity": 0.5196850393700787
		},
		{
		  "duration": 0.15104166666668561,
		  "durationTicks": 145,
		  "midi": 45,
		  "name": "A2",
		  "ticks": 218159,
		  "time": 227.24895833333332,
		  "velocity": 0.3937007874015748
		},
		{
		  "duration": 0.15104166666668561,
		  "durationTicks": 145,
		  "midi": 50,
		  "name": "D3",
		  "ticks": 218337,
		  "time": 227.434375,
		  "velocity": 0.4566929133858268
		},
		{
		  "duration": 0.22083333333333144,
		  "durationTicks": 212,
		  "midi": 76,
		  "name": "E5",
		  "ticks": 218360,
		  "time": 227.45833333333334,
		  "velocity": 0.3779527559055118
		},
		{
		  "duration": 0.29062499999997726,
		  "durationTicks": 279,
		  "midi": 57,
		  "name": "A3",
		  "ticks": 218360,
		  "time": 227.45833333333334,
		  "velocity": 0.3779527559055118
		},
		{
		  "duration": 0.17395833333333144,
		  "durationTicks": 167,
		  "midi": 33,
		  "name": "A1",
		  "ticks": 218471,
		  "time": 227.57395833333334,
		  "velocity": 0.5118110236220472
		},
		{
		  "duration": 0.16250000000002274,
		  "durationTicks": 156,
		  "midi": 45,
		  "name": "A2",
		  "ticks": 218560,
		  "time": 227.66666666666666,
		  "velocity": 0.4409448818897638
		},
		{
		  "duration": 0.13958333333332007,
		  "durationTicks": 134,
		  "midi": 76,
		  "name": "E5",
		  "ticks": 218572,
		  "time": 227.67916666666667,
		  "velocity": 0.4645669291338583
		},
		{
		  "duration": 0.22083333333333144,
		  "durationTicks": 212,
		  "midi": 33,
		  "name": "A1",
		  "ticks": 218650,
		  "time": 227.76041666666666,
		  "velocity": 0.4251968503937008
		},
		{
		  "duration": 0.32499999999998863,
		  "durationTicks": 312,
		  "midi": 45,
		  "name": "A2",
		  "ticks": 218716,
		  "time": 227.82916666666668,
		  "velocity": 0.31496062992125984
		},
		{
		  "duration": 0.4416666666666629,
		  "durationTicks": 424,
		  "midi": 76,
		  "name": "E5",
		  "ticks": 218828,
		  "time": 227.94583333333333,
		  "velocity": 0.4330708661417323
		},
		{
		  "duration": 0.2552083333333428,
		  "durationTicks": 245,
		  "midi": 33,
		  "name": "A1",
		  "ticks": 219017,
		  "time": 228.14270833333333,
		  "velocity": 0.47244094488188976
		},
		{
		  "duration": 0.15104166666668561,
		  "durationTicks": 145,
		  "midi": 52,
		  "name": "E3",
		  "ticks": 219040,
		  "time": 228.16666666666666,
		  "velocity": 0.4015748031496063
		},
		{
		  "duration": 0.15104166666668561,
		  "durationTicks": 145,
		  "midi": 64,
		  "name": "E4",
		  "ticks": 219051,
		  "time": 228.178125,
		  "velocity": 0.5118110236220472
		},
		{
		  "duration": 0.23229166666666856,
		  "durationTicks": 223,
		  "midi": 45,
		  "name": "A2",
		  "ticks": 219051,
		  "time": 228.178125,
		  "velocity": 0.5118110236220472
		},
		{
		  "duration": 0.2333333333333485,
		  "durationTicks": 224,
		  "midi": 76,
		  "name": "E5",
		  "ticks": 219263,
		  "time": 228.39895833333333,
		  "velocity": 0.41732283464566927
		},
		{
		  "duration": 0.26875000000001137,
		  "durationTicks": 258,
		  "midi": 45,
		  "name": "A2",
		  "ticks": 219274,
		  "time": 228.41041666666666,
		  "velocity": 0.3543307086614173
		},
		{
		  "duration": 0.18541666666666856,
		  "durationTicks": 178,
		  "midi": 64,
		  "name": "E4",
		  "ticks": 219386,
		  "time": 228.52708333333334,
		  "velocity": 0.3700787401574803
		},
		{
		  "duration": 0.20937499999999432,
		  "durationTicks": 201,
		  "midi": 76,
		  "name": "E5",
		  "ticks": 219487,
		  "time": 228.63229166666667,
		  "velocity": 0.5039370078740157
		},
		{
		  "duration": 0.18541666666666856,
		  "durationTicks": 178,
		  "midi": 33,
		  "name": "A1",
		  "ticks": 219487,
		  "time": 228.63229166666667,
		  "velocity": 0.33858267716535434
		},
		{
		  "duration": 0.17395833333333144,
		  "durationTicks": 167,
		  "midi": 61,
		  "name": "C#4",
		  "ticks": 219498,
		  "time": 228.64375,
		  "velocity": 0.4566929133858268
		},
		{
		  "duration": 0.19687500000000568,
		  "durationTicks": 189,
		  "midi": 45,
		  "name": "A2",
		  "ticks": 219531,
		  "time": 228.678125,
		  "velocity": 0.5196850393700787
		},
		{
		  "duration": 0.3364583333333542,
		  "durationTicks": 323,
		  "midi": 64,
		  "name": "E4",
		  "ticks": 219743,
		  "time": 228.89895833333333,
		  "velocity": 0.4094488188976378
		},
		{
		  "duration": 0.23229166666666856,
		  "durationTicks": 223,
		  "midi": 76,
		  "name": "E5",
		  "ticks": 219843,
		  "time": 229.003125,
		  "velocity": 0.5590551181102362
		},
		{
		  "duration": 0.16250000000002274,
		  "durationTicks": 156,
		  "midi": 57,
		  "name": "A3",
		  "ticks": 219910,
		  "time": 229.07291666666666,
		  "velocity": 0.47244094488188976
		},
		{
		  "duration": 0.20937499999999432,
		  "durationTicks": 201,
		  "midi": 35,
		  "name": "B1",
		  "ticks": 219977,
		  "time": 229.14270833333333,
		  "velocity": 0.3700787401574803
		},
		{
		  "duration": 0.33645833333332575,
		  "durationTicks": 323,
		  "midi": 76,
		  "name": "E5",
		  "ticks": 220066,
		  "time": 229.23541666666668,
		  "velocity": 0.4251968503937008
		},
		{
		  "duration": 0.22083333333333144,
		  "durationTicks": 212,
		  "midi": 64,
		  "name": "E4",
		  "ticks": 220066,
		  "time": 229.23541666666668,
		  "velocity": 0.4409448818897638
		},
		{
		  "duration": 0.15104166666668561,
		  "durationTicks": 145,
		  "midi": 71,
		  "name": "B4",
		  "ticks": 220077,
		  "time": 229.246875,
		  "velocity": 0.5039370078740157
		},
		{
		  "duration": 0.22083333333333144,
		  "durationTicks": 212,
		  "midi": 45,
		  "name": "A2",
		  "ticks": 220077,
		  "time": 229.246875,
		  "velocity": 0.31496062992125984
		},
		{
		  "duration": 0.1395833333333485,
		  "durationTicks": 134,
		  "midi": 47,
		  "name": "B2",
		  "ticks": 220289,
		  "time": 229.46770833333332,
		  "velocity": 0.3858267716535433
		},
		{
		  "duration": 0.32499999999998863,
		  "durationTicks": 312,
		  "midi": 76,
		  "name": "E5",
		  "ticks": 220423,
		  "time": 229.60729166666667,
		  "velocity": 0.33070866141732286
		},
		{
		  "duration": 0.16249999999999432,
		  "durationTicks": 156,
		  "midi": 71,
		  "name": "B4",
		  "ticks": 220423,
		  "time": 229.60729166666667,
		  "velocity": 0.5039370078740157
		},
		{
		  "duration": 0.18541666666666856,
		  "durationTicks": 178,
		  "midi": 64,
		  "name": "E4",
		  "ticks": 220423,
		  "time": 229.60729166666667,
		  "velocity": 0.44881889763779526
		},
		{
		  "duration": 0.13958333333332007,
		  "durationTicks": 134,
		  "midi": 52,
		  "name": "E3",
		  "ticks": 220423,
		  "time": 229.60729166666667,
		  "velocity": 0.5039370078740157
		},
		{
		  "duration": 0.16249999999999432,
		  "durationTicks": 156,
		  "midi": 47,
		  "name": "B2",
		  "ticks": 220445,
		  "time": 229.63020833333334,
		  "velocity": 0.33858267716535434
		},
		{
		  "duration": 0.22083333333333144,
		  "durationTicks": 212,
		  "midi": 76,
		  "name": "E5",
		  "ticks": 220768,
		  "time": 229.96666666666667,
		  "velocity": 0.3464566929133858
		},
		{
		  "duration": 0.16249999999999432,
		  "durationTicks": 156,
		  "midi": 71,
		  "name": "B4",
		  "ticks": 220768,
		  "time": 229.96666666666667,
		  "velocity": 0.4409448818897638
		},
		{
		  "duration": 0.4885416666666629,
		  "durationTicks": 469,
		  "midi": 64,
		  "name": "E4",
		  "ticks": 220768,
		  "time": 229.96666666666667,
		  "velocity": 0.41732283464566927
		},
		{
		  "duration": 0.19687500000000568,
		  "durationTicks": 189,
		  "midi": 59,
		  "name": "B3",
		  "ticks": 220780,
		  "time": 229.97916666666666,
		  "velocity": 0.4330708661417323
		},
		{
		  "duration": 0.17395833333333144,
		  "durationTicks": 167,
		  "midi": 35,
		  "name": "B1",
		  "ticks": 220869,
		  "time": 230.071875,
		  "velocity": 0.4330708661417323
		},
		{
		  "duration": 0.24374999999997726,
		  "durationTicks": 234,
		  "midi": 47,
		  "name": "B2",
		  "ticks": 220880,
		  "time": 230.08333333333334,
		  "velocity": 0.5590551181102362
		},
		{
		  "duration": 0.13958333333332007,
		  "durationTicks": 134,
		  "midi": 76,
		  "name": "E5",
		  "ticks": 220980,
		  "time": 230.1875,
		  "velocity": 0.4881889763779528
		},
		{
		  "duration": 0.22187500000001137,
		  "durationTicks": 213,
		  "midi": 76,
		  "name": "E5",
		  "ticks": 221114,
		  "time": 230.32708333333332,
		  "velocity": 0.3937007874015748
		},
		{
		  "duration": 0.15208333333333712,
		  "durationTicks": 146,
		  "midi": 71,
		  "name": "B4",
		  "ticks": 221125,
		  "time": 230.33854166666666,
		  "velocity": 0.4566929133858268
		},
		{
		  "duration": 0.1395833333333485,
		  "durationTicks": 134,
		  "midi": 76,
		  "name": "E5",
		  "ticks": 221327,
		  "time": 230.54895833333333,
		  "velocity": 0.5039370078740157
		},
		{
		  "duration": 0.24375000000000568,
		  "durationTicks": 234,
		  "midi": 52,
		  "name": "E3",
		  "ticks": 221327,
		  "time": 230.54895833333333,
		  "velocity": 0.33858267716535434
		},
		{
		  "duration": 0.2552083333333428,
		  "durationTicks": 245,
		  "midi": 64,
		  "name": "E4",
		  "ticks": 221338,
		  "time": 230.56041666666667,
		  "velocity": 0.47244094488188976
		},
		{
		  "duration": 0.13958333333332007,
		  "durationTicks": 134,
		  "midi": 47,
		  "name": "B2",
		  "ticks": 221338,
		  "time": 230.56041666666667,
		  "velocity": 0.4015748031496063
		},
		{
		  "duration": 0.23229166666666856,
		  "durationTicks": 223,
		  "midi": 76,
		  "name": "E5",
		  "ticks": 221572,
		  "time": 230.80416666666667,
		  "velocity": 0.5196850393700787
		},
		{
		  "duration": 0.37187499999998863,
		  "durationTicks": 357,
		  "midi": 76,
		  "name": "E5",
		  "ticks": 221795,
		  "time": 231.03645833333334,
		  "velocity": 0.4015748031496063
		},
		{
		  "duration": 0.16249999999999432,
		  "durationTicks": 156,
		  "midi": 71,
		  "name": "B4",
		  "ticks": 221795,
		  "time": 231.03645833333334,
		  "velocity": 0.41732283464566927
		},
		{
		  "duration": 0.18541666666666856,
		  "durationTicks": 178,
		  "midi": 64,
		  "name": "E4",
		  "ticks": 221795,
		  "time": 231.03645833333334,
		  "velocity": 0.4015748031496063
		},
		{
		  "duration": 0.16249999999999432,
		  "durationTicks": 156,
		  "midi": 52,
		  "name": "E3",
		  "ticks": 221795,
		  "time": 231.03645833333334,
		  "velocity": 0.41732283464566927
		},
		{
		  "duration": 0.1510416666666572,
		  "durationTicks": 145,
		  "midi": 31,
		  "name": "G1",
		  "ticks": 221806,
		  "time": 231.04791666666668,
		  "velocity": 0.3779527559055118
		},
		{
		  "duration": 0.1395833333333485,
		  "durationTicks": 134,
		  "midi": 74,
		  "name": "D5",
		  "ticks": 222040,
		  "time": 231.29166666666666,
		  "velocity": 0.5511811023622047
		},
		{
		  "duration": 0.24375000000000568,
		  "durationTicks": 234,
		  "midi": 76,
		  "name": "E5",
		  "ticks": 222152,
		  "time": 231.40833333333333,
		  "velocity": 0.5275590551181102
		},
		{
		  "duration": 0.5916666666666401,
		  "durationTicks": 568,
		  "midi": 28,
		  "name": "E1",
		  "ticks": 222241,
		  "time": 231.50104166666668,
		  "velocity": 0.3543307086614173
		},
		{
		  "duration": 0.22083333333333144,
		  "durationTicks": 212,
		  "midi": 59,
		  "name": "B3",
		  "ticks": 222252,
		  "time": 231.5125,
		  "velocity": 0.33070866141732286
		},
		{
		  "duration": 0.15104166666668561,
		  "durationTicks": 145,
		  "midi": 40,
		  "name": "E2",
		  "ticks": 222252,
		  "time": 231.5125,
		  "velocity": 0.4251968503937008
		},
		{
		  "duration": 0.3604166666666515,
		  "durationTicks": 346,
		  "midi": 76,
		  "name": "E5",
		  "ticks": 222386,
		  "time": 231.65208333333334,
		  "velocity": 0.5039370078740157
		},
		{
		  "duration": 0.1510416666666572,
		  "durationTicks": 145,
		  "midi": 40,
		  "name": "E2",
		  "ticks": 222553,
		  "time": 231.82604166666667,
		  "velocity": 0.4330708661417323
		},
		{
		  "duration": 0.23229166666666856,
		  "durationTicks": 223,
		  "midi": 76,
		  "name": "E5",
		  "ticks": 222731,
		  "time": 232.01145833333334,
		  "velocity": 0.6456692913385826
		},
		{
		  "duration": 0.16249999999999432,
		  "durationTicks": 156,
		  "midi": 71,
		  "name": "B4",
		  "ticks": 222731,
		  "time": 232.01145833333334,
		  "velocity": 0.49606299212598426
		},
		{
		  "duration": 0.16249999999999432,
		  "durationTicks": 156,
		  "midi": 59,
		  "name": "B3",
		  "ticks": 222731,
		  "time": 232.01145833333334,
		  "velocity": 0.41732283464566927
		},
		{
		  "duration": 0.13958333333332007,
		  "durationTicks": 134,
		  "midi": 40,
		  "name": "E2",
		  "ticks": 222731,
		  "time": 232.01145833333334,
		  "velocity": 0.3464566929133858
		},
		{
		  "duration": 0.23333333333332007,
		  "durationTicks": 224,
		  "midi": 76,
		  "name": "E5",
		  "ticks": 222954,
		  "time": 232.24375,
		  "velocity": 0.6456692913385826
		},
		{
		  "duration": 0.46562499999998863,
		  "durationTicks": 447,
		  "midi": 59,
		  "name": "B3",
		  "ticks": 223066,
		  "time": 232.36041666666668,
		  "velocity": 0.36220472440944884
		},
		{
		  "duration": 0.140625,
		  "durationTicks": 135,
		  "midi": 40,
		  "name": "E2",
		  "ticks": 223077,
		  "time": 232.371875,
		  "velocity": 0.5748031496062992
		},
		{
		  "duration": 0.2552083333333428,
		  "durationTicks": 245,
		  "midi": 76,
		  "name": "E5",
		  "ticks": 223178,
		  "time": 232.47708333333333,
		  "velocity": 0.5196850393700787
		},
		{
		  "duration": 0.16250000000002274,
		  "durationTicks": 156,
		  "midi": 40,
		  "name": "E2",
		  "ticks": 223212,
		  "time": 232.5125,
		  "velocity": 0.5590551181102362
		},
		{
		  "duration": 0.22083333333335986,
		  "durationTicks": 212,
		  "midi": 76,
		  "name": "E5",
		  "ticks": 223424,
		  "time": 232.73333333333332,
		  "velocity": 0.5590551181102362
		},
		{
		  "duration": 0.15104166666668561,
		  "durationTicks": 145,
		  "midi": 52,
		  "name": "E3",
		  "ticks": 223435,
		  "time": 232.74479166666666,
		  "velocity": 0.4566929133858268
		},
		{
		  "duration": 0.24375000000000568,
		  "durationTicks": 234,
		  "midi": 76,
		  "name": "E5",
		  "ticks": 223635,
		  "time": 232.953125,
		  "velocity": 0.6377952755905512
		},
		{
		  "duration": 0.20937499999999432,
		  "durationTicks": 201,
		  "midi": 31,
		  "name": "G1",
		  "ticks": 223646,
		  "time": 232.96458333333334,
		  "velocity": 0.5354330708661418
		},
		{
		  "duration": 0.3947916666666629,
		  "durationTicks": 379,
		  "midi": 43,
		  "name": "G2",
		  "ticks": 223747,
		  "time": 233.06979166666667,
		  "velocity": 0.4094488188976378
		},
		{
		  "duration": 0.5229166666666458,
		  "durationTicks": 502,
		  "midi": 40,
		  "name": "E2",
		  "ticks": 223758,
		  "time": 233.08125,
		  "velocity": 0.3543307086614173
		},
		{
		  "duration": 0.16250000000002274,
		  "durationTicks": 156,
		  "midi": 59,
		  "name": "B3",
		  "ticks": 223769,
		  "time": 233.09270833333332,
		  "velocity": 0.44881889763779526
		},
		{
		  "duration": 0.23229166666666856,
		  "durationTicks": 223,
		  "midi": 76,
		  "name": "E5",
		  "ticks": 223869,
		  "time": 233.196875,
		  "velocity": 0.5590551181102362
		},
		{
		  "duration": 0.1510416666666572,
		  "durationTicks": 145,
		  "midi": 64,
		  "name": "E4",
		  "ticks": 223903,
		  "time": 233.23229166666667,
		  "velocity": 0.4330708661417323
		},
		{
		  "duration": 0.2666666666666515,
		  "durationTicks": 256,
		  "midi": 31,
		  "name": "G1",
		  "ticks": 224081,
		  "time": 233.41770833333334,
		  "velocity": 0.5275590551181102
		},
		{
		  "duration": 0.19687500000000568,
		  "durationTicks": 189,
		  "midi": 76,
		  "name": "E5",
		  "ticks": 224115,
		  "time": 233.453125,
		  "velocity": 0.33858267716535434
		},
		{
		  "duration": 0.19687500000000568,
		  "durationTicks": 189,
		  "midi": 43,
		  "name": "G2",
		  "ticks": 224126,
		  "time": 233.46458333333334,
		  "velocity": 0.48031496062992124
		},
		{
		  "duration": 0.27812499999998863,
		  "durationTicks": 267,
		  "midi": 43,
		  "name": "G2",
		  "ticks": 224315,
		  "time": 233.66145833333334,
		  "velocity": 0.4094488188976378
		},
		{
		  "duration": 0.22083333333333144,
		  "durationTicks": 212,
		  "midi": 76,
		  "name": "E5",
		  "ticks": 224460,
		  "time": 233.8125,
		  "velocity": 0.3937007874015748
		},
		{
		  "duration": 0.20937499999999432,
		  "durationTicks": 201,
		  "midi": 31,
		  "name": "G1",
		  "ticks": 224572,
		  "time": 233.92916666666667,
		  "velocity": 0.5275590551181102
		},
		{
		  "duration": 0.5239583333333258,
		  "durationTicks": 503,
		  "midi": 43,
		  "name": "G2",
		  "ticks": 224583,
		  "time": 233.940625,
		  "velocity": 0.4645669291338583
		},
		{
		  "duration": 0.2552083333333428,
		  "durationTicks": 245,
		  "midi": 76,
		  "name": "E5",
		  "ticks": 224672,
		  "time": 234.03333333333333,
		  "velocity": 0.4094488188976378
		},
		{
		  "duration": 0.13958333333332007,
		  "durationTicks": 134,
		  "midi": 69,
		  "name": "A4",
		  "ticks": 224806,
		  "time": 234.17291666666668,
		  "velocity": 0.4566929133858268
		},
		{
		  "duration": 0.22187499999998295,
		  "durationTicks": 213,
		  "midi": 76,
		  "name": "E5",
		  "ticks": 224917,
		  "time": 234.28854166666667,
		  "velocity": 0.5669291338582677
		},
		{
		  "duration": 0.21041666666667425,
		  "durationTicks": 202,
		  "midi": 31,
		  "name": "G1",
		  "ticks": 225029,
		  "time": 234.40520833333332,
		  "velocity": 0.48031496062992124
		},
		{
		  "duration": 0.13958333333332007,
		  "durationTicks": 134,
		  "midi": 40,
		  "name": "E2",
		  "ticks": 225086,
		  "time": 234.46458333333334,
		  "velocity": 0.4094488188976378
		},
		{
		  "duration": 0.33645833333332575,
		  "durationTicks": 323,
		  "midi": 76,
		  "name": "E5",
		  "ticks": 225264,
		  "time": 234.65,
		  "velocity": 0.4015748031496063
		},
		{
		  "duration": 0.13958333333332007,
		  "durationTicks": 134,
		  "midi": 43,
		  "name": "G2",
		  "ticks": 225264,
		  "time": 234.65,
		  "velocity": 0.2992125984251969
		},
		{
		  "duration": 0.4291666666666458,
		  "durationTicks": 412,
		  "midi": 33,
		  "name": "A1",
		  "ticks": 225453,
		  "time": 234.846875,
		  "velocity": 0.3543307086614173
		},
		{
		  "duration": 0.4177083333333371,
		  "durationTicks": 401,
		  "midi": 40,
		  "name": "E2",
		  "ticks": 225464,
		  "time": 234.85833333333332,
		  "velocity": 0.4094488188976378
		},
		{
		  "duration": 0.19687500000000568,
		  "durationTicks": 189,
		  "midi": 45,
		  "name": "A2",
		  "ticks": 225476,
		  "time": 234.87083333333334,
		  "velocity": 0.28346456692913385
		},
		{
		  "duration": 0.13958333333332007,
		  "durationTicks": 134,
		  "midi": 57,
		  "name": "A3",
		  "ticks": 225487,
		  "time": 234.88229166666667,
		  "velocity": 0.3858267716535433
		},
		{
		  "duration": 0.1395833333333485,
		  "durationTicks": 134,
		  "midi": 76,
		  "name": "E5",
		  "ticks": 225587,
		  "time": 234.98645833333333,
		  "velocity": 0.5275590551181102
		},
		{
		  "duration": 0.23229166666664014,
		  "durationTicks": 223,
		  "midi": 76,
		  "name": "E5",
		  "ticks": 225721,
		  "time": 235.12604166666668,
		  "velocity": 0.6299212598425197
		},
		{
		  "duration": 0.24375000000000568,
		  "durationTicks": 234,
		  "midi": 76,
		  "name": "E5",
		  "ticks": 225944,
		  "time": 235.35833333333332,
		  "velocity": 0.6850393700787402
		},
		{
		  "duration": 0.7895833333333258,
		  "durationTicks": 758,
		  "midi": 38,
		  "name": "D2",
		  "ticks": 225966,
		  "time": 235.38125,
		  "velocity": 0.49606299212598426
		},
		{
		  "duration": 0.24375000000000568,
		  "durationTicks": 234,
		  "midi": 76,
		  "name": "E5",
		  "ticks": 226178,
		  "time": 235.60208333333333,
		  "velocity": 0.7007874015748031
		},
		{
		  "duration": 0.23229166666666856,
		  "durationTicks": 223,
		  "midi": 76,
		  "name": "E5",
		  "ticks": 226412,
		  "time": 235.84583333333333,
		  "velocity": 0.7086614173228346
		},
		{
		  "duration": 0.2552083333333428,
		  "durationTicks": 245,
		  "midi": 76,
		  "name": "E5",
		  "ticks": 226635,
		  "time": 236.078125,
		  "velocity": 0.7795275590551181
		},
		{
		  "duration": 1.0229166666666742,
		  "durationTicks": 982,
		  "midi": 38,
		  "name": "D2",
		  "ticks": 226735,
		  "time": 236.18229166666666,
		  "velocity": 0.5118110236220472
		},
		{
		  "duration": 0.15208333333333712,
		  "durationTicks": 146,
		  "midi": 100,
		  "name": "E7",
		  "ticks": 226869,
		  "time": 236.321875,
		  "velocity": 0.33070866141732286
		},
		{
		  "duration": 0.22187499999998295,
		  "durationTicks": 213,
		  "midi": 76,
		  "name": "E5",
		  "ticks": 226880,
		  "time": 236.33333333333334,
		  "velocity": 0.8188976377952756
		},
		{
		  "duration": 0.24375000000000568,
		  "durationTicks": 234,
		  "midi": 76,
		  "name": "E5",
		  "ticks": 227093,
		  "time": 236.55520833333333,
		  "velocity": 0.8188976377952756
		},
		{
		  "duration": 0.26666666666667993,
		  "durationTicks": 256,
		  "midi": 100,
		  "name": "E7",
		  "ticks": 227104,
		  "time": 236.56666666666666,
		  "velocity": 0.29133858267716534
		},
		{
		  "duration": 0.24375000000000568,
		  "durationTicks": 234,
		  "midi": 76,
		  "name": "E5",
		  "ticks": 227327,
		  "time": 236.79895833333333,
		  "velocity": 0.8188976377952756
		},
		{
		  "duration": 0.24375000000000568,
		  "durationTicks": 234,
		  "midi": 76,
		  "name": "E5",
		  "ticks": 227561,
		  "time": 237.04270833333334,
		  "velocity": 0.8188976377952756
		},
		{
		  "duration": 0.6270833333333314,
		  "durationTicks": 602,
		  "midi": 100,
		  "name": "E7",
		  "ticks": 227784,
		  "time": 237.275,
		  "velocity": 0.2992125984251969
		},
		{
		  "duration": 0.23229166666666856,
		  "durationTicks": 223,
		  "midi": 76,
		  "name": "E5",
		  "ticks": 227795,
		  "time": 237.28645833333334,
		  "velocity": 0.8110236220472441
		},
		{
		  "duration": 0.48749999999998295,
		  "durationTicks": 468,
		  "midi": 76,
		  "name": "E5",
		  "ticks": 228018,
		  "time": 237.51875,
		  "velocity": 0.8031496062992126
		},
		{
		  "duration": 0.24375000000000568,
		  "durationTicks": 234,
		  "midi": 76,
		  "name": "E5",
		  "ticks": 228486,
		  "time": 238.00625,
		  "velocity": 0.8188976377952756
		},
		{
		  "duration": 0.1395833333333485,
		  "durationTicks": 134,
		  "midi": 100,
		  "name": "E7",
		  "ticks": 228709,
		  "time": 238.23854166666666,
		  "velocity": 0.30708661417322836
		},
		{
		  "duration": 0.23333333333332007,
		  "durationTicks": 224,
		  "midi": 76,
		  "name": "E5",
		  "ticks": 228720,
		  "time": 238.25,
		  "velocity": 0.8110236220472441
		},
		{
		  "duration": 0.5458333333333485,
		  "durationTicks": 524,
		  "midi": 76,
		  "name": "E5",
		  "ticks": 228944,
		  "time": 238.48333333333332,
		  "velocity": 0.7795275590551181
		}
	  ],
	  "endOfTrackTicks": 237576
	}
  ]
}
