{
  "accessors": [
    {
      "bufferView": 2,
      "componentType": 5126,
      "count": 3644,
      "max": [
        0.375940203666687,
        1.6618868112564087,
        5.291630268096924
      ],
      "min": [
        -0.375940203666687,
        -1.314499020576477,
        -2.436192512512207
      ],
      "type": "VEC3"
    },
    {
      "bufferView": 2,
      "byteOffset": 43728,
      "componentType": 5126,
      "count": 3644,
      "max": [
        1.0,
        1.0,
        1.0
      ],
      "min": [
        -1.0,
        -1.0,
        -1.0
      ],
      "type": "VEC3"
    },
    {
      "bufferView": 1,
      "componentType": 5126,
      "count": 3644,
      "max": [
        0.37500014901161194,
        0.7500001192092896
      ],
      "min": [
        0.0,
        0.0
      ],
      "type": "VEC2"
    },
    {
      "bufferView": 0,
      "componentType": 5125,
      "count": 6954,
      "type": "SCALAR"
    },
    {
      "bufferView": 2,
      "byteOffset": 87456,
      "componentType": 5126,
      "count": 446,
      "max": [
        0.375940203666687,
        1.6164814233779907,
        5.14513635635376
      ],
      "min": [
        -0.375940203666687,
        0.475380539894104,
        -1.434656023979187
      ],
      "type": "VEC3"
    },
    {
      "bufferView": 2,
      "byteOffset": 92808,
      "componentType": 5126,
      "count": 446,
      "max": [
        1.0,
        1.0,
        0.9999980926513672
      ],
      "min": [
        -1.0,
        -1.0,
        -0.9999980330467224
      ],
      "type": "VEC3"
    },
    {
      "bufferView": 1,
      "byteOffset": 29152,
      "componentType": 5126,
      "count": 446,
      "max": [
        0.3750000596046448,
        0.7500001192092896
      ],
      "min": [
        0.0,
        0.0
      ],
      "type": "VEC2"
    },
    {
      "bufferView": 0,
      "byteOffset": 27816,
      "componentType": 5125,
      "count": 990,
      "type": "SCALAR"
    },
    {
      "bufferView": 2,
      "byteOffset": 98160,
      "componentType": 5126,
      "count": 316,
      "max": [
        1.0010626316070557,
        1.0,
        0.9976096749305725
      ],
      "min": [
        -1.0010626316070557,
        -1.0,
        -1.0010628700256348
      ],
      "type": "VEC3"
    },
    {
      "bufferView": 2,
      "byteOffset": 101952,
      "componentType": 5126,
      "count": 316,
      "max": [
        0.9972941875457764,
        1.0,
        0.9985209107398987
      ],
      "min": [
        -0.998308539390564,
        -1.0,
        -0.9983169436454773
      ],
      "type": "VEC3"
    },
    {
      "bufferView": 1,
      "byteOffset": 32720,
      "componentType": 5126,
      "count": 316,
      "max": [
        0.9881085157394409,
        1.0
      ],
      "min": [
        0.0,
        0.01272008940577507
      ],
      "type": "VEC2"
    },
    {
      "bufferView": 0,
      "byteOffset": 31776,
      "componentType": 5125,
      "count": 657,
      "type": "SCALAR"
    },
    {
      "bufferView": 2,
      "byteOffset": 105744,
      "componentType": 5126,
      "count": 192,
      "max": [
        0.7001987099647522,
        1.0,
        0.8823089599609375
      ],
      "min": [
        -0.6993855237960815,
        0.535150945186615,
        -0.8350744843482971
      ],
      "type": "VEC3"
    },
    {
      "bufferView": 2,
      "byteOffset": 108048,
      "componentType": 5126,
      "count": 192,
      "max": [
        1.0,
        6.411182340571031e-08,
        1.0
      ],
      "min": [
        -1.0,
        -6.411182340571031e-08,
        -1.0
      ],
      "type": "VEC3"
    },
    {
      "bufferView": 1,
      "byteOffset": 35248,
      "componentType": 5126,
      "count": 192,
      "max": [
        0.8273826837539673,
        0.75
      ],
      "min": [
        0.17261731624603271,
        0.0
      ],
      "type": "VEC2"
    },
    {
      "bufferView": 0,
      "byteOffset": 34404,
      "componentType": 5125,
      "count": 288,
      "type": "SCALAR"
    },
    {
      "bufferView": 2,
      "byteOffset": 110352,
      "componentType": 5126,
      "count": 190,
      "max": [
        1.0010626316070557,
        0.535150945186615,
        0.9976096749305725
      ],
      "min": [
        -0.9995035529136658,
        -1.0,
        -0.9994503259658813
      ],
      "type": "VEC3"
    },
    {
      "bufferView": 2,
      "byteOffset": 112632,
      "componentType": 5126,
      "count": 190,
      "max": [
        0.9973012804985046,
        1.0,
        0.9985284805297852
      ],
      "min": [
        -0.9979982972145081,
        -1.0,
        -0.9980175495147705
      ],
      "type": "VEC3"
    },
    {
      "bufferView": 1,
      "byteOffset": 36784,
      "componentType": 5126,
      "count": 190,
      "max": [
        0.9871827363967896,
        1.0
      ],
      "min": [
        0.0,
        0.5
      ],
      "type": "VEC2"
    },
    {
      "bufferView": 0,
      "byteOffset": 35556,
      "componentType": 5125,
      "count": 372,
      "type": "SCALAR"
    },
    {
      "bufferView": 2,
      "byteOffset": 114912,
      "componentType": 5126,
      "count": 696,
      "max": [
        0.9019119143486023,
        0.2958245575428009,
        1.356122374534607
      ],
      "min": [
        0.22506535053253174,
        -1.4074422121047974,
        0.09533669054508209
      ],
      "type": "VEC3"
    },
    {
      "bufferView": 2,
      "byteOffset": 123264,
      "componentType": 5126,
      "count": 696,
      "max": [
        1.0,
        0.9883326292037964,
        0.9911453127861023
      ],
      "min": [
        -1.0,
        -0.9998915195465088,
        -0.9702126383781433
      ],
      "type": "VEC3"
    },
    {
      "bufferView": 1,
      "byteOffset": 38304,
      "componentType": 5126,
      "count": 696,
      "max": [
        0.875,
        0.980267345905304
      ],
      "min": [
        0.12310655415058136,
        0.0
      ],
      "type": "VEC2"
    },
    {
      "bufferView": 0,
      "byteOffset": 37044,
      "componentType": 5125,
      "count": 996,
      "type": "SCALAR"
    },
    {
      "bufferView": 2,
      "byteOffset": 131616,
      "componentType": 5126,
      "count": 328,
      "max": [
        1.0149930715560913,
        2.5367321968078613,
        1.2110220193862915
      ],
      "min": [
        -1.0108078718185425,
        -1.0,
        -2.785646438598633
      ],
      "type": "VEC3"
    },
    {
      "bufferView": 2,
      "byteOffset": 135552,
      "componentType": 5126,
      "count": 328,
      "max": [
        0.9956952929496765,
        0.999999463558197,
        0.9999193549156189
      ],
      "min": [
        -0.9964001774787903,
        -0.9999986886978149,
        -0.9997109770774841
      ],
      "type": "VEC3"
    },
    {
      "bufferView": 1,
      "byteOffset": 43872,
      "componentType": 5126,
      "count": 328,
      "max": [
        1.0,
        1.0
      ],
      "min": [
        0.0,
        0.5
      ],
      "type": "VEC2"
    },
    {
      "bufferView": 0,
      "byteOffset": 41028,
      "componentType": 5125,
      "count": 432,
      "type": "SCALAR"
    }
  ],
  "asset": {
    "extras": {
      "author": "Mxrcelical (https://sketchfab.com/Makoi)",
      "license": "CC-BY-4.0 (http://creativecommons.org/licenses/by/4.0/)",
      "source": "https://sketchfab.com/3d-models/futuristic-r0v-revolver-084d5f7e5186481ab49b26288b169520",
      "title": "Futuristic R0V Revolver"
    },
    "generator": "Sketchfab-12.96.0",
    "version": "2.0"
  },
  "bufferViews": [
    {
      "buffer": 0,
      "byteLength": 42756,
      "name": "floatBufferViews",
      "target": 34963
    },
    {
      "buffer": 0,
      "byteLength": 46496,
      "byteOffset": 42756,
      "byteStride": 8,
      "name": "floatBufferViews",
      "target": 34962
    },
    {
      "buffer": 0,
      "byteLength": 139488,
      "byteOffset": 89252,
      "byteStride": 12,
      "name": "floatBufferViews",
      "target": 34962
    }
  ],
  "buffers": [
    {
      "byteLength": 228740,
      "uri": "scene.bin"
    }
  ],
  "materials": [
    {
      "doubleSided": true,
      "name": "material",
      "pbrMetallicRoughness": {
        "baseColorFactor": [
          0.0,
          0.0,
          0.0,
          1.0
        ],
        "metallicFactor": 0.0,
        "roughnessFactor": 0.0
      }
    },
    {
      "doubleSided": true,
      "emissiveFactor": [
        0.09675229312568154,
        0.0,
        1.0
      ],
      "name": "Emissive_Purple",
      "pbrMetallicRoughness": {
        "baseColorFactor": [
          0.0128793,
          0.0,
          0.031061,
          1.0
        ],
        "metallicFactor": 0.0,
        "roughnessFactor": 0.25
      }
    },
    {
      "doubleSided": true,
      "name": "Round__Barrel",
      "pbrMetallicRoughness": {
        "baseColorFactor": [
          0.0090181,
          0.0090181,
          0.0090181,
          1.0
        ],
        "metallicFactor": 0.0,
        "roughnessFactor": 0.25
      }
    }
  ],
  "meshes": [
    {
      "name": "Object_0",
      "primitives": [
        {
          "attributes": {
            "NORMAL": 1,
            "POSITION": 0,
            "TEXCOORD_0": 2
          },
          "indices": 3,
          "material": 0,
          "mode": 4
        }
      ]
    },
    {
      "name": "Object_1",
      "primitives": [
        {
          "attributes": {
            "NORMAL": 5,
            "POSITION": 4,
            "TEXCOORD_0": 6
          },
          "indices": 7,
          "material": 1,
          "mode": 4
        }
      ]
    },
    {
      "name": "Object_2",
      "primitives": [
        {
          "attributes": {
            "NORMAL": 9,
            "POSITION": 8,
            "TEXCOORD_0": 10
          },
          "indices": 11,
          "material": 0,
          "mode": 4
        }
      ]
    },
    {
      "name": "Object_3",
      "primitives": [
        {
          "attributes": {
            "NORMAL": 13,
            "POSITION": 12,
            "TEXCOORD_0": 14
          },
          "indices": 15,
          "material": 2,
          "mode": 4
        }
      ]
    },
    {
      "name": "Object_4",
      "primitives": [
        {
          "attributes": {
            "NORMAL": 17,
            "POSITION": 16,
            "TEXCOORD_0": 18
          },
          "indices": 19,
          "material": 1,
          "mode": 4
        }
      ]
    },
    {
      "name": "Object_5",
      "primitives": [
        {
          "attributes": {
            "NORMAL": 21,
            "POSITION": 20,
            "TEXCOORD_0": 22
          },
          "indices": 23,
          "material": 0,
          "mode": 4
        }
      ]
    },
    {
      "name": "Object_6",
      "primitives": [
        {
          "attributes": {
            "NORMAL": 25,
            "POSITION": 24,
            "TEXCOORD_0": 26
          },
          "indices": 27,
          "material": 2,
          "mode": 4
        }
      ]
    }
  ],
  "nodes": [
    {
      "children": [
        1
      ],
      "matrix": [
        0.9991926550865173,
        0.03896291181445122,
        -0.009791345335543147,
        0.0,
        -0.009798785671591759,
        4.825948379413205e-16,
        -0.9999520182609558,
        0.0,
        -0.03896104171872139,
        0.9992406368255615,
        0.0003817892284134759,
        0.0,
        0.0,
        0.0,
        0.0,
        1.0
      ],
      "name": "Sketchfab_model"
    },
    {
      "children": [
        2
      ],
      "name": "root"
    },
    {
      "children": [
        3,
        6,
        10,
        12
      ],
      "matrix": [
        1.0,
        0.0,
        0.0,
        0.0,
        0.0,
        2.220446049250313e-16,
        1.0,
        0.0,
        0.0,
        -1.0,
        2.220446049250313e-16,
        0.0,
        0.0,
        0.0,
        0.0,
        1.0
      ],
      "name": "GLTF_SceneRootNode"
    },
    {
      "children": [
        4,
        5
      ],
      "matrix": [
        0.1817096769809723,
        0.0,
        0.0,
        0.0,
        0.0,
        0.2799031138420105,
        0.0,
        0.0,
        0.0,
        0.0,
        0.2799031138420105,
        0.0,
        0.0,
        0.0,
        0.0,
        1.0
      ],
      "name": "Gun_5"
    },
    {
      "mesh": 0,
      "name": "Object_4"
    },
    {
      "mesh": 1,
      "name": "Object_5"
    },
    {
      "children": [
        7,
        8,
        9
      ],
      "matrix": [
        0.10599999874830246,
        0.0,
        0.0,
        0.0,
        0.0,
        1.5513840753438908e-08,
        0.1840450912713998,
        0.0,
        0.0,
        -0.10592943429946863,
        8.929183405388667e-09,
        0.0,
        0.0,
        0.2743026912212372,
        -0.013725056312978268,
        1.0
      ],
      "name": "Round_6"
    },
    {
      "mesh": 2,
      "name": "Object_7"
    },
    {
      "mesh": 3,
      "name": "Object_8"
    },
    {
      "mesh": 4,
      "name": "Object_9"
    },
    {
      "children": [
        11
      ],
      "matrix": [
        0.041413649916648865,
        0.0,
        0.0,
        0.0,
        0.0,
        0.06794881820678711,
        0.0,
        0.0,
        0.0,
        0.0,
        0.06794881820678711,
        0.0,
        -0.025215890258550644,
        0.0651116818189621,
        -0.2513282895088196,
        1.0
      ],
      "name": "Trigger_7"
    },
    {
      "mesh": 5,
      "name": "Object_11"
    },
    {
      "children": [
        13
      ],
      "matrix": [
        -0.024669453501701355,
        -0.0,
        -0.0,
        -0.0,
        0.0,
        0.0,
        0.26869821548461914,
        0.0,
        -0.0,
        0.024669453501701355,
        -0.0,
        -0.0,
        0.004275392275303602,
        0.3598373234272003,
        0.8138066530227661,
        1.0
      ],
      "name": "Barrel_8"
    },
    {
      "mesh": 6,
      "name": "Object_13"
    }
  ],
  "scene": 0,
  "scenes": [
    {
      "name": "Sketchfab_Scene",
      "nodes": [
        0
      ]
    }
  ]
}
